<?xml version="1.0" standalone="no"?>
<!DOCTYPE svg PUBLIC "-//W3C//DTD SVG 1.1//EN" "http://www.w3.org/Graphics/SVG/1.1/DTD/svg11.dtd" >
<svg xmlns="http://www.w3.org/2000/svg" xmlns:xlink="http://www.w3.org/1999/xlink" version="1.1">
<metadata>
Created by FontForge 20190801 at Thu Jan 21 17:00:16 2021
 By www-data
Copyright (c) 1997, 2009 American Mathematical Society (&#60;http://www.ams.org&#62;), with Reserved Font Name CMR12.
</metadata>
<defs>
<font id="cmr12" horiz-adv-x="489" >
  <font-face 
    font-family="cmr12"
    font-weight="500"
    font-stretch="normal"
    units-per-em="1000"
    panose-1="2 0 6 3 0 0 0 0 0 0"
    ascent="800"
    descent="-200"
    x-height="431"
    cap-height="683"
    bbox="-34 -251 988 750"
    underline-thickness="50"
    underline-position="-100"
    unicode-range="U+0020-FB04"
  />
<missing-glyph horiz-adv-x="500" 
 />
    <glyph glyph-name=".notdef" horiz-adv-x="500" 
 />
    <glyph glyph-name=".null" horiz-adv-x="0" 
 />
    <glyph glyph-name="nonmarkingreturn" horiz-adv-x="333" 
 />
    <glyph glyph-name="Gamma" unicode="&#x393;" horiz-adv-x="611" 
d="M544 681l26 -223h-22q-11 111 -45 152.5t-133 41.5h-107q-32 0 -39 -7t-7 -33v-535q0 -30 14 -39t75 -9h30v-29q-29 2 -152 2q-119 0 -143 -2v29h20q51 0 63 8.5t12 38.5v529q0 30 -12 38.5t-63 8.5h-20v29h503z" />
    <glyph glyph-name="Delta" unicode="&#x2206;" horiz-adv-x="815" 
d="M431 696l334 -676q4 -6 4 -13q0 -5 -3 -6t-18 -1h-681q-15 0 -18 1t-3 6q0 7 4 13l334 676q6 11 9.5 14.5t14.5 3.5q10 0 13.5 -3.5t9.5 -14.5zM377 622l-272 -553h545z" />
    <glyph glyph-name="Theta" unicode="&#x398;" horiz-adv-x="761" 
d="M707 339q0 -150 -96 -255t-231 -105q-133 0 -229.5 104.5t-96.5 255.5q0 153 96.5 259t230.5 106q132 0 229 -106t97 -259zM381 0q31 0 63 11t64 37t56.5 64t39.5 97t15 131q0 88 -22 156.5t-57.5 108t-76.5 59.5t-83 20q-40 0 -80.5 -19.5t-76.5 -58.5t-58.5 -108.5
t-22.5 -157.5t22.5 -156t58.5 -106.5t76.5 -58t81.5 -19.5zM564 411v-137h-22v34h-323v-34h-22v137h22v-34h323v34h22z" />
    <glyph glyph-name="Lambda" unicode="&#x39b;" horiz-adv-x="679" 
d="M361 693l202 -626q8 -27 24 -32.5t61 -5.5v-29q-26 2 -117 2q-105 0 -128 -2v29q77 0 77 30q0 4 -5 18l-164 506l-156 -481q-5 -15 -5 -22q0 -19 17.5 -34.5t52.5 -16.5v-29q-25 2 -101 2q-45 0 -88 -2v29q73 2 94 67l194 600q6 18 20 18q9 0 13.5 -3.5t8.5 -17.5z" />
    <glyph glyph-name="Xi" unicode="&#x39e;" horiz-adv-x="652" 
d="M598 678l8 -150h-22q0 55 -11 76q-6 10 -76 10h-342q-69 0 -75 -8q-8 -12 -12 -78h-22l8 150h544zM49 0l-8 161h22q4 -74 12 -87q6 -10 79 -10h344q73 0 80 11q7 15 11 86h22l-8 -161h-554zM516 432v-158h-22v47h-336v-47h-22v158h22v-47h336v47h22z" />
    <glyph glyph-name="Pi" unicode="&#x3a0;" horiz-adv-x="734" 
d="M597 605v-529q0 -30 12 -38.5t63 -8.5h20v-29q-24 2 -136 2q-111 0 -135 -2v29h20q51 0 63 8.5t12 38.5v576h-299v-576q0 -30 12 -38.5t63 -8.5h20v-29q-24 2 -136 2q-111 0 -135 -2v29h20q51 0 63 8.5t12 38.5v529q0 30 -12 38.5t-63 8.5h-20v29h651v-29h-20
q-51 0 -63 -8.5t-12 -38.5z" />
    <glyph glyph-name="Sigma" unicode="&#x3a3;" horiz-adv-x="707" 
d="M354 325l-242 -286h277q126 0 177 37.5t64 156.5h22l-26 -233h-547q-24 0 -24 10q0 5 10 16l232 274l-243 360q0 17 3.5 20t21.5 3h547l26 -223h-22q-14 117 -62.5 155.5t-175.5 38.5h-236l202 -300q6 -8 6 -12t-10 -17z" />
    <glyph glyph-name="Upsilon" unicode="&#x3a5;" horiz-adv-x="761" 
d="M421 352v-275q0 -30 14 -39t75 -9h30v-29q-29 2 -160 2q-130 0 -159 -2v29h30q61 0 75 9t14 39v275q0 23 -1.5 48.5t-11 70.5t-25 78.5t-47 59t-74.5 25.5q-39 0 -67.5 -22.5t-32.5 -58.5q-1 -10 -3 -13t-10 -3q-9 0 -11.5 3.5t-2.5 12.5q0 50 33 100.5t95 50.5
q33 0 61 -12t47 -29.5t35 -43t25 -47t16 -48t9.5 -39.5t4.5 -27h1q17 117 69 181.5t129 64.5q62 0 95 -50t33 -101q0 -9 -2.5 -12.5t-11.5 -3.5q-8 0 -10 3t-3 12q-4 38 -32.5 60t-67.5 22q-42 0 -73 -24.5t-47 -57.5t-25.5 -76.5t-11.5 -71t-2 -52.5z" />
    <glyph glyph-name="Phi" unicode="&#x3a6;" horiz-adv-x="707" 
d="M389 132v-55q0 -30 14 -39t75 -9h30v-29q-27 2 -157 2t-157 -2v29h30q61 0 75 9t14 39v56q-113 10 -186 70.5t-73 138.5q0 76 73 137t186 71v56q0 30 -14 39t-75 9h-30v29q27 -2 157 -2t157 2v-29h-30q-61 0 -75 -9t-14 -39v-55q112 -10 187.5 -70t75.5 -140
q0 -78 -75 -138.5t-188 -70.5zM313 154v375q-168 -21 -168 -188q0 -165 168 -187zM389 530v-377q172 23 172 189t-172 188z" />
    <glyph glyph-name="Psi" unicode="&#x3a8;" horiz-adv-x="761" 
d="M416 606v-451q142 34 144 246q0 65 14 100.5t31.5 44.5t44.5 9h33q24 0 24 -10q0 -8 -12 -10q-59 -8 -59 -115q-2 -260 -220 -287v-56q0 -30 14 -39t75 -9h30v-29q-27 2 -157 2t-157 -2v29h30q61 0 75 9t14 39v56q-104 14 -159 84t-56 180q-1 69 -14 101t-46 37
q-10 3 -10 10q0 10 24 10h32q45 0 67 -33.5t23 -107.5q0 -224 139 -258v450q0 30 -14 39t-75 9h-30v29q27 -2 157 -2t157 2v-29h-30q-61 0 -75 -9t-14 -39z" />
    <glyph glyph-name="Omega" unicode="&#x2126;" horiz-adv-x="707" 
d="M662 156l-32 -156h-154q-17 0 -21 2.5t-4 16.5q0 64 52 211q56 148 56 225q0 108 -62 168.5t-144 60.5t-144 -60.5t-62 -168.5q0 -36 9 -78.5t18.5 -69.5t28.5 -80q52 -133 52 -209q0 -13 -3.5 -15.5t-20.5 -2.5h-155l-32 156h22q12 -59 18 -74q4 -13 15 -18t51 -5h79
q-5 27 -18 56t-26 50t-39 62q-30 47 -46 75t-31 71t-15 81q0 103 87 176.5t212 73.5t212 -73t87 -177q0 -39 -15 -82t-31 -71.5t-47 -75.5q-69 -104 -82 -166h79q40 0 51 5t15 19q8 21 18 73h22z" />
    <glyph glyph-name="ff" unicode="&#xfb00;" horiz-adv-x="571" 
d="M438 402v-326q0 -29 11.5 -38t63.5 -9h20v-29q-23 2 -121 2q-85 0 -113 -2v29q51 0 63.5 6.5t12.5 38.5v328h-208v-328q0 -32 12.5 -38.5t63.5 -6.5v-29q-28 2 -108 2q-79 0 -107 -2v29q52 0 64 6.5t12 38.5v328h-78v29h78v115q0 74 64 116t144 42q79 0 109 -42
q44 42 103 42q37 0 61 -19t24 -47q0 -18 -11 -29t-29 -11q-17 0 -28 11t-11 28q0 13 7 22.5t12.5 12.5t9.5 4q-16 8 -35 8q-35 0 -61.5 -37t-26.5 -99v-117h116v-29h-114zM165 431h210v117q0 24 4 39q-24 10 -24 37q0 33 35 39q-29 21 -80 21q-54 0 -99.5 -35t-45.5 -105
v-113z" />
    <glyph glyph-name="fi" unicode="&#xfb01;" horiz-adv-x="543" 
d="M318 434l121 8v-368q0 -32 12.5 -38.5t63.5 -6.5v-29q-28 2 -108 2q-79 0 -107 -2v29q52 0 64 6.5t12 38.5v274q0 32 -9.5 43t-42.5 11h-157v-328q0 -32 12.5 -38.5t63.5 -6.5v-29q-28 2 -108 2q-79 0 -107 -2v29q52 0 64 6.5t12 38.5v328h-78v29h78v115q0 51 34 88.5
t80 53.5t95 16q56 0 90 -28t34 -68q0 -21 -13 -32t-29 -11q-15 0 -28 11t-13 31q0 42 45 42q-31 35 -88 35q-54 0 -100 -35.5t-46 -104.5v-113h117q16 0 18 1q4 2 18 2z" />
    <glyph glyph-name="fl" unicode="&#xfb02;" horiz-adv-x="543" 
d="M439 694v-620q0 -32 12.5 -38.5t63.5 -6.5v-29q-28 2 -108 2q-79 0 -107 -2v29q52 0 64 6.5t12 38.5v328h-209v-328q0 -32 12.5 -38.5t63.5 -6.5v-29q-28 2 -108 2q-79 0 -107 -2v29q52 0 64 6.5t12 38.5v328h-78v29h78v115q0 73 63.5 115.5t147.5 42.5q47 0 81 -13
q5 -3 9 -3q3 0 17.5 3t16.5 3zM165 431h211v172q-20 11 -20 34q0 19 19 35v5q-24 7 -61 7q-60 0 -104.5 -36.5t-44.5 -103.5v-113z" />
    <glyph glyph-name="ffi" unicode="&#xfb03;" horiz-adv-x="815" 
d="M590 434l121 8v-368q0 -32 12.5 -38.5t63.5 -6.5v-29q-28 2 -108 2q-79 0 -107 -2v29q52 0 64 6.5t12 38.5v274q0 32 -9.5 43t-42.5 11h-157v-328q0 -32 12.5 -38.5t63.5 -6.5v-29q-28 2 -108 2q-79 0 -107 -2v29q52 0 64 6.5t12 38.5v328h-209v-328q0 -32 12.5 -38.5
t63.5 -6.5v-29q-28 2 -108 2q-79 0 -107 -2v29q52 0 64 6.5t12 38.5v328h-78v29h78v115q0 74 64.5 116t143.5 42q81 0 112 -55q63 55 161 55q56 0 90 -28t34 -68q0 -21 -13 -32t-29 -11q-15 0 -28 11t-13 31q0 42 45 42q-31 35 -88 35q-54 0 -100 -35.5t-46 -104.5v-113h117
q16 0 18 1q4 2 18 2zM165 431h211v115q0 15 1 22q-26 10 -26 39q0 8 2 15.5t13 17t31 9.5q-28 35 -88 35q-51 0 -97.5 -35t-46.5 -105v-113z" />
    <glyph glyph-name="ffl" unicode="&#xfb04;" horiz-adv-x="815" 
d="M711 694v-620q0 -32 12.5 -38.5t63.5 -6.5v-29q-28 2 -108 2q-79 0 -107 -2v29q52 0 64 6.5t12 38.5v328h-209v-328q0 -32 12.5 -38.5t63.5 -6.5v-29q-28 2 -108 2q-79 0 -107 -2v29q52 0 64 6.5t12 38.5v328h-209v-328q0 -32 12.5 -38.5t63.5 -6.5v-29q-28 2 -108 2
q-79 0 -107 -2v29q52 0 64 6.5t12 38.5v328h-78v29h78v115q0 74 64 116t145 42q44 0 74 -14.5t42 -36.5q61 51 158 51q47 0 81 -13q5 -3 9 -3q3 0 17.5 3t16.5 3zM165 431h211v115q0 27 5 41q-25 9 -25 37q0 33 35 39q-29 21 -80 21q-55 0 -100.5 -35.5t-45.5 -104.5v-113z
M437 544v-113h211v172q-20 11 -20 34q0 19 19 35v5q-24 7 -61 7q-60 0 -104.5 -36.5t-44.5 -103.5z" />
    <glyph glyph-name="dotlessi" unicode="&#x131;" horiz-adv-x="271" 
d="M172 441v-368q0 -30 10.5 -37t58.5 -7v-29q-34 2 -103 2q-77 0 -105 -2v29q51 0 63.5 6.5t12.5 38.5v272q0 37 -12.5 46t-60.5 9v29z" />
    <glyph glyph-name="dotlessj" unicode="&#x237;" horiz-adv-x="299" 
d="M203 441v-492q0 -67 -38 -110t-93 -43q-42 0 -74 20t-32 54q0 18 11.5 30t30.5 12q18 0 29.5 -12t11.5 -29q0 -34 -34 -41q23 -14 56 -14q69 0 69 129v400q0 37 -14 46.5t-70 9.5v29z" />
    <glyph glyph-name="grave" unicode="`" 
d="M271 511l-151 126q-14 11 -14 27q0 13 10.5 23t23.5 10q14 0 28 -17l119 -154z" />
    <glyph glyph-name="acute" unicode="&#xb4;" 
d="M367 635l-149 -124q-9 7 -16 16l119 152q13 18 28 18q13 0 23.5 -10t10.5 -23q0 -16 -16 -29z" />
    <glyph glyph-name="caron" unicode="&#x2c7;" 
d="M245 566l116 71l12 -18l-129 -101l-128 101l12 18z" />
    <glyph glyph-name="breve" unicode="&#x2d8;" 
d="M370 694h20q-1 -75 -43 -123.5t-103 -48.5q-58 0 -101 48t-44 124h20q1 -61 38.5 -99t87.5 -38q48 0 86 37.5t39 99.5z" />
    <glyph glyph-name="macron" unicode="&#xaf;" 
d="M421 557h-353v29h353v-29z" />
    <glyph glyph-name="ring" unicode="&#x2da;" horiz-adv-x="734" 
d="M459 627q0 -35 -26.5 -61t-66.5 -26q-37 0 -64.5 25.5t-27.5 62.5q0 35 26.5 61t66.5 26q37 0 64.5 -25.5t27.5 -62.5zM367 560q70 0 70 68q0 67 -71 67q-70 0 -70 -68q0 -67 71 -67z" />
    <glyph glyph-name="cedilla" unicode="&#xb8;" horiz-adv-x="435" 
d="M277 -21v-34q81 -16 81 -70q0 -76 -186 -76h-42v20h30q76 0 104.5 14.5t28.5 41.5q0 24 -22 39t-59 16v49h65z" />
    <glyph glyph-name="germandbls" unicode="&#xdf;" 
d="M298 419q74 -25 119 -93.5t45 -151.5q0 -80 -52 -132t-121 -52q-41 0 -67.5 21t-26.5 50q0 16 9.5 25t23.5 9q13 0 22.5 -8.5t9.5 -24.5q0 -27 -28 -32q21 -20 55 -20q38 0 71.5 38t33.5 126q0 94 -41.5 162t-117.5 75q-12 2 -12 10q0 9 7 10q13 1 24.5 2.5t34 10
t38 21.5t28 39t12.5 60q0 60 -30 90t-67 30q-7 0 -16 -1.5t-25 -8.5t-28.5 -19.5t-22 -38t-9.5 -59.5v-557q-14 2 -55 2q-57 0 -84 -2v29q52 0 64 6.5t12 38.5v328h-76v29h76v126q0 68 49.5 107.5t114.5 39.5q70 0 118.5 -42t48.5 -99q0 -51 -39 -89.5t-98 -54.5z" />
    <glyph glyph-name="ae" unicode="&#xe6;" horiz-adv-x="707" 
d="M655 232h-269q0 -97 31 -148q44 -72 115 -72q38 0 73.5 25.5t51.5 82.5q3 9 11 9q11 0 11 -10q0 -9 -9 -28.5t-25.5 -43t-47.5 -40.5t-69 -17q-98 0 -165 90q-20 -42 -64.5 -66t-100.5 -24q-60 0 -106 25.5t-46 74.5q0 22 9 44t34.5 49t85 45t146.5 21v49q0 62 -32.5 95
t-72.5 33q-32 0 -63.5 -15t-47.5 -45q51 0 51 -41q0 -18 -11.5 -29.5t-29.5 -11.5t-30 11t-12 32q0 48 42 83.5t104 35.5q97 0 150 -78q57 78 147 78q78 0 120.5 -55t42.5 -140q0 -14 -3.5 -16.5t-20.5 -2.5zM387 251h230q-5 175 -102 175q-9 0 -20.5 -2.5t-30 -12.5
t-33.5 -27.5t-28 -52t-16 -80.5zM321 230q-88 -5 -138 -34q-36 -20 -51 -49.5t-15 -55.5q0 -35 26 -58t62 -23q50 0 88.5 35t38.5 88q0 11 -4 28q-7 27 -7 69z" />
    <glyph glyph-name="oe" unicode="&#x153;" horiz-adv-x="761" 
d="M710 232h-270q0 -105 38 -159q44 -61 109 -61q14 0 29.5 4.5t34 15t35.5 33.5t26 55q3 9 11 9q11 0 11 -10q0 -7 -5 -21t-17 -32.5t-28.5 -35.5t-43.5 -28.5t-58 -11.5q-107 0 -175 104q-31 -53 -77 -78.5t-94 -25.5q-84 0 -145 66.5t-61 161.5q0 96 61 162t145 66
q108 0 171 -102q25 44 68 73t96 29q76 0 119.5 -54t43.5 -141q0 -14 -3.5 -16.5t-20.5 -2.5zM441 251h231q-5 175 -103 175q-15 0 -32 -6.5t-38.5 -23t-37.5 -54.5t-20 -91zM237 10q10 0 22.5 2.5t34.5 15t38.5 33t29.5 63t13 99.5t-14.5 98.5t-31.5 61t-41 30.5t-33.5 12
t-17.5 1q-11 0 -23 -2t-33.5 -13.5t-38 -31t-29 -60.5t-12.5 -96q0 -58 13 -101t29.5 -63.5t38.5 -32.5t33.5 -14t21.5 -2z" />
    <glyph glyph-name="oslash" unicode="&#xf8;" 
d="M430 522l-66 -117q41 -33 65.5 -83t24.5 -108q0 -94 -62 -159t-148 -65q-53 0 -101 27l-67 -119l-17 10l68 121q-46 33 -69 82.5t-23 102.5q0 95 61.5 163.5t148.5 68.5q55 0 102 -30l66 117q1 -1 8.5 -6t8.5 -5zM143 57l189 335q-40 34 -88 34q-73 0 -114 -68
q-30 -49 -30 -144q0 -110 43 -157zM347 375l-189 -334q46 -31 86 -31q37 0 67.5 18t48.5 47q29 48 29 139q0 109 -42 161z" />
    <glyph glyph-name="AE" unicode="&#xc6;" horiz-adv-x="883" 
d="M856 256l-40 -256h-480v29q49 0 60 7t11 37v241h-163l-76 -214q-5 -13 -5 -21q0 -21 16.5 -35t50.5 -15v-29q-25 2 -103 2q-35 0 -96 -2v29q82 0 106 66l200 558q-12 1 -38 1h-41v29h545l26 -223h-22q-11 112 -44.5 153t-131.5 41h-103q-32 0 -39 -7t-7 -33v-271h88
q67 0 85 24.5t18 92.5h22v-263h-22q0 68 -18 92.5t-85 24.5h-88v-245q0 -26 7 -33t39 -7h102q48 0 81.5 10t53.5 25t34 47t20.5 61.5t14.5 83.5h22zM365 651l-110 -308h152v262q0 13 -1.5 20.5t-11.5 16.5t-29 9z" />
    <glyph glyph-name="OE" unicode="&#x152;" horiz-adv-x="992" 
d="M965 256l-40 -256h-383q-30 0 -72 -9q-51 -12 -78 -12q-131 0 -228 104t-97 256q0 154 97 259.5t228 105.5q28 0 81 -12q39 -9 69 -9h370l26 -223h-22q-11 112 -45.5 153t-134.5 41h-118q-32 0 -39 -7t-7 -33v-245h110q72 0 93 24.5t21 92.5h22v-263h-22q0 69 -21 93
t-93 24h-110v-271q0 -26 7 -33t39 -7h116q41 0 71 5.5t51.5 19.5t35 29.5t23.5 45t15.5 56t12.5 71.5h22zM395 -1q26 0 45 7t29 15.5t16.5 26t8.5 29t5 35.5q4 36 4 230q0 197 -5 237q-3 26 -7 41.5t-14.5 32t-31 24t-51.5 7.5q-95 0 -165.5 -94t-70.5 -236
q0 -149 69.5 -252t167.5 -103z" />
    <glyph glyph-name="Oslash" unicode="&#xd8;" horiz-adv-x="761" 
d="M655 726l-69 -104q10 -8 25.5 -25.5t39.5 -52.5t40 -89.5t16 -115.5q0 -150 -96 -255t-231 -105q-100 0 -189 66l-68 -100l-17 12l69 103q-59 52 -90 126t-31 153q0 153 96.5 259t230.5 106q106 0 188 -67l69 101zM199 95l348 512q-77 77 -167 77q-14 0 -31 -3
t-47.5 -12.5t-57.5 -33t-53 -59t-41 -97t-15 -139.5q0 -159 64 -245zM562 588l-349 -512q77 -77 168 -77q21 0 44.5 4.5t61.5 24.5t67 54t50.5 101t21.5 157q0 159 -64 248z" />
    <glyph glyph-name="suppress" horiz-adv-x="271" 
d="M255 365l-218 -84l-11 27l218 84z" />
    <glyph glyph-name="exclam" unicode="!" horiz-adv-x="271" 
d="M184 668l-36 -467q-1 -13 -3 -17t-10 -4q-11 0 -12 21l-36 458q-2 28 13.5 42t35.5 14q18 0 33 -12.5t15 -34.5zM184 49q0 -20 -14 -34.5t-35 -14.5q-19 0 -33.5 14t-14.5 34t14 34.5t35 14.5q20 0 34 -14.5t14 -33.5z" />
    <glyph glyph-name="quotedblright" unicode="&#x201d;" 
d="M122 617q0 -1 -4 -5.5t-14 -9.5t-22 -5q-22 0 -35.5 14t-13.5 35q0 20 13.5 34t34.5 14q30 0 46.5 -27.5t16.5 -74.5q0 -32 -8.5 -63t-20 -52.5t-24.5 -38.5t-22.5 -25.5t-12.5 -8.5q-10 0 -10 10q0 5 9 14q69 69 69 164q0 11 -2 25zM312 617q0 -1 -4 -5.5t-14 -9.5
t-22 -5q-22 0 -35.5 14t-13.5 35q0 20 13.5 34t34.5 14q30 0 46.5 -27.5t16.5 -74.5q0 -32 -8.5 -63t-20 -52.5t-24.5 -38.5t-22.5 -25.5t-12.5 -8.5q-10 0 -10 10q0 5 9 14q69 69 69 164q0 11 -2 25z" />
    <glyph glyph-name="numbersign" unicode="#" horiz-adv-x="815" 
d="M510 138l-82 -309q-7 -23 -20 -23q-19 0 -19 19q0 4 4 18l78 295h-187l-82 -309q-7 -23 -20 -23q-19 0 -19 19q0 4 4 18l78 295h-159q-32 0 -32 19q0 18 32 18h170l39 149h-209q-32 0 -32 19q0 18 32 18h219l82 310q7 23 20 23q19 0 19 -19q0 -4 -4 -18l-78 -296h187
l82 310q7 23 20 23q19 0 19 -19q0 -4 -4 -18l-78 -296h159q32 0 32 -19q0 -18 -32 -18h-170l-39 -149h209q32 0 32 -19q0 -18 -32 -18h-219zM294 175h188l39 149h-188z" />
    <glyph glyph-name="dollar" unicode="$" 
d="M259 675v-276q27 -7 42.5 -11.5t38.5 -18t40 -32.5q55 -61 55 -143q0 -78 -49 -137t-127 -66v-47h-29v46q-86 6 -131 60t-45 128q0 46 42 46q18 0 29.5 -11.5t11.5 -29.5q0 -21 -13 -31.5t-28 -10.5q-7 0 -16 3q22 -115 150 -125v304q-46 12 -70 22t-49 34
q-57 57 -57 136q0 72 49.5 127t126.5 61v47h29v-46q85 -4 130.5 -54t45.5 -120q0 -46 -42 -46q-18 0 -29.5 11.5t-11.5 29.5q0 20 13 31t29 11q5 0 14 -2q-11 51 -51.5 79t-97.5 31zM230 407v267q-59 -6 -94 -45.5t-35 -87.5q0 -12 2.5 -24t13 -36.5t39.5 -44.5t74 -29z
M259 315v-295q58 7 93.5 49.5t35.5 97.5q0 14 -3.5 29.5t-14 41.5t-39.5 47t-72 30z" />
    <glyph glyph-name="percent" unicode="%" horiz-adv-x="815" 
d="M761 145q0 -84 -37 -142.5t-91 -58.5q-57 0 -100.5 57t-43.5 145q0 86 43.5 143.5t100.5 57.5q54 0 91 -58t37 -144zM634 -36q42 0 73.5 52.5t31.5 129.5q0 76 -31.5 128.5t-73.5 52.5q-7 0 -15 -1.5t-22 -12t-24 -28t-18 -54t-8 -86.5q0 -49 8 -85.5t18.5 -54
t24.5 -27.5t21.5 -12t14.5 -2zM671 714l-497 -756q-10 -14 -19 -14q-8 0 -13.5 5.5t-5.5 13.5q0 5 8 17l446 678l-1 1q-61 -38 -135 -38q-76 0 -150 43q22 -55 22 -116q0 -84 -37 -142.5t-91 -58.5q-57 0 -100.5 57t-43.5 145q0 86 43.5 143.5t100.5 57.5q38 0 69 -31
q81 -78 186 -78q117 0 187 94q12 15 21 15q7 0 12.5 -5t5.5 -14q0 -5 -8 -17zM199 367q42 0 73.5 52.5t31.5 129.5q0 76 -31.5 128.5t-73.5 52.5q-7 0 -15 -1.5t-22 -12t-24 -28t-18 -54t-8 -86.5q0 -49 8 -85.5t18.5 -54t24.5 -27.5t21.5 -12t14.5 -2z" />
    <glyph glyph-name="ampersand" unicode="&#x26;" horiz-adv-x="761" 
d="M78 220l115 125q7 7 7 10q0 1 -1 3.5t-2 6.5t-2 7q-34 94 -34 184q0 74 40 116.5t91 42.5q28 0 47 -17t25.5 -43.5t8.5 -40.5t2 -25q0 -75 -118 -202q21 -54 60.5 -120t63 -97.5t41.5 -53.5q37 46 71 101q49 80 72 123q4 8 4 18q0 21 -19 32.5t-51 11.5v29q23 -2 114 -2
q33 0 99 2v-29q-41 0 -68.5 -14t-40 -30.5t-34.5 -54.5q-89 -151 -133 -205q77 -90 136 -90q41 0 76.5 30t36.5 83h22q-1 -63 -41.5 -102.5t-97.5 -39.5q-84 0 -172 77q-82 -77 -178 -77q-72 0 -124.5 42.5t-52.5 106.5q0 51 37 92zM250 409q103 118 103 179q0 12 -1.5 26
t-7 34.5t-18.5 33.5t-32 13q-30 0 -52 -29.5t-22 -86.5q0 -87 30 -170zM209 333q-61 -68 -61 -69q-31 -42 -31 -105q0 -34 9.5 -66.5t36 -58.5t64.5 -26q83 0 152 65q-109 121 -170 260z" />
    <glyph glyph-name="quoteright" unicode="&#x2019;" horiz-adv-x="271" 
d="M176 617q0 -1 -4 -5.5t-14 -9.5t-22 -5q-22 0 -35.5 14t-13.5 35q0 20 13.5 34t34.5 14q30 0 46.5 -27.5t16.5 -74.5q0 -32 -8.5 -63t-20 -52.5t-24.5 -38.5t-22.5 -25.5t-12.5 -8.5q-10 0 -10 10q0 5 9 14q69 69 69 164q0 11 -2 25z" />
    <glyph glyph-name="parenleft" unicode="(" horiz-adv-x="380" 
d="M325 -243q0 -8 -9 -8q-7 0 -30.5 20t-59 65.5t-62.5 99.5q-66 136 -66 315q0 184 74 331q22 45 55.5 86.5t57.5 62.5t31 21q9 0 9 -8q0 -5 -10 -14q-163 -166 -163 -479q0 -312 156 -470q17 -17 17 -22z" />
    <glyph glyph-name="parenright" unicode=")" horiz-adv-x="380" 
d="M282 249q0 -182 -74 -330q-22 -45 -55.5 -86.5t-57.5 -62.5t-31 -21q-9 0 -9 8q0 5 10 14q163 166 163 479q0 312 -156 470q-17 17 -17 22q0 8 9 8q7 0 30.5 -20t59 -65.5t62.5 -99.5q66 -137 66 -316z" />
    <glyph glyph-name="asterisk" unicode="*" 
d="M255 516l14 -162q3 -35 -24 -35q-11 0 -19 8t-6 18v5l14 166l-124 -93q-12 -9 -20 -9q-11 0 -18.5 7.5t-7.5 19.5q0 15 21 25l140 69l-142 69l-3 2q-3 1 -3.5 1.5t-3 2t-3.5 2.5t-2.5 3t-2 3.5t-1 4t-0.5 5.5q0 12 7.5 19.5t18.5 7.5q7 0 20 -10l124 -92l-14 162v10
q-2 10 6 17.5t19 7.5q27 0 24 -35l-14 -162l124 93q12 9 20 9q11 0 18.5 -7.5t7.5 -19.5q0 -10 -4.5 -14.5t-16.5 -10.5l-140 -69l142 -69l3 -1q3 -2 3.5 -2.5t3 -2t3.5 -2.5t2.5 -3t2 -3.5t1 -4t0.5 -5.5q0 -12 -7.5 -19.5t-18.5 -7.5q-7 0 -20 10z" />
    <glyph glyph-name="plus" unicode="+" horiz-adv-x="761" 
d="M399 231v-276q0 -32 -19 -32q-18 0 -18 32v276h-276q-32 0 -32 19q0 18 32 18h276v276q0 32 19 32q18 0 18 -32v-276h276q32 0 32 -19q0 -18 -32 -18h-276z" />
    <glyph glyph-name="comma" unicode="," horiz-adv-x="271" 
d="M195 -4q0 -52 -20 -98.5t-39 -68.5t-26 -22q-10 0 -10 10q0 5 5 9q70 73 70 170q0 19 -2 19t-5 -3q-14 -12 -32 -12q-22 0 -35.5 14t-13.5 35q0 20 13.5 34t34.5 14q29 0 44.5 -27t15.5 -74z" />
    <glyph glyph-name="hyphen" unicode="-" horiz-adv-x="326" 
d="M271 189h-260v54h260v-54z" />
    <glyph glyph-name="period" unicode="." horiz-adv-x="271" 
d="M184 49q0 -21 -14.5 -35t-34.5 -14q-18 0 -33 14t-15 35q0 19 14 33.5t35 14.5q19 0 33.5 -14t14.5 -34z" />
    <glyph glyph-name="slash" unicode="/" 
d="M430 714l-337 -943q-2 -6 -3 -8t-3.5 -6t-5.5 -5.5t-8 -1.5q-19 0 -19 19q0 4 5 17l337 942q8 22 21 22q7 0 12.5 -5t5.5 -14q0 -4 -5 -17z" />
    <glyph glyph-name="zero" unicode="0" 
d="M448 320q0 -152 -38 -231q-55 -110 -166 -110q-45 0 -89 24t-71 76q-43 85 -43 241q0 148 38 233q26 58 71.5 85t94.5 27q45 0 89.5 -24.5t72.5 -80.5q41 -87 41 -240zM244 -1q36 0 70 28t47 101q11 61 11 204q0 147 -13 204q-13 58 -46.5 83.5t-68.5 25.5t-67 -25.5
t-44 -72.5q-16 -59 -16 -215q0 -146 11 -206q13 -72 47 -99.5t69 -27.5z" />
    <glyph glyph-name="one" unicode="1" 
d="M288 641v-564q0 -30 14.5 -39t76.5 -9h31v-29q-27 2 -156 2q-130 0 -157 -2v29h31q62 0 76.5 9t14.5 39v521q-55 -26 -128 -26v29q120 0 177 64q15 0 17.5 -3.5t2.5 -20.5z" />
    <glyph glyph-name="two" unicode="2" 
d="M440 168l-26 -168h-365v24l202 226q106 119 106 223q0 71 -37.5 117t-99.5 46q-48 0 -86 -31.5t-52 -82.5q3 1 14 1q21 0 34 -13t13 -34q0 -22 -14.5 -34.5t-32.5 -12.5q-7 0 -14.5 1.5t-20 14t-12.5 35.5q0 70 51 127.5t133 57.5q88 0 147.5 -53.5t59.5 -138.5
q0 -30 -8.5 -56.5t-19.5 -47.5t-42.5 -54t-56.5 -57t-81 -76q-10 -9 -54.5 -53.5t-59.5 -57.5h185q87 0 94 9q8 12 21 88h22z" />
    <glyph glyph-name="three" unicode="3" 
d="M184 359l30 3q60 2 91 48q32 47 32 118q0 34 -10 58.5t-27 35t-31.5 15t-29.5 4.5q-6 0 -13 -0.5t-26 -4t-35 -10t-34 -20.5t-29 -33q3 1 11 1q18 0 32 -12t14 -34q0 -21 -14 -33t-31 -12q-16 0 -31 11t-15 37q0 55 50 94.5t124 39.5t126.5 -39.5t52.5 -97.5
q0 -59 -39.5 -108t-103.5 -68q73 -13 121.5 -63t48.5 -118q0 -77 -59.5 -134.5t-147.5 -57.5q-83 0 -141.5 47.5t-58.5 114.5q0 26 15 39t35 13q21 0 35 -13.5t14 -35.5q0 -26 -18 -39.5t-43 -9.5q20 -45 67.5 -67t91.5 -22q46 0 81.5 38.5t35.5 127.5q0 76 -31 121t-92 45
h-46h-11.5t-6.5 1t-4 3t-1 6q0 7 4 8.5t17 2.5z" />
    <glyph glyph-name="four" unicode="4" 
d="M361 651v-455h101v-29h-101v-91q0 -30 12 -38.5t63 -8.5h20v-29q-23 2 -131 2q-107 0 -130 -2v29h20q52 0 63.5 8.5t11.5 38.5v91h-263v29l301 467q8 12 19 12q10 0 12 -4.5t2 -19.5zM295 573l-243 -377h243v377z" />
    <glyph glyph-name="five" unicode="5" 
d="M128 573v-207q49 53 127 53t131.5 -64t53.5 -154q0 -94 -63 -158t-149 -64q-79 0 -129 56.5t-50 125.5q0 26 13.5 37t30.5 11q19 0 31.5 -12t12.5 -32q0 -23 -14 -33.5t-30 -10.5q-9 0 -16 3q13 -53 55.5 -85.5t93.5 -32.5q68 0 105 61q28 45 28 140q0 85 -18 126
q-31 66 -87 66q-81 0 -125 -65q-11 -13 -16 -13q-8 0 -10 4.5t-2 19.5v297q0 22 8 22q3 0 10 -3q66 -28 132 -28q67 0 130 27q9 4 13 4q8 0 8 -9t-21.5 -31t-67 -44t-96.5 -22q-43 0 -89 15z" />
    <glyph glyph-name="six" unicode="6" 
d="M123 348v-27q5 15 13 29t23 33.5t40 31t56 11.5q78 0 135.5 -62.5t57.5 -159.5q0 -96 -59.5 -160.5t-142.5 -64.5q-28 0 -54 8.5t-54.5 31.5t-49 59t-34 97.5t-13.5 140.5q0 157 78.5 253t179.5 96q61 0 93 -30t32 -73q0 -44 -42 -44q-19 0 -30 12t-11 29q0 41 50 41
q-26 41 -91 41q-19 0 -39.5 -6t-46 -25t-45 -49.5t-33 -85.5t-13.5 -127zM246 6q67 0 101 65q19 38 19 134q0 93 -16 130q-31 71 -99 71q-62 0 -94 -54.5t-32 -123.5q0 -90 19 -145q7 -16 16.5 -30.5t33 -30.5t52.5 -16z" />
    <glyph glyph-name="seven" unicode="7" 
d="M475 621l-145 -208q-71 -101 -71 -332v-50q0 -52 -42 -52q-41 0 -41 51q0 85 28.5 176.5t53 137t46.5 77.5l106 152h-212q-89 0 -97 -6q-11 -10 -25 -91h-22l31 200h22q3 -12 8 -17.5t33.5 -10t85.5 -4.5h241v-23z" />
    <glyph glyph-name="eight" unicode="8" 
d="M298 361q38 -23 57.5 -37.5t45 -38.5t36.5 -53t11 -66q0 -78 -60 -132.5t-144 -54.5q-81 0 -142 48t-61 124q0 56 37.5 104t109.5 81q-70 49 -82 63q-38 46 -38 102q0 68 51.5 116t125.5 48q71 0 123.5 -41.5t52.5 -105.5q0 -91 -123 -157zM162 451l116 -76
q102 56 102 142q0 53 -40.5 88.5t-95.5 35.5q-53 0 -94 -29.5t-41 -76.5t53 -84zM209 322q-52 -24 -87 -69.5t-35 -101.5q0 -61 46.5 -103t111.5 -42q62 0 109.5 36.5t47.5 91.5q0 62 -72 109z" />
    <glyph glyph-name="nine" unicode="9" 
d="M366 291v33q-41 -105 -132 -105q-78 0 -135.5 63t-57.5 159q0 97 61 160.5t146 63.5q36 0 69 -15.5t63.5 -51t49 -104.5t18.5 -165q0 -156 -73.5 -253t-172.5 -97q-64 0 -100.5 28.5t-36.5 75.5q0 20 11.5 31.5t30.5 11.5t30 -12t11 -29q0 -24 -16.5 -34t-26.5 -7h-6
q27 -38 102 -38q26 0 51.5 12t52.5 41t44 89t17 143zM238 239q61 0 93.5 54.5t32.5 125.5q0 100 -20 149q-32 73 -96 73q-62 0 -99 -56q-12 -19 -18 -45t-7 -45t-1 -55q0 -93 16 -131q33 -70 99 -70z" />
    <glyph glyph-name="colon" unicode=":" horiz-adv-x="271" 
d="M184 383q0 -21 -14.5 -35t-34.5 -14q-18 0 -33 14t-15 35q0 19 14 33.5t35 14.5q19 0 33.5 -14t14.5 -34zM184 49q0 -21 -14.5 -35t-34.5 -14q-18 0 -33 14t-15 35q0 19 14 33.5t35 14.5q19 0 33.5 -14t14.5 -34z" />
    <glyph glyph-name="semicolon" unicode=";" horiz-adv-x="271" 
d="M184 383q0 -21 -14.5 -35t-34.5 -14q-18 0 -33 14t-15 35q0 19 14 33.5t35 14.5q19 0 33.5 -14t14.5 -34zM167 10q-13 -10 -31 -10q-22 0 -35.5 14t-13.5 35q0 20 13.5 34t34.5 14q52 0 52 -99q0 -53 -18.5 -100t-35.5 -69t-23 -22q-10 0 -10 10q0 4 6 12q61 75 61 181z
" />
    <glyph glyph-name="exclamdown" unicode="&#xa1;" horiz-adv-x="271" 
d="M184 451q0 -19 -14 -33.5t-34 -14.5q-21 0 -35 14.5t-14 33.5q0 21 14.5 35t33.5 14q20 0 34.5 -14t14.5 -35zM148 299l36 -458q2 -28 -14 -42t-35 -14q-18 0 -33 12.5t-15 34.5l36 467q1 13 3 17t10 4q11 0 12 -21z" />
    <glyph glyph-name="equal" unicode="=" horiz-adv-x="761" 
d="M675 324h-589q-32 0 -32 19q0 18 32 18h589q32 0 32 -19q0 -18 -32 -18zM675 138h-589q-32 0 -32 19q0 18 32 18h589q32 0 32 -19q0 -18 -32 -18z" />
    <glyph glyph-name="questiondown" unicode="&#xbf;" horiz-adv-x="462" 
d="M265 451q0 -19 -14.5 -33.5t-33.5 -14.5q-20 0 -34.5 14t-14.5 35q0 20 14 34t34 14t34.5 -14t14.5 -35zM228 308v-23q0 -78 -14 -139.5t-57 -121.5q-15 -20 -21 -39.5t-6 -59.5q0 -24 2 -38t9.5 -33t27 -28.5t50.5 -9.5q43 0 89.5 17.5t67.5 58.5q-2 -1 -10 -1
q-18 0 -30 11.5t-12 29.5q0 21 13 31.5t28 10.5t28.5 -10t13.5 -34q0 -58 -55 -96t-136 -38q-84 0 -123 39t-39 97q0 65 45 102q107 92 107 247v17q0 14 1.5 18t9.5 4q11 0 11 -12z" />
    <glyph glyph-name="question" unicode="?" horiz-adv-x="462" 
d="M228 242v-37q0 -15 -1.5 -20t-9.5 -5t-9.5 4t-1.5 18v48q0 53 21.5 115t68.5 112q11 12 17 20t12 28.5t6 47.5q0 21 -2 34.5t-11.5 34t-34.5 31.5t-65 11q-43 0 -80 -19.5t-53 -56.5q2 1 10 1q19 0 30.5 -11.5t11.5 -29.5q0 -21 -13 -31.5t-28 -10.5t-28.5 10t-13.5 34
q0 52 45.5 93t121.5 41q98 0 142 -40.5t44 -95.5q0 -64 -54 -104q-125 -93 -125 -222zM265 49q0 -20 -14 -34.5t-35 -14.5q-19 0 -33.5 13.5t-14.5 35.5q0 19 13.5 33.5t35.5 14.5q19 0 33.5 -14.5t14.5 -33.5z" />
    <glyph glyph-name="at" unicode="@" horiz-adv-x="761" 
d="M576 457v-241q0 -67 36 -67q24 0 39.5 15t22.5 44t9 56t2 67q0 88 -28.5 158t-74.5 111t-98 62.5t-104 21.5q-124 0 -214 -98t-90 -239q0 -137 88.5 -237t220.5 -100q138 0 261 59q15 8 32 8h6q22 0 22 -8q0 -10 -55 -29.5t-92 -28.5q-87 -21 -173 -21q-95 0 -172 50
t-118.5 131t-41.5 176q0 149 96 253t231 104q59 0 116 -24t104.5 -69t76.5 -116.5t29 -158.5q0 -46 -3.5 -79t-13.5 -64t-31 -47.5t-52 -16.5q-33 0 -62 18.5t-35 54.5q-49 -73 -130 -73q-79 0 -137 63t-58 155t58 155t137 63q84 0 138 -85h34q17 0 20.5 -3t3.5 -20z
M511 262v170q0 14 -2 19.5t-12 21.5q-22 35 -53.5 53.5t-61.5 18.5q-55 0 -93.5 -58t-38.5 -140t38.5 -140t93.5 -58q31 0 62.5 18.5t52.5 51.5q10 17 12 23t2 20z" />
    <glyph glyph-name="A" unicode="A" horiz-adv-x="734" 
d="M387 696l218 -626q10 -29 27 -35t70 -6v-29q-23 2 -123 2q-107 0 -130 -2v29q76 0 76 30q0 5 -5 17l-55 157h-252l-46 -133q-5 -13 -5 -21q0 -21 18 -35t49 -15v-29q-26 2 -102 2q-35 0 -96 -2v29q83 1 106 68l209 598q4 12 7.5 15.5t13.5 3.5t13.5 -3.5t6.5 -14.5z
M339 595l-116 -333h232z" />
    <glyph glyph-name="B" unicode="B" horiz-adv-x="693" 
d="M43 683h349q95 0 156.5 -51t61.5 -118q0 -56 -46 -99.5t-118 -57.5q86 -9 139 -60t53 -114q0 -74 -62.5 -128.5t-156.5 -54.5h-376v29h20q51 0 63 8.5t12 38.5v531q0 30 -12 38.5t-63 8.5h-20v29zM214 365h145q77 0 120 46.5t43 102.5q0 50 -34 95t-102 45h-126
q-32 0 -39 -7t-7 -33v-249zM260 29h128q71 0 115 46t44 109t-39 112t-107 49h-187v-276q0 -26 7 -33t39 -7z" />
    <glyph glyph-name="C" unicode="C" horiz-adv-x="707" 
d="M652 681v-237q0 -16 -2 -19.5t-12 -3.5q-6 0 -8.5 1.5t-3.5 4t-2 9.5q-15 110 -75.5 174.5t-141.5 64.5q-26 0 -55 -6.5t-67 -28t-67.5 -56t-50 -97.5t-20.5 -145q0 -83 21 -146.5t50.5 -98t68 -56t67 -27.5t54.5 -6q52 0 99 23t83 77t40 129q0 12 11 12q8 0 9.5 -3.5
t1.5 -13.5q0 -57 -29 -114t-90 -98t-138 -41q-138 0 -239.5 105t-101.5 258q0 151 101 256.5t240 105.5q53 0 102 -24.5t83 -66.5l49 79q7 12 13 12q7 0 8.5 -4t1.5 -19z" />
    <glyph glyph-name="D" unicode="D" horiz-adv-x="747" 
d="M42 683h350q125 0 213 -101.5t88 -246.5q0 -139 -88 -237t-213 -98h-350v29h20q51 0 63 8.5t12 38.5v531q0 30 -12 38.5t-63 8.5h-20v29zM262 29h105q112 0 177 83q58 75 58 224q0 141 -45 212q-66 106 -190 106h-105q-32 0 -39 -7t-7 -33v-545q0 -26 7 -33t39 -7z" />
    <glyph glyph-name="E" unicode="E" horiz-adv-x="666" 
d="M638 256l-40 -256h-557v29h20q51 0 63 8.5t12 38.5v529q0 30 -12 38.5t-63 8.5h-20v29h544l26 -223h-22q-12 113 -49 153.5t-144 40.5h-133q-32 0 -39 -7t-7 -33v-244h91q69 0 88 24t19 93h22v-263h-22q0 69 -19 93t-88 24h-91v-270q0 -26 7 -33t39 -7h136q50 0 85 9.5
t57 24.5t37 46.5t22.5 62.5t15.5 84h22z" />
    <glyph glyph-name="F" unicode="F" horiz-adv-x="639" 
d="M571 681l26 -223h-22q-11 111 -47 152.5t-140 41.5h-125q-32 0 -39 -7t-7 -33v-257h88q67 0 85.5 24.5t18.5 92.5h22v-263h-22q0 68 -18.5 92.5t-85.5 24.5h-88v-249q0 -30 14 -39t75 -9h30v-29q-29 2 -152 2q-119 0 -143 -2v29h20q51 0 63 8.5t12 38.5v529
q0 30 -12 38.5t-63 8.5h-20v29h530z" />
    <glyph glyph-name="G" unicode="G" horiz-adv-x="768" 
d="M651 198v-175q0 -22 -8 -22q-7 0 -26.5 21t-32.5 44q-26 -45 -78 -66t-111 -21q-139 0 -240 105t-101 258q0 152 101 257t239 105q112 0 185 -91l49 79q7 12 13 12q7 0 8.5 -4t1.5 -19v-237q0 -16 -2 -19.5t-12 -3.5q-5 0 -7 0.5t-3.5 2.5t-2 4t-1.5 7q-12 84 -48.5 140
t-79 78t-89.5 22q-26 0 -54.5 -6.5t-66.5 -28t-67.5 -56t-50 -97.5t-20.5 -145q0 -81 20.5 -144t50 -97.5t68 -56.5t69 -29t58.5 -7q16 0 36.5 3.5t50.5 14t50 37.5t20 67v64q0 30 -14.5 39t-76.5 9h-31v29q27 -2 146 -2q99 0 125 2v-29q-47 0 -57.5 -7t-10.5 -37z" />
    <glyph glyph-name="H" unicode="H" horiz-adv-x="734" 
d="M597 607v-531q0 -30 12 -38.5t63 -8.5h20v-29q-24 2 -136 2q-111 0 -135 -2v29h20q51 0 63 8.5t12 38.5v265h-299v-265q0 -30 12 -38.5t63 -8.5h20v-29q-24 2 -136 2q-111 0 -135 -2v29h20q51 0 63 8.5t12 38.5v531q0 30 -12 38.5t-63 8.5h-20v29q24 -2 136 -2
q111 0 135 2v-29h-20q-51 0 -63 -8.5t-12 -38.5v-237h299v237q0 30 -12 38.5t-63 8.5h-20v29q24 -2 136 -2q111 0 135 2v-29h-20q-51 0 -63 -8.5t-12 -38.5z" />
    <glyph glyph-name="I" unicode="I" horiz-adv-x="353" 
d="M217 607v-531q0 -30 12.5 -38.5t65.5 -8.5h22v-29q-24 2 -141 2q-116 0 -140 -2v29h22q53 0 65.5 8.5t12.5 38.5v531q0 30 -12.5 38.5t-65.5 8.5h-22v29q24 -2 141 -2q116 0 140 2v-29h-22q-53 0 -65.5 -8.5t-12.5 -38.5z" />
    <glyph glyph-name="J" unicode="J" horiz-adv-x="503" 
d="M380 610v-461q0 -78 -54 -124t-123 -46q-64 0 -108 39.5t-44 93.5q0 26 14.5 38.5t34.5 12.5q24 0 37 -14.5t13 -34.5q0 -26 -18 -39.5t-42 -9.5q20 -38 52 -52t58 -14q42 0 71.5 41.5t29.5 106.5v459q0 30 -14.5 39t-77.5 9h-31v29q27 -2 147 -2q101 0 126 2v-29
q-49 0 -60 -7t-11 -37z" />
    <glyph glyph-name="K" unicode="K" horiz-adv-x="761" 
d="M391 419l225 -337q23 -35 42 -44t61 -9v-29q-35 2 -111 2q-102 0 -126 -2v29q52 0 52 28q0 9 -3 15q-3 8 -10 18l-185 277l-119 -115v-174q0 -35 14.5 -42t80.5 -7v-29q-24 2 -136 2q-111 0 -135 -2v29q66 0 80.5 7t14.5 42v527q0 35 -14.5 42t-80.5 7v29q24 -2 136 -2
q111 0 135 2v-29q-66 0 -80.5 -7t-14.5 -42v-323l305 295q29 28 29 45q0 30 -39 32v29q23 -2 108 -2q57 0 86 2v-29q-56 -1 -95 -29t-150 -138q-52 -48 -70 -68z" />
    <glyph glyph-name="L" unicode="L" horiz-adv-x="611" 
d="M570 256l-26 -256h-503v29h20q51 0 63 8.5t12 38.5v531q0 30 -12 38.5t-63 8.5h-20v29q24 -2 143 -2q123 0 152 2v-29h-30q-61 0 -75 -9t-14 -39v-537q0 -26 7 -33t39 -7h87q36 0 65.5 8t48.5 19t34 31.5t23 36.5t14 44t8 43.5t5 44.5h22z" />
    <glyph glyph-name="M" unicode="M" horiz-adv-x="897" 
d="M230 664l218 -570l218 569q6 14 10.5 17t20.5 3h155v-29h-20q-51 0 -63 -8.5t-12 -38.5v-531q0 -30 12 -38.5t63 -8.5h20v-29q-23 2 -132 2t-132 -2v29h20q51 0 63 8.5t12 38.5v578h-1l-243 -634q-4 -9 -5.5 -12.5t-4.5 -5.5t-7 -2q-10 0 -17 19l-241 630h-1v-546
q0 -15 2 -24t9.5 -22.5t29 -20.5t54.5 -7v-29q-26 2 -107 2t-107 -2v29q33 0 54.5 7t29 20.5t9.5 22.5t2 24v504q0 30 -12 38.5t-63 8.5h-20v29h155q17 0 21.5 -2.5t9.5 -16.5z" />
    <glyph glyph-name="N" unicode="N" horiz-adv-x="734" 
d="M226 669l347 -528v437q0 16 -2 25t-9.5 23t-29 21t-54.5 7v29q26 -2 107 -2t107 2v-29q-33 0 -54.5 -7t-29 -21t-9.5 -23t-2 -25v-572q-3 -6 -12 -6q-7 0 -18 15l-390 594q-15 20 -17 22v-526q0 -16 2 -25t9.5 -23t29 -21t54.5 -7v-29q-26 2 -107 2t-107 -2v29
q33 0 54.5 7t29 21t9.5 23t2 25v542q-27 7 -95 7v29h153q16 0 20.5 -2t11.5 -12z" />
    <glyph glyph-name="O" unicode="O" horiz-adv-x="761" 
d="M707 339q0 -150 -96 -255t-231 -105q-133 0 -229.5 104.5t-96.5 255.5q0 153 96.5 259t230.5 106q132 0 229 -106t97 -259zM381 2q39 0 78 19.5t74.5 58.5t58 110t22.5 164q0 86 -22 152.5t-58 103t-75 54.5t-79 18q-30 0 -60.5 -10t-62 -35t-55.5 -61.5t-39.5 -94
t-15.5 -127.5q0 -74 14.5 -134.5t38.5 -100t55 -67t62.5 -39t63.5 -11.5z" />
    <glyph glyph-name="P" unicode="P" horiz-adv-x="666" 
d="M218 318v-242q0 -30 12 -38.5t63 -8.5h20v-29q-24 2 -136 2q-111 0 -135 -2v29h20q51 0 63 8.5t12 38.5v531q0 30 -12 38.5t-63 8.5h-20v29h337q99 0 165.5 -55t66.5 -130t-67.5 -127.5t-156.5 -52.5h-169zM216 342h139q46 0 79 13t49 29t24.5 41.5t9.5 39t1 33.5
t-1 33.5t-9.5 39t-24 41.5t-48.5 29t-79 13h-94q-32 0 -39 -7t-7 -33v-272z" />
    <glyph glyph-name="Q" unicode="Q" horiz-adv-x="761" 
d="M504 6q19 -57 40.5 -82t57.5 -25q32 0 59 23.5t32 72.5q2 14 9 14q10 0 10 -19q0 -10 -1 -23.5t-7.5 -44.5t-17.5 -54.5t-35 -42.5t-57 -19q-26 0 -45.5 11t-30.5 24.5t-20 43.5t-13 49t-10 60q-45 -15 -94 -15q-135 0 -231 105t-96 255q0 153 96.5 259t230.5 106
q132 0 229 -106t97 -259q0 -115 -58.5 -205.5t-144.5 -127.5zM319 12q-16 24 -16 51q0 33 21.5 58.5t57.5 25.5q73 0 110 -109q124 87 124 302q0 88 -22 156.5t-57 107.5t-75.5 58.5t-81.5 19.5q-40 0 -79.5 -19t-75 -57.5t-58 -107.5t-22.5 -158q0 -77 16.5 -138t43.5 -98
t55 -59t59 -33zM470 24q-10 49 -29.5 76t-58.5 27q-27 0 -43 -19.5t-16 -43.5q0 -23 14.5 -43t43.5 -20q46 0 89 23z" />
    <glyph glyph-name="R" unicode="R" horiz-adv-x="720" 
d="M422 340q54 -15 92 -53q14 -15 22.5 -34t11.5 -33t7 -46q4 -31 10 -75q7 -49 20 -74.5t44 -25.5q26 0 44 22t22 65q1 5 1 7t1 4.5t3 3.5t6 1q11 0 11 -15q0 -17 -5.5 -38.5t-28 -45.5t-57.5 -24q-38 0 -68.5 12t-44.5 26q-31 30 -37.5 56t-6.5 92q0 57 -5 79t-29 49
q-38 39 -103 39h-116v-256q0 -30 12 -38.5t63 -8.5h20v-29q-23 2 -135 2q-111 0 -134 -2v29h20q51 0 63 8.5t12 38.5v531q0 30 -12 38.5t-63 8.5h-20v29h299q107 0 182 -53.5t75 -126.5q0 -56 -50 -100.5t-126 -62.5zM328 352q177 0 177 151q0 43 -15 73.5t-34 45
t-52.5 22.5t-53.5 9t-54 1q-50 0 -59 -1q-10 -2 -14.5 -7.5t-5.5 -11.5t-1 -20v-262h112z" />
    <glyph glyph-name="S" unicode="S" horiz-adv-x="543" 
d="M208 417l110 -28q27 -7 42 -12t38.5 -19t40.5 -35q50 -61 50 -139q0 -84 -55 -144.5t-138 -60.5q-118 0 -185 74q-4 -7 -17.5 -31.5t-15.5 -28.5q-8 -14 -14 -14q-7 0 -8.5 4t-1.5 19v202q0 15 1.5 19t9.5 4q10 0 11 -8q3 -103 63 -157q62 -54 156 -54q60 0 98 43.5
t38 102.5q0 42 -21.5 79t-56.5 54q-21 9 -104 28q-62 16 -89.5 27.5t-51.5 38.5q-54 58 -54 132q0 78 55 134.5t137 56.5q101 0 158 -74l33 61q7 13 14 13t8.5 -4t1.5 -19v-202q0 -15 -1.5 -19t-9.5 -4q-7 0 -8.5 3t-3.5 13q-29 205 -192 205q-57 0 -95.5 -39.5t-38.5 -93.5
q0 -46 28 -81.5t68 -45.5z" />
    <glyph glyph-name="T" unicode="T" horiz-adv-x="707" 
d="M653 678l18 -223h-22q-4 46 -7 70t-11 50t-18.5 37t-30.5 21.5t-46.5 13t-67.5 2.5q-48 0 -56 -2q-11 -3 -14.5 -10.5t-3.5 -27.5v-532q0 -20 4 -28t25 -14t69 -6h36v-29q-32 2 -175 2q-142 0 -174 -2v29h36q48 0 69 6t25 14t4 28v532q0 20 -3.5 28t-17.5 10q-8 2 -54 2
q-41 0 -67.5 -2.5t-46.5 -13t-30.5 -21.5t-18.5 -37t-11 -50t-7 -70h-22l18 223h600z" />
    <glyph glyph-name="U" unicode="U" horiz-adv-x="734" 
d="M570 230v350q0 15 -2 24t-9.5 22.5t-29 20.5t-54.5 7v29q26 -2 109 -2q82 0 108 2v-29q-95 0 -95 -61v-378q0 -84 -60.5 -160t-157.5 -76q-98 0 -170.5 72t-72.5 178v378q0 30 -12 38.5t-63 8.5h-20v29q24 -2 136 -2q111 0 135 2v-29h-20q-51 0 -63 -8.5t-12 -38.5v-384
q0 -62 16.5 -107t43.5 -67t52.5 -31.5t51.5 -9.5q75 0 132 61t57 161z" />
    <glyph glyph-name="V" unicode="V" horiz-adv-x="734" 
d="M611 584l-223 -585q-4 -10 -6 -13t-5.5 -5t-10.5 -2q-10 0 -13.5 3.5t-7.5 15.5l-234 616q-11 28 -27 34t-66 6v29q24 -2 120 -2q105 0 129 2v-29q-75 0 -75 -29q0 -4 5 -15l197 -520l187 493q6 14 6 22q0 18 -15.5 33t-50.5 16v29q25 -2 102 -2q41 0 92 2v-29
q-36 0 -59.5 -14t-30.5 -26t-14 -30z" />
    <glyph glyph-name="W" unicode="W" horiz-adv-x="1006" 
d="M893 585l-188 -587q-6 -19 -18 -19t-18 18l-167 519l-166 -519q-6 -18 -18 -18t-18 19l-198 618q-8 27 -24 32.5t-61 5.5v29q26 -2 116 -2q104 0 127 2v-29q-77 0 -77 -30q0 -5 5 -19l160 -498l143 446q-5 14 -10.5 32.5t-9.5 30t-7 17.5q-8 13 -23 17t-55 4v29
q26 -2 116 -2q103 0 127 2v-29q-77 0 -77 -30q0 -5 3 -14l162 -503l152 474q5 17 5 20q0 19 -19 35.5t-60 17.5v29q24 -2 104 -2q46 0 89 2v-29q-72 -1 -95 -69z" />
    <glyph glyph-name="X" unicode="X" horiz-adv-x="734" 
d="M391 384l214 -320q16 -24 36 -29.5t70 -5.5v-29q-24 2 -123 2q-107 0 -131 -2v29q27 1 42 10.5t15 19.5q0 3 -7 14l-162 242l-147 -215q-11 -17 -11 -27q0 -16 13.5 -29.5t41.5 -14.5v-29q-23 2 -115 2q-62 0 -105 -2v29q95 1 139 66l168 245l-187 277q-16 24 -33.5 30.5
t-72.5 6.5v29q24 -2 122 -2q108 0 132 2v-29q-25 0 -41 -9.5t-16 -20.5q0 -7 7 -16l135 -200l120 176q10 15 10 26q0 15 -13 28.5t-41 15.5v29q23 -2 114 -2q62 0 105 2v-29q-43 0 -75 -14t-42.5 -25t-23.5 -30z" />
    <glyph glyph-name="Y" unicode="Y" horiz-adv-x="734" 
d="M601 589l-195 -315v-200q0 -28 11.5 -36.5t63.5 -8.5h20v-29q-24 2 -135 2t-134 -2v29h20q51 0 63 8.5t12 38.5v197l-211 342q-16 26 -34 32.5t-72 6.5v29q24 -2 123 -2q109 0 132 2v-29q-62 0 -62 -24q0 -6 8 -19l186 -301l169 275q12 19 12 32q0 18 -14 27.5t-36 9.5
v29q25 -2 102 -2q37 0 93 2v-29q-82 0 -122 -65z" />
    <glyph glyph-name="Z" unicode="Z" horiz-adv-x="598" 
d="M535 648l-388 -617h169q66 0 108 15.5t63 49.5t28.5 70.5t10.5 97.5h22l-16 -264h-454q-17 0 -20.5 3.5t-3.5 20.5l396 630h-160q-112 0 -153 -48.5t-47 -145.5h-22l11 223h440q15 0 19.5 -2t4.5 -12q0 -8 -8 -21z" />
    <glyph glyph-name="bracketleft" unicode="[" horiz-adv-x="271" 
d="M250 -250h-134v1000h134v-37h-97v-926h97v-37z" />
    <glyph glyph-name="quotedblleft" unicode="&#x201c;" 
d="M177 480q0 1 4 5.5t14 9.5t22 5q22 0 35.5 -14t13.5 -35q0 -20 -13.5 -34t-34.5 -14q-30 0 -46.5 27.5t-16.5 74.5q0 32 8.5 63t20 52.5t24.5 38.5t22.5 25.5t12.5 8.5q10 0 10 -10q0 -5 -9 -14q-69 -69 -69 -164q0 -11 2 -25zM367 480q0 1 4 5.5t14 9.5t22 5
q22 0 35.5 -14t13.5 -35q0 -20 -13.5 -34t-34.5 -14q-30 0 -46.5 27.5t-16.5 74.5q0 32 8.5 63t20 52.5t24.5 38.5t22.5 25.5t12.5 8.5q10 0 10 -10q0 -5 -9 -14q-69 -69 -69 -164q0 -11 2 -25z" />
    <glyph glyph-name="bracketright" unicode="]" horiz-adv-x="271" 
d="M155 750v-1000h-134v37h97v926h-97v37h134z" />
    <glyph glyph-name="circumflex" unicode="&#x2c6;" 
d="M245 694l130 -136l-16 -15l-115 103l-114 -103l-16 15z" />
    <glyph glyph-name="dotaccent" unicode="&#x2d9;" horiz-adv-x="271" 
d="M184 616q0 -19 -13.5 -33.5t-35.5 -14.5q-19 0 -33.5 14t-14.5 34t14 34.5t35 14.5q19 0 33.5 -13.5t14.5 -35.5z" />
    <glyph glyph-name="quoteleft" unicode="&#x2018;" horiz-adv-x="271" 
d="M95 480q0 1 4 5.5t14 9.5t22 5q22 0 35.5 -14t13.5 -35q0 -20 -13.5 -34t-34.5 -14q-30 0 -46.5 27.5t-16.5 74.5q0 32 8.5 63t20 52.5t24.5 38.5t22.5 25.5t12.5 8.5q10 0 10 -10q0 -5 -9 -14q-69 -69 -69 -164q0 -11 2 -25z" />
    <glyph glyph-name="a" unicode="a" 
d="M386 267v-175q0 -68 38 -68t38 65v56h22v-56q0 -52 -26.5 -73t-52.5 -21q-32 0 -53.5 23.5t-24.5 59.5q-15 -38 -49 -63t-81 -25q-57 0 -105 25.5t-48 78.5q0 65 68.5 113.5t208.5 50.5v40q0 62 -32.5 95t-72.5 33q-33 0 -64 -15t-47 -45q51 0 51 -41q0 -18 -11.5 -29.5
t-29.5 -11.5t-30 11t-12 32q0 49 42 84t103 35q74 0 124 -46q21 -18 31 -41.5t11.5 -40.5t1.5 -51zM321 141v99q-15 -1 -28.5 -2.5t-40.5 -6.5t-48 -15.5t-43 -25.5t-34 -40t-12 -56q0 -36 26.5 -60t63.5 -24q41 0 78.5 32.5t37.5 98.5z" />
    <glyph glyph-name="b" unicode="b" horiz-adv-x="543" 
d="M167 694v-320q54 67 136 67q84 0 144.5 -65.5t60.5 -159.5q0 -95 -64 -160.5t-152 -65.5q-83 0 -130 75q-28 -49 -36 -65h-22v598q0 37 -12.5 46.5t-63.5 9.5v29zM169 320v-206q0 -21 13 -42q39 -62 106 -62q35 0 64 18t46 44q34 51 34 145q0 67 -16 112t-41.5 63
t-43 23.5t-34.5 5.5q-35 0 -66.5 -18.5t-50.5 -46.5q-11 -16 -11 -36z" />
    <glyph glyph-name="c" unicode="c" horiz-adv-x="435" 
d="M362 370q-16 27 -49.5 40.5t-66.5 13.5q-21 0 -42.5 -9.5t-43.5 -31t-35.5 -64.5t-13.5 -102q0 -104 43.5 -154.5t98.5 -50.5q43 0 78.5 25t51.5 76q2 10 4.5 12.5t8.5 2.5q10 0 10 -9q0 -4 -4 -16.5t-15.5 -32.5t-28.5 -37.5t-47 -30t-67 -12.5q-86 0 -147.5 65.5
t-61.5 160.5t61.5 162.5t148.5 67.5q62 0 106.5 -33t44.5 -82q0 -21 -12 -32t-30 -11t-29.5 11.5t-11.5 29.5q0 41 49 41z" />
    <glyph glyph-name="d" unicode="d" horiz-adv-x="543" 
d="M300 683l139 11v-609q0 -37 12.5 -46.5t63.5 -9.5v-29l-141 -10v69q-51 -69 -134 -69t-144 65.5t-61 159.5q0 95 64 160.5t152 65.5q79 0 125 -64v221q0 37 -12.5 46.5t-63.5 9.5v29zM374 117v206q0 20 -12 37q-7 12 -18 23.5t-36 24.5t-53 13q-35 0 -64 -18t-46 -44
q-34 -51 -34 -145q0 -55 12 -95.5t27.5 -60.5t36.5 -31.5t33.5 -14t24.5 -2.5q71 0 115 64q14 22 14 43z" />
    <glyph glyph-name="e" unicode="e" horiz-adv-x="435" 
d="M383 232h-277v-19q0 -61 16 -104t40.5 -62t45.5 -27t41 -8q39 0 78 25t57 82q4 10 12 10q11 0 11 -10t-9.5 -29.5t-27.5 -42.5t-52 -40t-75 -17q-85 0 -149 66t-64 163q0 94 58.5 160.5t143.5 66.5q86 0 130.5 -56.5t44.5 -138.5q0 -14 -3.5 -16.5t-20.5 -2.5zM107 251
h238q-1 23 -4 43.5t-13 55t-35 55.5t-62 21q-14 0 -30.5 -6t-38.5 -22t-37 -54t-18 -93z" />
    <glyph glyph-id="f" name="f" unicode="f" horiz-adv-x="299" 
d="M172 402v-326q0 -29 11.5 -38t63.5 -9h20v-29q-23 2 -121 2q-85 0 -113 -2v29q51 0 63.5 6.5t12.5 38.5v328h-78v29h78v117q0 72 45.5 114t103.5 42q36 0 60 -19t24 -47q0 -18 -11 -29t-29 -11q-17 0 -28 11t-11 28q0 13 7 22.5t12.5 12.5t9.5 4q-16 8 -35 8
q-34 0 -60.5 -36.5t-26.5 -99.5v-117h115v-29h-113z" />
    <glyph glyph-name="g" unicode="g" 
d="M119 181q-16 -22 -16 -48q0 -31 19 -50q13 -14 26 -16.5t60 -2.5q53 0 77.5 -1t55 -7t54.5 -18q67 -35 67 -115q0 -55 -63.5 -91.5t-154.5 -36.5q-92 0 -154.5 37t-62.5 89q0 37 27 63.5t65 37.5q-43 27 -43 88q0 46 30 83q-45 41 -45 103q0 59 45.5 102t111.5 43
q56 0 103 -36q44 47 105 47q24 0 36.5 -15t12.5 -31q0 -14 -8.5 -20.5t-17.5 -6.5q-12 0 -19 7.5t-7 18.5q0 19 15 25q-4 2 -13 2q-52 0 -91 -40q40 -40 40 -97q0 -59 -45.5 -102t-111.5 -43q-51 0 -98 31zM218 171q44 0 70 39q17 27 17 86q0 124 -88 124q-44 0 -70 -39
q-17 -27 -17 -86q0 -124 88 -124zM245 -184q69 0 118.5 31t49.5 75q0 25 -13.5 42.5t-30.5 26t-48.5 13t-50.5 5t-53 0.5q-55 0 -70 -2t-31 -12q-40 -27 -40 -73q0 -43 49 -74.5t120 -31.5z" />
    <glyph glyph-name="h" unicode="h" horiz-adv-x="543" 
d="M445 243v-184q1 -21 16.5 -25.5t59.5 -4.5v-29q-26 2 -109 2q-82 0 -108 -2v29q52 0 64 6.5t12 38.5v235q0 112 -76 112q-51 0 -91 -43.5t-40 -117.5v-186q0 -32 12.5 -38.5t63.5 -6.5v-29q-26 2 -109 2q-82 0 -108 -2v29q52 0 64 6.5t12 38.5v524q0 37 -12.5 46.5
t-63.5 9.5v29l139 11v-349h1q9 21 23 39.5t46 37.5t71 19q77 0 110 -45q16 -22 19.5 -49t3.5 -104z" />
    <glyph glyph-name="i" unicode="i" horiz-adv-x="271" 
d="M174 616q0 -18 -13.5 -33t-35.5 -15q-19 0 -33.5 13.5t-14.5 35.5q0 20 14 34t34 14q21 0 35 -14.5t14 -34.5zM36 430l136 11v-368q0 -30 10.5 -37t58.5 -7v-29q-34 2 -103 2q-77 0 -105 -2v29q51 0 63.5 6.5t12.5 38.5v272q0 37 -12.5 46t-60.5 9v29z" />
    <glyph glyph-name="j" unicode="j" horiz-adv-x="299" 
d="M203 616q0 -19 -13.5 -33.5t-35.5 -14.5q-20 0 -34 14t-14 34t14 34.5t35 14.5q19 0 33.5 -13.5t14.5 -35.5zM56 430l147 11v-492q0 -67 -38 -110t-93 -43q-42 0 -74 20t-32 54q0 18 11.5 30t30.5 12q18 0 29.5 -12t11.5 -29q0 -34 -34 -41q23 -14 56 -14q69 0 69 129
v400q0 37 -14 46.5t-70 9.5v29z" />
    <glyph glyph-name="k" unicode="k" horiz-adv-x="516" 
d="M280 265l134 -195q13 -19 29.5 -28.5t27.5 -11t29 -1.5v-29q-43 2 -88 2q-76 0 -101 -2v29q35 0 35 23q0 15 -22 46l-96 138l-64 -56v-106q0 -32 12.5 -38.5t63.5 -6.5v-29q-28 2 -106 2t-106 -2v29q52 0 64 6.5t12 38.5v524q0 37 -12.5 46.5t-63.5 9.5v29l139 11v-482
l143 126q1 0 6 5t10 14.5t5 18.5q0 24 -29 26v29q23 -2 100 -2q56 0 76 2v-29q-66 -3 -134 -62q-3 -3 -21 -19t-34 -30.5t-16 -15.5t3.5 -5t3.5 -5z" />
    <glyph glyph-name="l" unicode="l" horiz-adv-x="271" 
d="M172 694v-620q0 -32 12.5 -38.5t63.5 -6.5v-29q-28 2 -108 2q-79 0 -107 -2v29q51 0 63.5 6.5t12.5 38.5v524q0 37 -12.5 46.5t-63.5 9.5v29z" />
    <glyph glyph-name="m" unicode="m" horiz-adv-x="815" 
d="M717 243v-184q1 -21 16.5 -25.5t59.5 -4.5v-29q-26 2 -109 2q-82 0 -108 -2v29q52 0 64 6.5t12 38.5v235q0 112 -76 112q-51 0 -91 -43.5t-40 -117.5v-186q0 -32 12.5 -38.5t63.5 -6.5v-29q-26 2 -109 2q-82 0 -108 -2v29q52 0 64 6.5t12 38.5v235q0 112 -76 112
q-51 0 -91 -43.5t-40 -117.5v-186q0 -32 12.5 -38.5t63.5 -6.5v-29q-26 2 -109 2q-82 0 -108 -2v29q52 0 64 6.5t12 38.5v271q0 37 -12.5 46.5t-63.5 9.5v29l136 11v-103h1q5 12 13 25t24.5 33t44 32.5t61.5 12.5q113 0 131 -99q16 38 51 68.5t90 30.5q77 0 110 -45
q16 -22 19.5 -49t3.5 -104z" />
    <glyph glyph-name="n" unicode="n" horiz-adv-x="543" 
d="M445 243v-184q1 -21 16.5 -25.5t59.5 -4.5v-29q-26 2 -109 2q-82 0 -108 -2v29q52 0 64 6.5t12 38.5v235q0 112 -76 112q-51 0 -91 -43.5t-40 -117.5v-186q0 -32 12.5 -38.5t63.5 -6.5v-29q-26 2 -109 2q-82 0 -108 -2v29q52 0 64 6.5t12 38.5v271q0 37 -12.5 46.5
t-63.5 9.5v29l136 11v-103h1q5 12 13 25t24.5 33t44 32.5t61.5 12.5q77 0 110 -45q16 -22 19.5 -49t3.5 -104z" />
    <glyph glyph-name="o" unicode="o" 
d="M459 214q0 -94 -63 -159t-152 -65q-87 0 -150.5 64.5t-63.5 159.5t63 163.5t152 68.5q88 0 151 -68t63 -164zM245 12q73 0 112 67q26 47 26 144q0 100 -31 146q-39 57 -108 57t-107 -59q-31 -45 -31 -144t28 -146q38 -65 111 -65z" />
    <glyph glyph-name="p" unicode="p" horiz-adv-x="543" 
d="M245 -165v-29q-26 2 -109 2q-82 0 -108 -2v29q52 0 64 6.5t12 38.5v470q0 34 -12 42.5t-64 8.5v29l139 11v-67q3 4 7 9t17.5 16t28 19.5t37.5 15.5t48 7q83 0 143 -65.5t60 -159.5q0 -95 -64 -160.5t-152 -65.5q-77 0 -123 64v-174q0 -32 12.5 -38.5t63.5 -6.5zM169 319
v-206q0 -33 38 -71q34 -32 80 -32q59 0 102 59t43 147q0 84 -39.5 143.5t-95.5 59.5q-31 0 -63.5 -16t-53.5 -48q-11 -16 -11 -36z" />
    <glyph glyph-name="q" unicode="q" horiz-adv-x="516" 
d="M439 441v-561q0 -32 12.5 -38.5t63.5 -6.5v-29q-26 2 -109 2q-82 0 -108 -2v29q52 0 64 6.5t12 38.5v185q-54 -75 -134 -75q-83 0 -144 65.5t-61 159.5q0 96 64.5 161t149.5 65q89 0 133 -93l37 93h20zM376 134v147q0 46 -33.5 92t-87.5 46q-57 0 -100.5 -58.5
t-43.5 -145.5q0 -84 39 -144.5t96 -60.5q50 0 89 40q41 41 41 84z" />
    <glyph glyph-name="r" unicode="r" horiz-adv-x="380" 
d="M167 233v-157q0 -29 11.5 -38t63.5 -9h20v-29q-23 2 -121 2q-85 0 -113 -2v29q52 0 64 6.5t12 38.5v271q0 37 -12.5 46.5t-63.5 9.5v29l134 11v-111h1q35 111 120 111q31 0 50.5 -17t19.5 -41q0 -19 -12 -29.5t-28 -10.5q-14 0 -26.5 10t-12.5 30q0 25 24 37q-4 1 -14 1
q-55 0 -86 -55t-31 -133z" />
    <glyph glyph-name="s" unicode="s" horiz-adv-x="386" 
d="M328 423v-104q0 -15 -1.5 -19t-9.5 -4q-10 0 -11 8q-8 124 -117 124q-60 0 -85.5 -23.5t-25.5 -53.5q0 -59 103 -80q55 -10 79.5 -18.5t49.5 -30.5q42 -42 42 -95q0 -62 -40.5 -99.5t-116.5 -37.5q-71 0 -109 47q-9 -10 -20 -25q-18 -22 -23 -22q-7 0 -8.5 4t-1.5 19v136
q0 15 1.5 19t9.5 4q7 0 9 -4q1 -1 5 -20q30 -138 136 -138q60 0 86.5 26.5t26.5 64.5q0 39 -31 65q-18 14 -33.5 19.5t-59.5 14.5q-42 8 -66 16.5t-46 27.5q-38 35 -38 81q0 49 37 85t120 36q56 0 94 -31q24 31 34 31q7 0 8.5 -4t1.5 -19z" />
    <glyph glyph-name="t" unicode="t" horiz-adv-x="380" 
d="M168 402v-280q0 -110 68 -110q30 0 49 30.5t19 83.5v55h22v-57q0 -57 -25.5 -95.5t-70.5 -38.5q-22 0 -42.5 5.5t-40.5 19.5t-32 42t-12 67v278h-85v20q64 2 95.5 58t32.5 135h22v-184h141v-29h-141z" />
    <glyph glyph-name="u" unicode="u" horiz-adv-x="543" 
d="M304 430l141 11v-356q0 -37 12.5 -46.5t63.5 -9.5v-29l-139 -10v90q-16 -38 -45 -61q-34 -29 -83 -29q-81 0 -116 38q-20 23 -25 49.5t-5 81.5v150q0 68 -10 80t-66 12v29l141 11v-331q0 -24 2.5 -38.5t10.5 -30.5t26.5 -23.5t47.5 -7.5q55 0 87.5 45t32.5 111v179
q0 37 -12.5 46.5t-63.5 9.5v29z" />
    <glyph glyph-name="v" unicode="v" horiz-adv-x="516" 
d="M408 336l-130 -327q-8 -19 -20 -19q-8 0 -11.5 3.5t-7.5 15.5l-143 358q-9 23 -22.5 29t-55.5 6v29q61 -2 96 -2q79 0 104 2v-29q-56 0 -56 -26q0 -2 6 -19l112 -282l102 258q7 17 7 26q0 8 -2.5 16t-14 17t-30.5 10v29q46 -2 82 -2q45 0 74 2v-29q-22 0 -39 -6.5
t-27 -19t-14.5 -20t-9.5 -20.5z" />
    <glyph glyph-name="w" unicode="w" horiz-adv-x="707" 
d="M605 336l-115 -328q-7 -18 -18 -18q-13 0 -19 19l-100 285l-100 -285q-6 -19 -19 -19q-11 0 -18 18l-126 358q-8 24 -20.5 30t-51.5 6v29q63 -2 93 -2q77 0 102 2v-29q-58 0 -58 -27q0 -6 5 -19l96 -272l85 244q-18 52 -24 59q-13 15 -62 15v29q56 -2 90 -2q70 0 98 2
v-29q-58 0 -58 -28q0 -5 5 -17l100 -283l92 262q4 10 4 18q0 18 -13.5 32.5t-43.5 15.5v29q54 -2 85 -2q49 0 74 2v-29q-61 -4 -83 -66z" />
    <glyph glyph-name="x" unicode="x" horiz-adv-x="516" 
d="M280 236l131 -173q17 -23 34.5 -28.5t60.5 -5.5v-29q-60 2 -95 2q-77 0 -103 -2v29q18 1 26.5 9t8.5 16t-17 30l-82 107q-8 -10 -24.5 -31.5t-28.5 -37t-19 -24.5q-17 -22 -17 -37q0 -29 28 -32v-29q-50 2 -90 2q-45 0 -83 -2v29q79 2 131 66q2 2 26 32.5t43 55.5t19 26
q0 5 -6 11l-117 153q-15 19 -32.5 24t-58.5 5v29q61 -2 96 -2q78 0 103 2v-29q-19 -1 -27 -9t-8 -16t9 -20l78 -103l64 81q15 20 15 36q0 27 -29 31v29q50 -2 90 -2q41 0 84 2v-29q-73 0 -120 -53q-24 -27 -90 -113z" />
    <glyph glyph-name="y" unicode="y" horiz-adv-x="516" 
d="M405 334l-173 -426q-46 -112 -123 -112q-39 0 -64.5 22.5t-25.5 52.5q0 20 11.5 29.5t26.5 9.5t26 -10t11 -27q0 -16 -9 -25.5t-17 -11.5l-9 -2q19 -18 50 -18q50 0 89 68q1 2 1.5 3.5t2 4.5t3 7.5t5.5 13t8 19.5t11.5 29t16.5 39l-149 366q-10 24 -23 30t-56 6v29
q57 -2 97 -2q77 0 103 2v-29q-55 0 -55 -26q0 -7 6 -21l111 -272l102 252q6 15 6 24q0 41 -46 43v29q56 -2 81 -2q46 0 75 2v-29q-66 0 -93 -68z" />
    <glyph glyph-name="z" unicode="z" horiz-adv-x="435" 
d="M381 403l-276 -381h121q84 0 111 34.5t34 127.5h22l-16 -184h-326q-17 0 -20.5 2.5t-3.5 15.5l286 393h-116q-78 0 -103.5 -29t-30.5 -110h-22l11 159h314q14 0 19 -1.5t5 -9.5q0 -6 -9 -17z" />
    <glyph glyph-name="endash" unicode="&#x2013;" 
d="M489 256h-489v20h489v-20z" />
    <glyph glyph-name="emdash" unicode="&#x2014;" horiz-adv-x="979" 
d="M978 256h-978v20h978v-20z" />
    <glyph glyph-name="hungarumlaut" unicode="&#x2dd;" 
d="M236 640l-91 -126q-4 2 -18 10l54 147q10 28 31 28q12 0 23.5 -9t11.5 -24q0 -11 -11 -26zM399 640l-91 -126q-4 2 -18 10l54 147q10 28 31 28q12 0 23.5 -9t11.5 -24q0 -11 -11 -26z" />
    <glyph glyph-name="tilde" unicode="&#x2dc;" 
d="M393 664l14 -14q-29 -32 -41.5 -44.5t-29.5 -22.5t-35 -10q-21 0 -63 25q-35 24 -60 24q-22 0 -39 -11.5t-43 -37.5l-14 14q29 32 41.5 44.5t29.5 22.5t35 10q21 0 63 -25q35 -24 60 -24q22 0 39 11.5t43 37.5z" />
    <glyph glyph-name="dieresis" unicode="&#xa8;" 
d="M196 619q0 -19 -13.5 -32.5t-32.5 -13.5t-32.5 13t-13.5 33t13.5 33t32.5 13t32.5 -13.5t13.5 -32.5zM385 619q0 -20 -13.5 -33t-32.5 -13t-32.5 13.5t-13.5 32.5t13.5 32.5t32.5 13.5t32.5 -13t13.5 -33z" />
    <glyph glyph-name="space" unicode=" " horiz-adv-x="326" 
 />
    <glyph glyph-name="sfthyphen" unicode="&#xad;" horiz-adv-x="163" 
d="M271 189h-260v54h260v-54z" />
    <glyph glyph-name="nbspace" unicode="&#xa0;" horiz-adv-x="326" 
 />
  </font>
</defs>
</svg>
