<?xml version="1.0" standalone="no"?>
<!DOCTYPE svg PUBLIC "-//W3C//DTD SVG 1.1//EN" "http://www.w3.org/Graphics/SVG/1.1/DTD/svg11.dtd" >
<svg xmlns="http://www.w3.org/2000/svg" xmlns:xlink="http://www.w3.org/1999/xlink" version="1.1">
<metadata>
Created by FontForge 20190801 at Thu Oct  8 09:59:31 2009
 By www-data
Copyright 2003, 2009 B. Jackowski and J. M. Nowacki (on behalf of TeX users groups). This work is released under the GUST Font License --  see http://tug.org/fonts/licenses/GUST-FONT-LICENSE.txt for details.
</metadata>
<defs>
<font id="lmroman12regular" horiz-adv-x="490" >
  <font-face 
    font-family="lmroman12regular"
    font-weight="400"
    font-stretch="normal"
    units-per-em="1000"
    panose-1="0 0 5 0 0 0 0 0 0 0"
    ascent="806"
    descent="-194"
    x-height="431"
    cap-height="683"
    bbox="-422 -280 1394 1127"
    underline-thickness="44"
    underline-position="-175"
    unicode-range="U+0020-FB04"
  />
<missing-glyph horiz-adv-x="280" 
 />
    <glyph glyph-name="I_J" unicode="IJ" horiz-adv-x="821" 
d="M317 0q-24 2 -141 2q-116 0 -140 -2v29h22q53 0 65.5 8.5t12.5 38.5v531q0 30 -12.5 38.5t-65.5 8.5h-22v29q24 -2 141 -2q116 0 140 2v-29h-22q-53 0 -65.5 -8.5t-12.5 -38.5v-531q0 -30 12.5 -38.5t65.5 -8.5h22v-29zM769 654q-49 0 -60 -7t-11 -37v-461
q0 -78 -54 -124t-123 -46q-64 0 -108 39.5t-44 93.5q0 26 14.5 38.5t34.5 12.5q24 0 37 -14.5t13 -34.5q0 -26 -18 -39.5t-42 -9.5q20 -38 52 -52t58 -14q42 0 71.5 41.5t29.5 106.5v459q0 30 -14.5 39t-77.5 9h-31v29q27 -2 147 -2q101 0 126 2v-29z" />
    <glyph glyph-name="i_j" unicode="ij" horiz-adv-x="544" 
d="M174 604q0 -19 -13.5 -33.5t-35.5 -14.5q-19 0 -33.5 14t-14.5 34t14 34.5t35 14.5q19 0 33.5 -13.5t14.5 -35.5zM448 604q0 -19 -13.5 -33.5t-35.5 -14.5q-19 0 -33.5 14t-14.5 34t14 34.5t35 14.5q19 0 33.5 -13.5t14.5 -35.5zM241 0q-34 2 -103 2q-77 0 -105 -2v29
q51 0 63.5 6.5t12.5 38.5v272q0 37 -12.5 46t-60.5 9v29l136 11v-368q0 -30 10.5 -37t58.5 -7v-29zM448 -51q0 -67 -38 -110t-93 -43q-42 0 -74 20t-32 54q0 18 11.5 30t30.5 12q18 0 29.5 -12t11.5 -29q0 -34 -34 -41q10 -6 24 -9.5t23 -4.5h9q69 0 69 129v400
q0 37 -14 46.5t-70 9.5v29l147 11v-492z" />
    <glyph glyph-name="f_k" unicode="fk" horiz-adv-x="801" 
d="M772 0q-43 2 -88 2q-76 0 -101 -2v29q35 0 35 23q0 15 -22 46l-96 138l-61 -53v-109q0 -32 12.5 -38.5t63.5 -6.5v-29q-28 2 -108 2q-79 0 -107 -2v29q52 0 64 6.5t12 38.5v328h-209v-328q0 -32 12.5 -38.5t63.5 -6.5v-29q-28 2 -108 2q-79 0 -107 -2v29q52 0 64 6.5
t12 38.5v328h-78v29h78v115q0 73 63.5 115.5t147.5 42.5q47 0 81 -13l9 -3q3 0 17.5 3t16.5 3v-482l143 126q21 18 21 38q0 24 -29 26v29q23 -2 100 -2q56 0 76 2v-29q-66 -3 -134 -62q-3 -3 -21 -19t-34 -30.5t-16 -15.5l7 -10l134 -195q13 -19 29.5 -28.5t27.5 -11
t29 -1.5v-29zM376 431v172q-20 11 -20 34q0 19 19 35v5q-24 7 -61 7q-60 0 -104.5 -36.5t-44.5 -103.5v-113h211z" />
    <glyph glyph-name="f_f" unicode="ff" horiz-adv-x="571" 
d="M609 638q0 -18 -11 -29t-29 -11q-17 0 -28 11t-11 28q0 13 7 22.5t12.5 12.5t9.5 4q-16 8 -35 8q-35 0 -61.5 -37t-26.5 -99v-117h116v-29h-114v-326q0 -29 11.5 -38t63.5 -9h20v-29q-23 2 -121 2q-85 0 -113 -2v29q51 0 63.5 6.5t12.5 38.5v328h-208v-328
q0 -32 12.5 -38.5t63.5 -6.5v-29q-28 2 -108 2q-79 0 -107 -2v29q52 0 64 6.5t12 38.5v328h-78v29h78v115q0 74 64 116t144 42q79 0 109 -42q44 42 103 42q37 0 61 -19t24 -47zM390 663q-29 21 -80 21q-54 0 -99.5 -35t-45.5 -105v-113h210v117q0 24 4 39q-24 10 -24 37
q0 33 35 39z" />
    <glyph glyph-name="f_i" unicode="fi" horiz-adv-x="544" 
d="M515 0q-28 2 -108 2q-79 0 -107 -2v29q52 0 64 6.5t12 38.5v274q0 32 -9.5 43t-42.5 11h-157v-328q0 -32 12.5 -38.5t63.5 -6.5v-29q-28 2 -108 2q-79 0 -107 -2v29q52 0 64 6.5t12 38.5v328h-78v29h78v115q0 51 34 88.5t80 53.5t95 16q56 0 90 -28t34 -68q0 -21 -13 -32
t-29 -11q-15 0 -28 11t-13 31q0 42 45 42q-31 35 -88 35q-54 0 -100 -35.5t-46 -104.5v-113h117q16 0 18 1q4 2 18 2l121 8v-368q0 -32 12.5 -38.5t63.5 -6.5v-29z" />
    <glyph glyph-name="f_l" unicode="fl" horiz-adv-x="544" 
d="M515 0q-28 2 -108 2q-79 0 -107 -2v29q52 0 64 6.5t12 38.5v328h-209v-328q0 -32 12.5 -38.5t63.5 -6.5v-29q-28 2 -108 2q-79 0 -107 -2v29q52 0 64 6.5t12 38.5v328h-78v29h78v115q0 73 63.5 115.5t147.5 42.5q47 0 81 -13l9 -3q3 0 17.5 3t16.5 3v-620
q0 -32 12.5 -38.5t63.5 -6.5v-29zM376 431v172q-20 11 -20 34q0 19 19 35v5q-24 7 -61 7q-60 0 -104.5 -36.5t-44.5 -103.5v-113h211z" />
    <glyph glyph-name="f_f_i" unicode="&#xfb00;i" horiz-adv-x="816" 
d="M787 0q-28 2 -108 2q-79 0 -107 -2v29q52 0 64 6.5t12 38.5v274q0 32 -9.5 43t-42.5 11h-157v-328q0 -32 12.5 -38.5t63.5 -6.5v-29q-28 2 -108 2q-79 0 -107 -2v29q52 0 64 6.5t12 38.5v328h-209v-328q0 -32 12.5 -38.5t63.5 -6.5v-29q-28 2 -108 2q-79 0 -107 -2v29
q52 0 64 6.5t12 38.5v328h-78v29h78v115q0 74 64.5 116t143.5 42q81 0 112 -55q63 55 161 55q56 0 90 -28t34 -68q0 -21 -13 -32t-29 -11q-15 0 -28 11t-13 31q0 42 45 42q-31 35 -88 35q-54 0 -100 -35.5t-46 -104.5v-113h117q16 0 18 1q4 2 18 2l121 8v-368
q0 -32 12.5 -38.5t63.5 -6.5v-29zM397 649q-28 35 -88 35q-51 0 -97.5 -35t-46.5 -105v-113h211v115q0 15 1 22q-26 10 -26 39q0 8 2 15.5t13 17t31 9.5z" />
    <glyph glyph-name="f_f_l" unicode="ffl" horiz-adv-x="816" 
d="M787 0q-28 2 -108 2q-79 0 -107 -2v29q52 0 64 6.5t12 38.5v328h-209v-328q0 -32 12.5 -38.5t63.5 -6.5v-29q-28 2 -108 2q-79 0 -107 -2v29q52 0 64 6.5t12 38.5v328h-209v-328q0 -32 12.5 -38.5t63.5 -6.5v-29q-28 2 -108 2q-79 0 -107 -2v29q52 0 64 6.5t12 38.5v328
h-78v29h78v115q0 74 64 116t145 42q44 0 74 -14.5t42 -36.5q61 51 158 51q47 0 81 -13l9 -3q3 0 17.5 3t16.5 3v-620q0 -32 12.5 -38.5t63.5 -6.5v-29zM391 663q-29 21 -80 21q-55 0 -100.5 -35.5t-45.5 -104.5v-113h211v115q0 27 5 41q-25 9 -25 37q0 33 35 39zM648 431
v172q-20 11 -20 34q0 19 19 35v5q-24 7 -61 7q-60 0 -104.5 -36.5t-44.5 -103.5v-113h211z" />
    <glyph glyph-name=".notdef" horiz-adv-x="280" 
 />
    <glyph glyph-name=".null" horiz-adv-x="0" 
 />
    <glyph glyph-name="nonmarkingreturn" horiz-adv-x="333" 
 />
    <glyph glyph-name="space" unicode=" " horiz-adv-x="326" 
 />
    <glyph glyph-name="exclam" unicode="!" horiz-adv-x="272" 
d="M184 668l-36 -467q-1 -13 -3 -17t-10 -4q-11 0 -12 21l-36 458q-2 28 13.5 42t35.5 14q18 0 33 -12.5t15 -34.5zM184 49q0 -20 -14 -34.5t-35 -14.5q-19 0 -33.5 14t-14.5 34t14 34.5t35 14.5q20 0 34 -14.5t14 -33.5z" />
    <glyph glyph-name="quotedbl" unicode="&#x22;" horiz-adv-x="358" 
d="M168 672l-21 -249h-22l-21 249q-1 13 8.5 22.5t23.5 9.5t23.5 -9.5t8.5 -22.5zM254 672l-21 -249h-22l-21 249q-1 13 8.5 22.5t23.5 9.5t23.5 -9.5t8.5 -22.5z" />
    <glyph glyph-name="numbersign" unicode="#" horiz-adv-x="816" 
d="M761 156q0 -18 -32 -18h-219l-82 -309q-7 -23 -20 -23q-19 0 -19 19q0 4 4 18l78 295h-187l-82 -309q-7 -23 -20 -23q-19 0 -19 19q0 4 4 18l78 295h-159q-32 0 -32 19q0 18 32 18h170l39 149h-209q-32 0 -32 19q0 18 32 18h219l82 310q7 23 20 23q19 0 19 -19
q0 -4 -4 -18l-78 -296h187l82 310q7 23 20 23q19 0 19 -19q0 -4 -4 -18l-78 -296h159q32 0 32 -19q0 -18 -32 -18h-170l-39 -149h209q32 0 32 -19zM521 324h-188l-39 -149h188z" />
    <glyph glyph-name="dollar" unicode="$" 
d="M435 194q0 -78 -49 -137t-127 -66v-47h-29v46q-86 6 -131 60t-45 128q0 46 42 46q18 0 29.5 -11.5t11.5 -29.5q0 -21 -13 -31.5t-28 -10.5q-7 0 -16 3q22 -115 150 -125v304q-46 12 -70 22t-49 34q-57 57 -57 136q0 72 49.5 127t126.5 61v47h29v-46q85 -4 130.5 -54
t45.5 -120q0 -46 -42 -46q-18 0 -29.5 11.5t-11.5 29.5q0 20 13 31t29 11q5 0 14 -2q-11 51 -51.5 79t-97.5 31v-276q27 -7 42.5 -11.5t38.5 -18t40 -32.5q55 -61 55 -143zM230 407v267q-59 -6 -94 -45.5t-35 -87.5q0 -12 2.5 -24t13 -36.5t39.5 -44.5t74 -29zM388 167
q0 14 -3.5 29.5t-14 41.5t-39.5 47t-72 30v-295q58 7 93.5 49.5t35.5 97.5z" />
    <glyph glyph-name="percent" unicode="%" horiz-adv-x="816" 
d="M679 731q0 -5 -8 -17l-497 -756q-10 -14 -19 -14q-8 0 -13.5 5.5t-5.5 13.5q0 5 8 17l446 678l-1 1q-61 -38 -135 -38q-76 0 -150 43q22 -55 22 -116q0 -84 -37 -142.5t-91 -58.5q-57 0 -100.5 57t-43.5 145q0 86 43.5 143.5t100.5 57.5q38 0 69 -31q81 -78 186 -78
q117 0 187 94q12 15 21 15q7 0 12.5 -5t5.5 -14zM761 145q0 -84 -37 -142.5t-91 -58.5q-57 0 -100.5 57t-43.5 145q0 86 43.5 143.5t100.5 57.5q54 0 91 -58t37 -144zM304 549q0 76 -31.5 128.5t-73.5 52.5q-7 0 -15 -1.5t-22 -12t-24 -28t-18 -54t-8 -86.5q0 -49 8 -85.5
t18.5 -54t24.5 -27.5t21.5 -12t14.5 -2q42 0 73.5 52.5t31.5 129.5zM739 146q0 76 -31.5 128.5t-73.5 52.5q-7 0 -15 -1.5t-22 -12t-24 -28t-18 -54t-8 -86.5q0 -49 8 -85.5t18.5 -54t24.5 -27.5t21.5 -12t14.5 -2q42 0 73.5 52.5t31.5 129.5z" />
    <glyph glyph-name="ampersand" unicode="&#x26;" horiz-adv-x="762" 
d="M712 402q-41 0 -68.5 -14t-40 -30.5t-34.5 -54.5q-89 -151 -133 -205q77 -90 136 -90q41 0 76.5 30t36.5 83h22q-1 -63 -41.5 -102.5t-97.5 -39.5q-84 0 -172 77q-82 -77 -178 -77q-72 0 -124.5 42.5t-52.5 106.5q0 51 37 92l115 125q7 7 7 10l-5 17q-34 94 -34 184
q0 74 40 116.5t91 42.5q28 0 47 -17t25.5 -43.5t8.5 -40.5t2 -25q0 -75 -118 -202q21 -54 60.5 -120t63 -97.5t41.5 -53.5q37 46 71 101q49 80 72 123q4 8 4 18q0 21 -19 32.5t-51 11.5v29q23 -2 114 -2l99 2v-29zM353 588q0 12 -1.5 26t-7 34.5t-18.5 33.5t-32 13
q-30 0 -52 -29.5t-22 -86.5q0 -87 30 -170q103 118 103 179zM379 73q-109 121 -170 260q-61 -68 -61 -69q-31 -42 -31 -105q0 -34 9.5 -66.5t36 -58.5t64.5 -26q83 0 152 65z" />
    <glyph glyph-name="quotesingle" unicode="'" horiz-adv-x="272" 
d="M168 672l-21 -249h-22l-21 249q-1 13 8.5 22.5t23.5 9.5t23.5 -9.5t8.5 -22.5z" />
    <glyph glyph-name="parenleft" unicode="(" horiz-adv-x="381" 
d="M325 -243q0 -8 -9 -8q-7 0 -30.5 20t-59 65.5t-62.5 99.5q-66 136 -66 315q0 184 74 331q22 45 55.5 86.5t57.5 62.5t31 21q9 0 9 -8q0 -5 -10 -14q-163 -166 -163 -479q0 -312 156 -470q17 -17 17 -22z" />
    <glyph glyph-name="parenright" unicode=")" horiz-adv-x="381" 
d="M282 249q0 -182 -74 -330q-22 -45 -55.5 -86.5t-57.5 -62.5t-31 -21q-9 0 -9 8q0 5 10 14q163 166 163 479q0 312 -156 470q-17 17 -17 22q0 8 9 8q7 0 30.5 -20t59 -65.5t62.5 -99.5q66 -137 66 -316z" />
    <glyph glyph-name="asterisk" unicode="*" 
d="M425 441q0 -12 -7.5 -19.5t-18.5 -7.5q-7 0 -20 10l-124 92l14 -162q3 -35 -24 -35q-11 0 -19 8t-6 18v5l14 166l-124 -93q-12 -9 -20 -9q-11 0 -18.5 7.5t-7.5 19.5q0 15 21 25l140 69l-142 69l-3 2q-3 1 -3.5 1.5t-3 2t-3.5 2.5t-2.5 3t-2 3.5t-1 4t-0.5 5.5
q0 12 7.5 19.5t18.5 7.5q7 0 20 -10l124 -92l-14 162v10q-2 10 6 17.5t19 7.5q27 0 24 -35l-14 -162l124 93q12 9 20 9q11 0 18.5 -7.5t7.5 -19.5q0 -10 -4.5 -14.5t-16.5 -10.5l-140 -69l142 -69l3 -1q3 -2 3.5 -2.5t3 -2t3.5 -2.5t2.5 -3t2 -3.5t1 -4t0.5 -5.5z" />
    <glyph glyph-name="plus" unicode="+" horiz-adv-x="762" 
d="M707 249q0 -18 -32 -18h-276v-276q0 -32 -19 -32q-18 0 -18 32v276h-276q-32 0 -32 19q0 18 32 18h276v276q0 32 19 32q18 0 18 -32v-276h276q32 0 32 -19z" />
    <glyph glyph-name="comma" unicode="," horiz-adv-x="272" 
d="M195 -4q0 -52 -20 -98.5t-39 -68.5t-26 -22q-10 0 -10 10q0 5 5 9q70 73 70 170l-2 19q-2 0 -5 -3q-14 -12 -32 -12q-22 0 -35.5 14t-13.5 35q0 20 13.5 34t34.5 14q29 0 44.5 -27t15.5 -74z" />
    <glyph glyph-name="hyphen" unicode="-" horiz-adv-x="326" 
d="M271 189h-260v54h260v-54z" />
    <glyph glyph-name="period" unicode="." horiz-adv-x="272" 
d="M184 49q0 -21 -14.5 -35t-34.5 -14q-18 0 -33 14t-15 35q0 19 14 33.5t35 14.5q19 0 33.5 -14t14.5 -34z" />
    <glyph glyph-name="slash" unicode="/" 
d="M435 731q0 -4 -5 -17l-337 -943q-2 -6 -3 -8t-3.5 -6t-5.5 -5.5t-8 -1.5q-19 0 -19 19q0 4 5 17l337 942q8 22 21 22q7 0 12.5 -5t5.5 -14z" />
    <glyph glyph-name="zero" unicode="0" 
d="M448 320q0 -152 -38 -231q-55 -110 -166 -110q-45 0 -89 24t-71 76q-43 85 -43 241q0 148 38 233q26 58 71.5 85t94.5 27q45 0 89.5 -24.5t72.5 -80.5q41 -87 41 -240zM372 332q0 147 -13 204q-13 58 -46.5 83.5t-68.5 25.5t-67 -25.5t-44 -72.5q-16 -59 -16 -215
q0 -146 11 -206q13 -72 47 -99.5t69 -27.5q36 0 70 28t47 101q11 61 11 204z" />
    <glyph glyph-name="one" unicode="1" 
d="M410 0q-27 2 -156 2q-130 0 -157 -2v29h31q62 0 76.5 9t14.5 39v521q-55 -26 -128 -26v29q120 0 177 64q15 0 17.5 -3.5t2.5 -20.5v-564q0 -30 14.5 -39t76.5 -9h31v-29z" />
    <glyph glyph-name="two" unicode="2" 
d="M440 168l-26 -168h-365v24l202 226q106 119 106 223q0 71 -37.5 117t-99.5 46q-48 0 -86 -31.5t-52 -82.5q3 1 14 1q21 0 34 -13t13 -34q0 -22 -14.5 -34.5t-32.5 -12.5q-7 0 -14.5 1.5t-20 14t-12.5 35.5q0 70 51 127.5t133 57.5q88 0 147.5 -53.5t59.5 -138.5
q0 -30 -8.5 -56.5t-19.5 -47.5t-42.5 -54t-56.5 -57t-81 -76q-10 -9 -54.5 -53.5t-59.5 -57.5h185q87 0 94 9q8 12 21 88h22z" />
    <glyph glyph-name="three" unicode="3" 
d="M448 171q0 -77 -59.5 -134.5t-147.5 -57.5q-83 0 -141.5 47.5t-58.5 114.5q0 26 15 39t35 13q21 0 35 -13.5t14 -35.5q0 -26 -18 -39.5t-43 -9.5q20 -45 67.5 -67t91.5 -22q46 0 81.5 38.5t35.5 127.5q0 76 -31 121t-92 45h-46h-11.5t-6.5 1t-4 3t-1 6q0 7 4 8.5t17 2.5
l30 3q60 2 91 48q32 47 32 118q0 34 -10 58.5t-27 35t-31.5 15t-29.5 4.5q-6 0 -13 -0.5t-26 -4t-35 -10t-34 -20.5t-29 -33q3 1 11 1q18 0 32 -12t14 -34q0 -21 -14 -33t-31 -12q-16 0 -31 11t-15 37q0 55 50 94.5t124 39.5t126.5 -39.5t52.5 -97.5q0 -59 -39.5 -108
t-103.5 -68q73 -13 121.5 -63t48.5 -118z" />
    <glyph glyph-name="four" unicode="4" 
d="M462 167h-101v-91q0 -30 12 -38.5t63 -8.5h20v-29q-23 2 -131 2q-107 0 -130 -2v29h20q52 0 63.5 8.5t11.5 38.5v91h-263v29l301 467q8 12 19 12q10 0 12 -4.5t2 -19.5v-455h101v-29zM295 196v377l-243 -377h243z" />
    <glyph glyph-name="five" unicode="5" 
d="M440 201q0 -94 -63 -158t-149 -64q-79 0 -129 56.5t-50 125.5q0 26 13.5 37t30.5 11q19 0 31.5 -12t12.5 -32q0 -23 -14 -33.5t-30 -10.5q-9 0 -16 3q13 -53 55.5 -85.5t93.5 -32.5q68 0 105 61q28 45 28 140q0 85 -18 126q-31 66 -87 66q-81 0 -125 -65q-11 -13 -16 -13
q-8 0 -10 4.5t-2 19.5v297q0 22 8 22q3 0 10 -3q66 -28 132 -28q67 0 130 27l13 4q8 0 8 -9t-21.5 -31t-67 -44t-96.5 -22q-43 0 -89 15v-207q49 53 127 53t131.5 -64t53.5 -154z" />
    <glyph glyph-name="six" unicode="6" 
d="M448 204q0 -96 -59.5 -160.5t-142.5 -64.5q-28 0 -54 8.5t-54.5 31.5t-49 59t-34 97.5t-13.5 140.5q0 157 78.5 253t179.5 96q61 0 93 -30t32 -73q0 -44 -42 -44q-19 0 -30 12t-11 29q0 41 50 41q-26 41 -91 41q-19 0 -39.5 -6t-46 -25t-45 -49.5t-33 -85.5t-13.5 -127
v-27q5 15 13 29t23 33.5t40 31t56 11.5q78 0 135.5 -62.5t57.5 -159.5zM366 205q0 93 -16 130q-31 71 -99 71q-62 0 -94 -54.5t-32 -123.5q0 -90 19 -145q7 -16 16.5 -30.5t33 -30.5t52.5 -16q67 0 101 65q19 38 19 134z" />
    <glyph glyph-name="seven" unicode="7" 
d="M475 621l-145 -208q-71 -101 -71 -332v-50q0 -52 -42 -52q-41 0 -41 51q0 85 28.5 176.5t53 137t46.5 77.5l106 152h-212q-89 0 -97 -6q-11 -10 -25 -91h-22l31 200h22q3 -12 8 -17.5t33.5 -10t85.5 -4.5h241v-23z" />
    <glyph glyph-name="eight" unicode="8" 
d="M448 166q0 -78 -60 -132.5t-144 -54.5q-81 0 -142 48t-61 124q0 56 37.5 104t109.5 81q-70 49 -82 63q-38 46 -38 102q0 68 51.5 116t125.5 48q71 0 123.5 -41.5t52.5 -105.5q0 -91 -123 -157q38 -23 57.5 -37.5t45 -38.5t36.5 -53t11 -66zM380 517q0 53 -40.5 88.5
t-95.5 35.5q-53 0 -94 -29.5t-41 -76.5t53 -84l116 -76q102 56 102 142zM402 134q0 62 -72 109l-121 79q-52 -24 -87 -69.5t-35 -101.5q0 -61 46.5 -103t111.5 -42q62 0 109.5 36.5t47.5 91.5z" />
    <glyph glyph-name="nine" unicode="9" 
d="M448 329q0 -156 -73.5 -253t-172.5 -97q-64 0 -100.5 28.5t-36.5 75.5q0 20 11.5 31.5t30.5 11.5t30 -12t11 -29q0 -24 -16.5 -34t-26.5 -7h-6q27 -38 102 -38q26 0 51.5 12t52.5 41t44 89t17 143v33q-41 -105 -132 -105q-78 0 -135.5 63t-57.5 159q0 97 61 160.5
t146 63.5q36 0 69 -15.5t63.5 -51t49 -104.5t18.5 -165zM364 419q0 100 -20 149q-32 73 -96 73q-62 0 -99 -56q-12 -19 -18 -45t-7 -45t-1 -55q0 -93 16 -131q33 -70 99 -70q61 0 93.5 54.5t32.5 125.5z" />
    <glyph glyph-name="colon" unicode=":" horiz-adv-x="272" 
d="M184 383q0 -21 -14.5 -35t-34.5 -14q-18 0 -33 14t-15 35q0 19 14 33.5t35 14.5q19 0 33.5 -14t14.5 -34zM184 49q0 -21 -14.5 -35t-34.5 -14q-18 0 -33 14t-15 35q0 19 14 33.5t35 14.5q19 0 33.5 -14t14.5 -34z" />
    <glyph glyph-name="semicolon" unicode=";" horiz-adv-x="272" 
d="M184 383q0 -21 -14.5 -35t-34.5 -14q-18 0 -33 14t-15 35q0 19 14 33.5t35 14.5q19 0 33.5 -14t14.5 -34zM187 -2q0 -53 -18.5 -100t-35.5 -69t-23 -22q-10 0 -10 10q0 4 6 12q61 75 61 181q-13 -10 -31 -10q-22 0 -35.5 14t-13.5 35q0 20 13.5 34t34.5 14q52 0 52 -99z
" />
    <glyph glyph-name="less" unicode="&#x3c;" horiz-adv-x="762" 
d="M679 -9q0 -19 -19 -19q-4 1 -17 7l-541 249q-20 9 -20 22q0 12 20 21l541 249l17 7q19 0 19 -19q0 -12 -20 -21l-515 -238l515 -237q20 -9 20 -21z" />
    <glyph glyph-name="equal" unicode="=" horiz-adv-x="762" 
d="M707 342q0 -18 -32 -18h-589q-32 0 -32 19q0 18 32 18h589q32 0 32 -19zM707 156q0 -18 -32 -18h-589q-32 0 -32 19q0 18 32 18h589q32 0 32 -19z" />
    <glyph glyph-name="greater" unicode="&#x3e;" horiz-adv-x="762" 
d="M679 250q0 -13 -20 -22l-541 -249l-17 -7q-8 0 -13.5 5.5t-5.5 12.5q0 13 20 22l515 238l-514 237q-21 10 -21 22q0 7 5.5 12.5t13.5 5.5q4 -1 17 -7l541 -249q20 -9 20 -21z" />
    <glyph glyph-name="question" unicode="?" horiz-adv-x="462" 
d="M407 568q0 -64 -54 -104q-125 -93 -125 -222v-37q0 -15 -1.5 -20t-9.5 -5t-9.5 4t-1.5 18v48q0 53 21.5 115t68.5 112q11 12 17 20t12 28.5t6 47.5q0 21 -2 34.5t-11.5 34t-34.5 31.5t-65 11q-43 0 -80 -19.5t-53 -56.5q2 1 10 1q19 0 30.5 -11.5t11.5 -29.5
q0 -21 -13 -31.5t-28 -10.5t-28.5 10t-13.5 34q0 52 45.5 93t121.5 41q98 0 142 -40.5t44 -95.5zM265 49q0 -20 -14 -34.5t-35 -14.5q-19 0 -33.5 13.5t-14.5 35.5q0 19 13.5 33.5t35.5 14.5q19 0 33.5 -14.5t14.5 -33.5z" />
    <glyph glyph-name="at" unicode="@" horiz-adv-x="762" 
d="M707 336q0 -46 -3.5 -79t-13.5 -64t-31 -47.5t-52 -16.5q-33 0 -62 18.5t-35 54.5q-49 -73 -130 -73q-79 0 -137 63t-58 155t58 155t137 63q84 0 138 -85h34q17 0 20.5 -3t3.5 -20v-241q0 -67 36 -67q24 0 39.5 15t22.5 44t9 56t2 67q0 88 -28.5 158t-74.5 111t-98 62.5
t-104 21.5q-124 0 -214 -98t-90 -239q0 -137 88.5 -237t220.5 -100q138 0 261 59q15 8 32 8h6q22 0 22 -8q0 -10 -55 -29.5t-92 -28.5q-87 -21 -173 -21q-95 0 -172 50t-118.5 131t-41.5 176q0 149 96 253t231 104q59 0 116 -24t104.5 -69t76.5 -116.5t29 -158.5zM511 262
v170q0 14 -2 19.5t-12 21.5q-22 35 -53.5 53.5t-61.5 18.5q-55 0 -93.5 -58t-38.5 -140t38.5 -140t93.5 -58q31 0 62.5 18.5t52.5 51.5q10 17 12 23t2 20z" />
    <glyph glyph-name="A" unicode="A" horiz-adv-x="734" 
d="M702 0q-23 2 -123 2q-107 0 -130 -2v29q76 0 76 30q0 5 -5 17l-55 157h-252l-46 -133q-5 -13 -5 -21q0 -21 18 -35t49 -15v-29q-26 2 -102 2l-96 -2v29q83 1 106 68l209 598q4 12 7.5 15.5t13.5 3.5t13.5 -3.5t6.5 -14.5l218 -626q10 -29 27 -35t70 -6v-29zM455 262
l-116 333l-116 -333h232z" />
    <glyph glyph-name="B" unicode="B" horiz-adv-x="693" 
d="M638 183q0 -74 -62.5 -128.5t-156.5 -54.5h-376v29h20q51 0 63 8.5t12 38.5v531q0 30 -12 38.5t-63 8.5h-20v29h349q95 0 156.5 -51t61.5 -118q0 -56 -46 -99.5t-118 -57.5q86 -9 139 -60t53 -114zM522 514q0 50 -34 95t-102 45h-126q-32 0 -39 -7t-7 -33v-249h145
q77 0 120 46.5t43 102.5zM547 184q0 63 -39 112t-107 49h-187v-276q0 -26 7 -33t39 -7h128q71 0 115 46t44 109z" />
    <glyph glyph-name="C" unicode="C" horiz-adv-x="707" 
d="M652 232q0 -57 -29 -114t-90 -98t-138 -41q-138 0 -239.5 105t-101.5 258q0 151 101 256.5t240 105.5q53 0 102 -24.5t83 -66.5l49 79q7 12 13 12q7 0 8.5 -4t1.5 -19v-237q0 -16 -2 -19.5t-12 -3.5q-6 0 -8.5 1.5t-3.5 4t-2 9.5q-15 110 -75.5 174.5t-141.5 64.5
q-26 0 -55 -6.5t-67 -28t-67.5 -56t-50 -97.5t-20.5 -145q0 -83 21 -146.5t50.5 -98t68 -56t67 -27.5t54.5 -6q52 0 99 23t83 77t40 129q0 12 11 12q8 0 9.5 -3.5t1.5 -13.5z" />
    <glyph glyph-name="D" unicode="D" horiz-adv-x="748" 
d="M693 335q0 -139 -88 -237t-213 -98h-350v29h20q51 0 63 8.5t12 38.5v531q0 30 -12 38.5t-63 8.5h-20v29h350q125 0 213 -101.5t88 -246.5zM602 336q0 141 -45 212q-66 106 -190 106h-105q-32 0 -39 -7t-7 -33v-545q0 -26 7 -33t39 -7h105q112 0 177 83q58 75 58 224z" />
    <glyph glyph-name="E" unicode="E" horiz-adv-x="666" 
d="M638 256l-40 -256h-557v29h20q51 0 63 8.5t12 38.5v529q0 30 -12 38.5t-63 8.5h-20v29h544l26 -223h-22q-12 113 -49 153.5t-144 40.5h-133q-32 0 -39 -7t-7 -33v-244h91q69 0 88 24t19 93h22v-263h-22q0 69 -19 93t-88 24h-91v-270q0 -26 7 -33t39 -7h136q50 0 85 9.5
t57 24.5t37 46.5t22.5 62.5t15.5 84h22z" />
    <glyph glyph-name="F" unicode="F" horiz-adv-x="639" 
d="M597 458h-22q-11 111 -47 152.5t-140 41.5h-125q-32 0 -39 -7t-7 -33v-257h88q67 0 85.5 24.5t18.5 92.5h22v-263h-22q0 68 -18.5 92.5t-85.5 24.5h-88v-249q0 -30 14 -39t75 -9h30v-29q-29 2 -152 2q-119 0 -143 -2v29h20q51 0 63 8.5t12 38.5v529q0 30 -12 38.5
t-63 8.5h-20v29h530z" />
    <glyph glyph-name="G" unicode="G" horiz-adv-x="768" 
d="M719 242q-47 0 -57.5 -7t-10.5 -37v-175q0 -22 -8 -22q-7 0 -26.5 21t-32.5 44q-26 -45 -78 -66t-111 -21q-139 0 -240 105t-101 258q0 152 101 257t239 105q112 0 185 -91l49 79q7 12 13 12q7 0 8.5 -4t1.5 -19v-237q0 -16 -2 -19.5t-12 -3.5q-5 0 -7 0.5t-3.5 2.5t-2 4
t-1.5 7q-12 84 -48.5 140t-79 78t-89.5 22q-26 0 -54.5 -6.5t-66.5 -28t-67.5 -56t-50 -97.5t-20.5 -145q0 -81 20.5 -144t50 -97.5t68 -56.5t69 -29t58.5 -7q16 0 36.5 3.5t50.5 14t50 37.5t20 67v64q0 30 -14.5 39t-76.5 9h-31v29q27 -2 146 -2q99 0 125 2v-29z" />
    <glyph glyph-name="H" unicode="H" horiz-adv-x="734" 
d="M692 0q-24 2 -136 2q-111 0 -135 -2v29h20q51 0 63 8.5t12 38.5v265h-299v-265q0 -30 12 -38.5t63 -8.5h20v-29q-24 2 -136 2q-111 0 -135 -2v29h20q51 0 63 8.5t12 38.5v531q0 30 -12 38.5t-63 8.5h-20v29q24 -2 136 -2q111 0 135 2v-29h-20q-51 0 -63 -8.5t-12 -38.5
v-237h299v237q0 30 -12 38.5t-63 8.5h-20v29q24 -2 136 -2q111 0 135 2v-29h-20q-51 0 -63 -8.5t-12 -38.5v-531q0 -30 12 -38.5t63 -8.5h20v-29z" />
    <glyph glyph-name="I" unicode="I" horiz-adv-x="353" 
d="M317 0q-24 2 -141 2q-116 0 -140 -2v29h22q53 0 65.5 8.5t12.5 38.5v531q0 30 -12.5 38.5t-65.5 8.5h-22v29q24 -2 141 -2q116 0 140 2v-29h-22q-53 0 -65.5 -8.5t-12.5 -38.5v-531q0 -30 12.5 -38.5t65.5 -8.5h22v-29z" />
    <glyph glyph-name="J" unicode="J" horiz-adv-x="503" 
d="M451 654q-49 0 -60 -7t-11 -37v-461q0 -78 -54 -124t-123 -46q-64 0 -108 39.5t-44 93.5q0 26 14.5 38.5t34.5 12.5q24 0 37 -14.5t13 -34.5q0 -26 -18 -39.5t-42 -9.5q20 -38 52 -52t58 -14q42 0 71.5 41.5t29.5 106.5v459q0 30 -14.5 39t-77.5 9h-31v29q27 -2 147 -2
q101 0 126 2v-29z" />
    <glyph glyph-name="K" unicode="K" horiz-adv-x="761" 
d="M719 0q-35 2 -111 2q-102 0 -126 -2v29q52 0 52 28q0 9 -3 15q-3 8 -10 18l-185 277l-119 -115v-174q0 -35 14.5 -42t80.5 -7v-29q-24 2 -136 2q-111 0 -135 -2v29q66 0 80.5 7t14.5 42v527q0 35 -14.5 42t-80.5 7v29q24 -2 136 -2q111 0 135 2v-29q-66 0 -80.5 -7
t-14.5 -42v-323l305 295q29 28 29 45q0 30 -39 32v29q23 -2 108 -2q57 0 86 2v-29q-56 -1 -95 -29t-150 -138q-52 -48 -70 -68l225 -337q23 -35 42 -44t61 -9v-29z" />
    <glyph glyph-name="L" unicode="L" horiz-adv-x="612" 
d="M570 256l-26 -256h-503v29h20q51 0 63 8.5t12 38.5v531q0 30 -12 38.5t-63 8.5h-20v29q24 -2 143 -2q123 0 152 2v-29h-30q-61 0 -75 -9t-14 -39v-537q0 -26 7 -33t39 -7h87q36 0 65.5 8t48.5 19t34 31.5t23 36.5t14 44t8 43.5t5 44.5h22z" />
    <glyph glyph-name="M" unicode="M" horiz-adv-x="897" 
d="M852 0q-23 2 -132 2t-132 -2v29h20q51 0 63 8.5t12 38.5v578h-1l-243 -634q-4 -9 -5.5 -12.5t-4.5 -5.5t-7 -2q-10 0 -17 19l-241 630h-1v-546q0 -15 2 -24t9.5 -22.5t29 -20.5t54.5 -7v-29q-26 2 -107 2t-107 -2v29q33 0 54.5 7t29 20.5t9.5 22.5t2 24v504
q0 30 -12 38.5t-63 8.5h-20v29h155q17 0 21.5 -2.5t9.5 -16.5l218 -570l218 569q6 14 10.5 17t20.5 3h155v-29h-20q-51 0 -63 -8.5t-12 -38.5v-531q0 -30 12 -38.5t63 -8.5h20v-29z" />
    <glyph glyph-name="N" unicode="N" horiz-adv-x="734" 
d="M692 654q-33 0 -54.5 -7t-29 -21t-9.5 -23t-2 -25v-572q-3 -6 -12 -6q-7 0 -18 15l-390 594q-15 20 -17 22v-526q0 -16 2 -25t9.5 -23t29 -21t54.5 -7v-29q-26 2 -107 2t-107 -2v29q33 0 54.5 7t29 21t9.5 23t2 25v542q-27 7 -95 7v29h153q16 0 20.5 -2t11.5 -12
l347 -528v437q0 16 -2 25t-9.5 23t-29 21t-54.5 7v29q26 -2 107 -2t107 2v-29z" />
    <glyph glyph-name="O" unicode="O" horiz-adv-x="762" 
d="M707 339q0 -150 -96 -255t-231 -105q-133 0 -229.5 104.5t-96.5 255.5q0 153 96.5 259t230.5 106q132 0 229 -106t97 -259zM614 354q0 86 -22 152.5t-58 103t-75 54.5t-79 18q-30 0 -60.5 -10t-62 -35t-55.5 -61.5t-39.5 -94t-15.5 -127.5q0 -74 14.5 -134.5t38.5 -100
t55 -67t62.5 -39t63.5 -11.5q39 0 78 19.5t74.5 58.5t58 110t22.5 164z" />
    <glyph glyph-name="P" unicode="P" horiz-adv-x="666" 
d="M611 498q0 -75 -67.5 -127.5t-156.5 -52.5h-169v-242q0 -30 12 -38.5t63 -8.5h20v-29q-24 2 -136 2q-111 0 -135 -2v29h20q51 0 63 8.5t12 38.5v531q0 30 -12 38.5t-63 8.5h-20v29h337q99 0 165.5 -55t66.5 -130zM518 498q0 20 -1 33.5t-9.5 39t-24 41.5t-48.5 29t-79 13
h-94q-32 0 -39 -7t-7 -33v-272h139q46 0 79 13t49 29t24.5 41.5t9.5 39t1 33.5z" />
    <glyph glyph-name="Q" unicode="Q" horiz-adv-x="762" 
d="M712 -10q0 -10 -1 -23.5t-7.5 -44.5t-17.5 -54.5t-35 -42.5t-57 -19q-26 0 -45.5 11t-30.5 24.5t-20 43.5t-13 49t-10 60q-45 -15 -94 -15q-135 0 -231 105t-96 255q0 153 96.5 259t230.5 106q132 0 229 -106t97 -259q0 -115 -58.5 -205.5t-144.5 -127.5q19 -57 40.5 -82
t57.5 -25q32 0 59 23.5t32 72.5q2 14 9 14q10 0 10 -19zM616 340q0 88 -22 156.5t-57 107.5t-75.5 58.5t-81.5 19.5q-40 0 -79.5 -19t-75 -57.5t-58 -107.5t-22.5 -158q0 -77 16.5 -138t43.5 -98t55 -59t59 -33q-16 24 -16 51q0 33 21.5 58.5t57.5 25.5q73 0 110 -109
q124 87 124 302zM470 24q-10 49 -29.5 76t-58.5 27q-27 0 -43 -19.5t-16 -43.5q0 -23 14.5 -43t43.5 -20q46 0 89 23z" />
    <glyph glyph-name="R" unicode="R" horiz-adv-x="721" 
d="M717 87q0 -17 -5.5 -38.5t-28 -45.5t-57.5 -24q-38 0 -68.5 12t-44.5 26q-31 30 -37.5 56t-6.5 92q0 57 -5 79t-29 49q-38 39 -103 39h-116v-256q0 -30 12 -38.5t63 -8.5h20v-29q-23 2 -135 2q-111 0 -134 -2v29h20q51 0 63 8.5t12 38.5v531q0 30 -12 38.5t-63 8.5h-20
v29h299q107 0 182 -53.5t75 -126.5q0 -56 -50 -100.5t-126 -62.5q54 -15 92 -53q14 -15 22.5 -34t11.5 -33t7 -46l10 -75q7 -49 20 -74.5t44 -25.5q26 0 44 22t22 65q1 5 1 7t1 4.5t3 3.5t6 1q11 0 11 -15zM505 503q0 43 -15 73.5t-34 45t-52.5 22.5t-53.5 9t-54 1
q-50 0 -59 -1q-10 -2 -14.5 -7.5t-5.5 -11.5t-1 -20v-262h112q177 0 177 151z" />
    <glyph glyph-name="S" unicode="S" horiz-adv-x="544" 
d="M489 184q0 -84 -55 -144.5t-138 -60.5q-118 0 -185 74l-33 -60q-8 -14 -14 -14q-7 0 -8.5 4t-1.5 19v202q0 15 1.5 19t9.5 4q10 0 11 -8q3 -103 63 -157q62 -54 156 -54q60 0 98 43.5t38 102.5q0 42 -21.5 79t-56.5 54q-21 9 -104 28q-62 16 -89.5 27.5t-51.5 38.5
q-54 58 -54 132q0 78 55 134.5t137 56.5q101 0 158 -74l33 61q7 13 14 13t8.5 -4t1.5 -19v-202q0 -15 -1.5 -19t-9.5 -4q-7 0 -8.5 3t-3.5 13q-29 205 -192 205q-57 0 -95.5 -39.5t-38.5 -93.5q0 -46 28 -81.5t68 -45.5l110 -28q27 -7 42 -12t38.5 -19t40.5 -35
q50 -61 50 -139z" />
    <glyph glyph-name="T" unicode="T" horiz-adv-x="707" 
d="M671 455h-22q-4 46 -7 70t-11 50t-18.5 37t-30.5 21.5t-46.5 13t-67.5 2.5q-48 0 -56 -2q-11 -3 -14.5 -10.5t-3.5 -27.5v-532q0 -20 4 -28t25 -14t69 -6h36v-29q-32 2 -175 2q-142 0 -174 -2v29h36q48 0 69 6t25 14t4 28v532q0 20 -3.5 28t-17.5 10q-8 2 -54 2
q-41 0 -67.5 -2.5t-46.5 -13t-30.5 -21.5t-18.5 -37t-11 -50t-7 -70h-22l18 223h600z" />
    <glyph glyph-name="U" unicode="U" horiz-adv-x="734" 
d="M692 654q-95 0 -95 -61v-378q0 -84 -60.5 -160t-157.5 -76q-98 0 -170.5 72t-72.5 178v378q0 30 -12 38.5t-63 8.5h-20v29q24 -2 136 -2q111 0 135 2v-29h-20q-51 0 -63 -8.5t-12 -38.5v-384q0 -62 16.5 -107t43.5 -67t52.5 -31.5t51.5 -9.5q75 0 132 61t57 161v350
q0 15 -2 24t-9.5 22.5t-29 20.5t-54.5 7v29q26 -2 109 -2q82 0 108 2v-29z" />
    <glyph glyph-name="V" unicode="V" horiz-adv-x="734" 
d="M715 654q-36 0 -59.5 -14t-30.5 -26t-14 -30l-223 -585q-4 -10 -6 -13t-5.5 -5t-10.5 -2q-10 0 -13.5 3.5t-7.5 15.5l-234 616q-11 28 -27 34t-66 6v29q24 -2 120 -2q105 0 129 2v-29q-75 0 -75 -29q0 -4 5 -15l197 -520l187 493q6 14 6 22q0 18 -15.5 33t-50.5 16v29
q25 -2 102 -2l92 2v-29z" />
    <glyph glyph-name="W" unicode="W" horiz-adv-x="1006" 
d="M988 654q-72 -1 -95 -69l-188 -587q-6 -19 -18 -19t-18 18l-167 519l-166 -519q-6 -18 -18 -18t-18 19l-198 618q-8 27 -24 32.5t-61 5.5v29q26 -2 116 -2q104 0 127 2v-29q-77 0 -77 -30q0 -5 5 -19l160 -498l143 446q-5 14 -10.5 32.5t-9.5 30t-7 17.5q-8 13 -23 17
t-55 4v29q26 -2 116 -2q103 0 127 2v-29q-77 0 -77 -30q0 -5 3 -14l162 -503l152 474q5 17 5 20q0 19 -19 35.5t-60 17.5v29q24 -2 104 -2q46 0 89 2v-29z" />
    <glyph glyph-name="X" unicode="X" horiz-adv-x="734" 
d="M711 0q-24 2 -123 2q-107 0 -131 -2v29q27 1 42 10.5t15 19.5q0 3 -7 14l-162 242l-147 -215q-11 -17 -11 -27q0 -16 13.5 -29.5t41.5 -14.5v-29q-23 2 -115 2q-62 0 -105 -2v29q95 1 139 66l168 245l-187 277q-16 24 -33.5 30.5t-72.5 6.5v29q24 -2 122 -2q108 0 132 2
v-29q-25 0 -41 -9.5t-16 -20.5q0 -7 7 -16l135 -200l120 176q10 15 10 26q0 15 -13 28.5t-41 15.5v29q23 -2 114 -2q62 0 105 2v-29q-43 0 -75 -14t-42.5 -25t-23.5 -30l-138 -201l214 -320q16 -24 36 -29.5t70 -5.5v-29z" />
    <glyph glyph-name="Y" unicode="Y" horiz-adv-x="734" 
d="M723 654q-82 0 -122 -65l-195 -315v-200q0 -28 11.5 -36.5t63.5 -8.5h20v-29q-24 2 -135 2t-134 -2v29h20q51 0 63 8.5t12 38.5v197l-211 342q-16 26 -34 32.5t-72 6.5v29q24 -2 123 -2q109 0 132 2v-29q-62 0 -62 -24q0 -6 8 -19l186 -301l169 275q12 19 12 32
q0 18 -14 27.5t-36 9.5v29q25 -2 102 -2l93 2v-29z" />
    <glyph glyph-name="Z" unicode="Z" horiz-adv-x="598" 
d="M548 264l-16 -264h-454q-17 0 -20.5 3.5t-3.5 20.5l396 630h-160q-112 0 -153 -48.5t-47 -145.5h-22l11 223h440q15 0 19.5 -2t4.5 -12q0 -8 -8 -21l-388 -617h169q66 0 108 15.5t63 49.5t28.5 70.5t10.5 97.5h22z" />
    <glyph glyph-name="bracketleft" unicode="[" horiz-adv-x="272" 
d="M250 -250h-134v1000h134v-37h-97v-926h97v-37z" />
    <glyph glyph-name="backslash" unicode="\" horiz-adv-x="500" 
d="M443 -230q0 -8 -6 -14t-14 -6q-14 0 -22 22l-340 940l-5 18q0 8 6 14t14 6q14 0 22 -22l340 -940z" />
    <glyph glyph-name="bracketright" unicode="]" horiz-adv-x="272" 
d="M155 -250h-134v37h97v926h-97v37h134v-1000z" />
    <glyph glyph-name="asciicircum" unicode="^" horiz-adv-x="556" 
d="M561 584l-12 -22l-272 123l-271 -123l-11 22l283 160z" />
    <glyph glyph-name="underscore" unicode="_" horiz-adv-x="734" 
d="M734 -136h-734v22h734v-22z" />
    <glyph glyph-name="grave" unicode="`" 
d="M306 527q-7 -9 -16 -16l-149 124q-16 13 -16 29q0 13 10.5 23t23.5 10q15 0 28 -18z" />
    <glyph glyph-name="a" unicode="a" 
d="M474 89q0 -52 -26.5 -73t-52.5 -21q-32 0 -53.5 23.5t-24.5 59.5q-15 -38 -49 -63t-81 -25q-57 0 -105 25.5t-48 78.5q0 65 68.5 113.5t208.5 50.5v40q0 62 -32.5 95t-72.5 33q-33 0 -64 -15t-47 -45q51 0 51 -41q0 -18 -11.5 -29.5t-29.5 -11.5t-30 11t-12 32
q0 49 42 84t103 35q74 0 124 -46q21 -18 31 -41.5t11.5 -40.5t1.5 -51v-175q0 -68 38 -68t38 65v56h22v-56zM311 141v99q-15 -1 -28.5 -2.5t-40.5 -6.5t-48 -15.5t-43 -25.5t-34 -40t-12 -56q0 -36 26.5 -60t63.5 -24q41 0 78.5 32.5t37.5 98.5z" />
    <glyph glyph-name="b" unicode="b" horiz-adv-x="544" 
d="M508 216q0 -95 -64 -160.5t-152 -65.5q-83 0 -130 75l-36 -65h-22v598q0 37 -12.5 46.5t-63.5 9.5v29l139 11v-320q54 67 136 67q84 0 144.5 -65.5t60.5 -159.5zM432 217q0 67 -16 112t-41.5 63t-43 23.5t-34.5 5.5q-35 0 -66.5 -18.5t-50.5 -46.5q-11 -16 -11 -36v-206
q0 -21 13 -42q39 -62 106 -62q35 0 64 18t46 44q34 51 34 145z" />
    <glyph glyph-name="c" unicode="c" horiz-adv-x="435" 
d="M406 119q0 -4 -4 -16.5t-15.5 -32.5t-28.5 -37.5t-47 -30t-67 -12.5q-86 0 -147.5 65.5t-61.5 160.5t61.5 162.5t148.5 67.5q62 0 106.5 -33t44.5 -82q0 -21 -12 -32t-30 -11t-29.5 11.5t-11.5 29.5q0 41 49 41q-16 27 -49.5 40.5t-66.5 13.5q-21 0 -42.5 -9.5t-43.5 -31
t-35.5 -64.5t-13.5 -102q0 -104 43.5 -154.5t98.5 -50.5q43 0 78.5 25t51.5 76q2 10 4.5 12.5t8.5 2.5q10 0 10 -9z" />
    <glyph glyph-name="d" unicode="d" horiz-adv-x="544" 
d="M515 0l-141 -10v69q-51 -69 -134 -69t-144 65.5t-61 159.5q0 95 64 160.5t152 65.5q79 0 125 -64v221q0 37 -12.5 46.5t-63.5 9.5v29l139 11v-609q0 -37 12.5 -46.5t63.5 -9.5v-29zM374 117v206q0 20 -12 37q-7 12 -18 23.5t-36 24.5t-53 13q-35 0 -64 -18t-46 -44
q-34 -51 -34 -145q0 -55 12 -95.5t27.5 -60.5t36.5 -31.5t33.5 -14t24.5 -2.5q71 0 115 64q14 22 14 43z" />
    <glyph glyph-name="e" unicode="e" horiz-adv-x="435" 
d="M407 119q0 -10 -9.5 -29.5t-27.5 -42.5t-52 -40t-75 -17q-85 0 -149 66t-64 163q0 94 58.5 160.5t143.5 66.5q86 0 130.5 -56.5t44.5 -138.5q0 -14 -3.5 -16.5t-20.5 -2.5h-277v-19q0 -61 16 -104t40.5 -62t45.5 -27t41 -8q39 0 78 25t57 82q4 10 12 10q11 0 11 -10z
M345 251q-1 23 -4 43.5t-13 55t-35 55.5t-62 21q-14 0 -30.5 -6t-38.5 -22t-37 -54t-18 -93h238z" />
    <glyph glyph-id="f" name="f" unicode="f" horiz-adv-x="299" 
d="M342 638q0 -18 -11 -29t-29 -11q-17 0 -28 11t-11 28q0 13 7 22.5t12.5 12.5t9.5 4q-16 8 -35 8q-34 0 -60.5 -36.5t-26.5 -99.5v-117h115v-29h-113v-326q0 -29 11.5 -38t63.5 -9h20v-29q-23 2 -121 2q-85 0 -113 -2v29q51 0 63.5 6.5t12.5 38.5v328h-78v29h78v117
q0 72 45.5 114t103.5 42q36 0 60 -19t24 -47z" />
    <glyph glyph-name="g" unicode="g" 
d="M475 406q0 -14 -8.5 -20.5t-17.5 -6.5q-12 0 -19 7.5t-7 18.5q0 19 15 25q-4 2 -13 2q-52 0 -91 -40q40 -40 40 -97q0 -59 -45.5 -102t-111.5 -43q-51 0 -98 31q-16 -22 -16 -48q0 -31 19 -50q13 -14 26 -16.5t60 -2.5q53 0 77.5 -1t55 -7t54.5 -18q67 -35 67 -115
q0 -55 -63.5 -91.5t-154.5 -36.5q-92 0 -154.5 37t-62.5 89q0 37 27 63.5t65 37.5q-43 27 -43 88q0 46 30 83q-45 41 -45 103q0 59 45.5 102t111.5 43q56 0 103 -36q44 47 105 47q24 0 36.5 -15t12.5 -31zM305 296q0 124 -88 124q-44 0 -70 -39q-17 -27 -17 -86
q0 -124 88 -124q44 0 70 39q17 27 17 86zM413 -78q0 25 -13.5 42.5t-30.5 26t-48.5 13t-50.5 5t-53 0.5q-55 0 -70 -2t-31 -12q-40 -27 -40 -73q0 -43 49 -74.5t120 -31.5q69 0 118.5 31t49.5 75z" />
    <glyph glyph-name="h" unicode="h" horiz-adv-x="544" 
d="M521 0q-26 2 -109 2q-82 0 -108 -2v29q52 0 64 6.5t12 38.5v235q0 112 -76 112q-51 0 -91 -43.5t-40 -117.5v-186q0 -32 12.5 -38.5t63.5 -6.5v-29q-26 2 -109 2q-82 0 -108 -2v29q52 0 64 6.5t12 38.5v524q0 37 -12.5 46.5t-63.5 9.5v29l139 11v-349h1q9 21 23 39.5
t46 37.5t71 19q77 0 110 -45q16 -22 19.5 -49t3.5 -104v-184q1 -21 16.5 -25.5t59.5 -4.5v-29z" />
    <glyph glyph-name="i" unicode="i" horiz-adv-x="272" 
d="M241 0q-34 2 -103 2q-77 0 -105 -2v29q51 0 63.5 6.5t12.5 38.5v272q0 37 -12.5 46t-60.5 9v29l136 11v-368q0 -30 10.5 -37t58.5 -7v-29zM185 604q0 -19 -13.5 -33.5t-35.5 -14.5q-20 0 -34 14t-14 34t14 34.5t35 14.5q19 0 33.5 -13.5t14.5 -35.5z" />
    <glyph glyph-name="j" unicode="j" horiz-adv-x="299" 
d="M203 -51q0 -67 -38 -110t-93 -43q-42 0 -74 20t-32 54q0 18 11.5 30t30.5 12q18 0 29.5 -12t11.5 -29q0 -34 -34 -41q10 -6 24 -9.5t23 -4.5h9q69 0 69 129v400q0 37 -14 46.5t-70 9.5v29l147 11v-492zM204 604q0 -19 -13.5 -33.5t-35.5 -14.5q-19 0 -33.5 14t-14.5 34
t14 34.5t35 14.5q19 0 33.5 -13.5t14.5 -35.5z" />
    <glyph glyph-name="k" unicode="k" horiz-adv-x="517" 
d="M500 0q-43 2 -88 2q-76 0 -101 -2v29q35 0 35 23q0 15 -22 46l-96 138l-64 -56v-106q0 -32 12.5 -38.5t63.5 -6.5v-29q-28 2 -106 2t-106 -2v29q52 0 64 6.5t12 38.5v524q0 37 -12.5 46.5t-63.5 9.5v29l139 11v-482l143 126q21 18 21 38q0 24 -29 26v29q23 -2 100 -2
q56 0 76 2v-29q-66 -3 -134 -62q-3 -3 -21 -19t-34 -30.5t-16 -15.5l7 -10l134 -195q13 -19 29.5 -28.5t27.5 -11t29 -1.5v-29z" />
    <glyph glyph-name="l" unicode="l" horiz-adv-x="272" 
d="M248 0q-28 2 -108 2q-79 0 -107 -2v29q51 0 63.5 6.5t12.5 38.5v524q0 37 -12.5 46.5t-63.5 9.5v29l139 11v-620q0 -32 12.5 -38.5t63.5 -6.5v-29z" />
    <glyph glyph-name="m" unicode="m" horiz-adv-x="816" 
d="M793 0q-26 2 -109 2q-82 0 -108 -2v29q52 0 64 6.5t12 38.5v235q0 112 -76 112q-51 0 -91 -43.5t-40 -117.5v-186q0 -32 12.5 -38.5t63.5 -6.5v-29q-26 2 -109 2q-82 0 -108 -2v29q52 0 64 6.5t12 38.5v235q0 112 -76 112q-51 0 -91 -43.5t-40 -117.5v-186
q0 -32 12.5 -38.5t63.5 -6.5v-29q-26 2 -109 2q-82 0 -108 -2v29q52 0 64 6.5t12 38.5v271q0 37 -12.5 46.5t-63.5 9.5v29l136 11v-103h1q5 12 13 25t24.5 33t44 32.5t61.5 12.5q113 0 131 -99q16 38 51 68.5t90 30.5q77 0 110 -45q16 -22 19.5 -49t3.5 -104v-184
q1 -21 16.5 -25.5t59.5 -4.5v-29z" />
    <glyph glyph-name="n" unicode="n" horiz-adv-x="544" 
d="M521 0q-26 2 -109 2q-82 0 -108 -2v29q52 0 64 6.5t12 38.5v235q0 112 -76 112q-51 0 -91 -43.5t-40 -117.5v-186q0 -32 12.5 -38.5t63.5 -6.5v-29q-26 2 -109 2q-82 0 -108 -2v29q52 0 64 6.5t12 38.5v271q0 37 -12.5 46.5t-63.5 9.5v29l136 11v-103h1q5 12 13 25
t24.5 33t44 32.5t61.5 12.5q77 0 110 -45q16 -22 19.5 -49t3.5 -104v-184q1 -21 16.5 -25.5t59.5 -4.5v-29z" />
    <glyph glyph-name="o" unicode="o" 
d="M459 214q0 -94 -63 -159t-152 -65q-87 0 -150.5 64.5t-63.5 159.5t63 163.5t152 68.5q88 0 151 -68t63 -164zM383 223q0 100 -31 146q-39 57 -108 57t-107 -59q-31 -45 -31 -144t28 -146q38 -65 111 -65t112 67q26 47 26 144z" />
    <glyph glyph-name="p" unicode="p" horiz-adv-x="544" 
d="M508 216q0 -95 -64 -160.5t-152 -65.5q-77 0 -123 64v-174q0 -32 12.5 -38.5t63.5 -6.5v-29q-26 2 -109 2q-82 0 -108 -2v29q52 0 64 6.5t12 38.5v470q0 34 -12 42.5t-64 8.5v29l139 11v-67q3 4 7 9t17.5 16t28 19.5t37.5 15.5t48 7q83 0 143 -65.5t60 -159.5zM432 216
q0 84 -39.5 143.5t-95.5 59.5q-31 0 -63.5 -16t-53.5 -48q-11 -16 -11 -36v-206q0 -33 38 -71q34 -32 80 -32q59 0 102 59t43 147z" />
    <glyph glyph-name="q" unicode="q" horiz-adv-x="517" 
d="M515 -194q-26 2 -109 2q-82 0 -108 -2v29q52 0 64 6.5t12 38.5v185q-54 -75 -134 -75q-83 0 -144 65.5t-61 159.5q0 96 64.5 161t149.5 65q89 0 133 -93l37 93h20v-561q0 -32 12.5 -38.5t63.5 -6.5v-29zM376 134v147q0 46 -33.5 92t-87.5 46q-57 0 -100.5 -58.5
t-43.5 -145.5q0 -84 39 -144.5t96 -60.5q50 0 89 40q41 41 41 84z" />
    <glyph glyph-name="r" unicode="r" horiz-adv-x="381" 
d="M353 383q0 -19 -12 -29.5t-28 -10.5q-14 0 -26.5 10t-12.5 30q0 25 24 37q-4 1 -14 1q-55 0 -86 -55t-31 -133v-157q0 -29 11.5 -38t63.5 -9h20v-29q-23 2 -121 2q-85 0 -113 -2v29q52 0 64 6.5t12 38.5v271q0 37 -12.5 46.5t-63.5 9.5v29l134 11v-111h1q35 111 120 111
q31 0 50.5 -17t19.5 -41z" />
    <glyph glyph-name="s" unicode="s" horiz-adv-x="386" 
d="M352 127q0 -62 -40.5 -99.5t-116.5 -37.5q-71 0 -109 47q-9 -10 -20 -25q-18 -22 -23 -22q-7 0 -8.5 4t-1.5 19v136q0 15 1.5 19t9.5 4q7 0 9 -4q1 -2 5 -20q30 -138 136 -138q60 0 86.5 26.5t26.5 64.5q0 39 -31 65q-18 14 -33.5 19.5t-59.5 14.5q-42 8 -66 16.5
t-46 27.5q-38 35 -38 81q0 49 37 85t120 36q56 0 94 -31q24 31 34 31q7 0 8.5 -4t1.5 -19v-104q0 -15 -1.5 -19t-9.5 -4q-10 0 -11 8q-8 124 -117 124q-60 0 -85.5 -23.5t-25.5 -53.5q0 -59 103 -80q55 -10 79.5 -18.5t49.5 -30.5q42 -42 42 -95z" />
    <glyph glyph-name="t" unicode="t" horiz-adv-x="381" 
d="M326 124q0 -57 -25.5 -95.5t-70.5 -38.5q-22 0 -42.5 5.5t-40.5 19.5t-32 42t-12 67v278h-85v20q64 2 95.5 58t32.5 135h22v-184h141v-29h-141v-280q0 -110 68 -110q30 0 49 30.5t19 83.5v55h22v-57z" />
    <glyph glyph-name="u" unicode="u" horiz-adv-x="544" 
d="M521 0l-139 -10v90q-16 -38 -45 -61q-34 -29 -83 -29q-81 0 -116 38q-20 23 -25 49.5t-5 81.5v150q0 68 -10 80t-66 12v29l141 11v-331q0 -24 2.5 -38.5t10.5 -30.5t26.5 -23.5t47.5 -7.5q55 0 87.5 45t32.5 111v179q0 37 -12.5 46.5t-63.5 9.5v29l141 11v-356
q0 -37 12.5 -46.5t63.5 -9.5v-29z" />
    <glyph glyph-name="v" unicode="v" horiz-adv-x="517" 
d="M498 402q-22 0 -39 -6.5t-27 -19t-14.5 -20t-9.5 -20.5l-130 -327q-8 -19 -20 -19q-8 0 -11.5 3.5t-7.5 15.5l-143 358q-9 23 -22.5 29t-55.5 6v29l96 -2q79 0 104 2v-29q-56 0 -56 -26q0 -2 6 -19l112 -282l102 258q7 17 7 26q0 8 -2.5 16t-14 17t-30.5 10v29l82 -2
q45 0 74 2v-29z" />
    <glyph glyph-name="w" unicode="w" horiz-adv-x="707" 
d="M688 402q-61 -4 -83 -66l-115 -328q-7 -18 -18 -18q-13 0 -19 19l-100 285l-100 -285q-6 -19 -19 -19q-11 0 -18 18l-126 358q-8 24 -20.5 30t-51.5 6v29l93 -2q77 0 102 2v-29q-58 0 -58 -27q0 -6 5 -19l96 -272l85 244q-18 52 -24 59q-13 15 -62 15v29l90 -2q70 0 98 2
v-29q-58 0 -58 -28q0 -5 5 -17l100 -283l92 262l4 18q0 18 -13.5 32.5t-43.5 15.5v29l85 -2q49 0 74 2v-29z" />
    <glyph glyph-name="x" unicode="x" horiz-adv-x="517" 
d="M506 0l-95 2q-77 0 -103 -2v29q18 1 26.5 9t8.5 16t-17 30l-82 107l-72 -93q-17 -22 -17 -37q0 -29 28 -32v-29l-90 2q-45 0 -83 -2v29q79 2 131 66q2 2 26 32.5t43 55.5t19 26q0 5 -6 11l-117 153q-15 19 -32.5 24t-58.5 5v29l96 -2q78 0 103 2v-29q-19 -1 -27 -9
t-8 -16t9 -20l78 -103l64 81q15 20 15 36q0 27 -29 31v29l90 -2q41 0 84 2v-29q-73 0 -120 -53q-24 -27 -90 -113l131 -173q17 -23 34.5 -28.5t60.5 -5.5v-29z" />
    <glyph glyph-name="y" unicode="y" horiz-adv-x="517" 
d="M498 402q-66 0 -93 -68l-173 -426q-46 -112 -123 -112q-39 0 -64.5 22.5t-25.5 52.5q0 20 11.5 29.5t26.5 9.5t26 -10t11 -27q0 -16 -9 -25.5t-17 -11.5l-9 -2q19 -18 50 -18q50 0 89 68q1 2 1.5 3.5t2 4.5t3 7.5t5.5 13t8 19.5t11.5 29t16.5 39l-149 366q-10 24 -23 30
t-56 6v29l97 -2q77 0 103 2v-29q-55 0 -55 -26q0 -7 6 -21l111 -272l102 252q6 15 6 24q0 41 -46 43v29l81 -2q46 0 75 2v-29z" />
    <glyph glyph-name="z" unicode="z" horiz-adv-x="435" 
d="M393 184l-16 -184h-326q-17 0 -20.5 2.5t-3.5 15.5l286 393h-116q-78 0 -103.5 -29t-30.5 -110h-22l11 159h314q14 0 19 -1.5t5 -9.5q0 -6 -9 -17l-276 -381h121q84 0 111 34.5t34 127.5h22z" />
    <glyph glyph-name="braceleft" unicode="{" horiz-adv-x="500" 
d="M427 -239q0 -11 -20 -11q-85 0 -139 38q-35 25 -43.5 51t-8.5 78v198q0 35 -13.5 60.5t-35 38t-40.5 18.5t-39 7q-5 1 -7 1t-4.5 1t-3.5 3t-1 6q0 11 14 11q63 4 104 45q19 20 22.5 42t3.5 96v183q1 53 57.5 88t133.5 35q20 0 20 -11q0 -9 -9 -11q-32 -2 -56 -10.5
t-33 -15.5t-22 -20q-17 -18 -20.5 -39t-3.5 -80v-180q0 -99 -118 -133q101 -29 116 -103q2 -10 2 -91v-150q0 -37 3 -48q8 -32 39.5 -57.5t85.5 -28.5q5 -1 7 -1t4.5 -1t3.5 -3t1 -6z" />
    <glyph glyph-name="bar" unicode="|" horiz-adv-x="278" 
d="M159 -217q0 -33 -20 -33t-20 33v934q0 33 20 33t20 -33v-934z" />
    <glyph glyph-name="braceright" unicode="}" horiz-adv-x="500" 
d="M427 250q0 -11 -14 -11q-63 -4 -104 -45q-19 -20 -22.5 -42t-3.5 -96v-183q-1 -53 -57.5 -88t-133.5 -35q-20 0 -20 11q0 9 9 11q32 2 56 10.5t33 15.5t22 20q17 18 20.5 39t3.5 80v180q0 99 118 133q-101 29 -116 103q-2 10 -2 91v150q0 37 -3 48q-8 32 -39.5 57.5
t-85.5 28.5q-5 1 -7 1t-4.5 1t-3.5 3t-1 6q0 11 20 11q83 0 139 -38q35 -25 43.5 -51t8.5 -78v-198q0 -35 13.5 -60.5t35 -38t40.5 -18.5t39 -7q5 -1 7 -1t4.5 -1t3.5 -3t1 -6z" />
    <glyph glyph-name="asciitilde" unicode="~" horiz-adv-x="556" 
d="M555 290l-54 -44q-20 -17 -57 -35q-40 -18 -73 -18q-42 0 -100 34q-65 37 -104 37q-68 0 -153 -71l-14 17l54 44q20 17 57 35q40 18 73 18q42 0 100 -34q65 -37 104 -37q68 0 153 71z" />
    <glyph glyph-name="uni00A0" unicode="&#xa0;" 
 />
    <glyph glyph-name="exclamdown" unicode="&#xa1;" horiz-adv-x="272" 
d="M184 451q0 -19 -14 -33.5t-34 -14.5q-21 0 -35 14.5t-14 33.5q0 21 14.5 35t33.5 14q20 0 34.5 -14t14.5 -35zM184 -159q2 -28 -14 -42t-35 -14q-18 0 -33 12.5t-15 34.5l36 467q1 13 3 17t10 4q11 0 12 -21z" />
    <glyph glyph-name="cent" unicode="&#xa2;" horiz-adv-x="435" 
d="M406 119q0 -4 -3.5 -16t-14.5 -31.5t-27 -36.5t-44.5 -30t-63.5 -15v-18q0 -14 -14 -14q-5 0 -9.5 4t-4.5 10v19q-79 8 -134.5 72t-55.5 153t55 155t135 74v14q0 5 4.5 9.5t9.5 4.5q6 0 10 -4.5t4 -9.5v-13q60 -2 101.5 -34.5t41.5 -80.5q0 -21 -12 -32t-30 -11
t-29.5 11.5t-11.5 29.5q0 41 49 41q-30 50 -109 54v-412q43 0 78.5 25t51.5 76q2 10 4.5 12.5t8.5 2.5q10 0 10 -9zM225 16v406q-46 -10 -80 -58.5t-34 -146.5q0 -90 33 -139.5t81 -61.5z" />
    <glyph glyph-name="sterling" unicode="&#xa3;" horiz-adv-x="734" 
d="M672 144q0 -74 -25 -126t-78 -52q-20 0 -41 6t-35 11.5t-37 22.5t-31 23t-34.5 29t-30.5 27q-8 -53 -65.5 -79.5t-135.5 -26.5q-40 0 -68.5 30t-28.5 71q0 47 41.5 74.5t98.5 27.5q46 0 96 -31q-2 26 -6 55.5t-9.5 65.5t-8.5 56h-158v28h154q-5 42 -5 75q0 102 48 177
t129 75q64 0 110 -43t46 -105q0 -17 -12.5 -29.5t-29.5 -12.5t-29.5 12.5t-12.5 29.5t12.5 29.5t29.5 12.5q5 0 13 -2q-13 38 -48 62t-79 24q-113 0 -113 -230q0 -25 4 -75h150v-28h-146q2 -20 9.5 -70t11 -86t3.5 -70q38 -31 55 -44t50.5 -28.5t65.5 -15.5q50 0 84 38.5
t34 91.5h22zM299 115v15q-48 30 -97 30q-48 0 -83 -21t-35 -59q0 -32 22 -55.5t53 -23.5q57 0 98.5 32t41.5 82z" />
    <glyph glyph-name="currency" unicode="&#xa4;" horiz-adv-x="762" 
d="M612 480q12 -13 -10 -35l-76 -76q43 -51 43 -119q0 -67 -43 -120l76 -76q22 -22 9 -36q-13 -12 -35 10l-76 76q-53 -42 -119 -42q-67 0 -120 42l-76 -76q-22 -22 -36 -9q-12 13 10 35l76 76q-43 55 -43 120q0 68 43 119l-76 76q-22 22 -9 36q13 12 35 -10l76 -76
q51 43 120 43q67 0 119 -42l76 75q22 22 36 9zM533 250q0 63 -44.5 107.5t-107.5 44.5t-108 -44.5t-45 -107.5t45 -107.5t108 -44.5t107.5 44.5t44.5 107.5z" />
    <glyph glyph-name="yen" unicode="&#xa5;" horiz-adv-x="734" 
d="M723 654q-82 0 -122 -65l-156 -252h142v-28h-159l-22 -35v-83h181v-28h-181v-89q0 -28 11.5 -36.5t63.5 -8.5h20v-29q-24 2 -135 2t-134 -2v29h20q51 0 63 8.5t12 38.5v87h-180v28h180v82l-22 36h-158v28h141l-172 278q-16 26 -34 32.5t-72 6.5v29q24 -2 123 -2
q109 0 132 2v-29q-62 0 -62 -24q0 -6 8 -19l169 -274h34l152 248q12 19 12 32q0 18 -14 27.5t-36 9.5v29q25 -2 102 -2l93 2v-29z" />
    <glyph glyph-name="brokenbar" unicode="&#xa6;" horiz-adv-x="278" 
d="M159 343q0 -14 -20 -14t-20 14v374q0 33 20 33t20 -33v-374zM159 -217q0 -33 -20 -33t-20 33v374q0 14 20 14t20 -14v-374z" />
    <glyph glyph-name="section" unicode="&#xa7;" horiz-adv-x="475" 
d="M438 194q0 -69 -83 -118q41 -54 41 -116q0 -71 -46 -122t-113 -51q-64 0 -103.5 54.5t-39.5 129.5q0 17 12.5 29.5t29.5 12.5t29.5 -12.5t12.5 -29.5t-12.5 -29.5t-29.5 -12.5q-8 0 -16 3q11 -46 42.5 -75.5t74.5 -29.5q46 0 75.5 39.5t29.5 93.5q0 73 -94 126l-88 50
q-124 70 -124 170q0 68 83 117q-41 54 -41 117q0 71 46 122t113 51q64 0 103.5 -54.5t39.5 -129.5q0 -17 -12.5 -29.5t-29.5 -12.5t-29.5 12.5t-12.5 29.5t12.5 29.5t29.5 12.5q8 0 16 -3q-11 46 -42.5 75.5t-74.5 29.5q-46 0 -75.5 -39.5t-29.5 -93.5q0 -73 94 -126l88 -50
q124 -70 124 -170zM368 194q0 65 -86 115l-88 50q-32 17 -59 46q-29 -29 -29 -99q0 -65 86 -115l88 -50q32 -19 59 -46q29 28 29 99z" />
    <glyph glyph-name="dieresis" unicode="&#xa8;" 
d="M209 604q0 -17 -12.5 -30t-31.5 -13q-17 0 -30 13t-13 30q0 18 12.5 31t31.5 13q17 0 30 -12.5t13 -31.5zM369 604q0 -17 -12.5 -30t-31.5 -13q-17 0 -30 13t-13 30q0 18 12.5 31t31.5 13q17 0 30 -12.5t13 -31.5z" />
    <glyph glyph-name="copyright" unicode="&#xa9;" horiz-adv-x="683" 
d="M683 342q0 -142 -100 -242t-241 -100q-142 0 -242 100t-100 242q0 141 100 241t242 100q141 0 241 -100t100 -241zM647 342q0 126 -89.5 215.5t-215.5 89.5q-127 0 -216.5 -89.5t-89.5 -215.5q0 -127 89.5 -216.5t216.5 -89.5q126 0 215.5 89.5t89.5 216.5zM494 279
q0 -53 -41 -99.5t-107 -46.5q-79 0 -138 60.5t-59 148.5t58.5 148.5t138.5 60.5q64 0 107 -53l28 46q4 7 7 7q6 0 6 -14v-136q0 -9 -1 -11.5t-7 -2.5q-7 0 -8 9q-9 64 -44 101t-81 37q-20 0 -42 -7t-48 -25.5t-43 -60t-17 -99.5q0 -48 12 -84.5t29 -56.5t39 -32.5t38.5 -16
t31.5 -3.5q47 0 86 34.5t42 97.5q0 7 7 7q6 0 6 -9z" />
    <glyph glyph-name="ordfeminine" unicode="&#xaa;" horiz-adv-x="444" 
d="M407 454q0 -25 -14 -41t-27 -20t-26 -4q-27 0 -45 16.5t-20 41.5q-13 -27 -41.5 -44.5t-68.5 -17.5q-47 0 -87.5 18t-40.5 55q0 46 58 80t175 35v28q0 43 -27.5 66t-61.5 23q-65 0 -93 -42q43 0 43 -28q0 -13 -9.5 -21t-24.5 -8q-36 0 -36 30q0 35 35 59t87 24
q64 0 104 -32q25 -18 31 -38t6 -55v-122q0 -48 32 -48t32 45v40h19v-40zM393 345q0 -9 -14 -9h-314q-14 0 -14 9q0 10 14 10h314q14 0 14 -10zM270 491v69q-20 -1 -41.5 -4t-55 -12.5t-55 -31.5t-21.5 -54q0 -25 22 -42t53 -17q34 0 66 23t32 69z" />
    <glyph glyph-name="guillemotleft" unicode="&#xab;" horiz-adv-x="544" 
d="M272 8q0 -8 -8 -8h-3q-5 0 -8 5q-44 131 -142 231q-2 4 -2 6q0 3 2 5q99 102 142 231q3 5 8 5h3q8 0 8 -8v-2q-31 -128 -98 -231q67 -105 98 -232v-2zM435 8q0 -8 -8 -8h-3q-5 0 -8 5q-44 131 -142 231q-2 4 -2 6q0 3 2 5q99 102 142 231q3 5 8 5h3q8 0 8 -8v-2
q-31 -128 -98 -231q67 -105 98 -232v-2z" />
    <glyph glyph-name="logicalnot" unicode="&#xac;" horiz-adv-x="762" 
d="M707 156q0 -8 -5.5 -13t-12.5 -5t-12.5 5t-5.5 13v169h-599q-8 0 -13 5.5t-5 12.5t5 12.5t13 5.5h617q7 0 12.5 -5.5t5.5 -12.5v-187z" />
    <glyph glyph-name="uni00AD" unicode="&#xad;" horiz-adv-x="326" 
d="M271 189h-260v54h260v-54z" />
    <glyph glyph-name="registered" unicode="&#xae;" horiz-adv-x="683" 
d="M683 342q0 -142 -100 -242t-241 -100q-142 0 -242 100t-100 242q0 141 100 241t242 100q141 0 241 -100t100 -241zM647 342q0 126 -89.5 215.5t-215.5 89.5q-127 0 -216.5 -89.5t-89.5 -215.5q0 -127 89.5 -216.5t216.5 -89.5q126 0 215.5 89.5t89.5 216.5zM551 201
q0 -10 -3 -22t-16 -26t-33 -14q-45 0 -65 22q-18 17 -22 32t-4 53q0 33 -3 46t-16 28q-22 22 -60 22h-67v-147q0 -17 7 -22t37 -5h11v-17q-13 1 -78 1q-64 0 -77 -1v17h12q29 0 36 5t7 22v306q0 17 -7 22t-36 5h-12v17h172q62 0 105.5 -31t43.5 -73q0 -33 -29 -58.5
t-73 -35.5q35 -10 53 -31q18 -19 24 -65l6 -43q7 -58 36 -58q15 0 26 13t13 37q0 10 6 10t6 -9zM429 441q0 25 -8.5 42.5t-19.5 26t-30.5 13t-30.5 5t-31 0.5q-29 0 -34 -1q-9 -1 -11 -6t-2 -16v-151h65q102 0 102 87z" />
    <glyph glyph-name="macron" unicode="&#xaf;" 
d="M421 590h-353v29h353v-29z" />
    <glyph glyph-name="degree" unicode="&#xb0;" horiz-adv-x="367" 
d="M320 547q0 -56 -40 -96t-96 -40q-57 0 -96.5 40t-39.5 96t39.5 96t96.5 40q56 0 96 -40t40 -96zM284 547q0 42 -29.5 71t-70.5 29q-42 0 -71 -29t-29 -71q0 -41 29 -70.5t71 -29.5q41 0 70.5 29.5t29.5 70.5z" />
    <glyph glyph-name="plusminus" unicode="&#xb1;" horiz-adv-x="762" 
d="M707 18q0 -18 -32 -18h-589q-32 0 -32 19q0 18 32 18h276v271h-276q-32 0 -32 19q0 18 32 18h276v276q0 32 19 32q18 0 18 -32v-276h276q32 0 32 -19q0 -18 -32 -18h-276v-271h276q32 0 32 -19z" />
    <glyph glyph-name="two.superior" unicode="&#xb2;" horiz-adv-x="352" 
d="M317 406l-19 -101h-263v15l146 135q76 72 76 134q0 42 -27 70t-72 28q-34 0 -61 -19t-38 -49h10q15 0 24.5 -7.5t9.5 -20.5t-10.5 -20.5t-23.5 -7.5q-34 0 -34 30q0 42 37 76.5t96 34.5q63 0 106 -32t43 -83q0 -41 -29 -72t-121 -102q-7 -5 -39 -32t-43 -35h133
q63 0 68 5q6 9 15 53h16z" />
    <glyph glyph-name="three.superior" unicode="&#xb3;" horiz-adv-x="352" 
d="M323 408q0 -47 -43 -81t-106 -34q-60 0 -102 28.5t-42 68.5q0 31 36 31q15 0 25 -8t10 -21q0 -16 -13 -24t-31 -6q14 -26 48.5 -39.5t65.5 -13.5q33 0 59 23.5t26 76.5q0 45 -22.5 72t-66.5 27h-33q-17 0 -17 6t15 7l22 2q42 0 66 28q23 30 23 71q0 39 -22.5 53.5
t-48.5 14.5q-71 0 -99 -41q3 1 8 1q13 0 23 -7.5t10 -20.5t-10 -20t-22 -7q-33 0 -33 29q0 33 36 56.5t89 23.5t91 -23.5t38 -58.5q0 -36 -28 -65t-75 -40q53 -8 88 -38.5t35 -70.5z" />
    <glyph glyph-name="acute" unicode="&#xb4;" 
d="M365 664q0 -16 -16 -29l-149 -124q-9 7 -16 16l119 152q13 18 28 18q13 0 23.5 -10t10.5 -23z" />
    <glyph glyph-name="uni00B5" unicode="&#xb5;" horiz-adv-x="544" 
d="M521 0l-139 -10v86l-1 1q-10 -30 -43 -58q-34 -29 -83 -29q-48 0 -82 14v-122q0 -34 12 -40.5t64 -6.5v-29q-26 2 -109 2q-82 0 -108 -2v29q52 0 64 6.5t12 40.5v460q0 38 -12 48t-64 10v29l141 11v-328q0 -25 2 -39.5t10 -31t26.5 -24t48.5 -7.5q54 0 87 44t33 114v174
q0 38 -12 48t-64 10v29l141 11v-353q0 -38 12 -48t64 -10v-29z" />
    <glyph glyph-name="paragraph" unicode="&#xb6;" horiz-adv-x="611" 
d="M582 674q0 -20 -33 -20h-50v-815q0 -33 -20 -33t-20 33v815h-70v-815q0 -33 -20 -33t-20 33v391q-50 2 -100 17t-94 42t-71.5 72.5t-27.5 101.5q0 95 73 163t177 68h243q33 0 33 -20z" />
    <glyph glyph-name="periodcentered" unicode="&#xb7;" horiz-adv-x="762" 
d="M429 342q0 -21 -14.5 -35t-34.5 -14q-18 0 -33 14t-15 35q0 19 14 33.5t35 14.5q19 0 33.5 -14t14.5 -34z" />
    <glyph glyph-name="cedilla" unicode="&#xb8;" horiz-adv-x="435" 
d="M348 -131q0 -17 -9.5 -29t-30 -19.5t-39 -12t-52 -6t-53 -2t-55.5 -0.5h-22v22h11q26 0 40 0.5t38.5 1.5t38 4t28.5 8t22 13.5t7 19.5q0 22 -22.5 34t-53.5 12v89h44v-67q44 0 76 -17.5t32 -50.5z" />
    <glyph glyph-name="one.superior" unicode="&#xb9;" horiz-adv-x="361" 
d="M295 305q-19 2 -112 2q-94 0 -113 -2v18h22q45 0 55.5 5.5t10.5 23.5v312q-40 -15 -92 -15v17q87 0 127 38q11 0 12.5 -2t1.5 -12v-338q0 -18 10.5 -23.5t55.5 -5.5h22v-18z" />
    <glyph glyph-name="ordmasculine" unicode="&#xba;" horiz-adv-x="411" 
d="M386 542q0 -66 -53 -111.5t-128 -45.5q-73 0 -126.5 45.5t-53.5 111.5t53 114t128 48q73 0 126.5 -47.5t53.5 -114.5zM372 345q0 -9 -14 -9h-305q-14 0 -14 9q0 10 14 10h305q14 0 14 -10zM322 548q0 70 -26 102q-33 40 -91 40q-57 0 -90 -41q-26 -31 -26 -101
q0 -69 24 -102q32 -45 93 -45t94 46q22 33 22 101z" />
    <glyph glyph-name="guillemotright" unicode="&#xbb;" horiz-adv-x="544" 
d="M435 242q0 -2 -2 -6q-98 -100 -142 -231q-3 -5 -8 -5h-3q-8 0 -8 8v2q31 127 98 232q-67 103 -98 231v2q0 8 8 8h3q5 0 8 -5q43 -129 142 -231q2 -2 2 -5zM272 242q0 -2 -2 -6q-98 -100 -142 -231q-3 -5 -8 -5h-3q-8 0 -8 8v2q31 127 98 232q-67 103 -98 231v2q0 8 8 8h3
q5 0 8 -5q43 -129 142 -231q2 -2 2 -5z" />
    <glyph glyph-name="onequarter" unicode="&#xbc;" horiz-adv-x="808" 
d="M295 305q-19 2 -112 2q-94 0 -113 -2v18h22q45 0 55.5 5.5t10.5 23.5v312q-40 -15 -92 -15v17q87 0 127 38q11 0 12.5 -2t1.5 -12v-338q0 -18 10.5 -23.5t55.5 -5.5h22v-18zM741 100h-72v-54q0 -18 8.5 -23.5t45.5 -5.5h14v-17q-16 1 -94 1q-77 0 -94 -1v17h15
q37 0 45.5 5.5t8.5 23.5v54h-190v18l217 280q6 7 14 7q7 0 8.5 -2.5t1.5 -11.5v-273h72v-18zM658 663q0 -5 -3 -9l-391 -643q-4 -9 -16 -9q-8 0 -13 5t-5 13q0 6 3 9l392 644q5 8 15 8q8 0 13 -5.5t5 -12.5zM621 118v226l-175 -226h175z" />
    <glyph glyph-name="onehalf" unicode="&#xbd;" horiz-adv-x="808" 
d="M295 305q-19 2 -112 2q-94 0 -113 -2v18h22q45 0 55.5 5.5t10.5 23.5v312q-40 -15 -92 -15v17q87 0 127 38q11 0 12.5 -2t1.5 -12v-338q0 -18 10.5 -23.5t55.5 -5.5h22v-18zM741 101l-18 -101h-263v14l145 136q77 71 77 134q0 42 -27 70t-72 28q-35 0 -62 -19t-37 -50
q2 1 10 1q15 0 24.5 -8t9.5 -20q0 -14 -10.5 -21.5t-23.5 -7.5q-34 0 -34 31q0 42 36.5 76.5t95.5 34.5q64 0 106.5 -32t42.5 -83q0 -42 -28.5 -73t-120.5 -102q-8 -6 -40 -32.5t-42 -33.5h133q62 0 68 5q3 4 6 15t5.5 23t3.5 15h15zM618 663q0 -5 -3 -9l-392 -643
q-5 -9 -15 -9q-8 0 -13 5t-5 13q0 6 3 9l391 644q5 8 16 8q8 0 13 -5.5t5 -12.5z" />
    <glyph glyph-name="threequarters" unicode="&#xbe;" horiz-adv-x="808" 
d="M352 408q0 -47 -43 -81t-106 -34q-60 0 -102 28.5t-42 68.5q0 31 36 31q15 0 25 -8t10 -21q0 -16 -13 -24t-31 -6q14 -27 48.5 -40t66.5 -13q33 0 58.5 23.5t25.5 76.5q0 45 -22 72t-66 27h-34q-16 0 -16 6t15 7l22 2q42 0 65 28t23 71q0 39 -22 53.5t-48 14.5
q-72 0 -99 -41q2 1 8 1q13 0 23 -7.5t10 -20.5t-10 -20t-22 -7q-34 0 -34 29q0 33 36 56.5t90 23.5q53 0 91 -23.5t38 -58.5t-28.5 -64.5t-74.5 -40.5q53 -8 87.5 -38.5t34.5 -70.5zM741 100h-72v-54q0 -18 8.5 -23.5t45.5 -5.5h14v-17q-16 1 -94 1q-77 0 -94 -1v17h15
q37 0 45.5 5.5t8.5 23.5v54h-190v18l217 280q6 7 14 7q7 0 8.5 -2.5t1.5 -11.5v-273h72v-18zM658 663q0 -5 -3 -9l-391 -643q-4 -9 -16 -9q-8 0 -13 5t-5 13q0 6 3 9l392 644q5 8 15 8q8 0 13 -5.5t5 -12.5zM621 118v226l-175 -226h175z" />
    <glyph glyph-name="questiondown" unicode="&#xbf;" horiz-adv-x="462" 
d="M265 451q0 -19 -14.5 -33.5t-33.5 -14.5q-20 0 -34.5 14t-14.5 35q0 20 14 34t34 14t34.5 -14t14.5 -35zM407 -70q0 -58 -55 -96t-136 -38q-84 0 -123 39t-39 97q0 65 45 102q107 92 107 247v17q0 14 1.5 18t9.5 4q11 0 11 -12v-23q0 -78 -14 -139.5t-57 -121.5
q-15 -20 -21 -39.5t-6 -59.5q0 -24 2 -38t9.5 -33t27 -28.5t50.5 -9.5q43 0 89.5 17.5t67.5 58.5q-2 -1 -10 -1q-18 0 -30 11.5t-12 29.5q0 21 13 31.5t28 10.5t28.5 -10t13.5 -34z" />
    <glyph glyph-name="Agrave" unicode="&#xc0;" horiz-adv-x="734" 
d="M702 0q-23 2 -123 2q-107 0 -130 -2v29q76 0 76 30q0 5 -5 17l-55 157h-252l-46 -133q-5 -13 -5 -21q0 -21 18 -35t49 -15v-29q-26 2 -102 2l-96 -2v29q83 1 106 68l209 598q4 12 7.5 15.5t13.5 3.5t13.5 -3.5t6.5 -14.5l218 -626q10 -29 27 -35t70 -6v-29zM455 262
l-116 333l-116 -333h232zM435 762q-8 -12 -13 -18l-168 96q-18 10 -21 26q-2 16 8.5 27.5t25.5 11.5q9 0 25 -14z" />
    <glyph glyph-name="Aacute" unicode="&#xc1;" horiz-adv-x="734" 
d="M702 0q-23 2 -123 2q-107 0 -130 -2v29q76 0 76 30q0 5 -5 17l-55 157h-252l-46 -133q-5 -13 -5 -21q0 -21 18 -35t49 -15v-29q-26 2 -102 2l-96 -2v29q83 1 106 68l209 598q4 12 7.5 15.5t13.5 3.5t13.5 -3.5t6.5 -14.5l218 -626q10 -29 27 -35t70 -6v-29zM455 262
l-116 333l-116 -333h232zM501 866q-3 -16 -21 -26l-168 -96q-5 6 -13 18l143 129q14 14 24 14q16 0 26.5 -11.5t8.5 -27.5z" />
    <glyph glyph-name="Acircumflex" unicode="&#xc2;" horiz-adv-x="734" 
d="M702 0q-23 2 -123 2q-107 0 -130 -2v29q76 0 76 30q0 5 -5 17l-55 157h-252l-46 -133q-5 -13 -5 -21q0 -21 18 -35t49 -15v-29q-26 2 -102 2l-96 -2v29q83 1 106 68l209 598q4 12 7.5 15.5t13.5 3.5t13.5 -3.5t6.5 -14.5l218 -626q10 -29 27 -35t70 -6v-29zM455 262
l-116 333l-116 -333h232zM518 750l-12 -16l-140 66l-140 -66l-10 16l151 117z" />
    <glyph glyph-name="Atilde" unicode="&#xc3;" horiz-adv-x="734" 
d="M702 0q-23 2 -123 2q-107 0 -130 -2v29q76 0 76 30q0 5 -5 17l-55 157h-252l-46 -133q-5 -13 -5 -21q0 -21 18 -35t49 -15v-29q-26 2 -102 2l-96 -2v29q83 1 106 68l209 598q4 12 7.5 15.5t13.5 3.5t13.5 -3.5t6.5 -14.5l218 -626q10 -29 27 -35t70 -6v-29zM455 262
l-116 333l-116 -333h232zM529 811q-29 -32 -41.5 -44.5t-29.5 -22.5t-35 -10q-21 0 -63 25q-35 24 -60 24q-22 0 -39 -11.5t-43 -37.5l-14 14q29 32 41.5 44.5t29.5 22.5t35 10q21 0 63 -25q35 -24 60 -24q22 0 39 11.5t43 37.5z" />
    <glyph glyph-name="Adieresis" unicode="&#xc4;" horiz-adv-x="734" 
d="M702 0q-23 2 -123 2q-107 0 -130 -2v29q76 0 76 30q0 5 -5 17l-55 157h-252l-46 -133q-5 -13 -5 -21q0 -21 18 -35t49 -15v-29q-26 2 -102 2l-96 -2v29q83 1 106 68l209 598q4 12 7.5 15.5t13.5 3.5t13.5 -3.5t6.5 -14.5l218 -626q10 -29 27 -35t70 -6v-29zM455 262
l-116 333l-116 -333h232zM317 777q0 -17 -12.5 -30t-31.5 -13q-17 0 -30 13t-13 30q0 18 12.5 31t31.5 13q17 0 30 -12.5t13 -31.5zM505 777q0 -17 -12.5 -30t-31.5 -13q-17 0 -30 13t-13 30q0 18 12.5 31t31.5 13q17 0 30 -12.5t13 -31.5z" />
    <glyph glyph-name="Aring" unicode="&#xc5;" horiz-adv-x="734" 
d="M702 0q-23 2 -123 2q-107 0 -130 -2v29q76 0 76 30q0 5 -5 17l-55 157h-252l-46 -133q-5 -13 -5 -21q0 -21 18 -35t49 -15v-29q-26 2 -102 2l-96 -2v29q83 1 106 68l209 598q4 12 7.5 15.5t13.5 3.5t13.5 -3.5t6.5 -14.5l218 -626q10 -29 27 -35t70 -6v-29zM455 262
l-116 333l-116 -333h232zM430 802q0 60 -63 60t-63 -60t63 -60t63 60zM460 801q0 -35 -27 -61t-67 -26q-37 0 -64.5 25.5t-27.5 63.5q0 35 27 61t67 26q37 0 64.5 -25.5t27.5 -63.5z" />
    <glyph glyph-name="AE" unicode="&#xc6;" horiz-adv-x="884" 
d="M856 256l-40 -256h-480v29q49 0 60 7t11 37v241h-163l-76 -214q-5 -13 -5 -21q0 -21 16.5 -35t50.5 -15v-29q-25 2 -103 2l-96 -2v29q82 0 106 66l200 558q-12 1 -38 1h-41v29h545l26 -223h-22q-11 112 -44.5 153t-131.5 41h-103q-32 0 -39 -7t-7 -33v-271h88
q67 0 85 24.5t18 92.5h22v-263h-22q0 68 -18 92.5t-85 24.5h-88v-245q0 -26 7 -33t39 -7h102q48 0 81.5 10t53.5 25t34 47t20.5 61.5t14.5 83.5h22zM407 343v262q0 13 -1.5 20.5t-11.5 16.5t-29 9l-110 -308h152z" />
    <glyph glyph-name="Ccedilla" unicode="&#xc7;" horiz-adv-x="707" 
d="M652 232q0 -55 -27 -110.5t-84 -97t-130 -45.5v-42q44 0 76 -17.5t32 -50.5q0 -17 -9 -29t-29.5 -19.5t-39.5 -12t-52 -6t-52.5 -2t-56.5 -0.5h-22v22h11q40 0 62 1t52.5 5t45 14t14.5 27q0 23 -22.5 34.5t-53.5 11.5v65q-129 11 -221 114.5t-92 247.5q0 151 101 256.5
t240 105.5q53 0 102 -24.5t83 -66.5l49 79q7 12 13 12q7 0 8.5 -4t1.5 -19v-237q0 -16 -2 -19.5t-12 -3.5q-6 0 -8.5 1.5t-3.5 4t-2 9.5q-15 110 -75.5 174.5t-141.5 64.5q-26 0 -55 -6.5t-67 -28t-67.5 -56t-50 -97.5t-20.5 -145q0 -83 21 -146.5t50.5 -98t68 -56t67 -27.5
t54.5 -6q52 0 99 23t83 77t40 129q0 12 11 12q8 0 9.5 -3.5t1.5 -13.5z" />
    <glyph glyph-name="Egrave" unicode="&#xc8;" horiz-adv-x="666" 
d="M638 256l-40 -256h-557v29h20q51 0 63 8.5t12 38.5v529q0 30 -12 38.5t-63 8.5h-20v29h544l26 -223h-22q-12 113 -49 153.5t-144 40.5h-133q-32 0 -39 -7t-7 -33v-244h91q69 0 88 24t19 93h22v-263h-22q0 69 -19 93t-88 24h-91v-270q0 -26 7 -33t39 -7h136q50 0 85 9.5
t57 24.5t37 46.5t22.5 62.5t15.5 84h22zM401 762q-8 -12 -13 -18l-168 96q-18 10 -21 26q-2 16 8.5 27.5t25.5 11.5q9 0 25 -14z" />
    <glyph glyph-name="Eacute" unicode="&#xc9;" horiz-adv-x="666" 
d="M638 256l-40 -256h-557v29h20q51 0 63 8.5t12 38.5v529q0 30 -12 38.5t-63 8.5h-20v29h544l26 -223h-22q-12 113 -49 153.5t-144 40.5h-133q-32 0 -39 -7t-7 -33v-244h91q69 0 88 24t19 93h22v-263h-22q0 69 -19 93t-88 24h-91v-270q0 -26 7 -33t39 -7h136q50 0 85 9.5
t57 24.5t37 46.5t22.5 62.5t15.5 84h22zM467 866q-3 -16 -21 -26l-168 -96q-5 6 -13 18l143 129q14 14 24 14q16 0 26.5 -11.5t8.5 -27.5z" />
    <glyph glyph-name="Ecircumflex" unicode="&#xca;" horiz-adv-x="666" 
d="M638 256l-40 -256h-557v29h20q51 0 63 8.5t12 38.5v529q0 30 -12 38.5t-63 8.5h-20v29h544l26 -223h-22q-12 113 -49 153.5t-144 40.5h-133q-32 0 -39 -7t-7 -33v-244h91q69 0 88 24t19 93h22v-263h-22q0 69 -19 93t-88 24h-91v-270q0 -26 7 -33t39 -7h136q50 0 85 9.5
t57 24.5t37 46.5t22.5 62.5t15.5 84h22zM484 750l-12 -16l-140 66l-140 -66l-10 16l151 117z" />
    <glyph glyph-name="Edieresis" unicode="&#xcb;" horiz-adv-x="666" 
d="M638 256l-40 -256h-557v29h20q51 0 63 8.5t12 38.5v529q0 30 -12 38.5t-63 8.5h-20v29h544l26 -223h-22q-12 113 -49 153.5t-144 40.5h-133q-32 0 -39 -7t-7 -33v-244h91q69 0 88 24t19 93h22v-263h-22q0 69 -19 93t-88 24h-91v-270q0 -26 7 -33t39 -7h136q50 0 85 9.5
t57 24.5t37 46.5t22.5 62.5t15.5 84h22zM283 777q0 -17 -12.5 -30t-31.5 -13q-17 0 -30 13t-13 30q0 18 12.5 31t31.5 13q17 0 30 -12.5t13 -31.5zM471 777q0 -17 -12.5 -30t-31.5 -13q-17 0 -30 13t-13 30q0 18 12.5 31t31.5 13q17 0 30 -12.5t13 -31.5z" />
    <glyph glyph-name="Igrave" unicode="&#xcc;" horiz-adv-x="353" 
d="M317 0q-24 2 -141 2q-116 0 -140 -2v29h22q53 0 65.5 8.5t12.5 38.5v531q0 30 -12.5 38.5t-65.5 8.5h-22v29q24 -2 141 -2q116 0 140 2v-29h-22q-53 0 -65.5 -8.5t-12.5 -38.5v-531q0 -30 12.5 -38.5t65.5 -8.5h22v-29zM245 762q-8 -12 -13 -18l-168 96q-18 10 -21 26
q-2 16 8.5 27.5t25.5 11.5q9 0 25 -14z" />
    <glyph glyph-name="Iacute" unicode="&#xcd;" horiz-adv-x="353" 
d="M317 0q-24 2 -141 2q-116 0 -140 -2v29h22q53 0 65.5 8.5t12.5 38.5v531q0 30 -12.5 38.5t-65.5 8.5h-22v29q24 -2 141 -2q116 0 140 2v-29h-22q-53 0 -65.5 -8.5t-12.5 -38.5v-531q0 -30 12.5 -38.5t65.5 -8.5h22v-29zM311 866q-3 -16 -21 -26l-168 -96q-5 6 -13 18
l143 129q14 14 24 14q16 0 26.5 -11.5t8.5 -27.5z" />
    <glyph glyph-name="Icircumflex" unicode="&#xce;" horiz-adv-x="353" 
d="M317 0q-24 2 -141 2q-116 0 -140 -2v29h22q53 0 65.5 8.5t12.5 38.5v531q0 30 -12.5 38.5t-65.5 8.5h-22v29q24 -2 141 -2q116 0 140 2v-29h-22q-53 0 -65.5 -8.5t-12.5 -38.5v-531q0 -30 12.5 -38.5t65.5 -8.5h22v-29zM328 750l-12 -16l-140 66l-140 -66l-10 16l151 117
z" />
    <glyph glyph-name="Idieresis" unicode="&#xcf;" horiz-adv-x="353" 
d="M317 0q-24 2 -141 2q-116 0 -140 -2v29h22q53 0 65.5 8.5t12.5 38.5v531q0 30 -12.5 38.5t-65.5 8.5h-22v29q24 -2 141 -2q116 0 140 2v-29h-22q-53 0 -65.5 -8.5t-12.5 -38.5v-531q0 -30 12.5 -38.5t65.5 -8.5h22v-29zM127 777q0 -17 -12.5 -30t-31.5 -13q-17 0 -30 13
t-13 30q0 18 12.5 31t31.5 13q17 0 30 -12.5t13 -31.5zM315 777q0 -17 -12.5 -30t-31.5 -13q-17 0 -30 13t-13 30q0 18 12.5 31t31.5 13q17 0 30 -12.5t13 -31.5z" />
    <glyph glyph-name="Eth" unicode="&#xd0;" horiz-adv-x="748" 
d="M693 335q0 -139 -88 -237t-213 -98h-350v29h20q51 0 63 8.5t12 38.5v252h-95v28h95v251q0 30 -12 38.5t-63 8.5h-20v29h350q125 0 213 -101.5t88 -246.5zM602 336q0 141 -45 212q-66 106 -190 106h-105q-32 0 -39 -7t-7 -33v-258h158v-28h-158v-259q0 -26 7 -33t39 -7
h105q112 0 177 83q58 75 58 224z" />
    <glyph glyph-name="Ntilde" unicode="&#xd1;" horiz-adv-x="734" 
d="M692 654q-33 0 -54.5 -7t-29 -21t-9.5 -23t-2 -25v-572q-3 -6 -12 -6q-7 0 -18 15l-390 594q-15 20 -17 22v-526q0 -16 2 -25t9.5 -23t29 -21t54.5 -7v-29q-26 2 -107 2t-107 -2v29q33 0 54.5 7t29 21t9.5 23t2 25v542q-27 7 -95 7v29h153q16 0 20.5 -2t11.5 -12
l347 -528v437q0 16 -2 25t-9.5 23t-29 21t-54.5 7v29q26 -2 107 -2t107 2v-29zM529 811q-29 -32 -41.5 -44.5t-29.5 -22.5t-35 -10q-21 0 -63 25q-35 24 -60 24q-22 0 -39 -11.5t-43 -37.5l-14 14q29 32 41.5 44.5t29.5 22.5t35 10q21 0 63 -25q35 -24 60 -24q22 0 39 11.5
t43 37.5z" />
    <glyph glyph-name="Ograve" unicode="&#xd2;" horiz-adv-x="762" 
d="M707 339q0 -150 -96 -255t-231 -105q-133 0 -229.5 104.5t-96.5 255.5q0 153 96.5 259t230.5 106q132 0 229 -106t97 -259zM614 354q0 86 -22 152.5t-58 103t-75 54.5t-79 18q-30 0 -60.5 -10t-62 -35t-55.5 -61.5t-39.5 -94t-15.5 -127.5q0 -74 14.5 -134.5t38.5 -100
t55 -67t62.5 -39t63.5 -11.5q39 0 78 19.5t74.5 58.5t58 110t22.5 164zM449 762q-8 -12 -13 -18l-168 96q-18 10 -21 26q-2 16 8.5 27.5t25.5 11.5q9 0 25 -14z" />
    <glyph glyph-name="Oacute" unicode="&#xd3;" horiz-adv-x="762" 
d="M707 339q0 -150 -96 -255t-231 -105q-133 0 -229.5 104.5t-96.5 255.5q0 153 96.5 259t230.5 106q132 0 229 -106t97 -259zM614 354q0 86 -22 152.5t-58 103t-75 54.5t-79 18q-30 0 -60.5 -10t-62 -35t-55.5 -61.5t-39.5 -94t-15.5 -127.5q0 -74 14.5 -134.5t38.5 -100
t55 -67t62.5 -39t63.5 -11.5q39 0 78 19.5t74.5 58.5t58 110t22.5 164zM515 866q-3 -16 -21 -26l-168 -96q-5 6 -13 18l143 129q14 14 24 14q16 0 26.5 -11.5t8.5 -27.5z" />
    <glyph glyph-name="Ocircumflex" unicode="&#xd4;" horiz-adv-x="762" 
d="M707 339q0 -150 -96 -255t-231 -105q-133 0 -229.5 104.5t-96.5 255.5q0 153 96.5 259t230.5 106q132 0 229 -106t97 -259zM614 354q0 86 -22 152.5t-58 103t-75 54.5t-79 18q-30 0 -60.5 -10t-62 -35t-55.5 -61.5t-39.5 -94t-15.5 -127.5q0 -74 14.5 -134.5t38.5 -100
t55 -67t62.5 -39t63.5 -11.5q39 0 78 19.5t74.5 58.5t58 110t22.5 164zM532 750l-12 -16l-140 66l-140 -66l-10 16l151 117z" />
    <glyph glyph-name="Otilde" unicode="&#xd5;" horiz-adv-x="762" 
d="M707 339q0 -150 -96 -255t-231 -105q-133 0 -229.5 104.5t-96.5 255.5q0 153 96.5 259t230.5 106q132 0 229 -106t97 -259zM614 354q0 86 -22 152.5t-58 103t-75 54.5t-79 18q-30 0 -60.5 -10t-62 -35t-55.5 -61.5t-39.5 -94t-15.5 -127.5q0 -74 14.5 -134.5t38.5 -100
t55 -67t62.5 -39t63.5 -11.5q39 0 78 19.5t74.5 58.5t58 110t22.5 164zM543 811q-29 -32 -41.5 -44.5t-29.5 -22.5t-35 -10q-21 0 -63 25q-35 24 -60 24q-22 0 -39 -11.5t-43 -37.5l-14 14q29 32 41.5 44.5t29.5 22.5t35 10q21 0 63 -25q35 -24 60 -24q22 0 39 11.5t43 37.5
z" />
    <glyph glyph-name="Odieresis" unicode="&#xd6;" horiz-adv-x="762" 
d="M707 339q0 -150 -96 -255t-231 -105q-133 0 -229.5 104.5t-96.5 255.5q0 153 96.5 259t230.5 106q132 0 229 -106t97 -259zM614 354q0 86 -22 152.5t-58 103t-75 54.5t-79 18q-30 0 -60.5 -10t-62 -35t-55.5 -61.5t-39.5 -94t-15.5 -127.5q0 -74 14.5 -134.5t38.5 -100
t55 -67t62.5 -39t63.5 -11.5q39 0 78 19.5t74.5 58.5t58 110t22.5 164zM331 777q0 -17 -12.5 -30t-31.5 -13q-17 0 -30 13t-13 30q0 18 12.5 31t31.5 13q17 0 30 -12.5t13 -31.5zM519 777q0 -17 -12.5 -30t-31.5 -13q-17 0 -30 13t-13 30q0 18 12.5 31t31.5 13
q17 0 30 -12.5t13 -31.5z" />
    <glyph glyph-name="multiply" unicode="&#xd7;" horiz-adv-x="762" 
d="M612 480q12 -13 -10 -35l-195 -195l195 -196q22 -22 9 -36q-13 -12 -35 10l-195 195l-196 -195q-22 -22 -36 -9q-12 13 10 35l195 196l-195 195q-22 22 -9 36q13 12 35 -10l196 -195l195 195q22 22 36 9z" />
    <glyph glyph-name="Oslash" unicode="&#xd8;" horiz-adv-x="762" 
d="M707 339q0 -150 -96 -255t-231 -105q-100 0 -189 66l-68 -100l-17 12l69 103q-59 52 -90 126t-31 153q0 153 96.5 259t230.5 106q106 0 188 -67l69 101l17 -12l-69 -104q10 -8 25.5 -25.5t39.5 -52.5t40 -89.5t16 -115.5zM547 607q-77 77 -167 77q-14 0 -31 -3
t-47.5 -12.5t-57.5 -33t-53 -59t-41 -97t-15 -139.5q0 -159 64 -245zM626 340q0 159 -64 248l-349 -512q77 -77 168 -77q21 0 44.5 4.5t61.5 24.5t67 54t50.5 101t21.5 157z" />
    <glyph glyph-name="Ugrave" unicode="&#xd9;" horiz-adv-x="734" 
d="M692 654q-95 0 -95 -61v-378q0 -84 -60.5 -160t-157.5 -76q-98 0 -170.5 72t-72.5 178v378q0 30 -12 38.5t-63 8.5h-20v29q24 -2 136 -2q111 0 135 2v-29h-20q-51 0 -63 -8.5t-12 -38.5v-384q0 -62 16.5 -107t43.5 -67t52.5 -31.5t51.5 -9.5q75 0 132 61t57 161v350
q0 15 -2 24t-9.5 22.5t-29 20.5t-54.5 7v29q26 -2 109 -2q82 0 108 2v-29zM457 762q-8 -12 -13 -18l-168 96q-18 10 -21 26q-2 16 8.5 27.5t25.5 11.5q9 0 25 -14z" />
    <glyph glyph-name="Uacute" unicode="&#xda;" horiz-adv-x="734" 
d="M692 654q-95 0 -95 -61v-378q0 -84 -60.5 -160t-157.5 -76q-98 0 -170.5 72t-72.5 178v378q0 30 -12 38.5t-63 8.5h-20v29q24 -2 136 -2q111 0 135 2v-29h-20q-51 0 -63 -8.5t-12 -38.5v-384q0 -62 16.5 -107t43.5 -67t52.5 -31.5t51.5 -9.5q75 0 132 61t57 161v350
q0 15 -2 24t-9.5 22.5t-29 20.5t-54.5 7v29q26 -2 109 -2q82 0 108 2v-29zM523 866q-3 -16 -21 -26l-168 -96q-5 6 -13 18l143 129q14 14 24 14q16 0 26.5 -11.5t8.5 -27.5z" />
    <glyph glyph-name="Ucircumflex" unicode="&#xdb;" horiz-adv-x="734" 
d="M692 654q-95 0 -95 -61v-378q0 -84 -60.5 -160t-157.5 -76q-98 0 -170.5 72t-72.5 178v378q0 30 -12 38.5t-63 8.5h-20v29q24 -2 136 -2q111 0 135 2v-29h-20q-51 0 -63 -8.5t-12 -38.5v-384q0 -62 16.5 -107t43.5 -67t52.5 -31.5t51.5 -9.5q75 0 132 61t57 161v350
q0 15 -2 24t-9.5 22.5t-29 20.5t-54.5 7v29q26 -2 109 -2q82 0 108 2v-29zM540 750l-12 -16l-140 66l-140 -66l-10 16l151 117z" />
    <glyph glyph-name="Udieresis" unicode="&#xdc;" horiz-adv-x="734" 
d="M692 654q-95 0 -95 -61v-378q0 -84 -60.5 -160t-157.5 -76q-98 0 -170.5 72t-72.5 178v378q0 30 -12 38.5t-63 8.5h-20v29q24 -2 136 -2q111 0 135 2v-29h-20q-51 0 -63 -8.5t-12 -38.5v-384q0 -62 16.5 -107t43.5 -67t52.5 -31.5t51.5 -9.5q75 0 132 61t57 161v350
q0 15 -2 24t-9.5 22.5t-29 20.5t-54.5 7v29q26 -2 109 -2q82 0 108 2v-29zM339 777q0 -17 -12.5 -30t-31.5 -13q-17 0 -30 13t-13 30q0 18 12.5 31t31.5 13q17 0 30 -12.5t13 -31.5zM527 777q0 -17 -12.5 -30t-31.5 -13q-17 0 -30 13t-13 30q0 18 12.5 31t31.5 13
q17 0 30 -12.5t13 -31.5z" />
    <glyph glyph-name="Yacute" unicode="&#xdd;" horiz-adv-x="734" 
d="M723 654q-82 0 -122 -65l-195 -315v-200q0 -28 11.5 -36.5t63.5 -8.5h20v-29q-24 2 -135 2t-134 -2v29h20q51 0 63 8.5t12 38.5v197l-211 342q-16 26 -34 32.5t-72 6.5v29q24 -2 123 -2q109 0 132 2v-29q-62 0 -62 -24q0 -6 8 -19l186 -301l169 275q12 19 12 32
q0 18 -14 27.5t-36 9.5v29q25 -2 102 -2l93 2v-29zM501 866q-3 -16 -21 -26l-168 -96q-5 6 -13 18l143 129q14 14 24 14q16 0 26.5 -11.5t8.5 -27.5z" />
    <glyph glyph-name="Thorn" unicode="&#xde;" horiz-adv-x="612" 
d="M556 365q0 -75 -58.5 -131t-145.5 -56h-139v-100q0 -35 14.5 -42t80.5 -7v-30l-133 3l-133 -3v30q66 0 80.5 7t14.5 42v527q0 35 -14.5 42t-80.5 7v30l133 -3l133 3v-30q-66 0 -80.5 -7t-14.5 -42v-53h129q101 0 157.5 -58t56.5 -129zM465 366q0 66 -39 113
q-36 44 -101 44h-112v-316h107q66 0 105.5 47t39.5 112z" />
    <glyph glyph-name="germandbls" unicode="&#xdf;" 
d="M462 174q0 -80 -52 -132t-121 -52q-41 0 -67.5 21t-26.5 50q0 16 9.5 25t23.5 9q13 0 22.5 -8.5t9.5 -24.5q0 -27 -28 -32q21 -20 55 -20q38 0 71.5 38t33.5 126q0 94 -41.5 162t-117.5 75q-12 2 -12 10q0 9 7 10q13 1 24.5 2.5t34 10t38 21.5t28 39t12.5 60q0 60 -30 90
t-67 30q-7 0 -16 -1.5t-25 -8.5t-28.5 -19.5t-22 -38t-9.5 -59.5v-557q-14 2 -55 2q-57 0 -84 -2v29q52 0 64 6.5t12 38.5v328h-76v29h76v126q0 68 49.5 107.5t114.5 39.5q70 0 118.5 -42t48.5 -99q0 -51 -39 -89.5t-98 -54.5q74 -25 119 -93.5t45 -151.5z" />
    <glyph glyph-name="agrave" unicode="&#xe0;" 
d="M474 89q0 -52 -26.5 -73t-52.5 -21q-32 0 -53.5 23.5t-24.5 59.5q-15 -38 -49 -63t-81 -25q-57 0 -105 25.5t-48 78.5q0 65 68.5 113.5t208.5 50.5v40q0 62 -32.5 95t-72.5 33q-33 0 -64 -15t-47 -45q51 0 51 -41q0 -18 -11.5 -29.5t-29.5 -11.5t-30 11t-12 32
q0 49 42 84t103 35q74 0 124 -46q21 -18 31 -41.5t11.5 -40.5t1.5 -51v-175q0 -68 38 -68t38 65v56h22v-56zM311 141v99q-15 -1 -28.5 -2.5t-40.5 -6.5t-48 -15.5t-43 -25.5t-34 -40t-12 -56q0 -36 26.5 -60t63.5 -24q41 0 78.5 32.5t37.5 98.5zM306 527q-7 -9 -16 -16
l-149 124q-16 13 -16 29q0 13 10.5 23t23.5 10q15 0 28 -18z" />
    <glyph glyph-name="aacute" unicode="&#xe1;" 
d="M474 89q0 -52 -26.5 -73t-52.5 -21q-32 0 -53.5 23.5t-24.5 59.5q-15 -38 -49 -63t-81 -25q-57 0 -105 25.5t-48 78.5q0 65 68.5 113.5t208.5 50.5v40q0 62 -32.5 95t-72.5 33q-33 0 -64 -15t-47 -45q51 0 51 -41q0 -18 -11.5 -29.5t-29.5 -11.5t-30 11t-12 32
q0 49 42 84t103 35q74 0 124 -46q21 -18 31 -41.5t11.5 -40.5t1.5 -51v-175q0 -68 38 -68t38 65v56h22v-56zM311 141v99q-15 -1 -28.5 -2.5t-40.5 -6.5t-48 -15.5t-43 -25.5t-34 -40t-12 -56q0 -36 26.5 -60t63.5 -24q41 0 78.5 32.5t37.5 98.5zM365 664q0 -16 -16 -29
l-149 -124q-9 7 -16 16l119 152q13 18 28 18q13 0 23.5 -10t10.5 -23z" />
    <glyph glyph-name="acircumflex" unicode="&#xe2;" 
d="M474 89q0 -52 -26.5 -73t-52.5 -21q-32 0 -53.5 23.5t-24.5 59.5q-15 -38 -49 -63t-81 -25q-57 0 -105 25.5t-48 78.5q0 65 68.5 113.5t208.5 50.5v40q0 62 -32.5 95t-72.5 33q-33 0 -64 -15t-47 -45q51 0 51 -41q0 -18 -11.5 -29.5t-29.5 -11.5t-30 11t-12 32
q0 49 42 84t103 35q74 0 124 -46q21 -18 31 -41.5t11.5 -40.5t1.5 -51v-175q0 -68 38 -68t38 65v56h22v-56zM311 141v99q-15 -1 -28.5 -2.5t-40.5 -6.5t-48 -15.5t-43 -25.5t-34 -40t-12 -56q0 -36 26.5 -60t63.5 -24q41 0 78.5 32.5t37.5 98.5zM397 530l-13 -14l-139 108
l-139 -108l-13 14l152 162z" />
    <glyph glyph-name="atilde" unicode="&#xe3;" 
d="M474 89q0 -52 -26.5 -73t-52.5 -21q-32 0 -53.5 23.5t-24.5 59.5q-15 -38 -49 -63t-81 -25q-57 0 -105 25.5t-48 78.5q0 65 68.5 113.5t208.5 50.5v40q0 62 -32.5 95t-72.5 33q-33 0 -64 -15t-47 -45q51 0 51 -41q0 -18 -11.5 -29.5t-29.5 -11.5t-30 11t-12 32
q0 49 42 84t103 35q74 0 124 -46q21 -18 31 -41.5t11.5 -40.5t1.5 -51v-175q0 -68 38 -68t38 65v56h22v-56zM311 141v99q-15 -1 -28.5 -2.5t-40.5 -6.5t-48 -15.5t-43 -25.5t-34 -40t-12 -56q0 -36 26.5 -60t63.5 -24q41 0 78.5 32.5t37.5 98.5zM407 636
q-29 -32 -41.5 -44.5t-29.5 -22.5t-35 -10q-21 0 -63 25q-35 24 -60 24q-22 0 -39 -11.5t-43 -37.5l-14 14q29 32 41.5 44.5t29.5 22.5t35 10q21 0 63 -25q35 -24 60 -24q22 0 39 11.5t43 37.5z" />
    <glyph glyph-name="adieresis" unicode="&#xe4;" 
d="M474 89q0 -52 -26.5 -73t-52.5 -21q-32 0 -53.5 23.5t-24.5 59.5q-15 -38 -49 -63t-81 -25q-57 0 -105 25.5t-48 78.5q0 65 68.5 113.5t208.5 50.5v40q0 62 -32.5 95t-72.5 33q-33 0 -64 -15t-47 -45q51 0 51 -41q0 -18 -11.5 -29.5t-29.5 -11.5t-30 11t-12 32
q0 49 42 84t103 35q74 0 124 -46q21 -18 31 -41.5t11.5 -40.5t1.5 -51v-175q0 -68 38 -68t38 65v56h22v-56zM311 141v99q-15 -1 -28.5 -2.5t-40.5 -6.5t-48 -15.5t-43 -25.5t-34 -40t-12 -56q0 -36 26.5 -60t63.5 -24q41 0 78.5 32.5t37.5 98.5zM209 604q0 -17 -12.5 -30
t-31.5 -13q-17 0 -30 13t-13 30q0 18 12.5 31t31.5 13q17 0 30 -12.5t13 -31.5zM369 604q0 -17 -12.5 -30t-31.5 -13q-17 0 -30 13t-13 30q0 18 12.5 31t31.5 13q17 0 30 -12.5t13 -31.5z" />
    <glyph glyph-name="aring" unicode="&#xe5;" 
d="M474 89q0 -52 -26.5 -73t-52.5 -21q-32 0 -53.5 23.5t-24.5 59.5q-15 -38 -49 -63t-81 -25q-57 0 -105 25.5t-48 78.5q0 65 68.5 113.5t208.5 50.5v40q0 62 -32.5 95t-72.5 33q-33 0 -64 -15t-47 -45q51 0 51 -41q0 -18 -11.5 -29.5t-29.5 -11.5t-30 11t-12 32
q0 49 42 84t103 35q74 0 124 -46q21 -18 31 -41.5t11.5 -40.5t1.5 -51v-175q0 -68 38 -68t38 65v56h22v-56zM311 141v99q-15 -1 -28.5 -2.5t-40.5 -6.5t-48 -15.5t-43 -25.5t-34 -40t-12 -56q0 -36 26.5 -60t63.5 -24q41 0 78.5 32.5t37.5 98.5zM308 615q0 60 -63 60
t-63 -60t63 -60t63 60zM338 614q0 -35 -27 -61t-67 -26q-37 0 -64.5 25.5t-27.5 63.5q0 35 27 61t67 26q37 0 64.5 -25.5t27.5 -63.5z" />
    <glyph glyph-name="ae" unicode="&#xe6;" horiz-adv-x="707" 
d="M679 119q0 -9 -9 -28.5t-25.5 -43t-47.5 -40.5t-69 -17q-98 0 -165 90q-20 -42 -64.5 -66t-100.5 -24q-60 0 -106 25.5t-46 74.5q0 22 9 44t34.5 49t85 45t146.5 21v49q0 62 -32.5 95t-72.5 33q-32 0 -63.5 -15t-47.5 -45q51 0 51 -41q0 -18 -11.5 -29.5t-29.5 -11.5
t-30 11t-12 32q0 48 42 83.5t104 35.5q97 0 150 -78q57 78 147 78q78 0 120.5 -55t42.5 -140q0 -14 -3.5 -16.5t-20.5 -2.5h-269q0 -97 31 -148q44 -72 115 -72q38 0 73.5 25.5t51.5 82.5q3 9 11 9q11 0 11 -10zM617 251q-5 175 -102 175q-9 0 -20.5 -2.5t-30 -12.5
t-33.5 -27.5t-28 -52t-16 -80.5h230zM332 133q0 11 -4 28q-7 27 -7 69q-88 -5 -138 -34q-36 -20 -51 -49.5t-15 -55.5q0 -35 26 -58t62 -23q50 0 88.5 35t38.5 88z" />
    <glyph glyph-name="ccedilla" unicode="&#xe7;" horiz-adv-x="435" 
d="M406 119q0 -4 -3.5 -15.5t-14 -30t-25.5 -35.5t-42 -30.5t-60 -16.5v-54q45 0 77 -17.5t32 -50.5q0 -17 -9.5 -29t-30 -19.5t-39 -12t-52 -6t-53 -2t-55.5 -0.5h-22v22h11q26 0 40 0.5t38.5 1.5t38 4t28.5 8t22 13.5t7 19.5q0 22 -23 34t-54 12v77q-77 11 -129.5 74
t-52.5 150q0 95 61.5 162.5t148.5 67.5q62 0 106.5 -33t44.5 -82q0 -21 -12 -32t-30 -11t-29.5 11.5t-11.5 29.5q0 41 49 41q-16 27 -49.5 40.5t-66.5 13.5q-21 0 -42.5 -9.5t-43.5 -31t-35.5 -64.5t-13.5 -102q0 -104 43.5 -154.5t98.5 -50.5q43 0 78.5 25t51.5 76
q2 10 4.5 12.5t8.5 2.5q10 0 10 -9z" />
    <glyph glyph-name="egrave" unicode="&#xe8;" horiz-adv-x="435" 
d="M407 119q0 -10 -9.5 -29.5t-27.5 -42.5t-52 -40t-75 -17q-85 0 -149 66t-64 163q0 94 58.5 160.5t143.5 66.5q86 0 130.5 -56.5t44.5 -138.5q0 -14 -3.5 -16.5t-20.5 -2.5h-277v-19q0 -61 16 -104t40.5 -62t45.5 -27t41 -8q39 0 78 25t57 82q4 10 12 10q11 0 11 -10z
M345 251q-1 23 -4 43.5t-13 55t-35 55.5t-62 21q-14 0 -30.5 -6t-38.5 -22t-37 -54t-18 -93h238zM279 527q-7 -9 -16 -16l-149 124q-16 13 -16 29q0 13 10.5 23t23.5 10q15 0 28 -18z" />
    <glyph glyph-name="eacute" unicode="&#xe9;" horiz-adv-x="435" 
d="M407 119q0 -10 -9.5 -29.5t-27.5 -42.5t-52 -40t-75 -17q-85 0 -149 66t-64 163q0 94 58.5 160.5t143.5 66.5q86 0 130.5 -56.5t44.5 -138.5q0 -14 -3.5 -16.5t-20.5 -2.5h-277v-19q0 -61 16 -104t40.5 -62t45.5 -27t41 -8q39 0 78 25t57 82q4 10 12 10q11 0 11 -10z
M345 251q-1 23 -4 43.5t-13 55t-35 55.5t-62 21q-14 0 -30.5 -6t-38.5 -22t-37 -54t-18 -93h238zM338 664q0 -16 -16 -29l-149 -124q-9 7 -16 16l119 152q13 18 28 18q13 0 23.5 -10t10.5 -23z" />
    <glyph glyph-name="ecircumflex" unicode="&#xea;" horiz-adv-x="435" 
d="M407 119q0 -10 -9.5 -29.5t-27.5 -42.5t-52 -40t-75 -17q-85 0 -149 66t-64 163q0 94 58.5 160.5t143.5 66.5q86 0 130.5 -56.5t44.5 -138.5q0 -14 -3.5 -16.5t-20.5 -2.5h-277v-19q0 -61 16 -104t40.5 -62t45.5 -27t41 -8q39 0 78 25t57 82q4 10 12 10q11 0 11 -10z
M345 251q-1 23 -4 43.5t-13 55t-35 55.5t-62 21q-14 0 -30.5 -6t-38.5 -22t-37 -54t-18 -93h238zM370 530l-13 -14l-139 108l-139 -108l-13 14l152 162z" />
    <glyph glyph-name="edieresis" unicode="&#xeb;" horiz-adv-x="435" 
d="M407 119q0 -10 -9.5 -29.5t-27.5 -42.5t-52 -40t-75 -17q-85 0 -149 66t-64 163q0 94 58.5 160.5t143.5 66.5q86 0 130.5 -56.5t44.5 -138.5q0 -14 -3.5 -16.5t-20.5 -2.5h-277v-19q0 -61 16 -104t40.5 -62t45.5 -27t41 -8q39 0 78 25t57 82q4 10 12 10q11 0 11 -10z
M345 251q-1 23 -4 43.5t-13 55t-35 55.5t-62 21q-14 0 -30.5 -6t-38.5 -22t-37 -54t-18 -93h238zM182 604q0 -17 -12.5 -30t-31.5 -13q-17 0 -30 13t-13 30q0 18 12.5 31t31.5 13q17 0 30 -12.5t13 -31.5zM342 604q0 -17 -12.5 -30t-31.5 -13q-17 0 -30 13t-13 30
q0 18 12.5 31t31.5 13q17 0 30 -12.5t13 -31.5z" />
    <glyph glyph-name="igrave" unicode="&#xec;" horiz-adv-x="272" 
d="M241 0q-34 2 -103 2q-77 0 -105 -2v29q51 0 63.5 6.5t12.5 38.5v272q0 37 -12.5 46t-60.5 9v29l136 11v-368q0 -30 10.5 -37t58.5 -7v-29zM197 527q-7 -9 -16 -16l-149 124q-16 13 -16 29q0 13 10.5 23t23.5 10q15 0 28 -18z" />
    <glyph glyph-name="iacute" unicode="&#xed;" horiz-adv-x="272" 
d="M241 0q-34 2 -103 2q-77 0 -105 -2v29q51 0 63.5 6.5t12.5 38.5v272q0 37 -12.5 46t-60.5 9v29l136 11v-368q0 -30 10.5 -37t58.5 -7v-29zM256 664q0 -16 -16 -29l-149 -124q-9 7 -16 16l119 152q13 18 28 18q13 0 23.5 -10t10.5 -23z" />
    <glyph glyph-name="icircumflex" unicode="&#xee;" horiz-adv-x="272" 
d="M241 0q-34 2 -103 2q-77 0 -105 -2v29q51 0 63.5 6.5t12.5 38.5v272q0 37 -12.5 46t-60.5 9v29l136 11v-368q0 -30 10.5 -37t58.5 -7v-29zM288 530l-13 -14l-139 108l-139 -108l-13 14l152 162z" />
    <glyph glyph-name="idieresis" unicode="&#xef;" horiz-adv-x="272" 
d="M241 0q-34 2 -103 2q-77 0 -105 -2v29q51 0 63.5 6.5t12.5 38.5v272q0 37 -12.5 46t-60.5 9v29l136 11v-368q0 -30 10.5 -37t58.5 -7v-29zM100 604q0 -17 -12.5 -30t-31.5 -13q-17 0 -30 13t-13 30q0 18 12.5 31t31.5 13q17 0 30 -12.5t13 -31.5zM260 604
q0 -17 -12.5 -30t-31.5 -13q-17 0 -30 13t-13 30q0 18 12.5 31t31.5 13q17 0 30 -12.5t13 -31.5z" />
    <glyph glyph-name="eth" unicode="&#xf0;" 
d="M459 236q0 -32 -2 -52.5t-15.5 -56.5t-39.5 -65q-64 -72 -158 -72q-88 0 -151.5 65t-63.5 158q0 98 64 165t149 67q74 0 122 -78q-37 140 -156 232l-85 -49l-15 25l74 43q-57 36 -116 56l6 21q76 -14 149 -54l89 51l15 -25l-76 -44q98 -63 156 -166q54 -96 54 -221z
M382 214q0 90 -40.5 150.5t-98.5 60.5q-69 0 -110 -68q-27 -46 -27 -135q0 -87 25 -136q40 -74 113 -74q8 0 18 1t33.5 12t41 30t31.5 60.5t14 98.5z" />
    <glyph glyph-name="ntilde" unicode="&#xf1;" horiz-adv-x="544" 
d="M521 0q-26 2 -109 2q-82 0 -108 -2v29q52 0 64 6.5t12 38.5v235q0 112 -76 112q-51 0 -91 -43.5t-40 -117.5v-186q0 -32 12.5 -38.5t63.5 -6.5v-29q-26 2 -109 2q-82 0 -108 -2v29q52 0 64 6.5t12 38.5v271q0 37 -12.5 46.5t-63.5 9.5v29l136 11v-103h1q5 12 13 25
t24.5 33t44 32.5t61.5 12.5q77 0 110 -45q16 -22 19.5 -49t3.5 -104v-184q1 -21 16.5 -25.5t59.5 -4.5v-29zM434 636q-29 -32 -41.5 -44.5t-29.5 -22.5t-35 -10q-21 0 -63 25q-35 24 -60 24q-22 0 -39 -11.5t-43 -37.5l-14 14q29 32 41.5 44.5t29.5 22.5t35 10q21 0 63 -25
q35 -24 60 -24q22 0 39 11.5t43 37.5z" />
    <glyph glyph-name="ograve" unicode="&#xf2;" 
d="M459 214q0 -94 -63 -159t-152 -65q-87 0 -150.5 64.5t-63.5 159.5t63 163.5t152 68.5q88 0 151 -68t63 -164zM383 223q0 100 -31 146q-39 57 -108 57t-107 -59q-31 -45 -31 -144t28 -146q38 -65 111 -65t112 67q26 47 26 144zM306 527q-7 -9 -16 -16l-149 124
q-16 13 -16 29q0 13 10.5 23t23.5 10q15 0 28 -18z" />
    <glyph glyph-name="oacute" unicode="&#xf3;" 
d="M459 214q0 -94 -63 -159t-152 -65q-87 0 -150.5 64.5t-63.5 159.5t63 163.5t152 68.5q88 0 151 -68t63 -164zM383 223q0 100 -31 146q-39 57 -108 57t-107 -59q-31 -45 -31 -144t28 -146q38 -65 111 -65t112 67q26 47 26 144zM365 664q0 -16 -16 -29l-149 -124
q-9 7 -16 16l119 152q13 18 28 18q13 0 23.5 -10t10.5 -23z" />
    <glyph glyph-name="ocircumflex" unicode="&#xf4;" 
d="M459 214q0 -94 -63 -159t-152 -65q-87 0 -150.5 64.5t-63.5 159.5t63 163.5t152 68.5q88 0 151 -68t63 -164zM383 223q0 100 -31 146q-39 57 -108 57t-107 -59q-31 -45 -31 -144t28 -146q38 -65 111 -65t112 67q26 47 26 144zM397 530l-13 -14l-139 108l-139 -108l-13 14
l152 162z" />
    <glyph glyph-name="otilde" unicode="&#xf5;" 
d="M459 214q0 -94 -63 -159t-152 -65q-87 0 -150.5 64.5t-63.5 159.5t63 163.5t152 68.5q88 0 151 -68t63 -164zM383 223q0 100 -31 146q-39 57 -108 57t-107 -59q-31 -45 -31 -144t28 -146q38 -65 111 -65t112 67q26 47 26 144zM407 636q-29 -32 -41.5 -44.5t-29.5 -22.5
t-35 -10q-21 0 -63 25q-35 24 -60 24q-22 0 -39 -11.5t-43 -37.5l-14 14q29 32 41.5 44.5t29.5 22.5t35 10q21 0 63 -25q35 -24 60 -24q22 0 39 11.5t43 37.5z" />
    <glyph glyph-name="odieresis" unicode="&#xf6;" 
d="M459 214q0 -94 -63 -159t-152 -65q-87 0 -150.5 64.5t-63.5 159.5t63 163.5t152 68.5q88 0 151 -68t63 -164zM383 223q0 100 -31 146q-39 57 -108 57t-107 -59q-31 -45 -31 -144t28 -146q38 -65 111 -65t112 67q26 47 26 144zM209 604q0 -17 -12.5 -30t-31.5 -13
q-17 0 -30 13t-13 30q0 18 12.5 31t31.5 13q17 0 30 -12.5t13 -31.5zM369 604q0 -17 -12.5 -30t-31.5 -13q-17 0 -30 13t-13 30q0 18 12.5 31t31.5 13q17 0 30 -12.5t13 -31.5z" />
    <glyph glyph-name="divide" unicode="&#xf7;" horiz-adv-x="762" 
d="M707 250q0 -18 -32 -18h-589q-32 0 -32 19q0 18 32 18h589q32 0 32 -19zM429 394q0 -21 -14.5 -35t-34.5 -14q-18 0 -33 14t-15 35q0 19 14 33.5t35 14.5q19 0 33.5 -14t14.5 -34zM429 108q0 -21 -14.5 -35t-34.5 -14q-18 0 -33 14t-15 35q0 19 14 33.5t35 14.5
q19 0 33.5 -14t14.5 -34z" />
    <glyph glyph-name="oslash" unicode="&#xf8;" 
d="M454 214q0 -94 -62 -159t-148 -65q-53 0 -101 27l-67 -119l-17 10l68 121q-46 33 -69 82.5t-23 102.5q0 95 61.5 163.5t148.5 68.5q55 0 102 -30l66 117l17 -11l-66 -117q41 -33 65.5 -83t24.5 -108zM332 392q-40 34 -88 34q-73 0 -114 -68q-30 -49 -30 -144
q0 -110 43 -157zM389 214q0 109 -42 161l-189 -334q46 -31 86 -31q37 0 67.5 18t48.5 47q29 48 29 139z" />
    <glyph glyph-name="ugrave" unicode="&#xf9;" horiz-adv-x="544" 
d="M521 0l-139 -10v90q-16 -38 -45 -61q-34 -29 -83 -29q-81 0 -116 38q-20 23 -25 49.5t-5 81.5v150q0 68 -10 80t-66 12v29l141 11v-331q0 -24 2.5 -38.5t10.5 -30.5t26.5 -23.5t47.5 -7.5q55 0 87.5 45t32.5 111v179q0 37 -12.5 46.5t-63.5 9.5v29l141 11v-356
q0 -37 12.5 -46.5t63.5 -9.5v-29zM333 527q-7 -9 -16 -16l-149 124q-16 13 -16 29q0 13 10.5 23t23.5 10q15 0 28 -18z" />
    <glyph glyph-name="uacute" unicode="&#xfa;" horiz-adv-x="544" 
d="M521 0l-139 -10v90q-16 -38 -45 -61q-34 -29 -83 -29q-81 0 -116 38q-20 23 -25 49.5t-5 81.5v150q0 68 -10 80t-66 12v29l141 11v-331q0 -24 2.5 -38.5t10.5 -30.5t26.5 -23.5t47.5 -7.5q55 0 87.5 45t32.5 111v179q0 37 -12.5 46.5t-63.5 9.5v29l141 11v-356
q0 -37 12.5 -46.5t63.5 -9.5v-29zM392 664q0 -16 -16 -29l-149 -124q-9 7 -16 16l119 152q13 18 28 18q13 0 23.5 -10t10.5 -23z" />
    <glyph glyph-name="ucircumflex" unicode="&#xfb;" horiz-adv-x="544" 
d="M521 0l-139 -10v90q-16 -38 -45 -61q-34 -29 -83 -29q-81 0 -116 38q-20 23 -25 49.5t-5 81.5v150q0 68 -10 80t-66 12v29l141 11v-331q0 -24 2.5 -38.5t10.5 -30.5t26.5 -23.5t47.5 -7.5q55 0 87.5 45t32.5 111v179q0 37 -12.5 46.5t-63.5 9.5v29l141 11v-356
q0 -37 12.5 -46.5t63.5 -9.5v-29zM424 530l-13 -14l-139 108l-139 -108l-13 14l152 162z" />
    <glyph glyph-name="udieresis" unicode="&#xfc;" horiz-adv-x="544" 
d="M521 0l-139 -10v90q-16 -38 -45 -61q-34 -29 -83 -29q-81 0 -116 38q-20 23 -25 49.5t-5 81.5v150q0 68 -10 80t-66 12v29l141 11v-331q0 -24 2.5 -38.5t10.5 -30.5t26.5 -23.5t47.5 -7.5q55 0 87.5 45t32.5 111v179q0 37 -12.5 46.5t-63.5 9.5v29l141 11v-356
q0 -37 12.5 -46.5t63.5 -9.5v-29zM236 604q0 -17 -12.5 -30t-31.5 -13q-17 0 -30 13t-13 30q0 18 12.5 31t31.5 13q17 0 30 -12.5t13 -31.5zM396 604q0 -17 -12.5 -30t-31.5 -13q-17 0 -30 13t-13 30q0 18 12.5 31t31.5 13q17 0 30 -12.5t13 -31.5z" />
    <glyph glyph-name="yacute" unicode="&#xfd;" horiz-adv-x="517" 
d="M498 402q-66 0 -93 -68l-173 -426q-46 -112 -123 -112q-39 0 -64.5 22.5t-25.5 52.5q0 20 11.5 29.5t26.5 9.5t26 -10t11 -27q0 -16 -9 -25.5t-17 -11.5l-9 -2q19 -18 50 -18q50 0 89 68q1 2 1.5 3.5t2 4.5t3 7.5t5.5 13t8 19.5t11.5 29t16.5 39l-149 366q-10 24 -23 30
t-56 6v29l97 -2q77 0 103 2v-29q-55 0 -55 -26q0 -7 6 -21l111 -272l102 252q6 15 6 24q0 41 -46 43v29l81 -2q46 0 75 2v-29zM379 664q0 -16 -16 -29l-149 -124q-9 7 -16 16l119 152q13 18 28 18q13 0 23.5 -10t10.5 -23z" />
    <glyph glyph-name="thorn" unicode="&#xfe;" horiz-adv-x="544" 
d="M508 216q0 -95 -64 -160.5t-152 -65.5q-77 0 -123 64v-174q0 -32 12.5 -38.5t63.5 -6.5v-29q-26 2 -109 2q-82 0 -108 -2v29q52 0 64 6.5t12 38.5v718q0 37 -12.5 46.5t-63.5 9.5v29l139 11v-320q3 4 7 9t17.5 16t28 19.5t37.5 15.5t48 7q83 0 143 -65.5t60 -159.5z
M432 216q0 84 -39.5 143.5t-95.5 59.5q-31 0 -63.5 -16t-53.5 -48q-11 -16 -11 -36v-206q0 -33 38 -71q34 -32 80 -32q59 0 102 59t43 147z" />
    <glyph glyph-name="ydieresis" unicode="&#xff;" horiz-adv-x="517" 
d="M498 402q-66 0 -93 -68l-173 -426q-46 -112 -123 -112q-39 0 -64.5 22.5t-25.5 52.5q0 20 11.5 29.5t26.5 9.5t26 -10t11 -27q0 -16 -9 -25.5t-17 -11.5l-9 -2q19 -18 50 -18q50 0 89 68q1 2 1.5 3.5t2 4.5t3 7.5t5.5 13t8 19.5t11.5 29t16.5 39l-149 366q-10 24 -23 30
t-56 6v29l97 -2q77 0 103 2v-29q-55 0 -55 -26q0 -7 6 -21l111 -272l102 252q6 15 6 24q0 41 -46 43v29l81 -2q46 0 75 2v-29zM223 604q0 -17 -12.5 -30t-31.5 -13q-17 0 -30 13t-13 30q0 18 12.5 31t31.5 13q17 0 30 -12.5t13 -31.5zM383 604q0 -17 -12.5 -30t-31.5 -13
q-17 0 -30 13t-13 30q0 18 12.5 31t31.5 13q17 0 30 -12.5t13 -31.5z" />
    <glyph glyph-name="Amacron" unicode="&#x100;" horiz-adv-x="734" 
d="M702 0q-23 2 -123 2q-107 0 -130 -2v29q76 0 76 30q0 5 -5 17l-55 157h-252l-46 -133q-5 -13 -5 -21q0 -21 18 -35t49 -15v-29q-26 2 -102 2l-96 -2v29q83 1 106 68l209 598q4 12 7.5 15.5t13.5 3.5t13.5 -3.5t6.5 -14.5l218 -626q10 -29 27 -35t70 -6v-29zM455 262
l-116 333l-116 -333h232zM543 754h-353v29h353v-29z" />
    <glyph glyph-name="amacron" unicode="&#x101;" 
d="M474 89q0 -52 -26.5 -73t-52.5 -21q-32 0 -53.5 23.5t-24.5 59.5q-15 -38 -49 -63t-81 -25q-57 0 -105 25.5t-48 78.5q0 65 68.5 113.5t208.5 50.5v40q0 62 -32.5 95t-72.5 33q-33 0 -64 -15t-47 -45q51 0 51 -41q0 -18 -11.5 -29.5t-29.5 -11.5t-30 11t-12 32
q0 49 42 84t103 35q74 0 124 -46q21 -18 31 -41.5t11.5 -40.5t1.5 -51v-175q0 -68 38 -68t38 65v56h22v-56zM311 141v99q-15 -1 -28.5 -2.5t-40.5 -6.5t-48 -15.5t-43 -25.5t-34 -40t-12 -56q0 -36 26.5 -60t63.5 -24q41 0 78.5 32.5t37.5 98.5zM421 590h-353v29h353v-29z
" />
    <glyph glyph-name="Abreve" unicode="&#x102;" horiz-adv-x="734" 
d="M702 0q-23 2 -123 2q-107 0 -130 -2v29q76 0 76 30q0 5 -5 17l-55 157h-252l-46 -133q-5 -13 -5 -21q0 -21 18 -35t49 -15v-29q-26 2 -102 2l-96 -2v29q83 1 106 68l209 598q4 12 7.5 15.5t13.5 3.5t13.5 -3.5t6.5 -14.5l218 -626q10 -29 27 -35t70 -6v-29zM455 262
l-116 333l-116 -333h232zM512 916q-1 -75 -43 -123.5t-103 -48.5q-58 0 -101 48t-44 124h20q1 -61 38.5 -99t87.5 -38q48 0 86 37.5t39 99.5h20z" />
    <glyph glyph-name="abreve" unicode="&#x103;" 
d="M474 89q0 -52 -26.5 -73t-52.5 -21q-32 0 -53.5 23.5t-24.5 59.5q-15 -38 -49 -63t-81 -25q-57 0 -105 25.5t-48 78.5q0 65 68.5 113.5t208.5 50.5v40q0 62 -32.5 95t-72.5 33q-33 0 -64 -15t-47 -45q51 0 51 -41q0 -18 -11.5 -29.5t-29.5 -11.5t-30 11t-12 32
q0 49 42 84t103 35q74 0 124 -46q21 -18 31 -41.5t11.5 -40.5t1.5 -51v-175q0 -68 38 -68t38 65v56h22v-56zM311 141v99q-15 -1 -28.5 -2.5t-40.5 -6.5t-48 -15.5t-43 -25.5t-34 -40t-12 -56q0 -36 26.5 -60t63.5 -24q41 0 78.5 32.5t37.5 98.5zM390 690q-1 -75 -43 -123.5
t-103 -48.5q-58 0 -101 48t-44 124h20q1 -61 38.5 -99t87.5 -38q48 0 86 37.5t39 99.5h20z" />
    <glyph glyph-name="Aogonek" unicode="&#x104;" horiz-adv-x="734" 
d="M704 -111q-11 -40 -43 -65.5t-69 -25.5q-44 0 -74.5 25.5t-30.5 59.5q0 65 77 119q-94 0 -115 -2v29q76 0 76 30q0 5 -5 17l-55 157h-252l-46 -133q-5 -13 -5 -21q0 -21 18 -35t49 -15v-29q-26 2 -102 2l-96 -2v29q83 1 106 68l209 598q4 12 7.5 15.5t13.5 3.5t13.5 -3.5
t6.5 -14.5l218 -626q10 -29 27 -35t70 -6v-29q-20 2 -101 2q-69 -48 -69 -94q0 -30 27 -48t56 -18q48 0 73 53q4 8 11 5t5 -11zM455 262l-116 333l-116 -333h232z" />
    <glyph glyph-name="aogonek" unicode="&#x105;" 
d="M474 -111q-11 -40 -43 -65.5t-69 -25.5q-44 0 -74.5 25.5t-30.5 59.5t26 70t64 62q-27 25 -30 63q-15 -38 -49 -63t-81 -25q-57 0 -105 25.5t-48 78.5q0 65 68.5 113.5t208.5 50.5v40q0 62 -32.5 95t-72.5 33q-33 0 -64 -15t-47 -45q51 0 51 -41q0 -18 -11.5 -29.5
t-29.5 -11.5t-30 11t-12 32q0 49 42 84t103 35q74 0 124 -46q21 -18 31 -41.5t11.5 -40.5t1.5 -51v-175q0 -68 38 -68t38 65v56h22v-56q0 -52 -26.5 -73t-52.5 -21q-14 0 -23 4q-70 -49 -70 -91q0 -30 27 -48t56 -18q48 0 73 53q4 8 11 5t5 -11zM311 141v99
q-15 -1 -28.5 -2.5t-40.5 -6.5t-48 -15.5t-43 -25.5t-34 -40t-12 -56q0 -36 26.5 -60t63.5 -24q41 0 78.5 32.5t37.5 98.5z" />
    <glyph glyph-name="Cacute" unicode="&#x106;" horiz-adv-x="707" 
d="M652 232q0 -57 -29 -114t-90 -98t-138 -41q-138 0 -239.5 105t-101.5 258q0 151 101 256.5t240 105.5q53 0 102 -24.5t83 -66.5l49 79q7 12 13 12q7 0 8.5 -4t1.5 -19v-237q0 -16 -2 -19.5t-12 -3.5q-6 0 -8.5 1.5t-3.5 4t-2 9.5q-15 110 -75.5 174.5t-141.5 64.5
q-26 0 -55 -6.5t-67 -28t-67.5 -56t-50 -97.5t-20.5 -145q0 -83 21 -146.5t50.5 -98t68 -56t67 -27.5t54.5 -6q52 0 99 23t83 77t40 129q0 12 11 12q8 0 9.5 -3.5t1.5 -13.5zM523 866q-3 -16 -21 -26l-168 -96q-5 6 -13 18l143 129q14 14 24 14q16 0 26.5 -11.5t8.5 -27.5z
" />
    <glyph glyph-name="cacute" unicode="&#x107;" horiz-adv-x="435" 
d="M406 119q0 -4 -4 -16.5t-15.5 -32.5t-28.5 -37.5t-47 -30t-67 -12.5q-86 0 -147.5 65.5t-61.5 160.5t61.5 162.5t148.5 67.5q62 0 106.5 -33t44.5 -82q0 -21 -12 -32t-30 -11t-29.5 11.5t-11.5 29.5q0 41 49 41q-16 27 -49.5 40.5t-66.5 13.5q-21 0 -42.5 -9.5t-43.5 -31
t-35.5 -64.5t-13.5 -102q0 -104 43.5 -154.5t98.5 -50.5q43 0 78.5 25t51.5 76q2 10 4.5 12.5t8.5 2.5q10 0 10 -9zM359 664q0 -16 -16 -29l-149 -124q-9 7 -16 16l119 152q13 18 28 18q13 0 23.5 -10t10.5 -23z" />
    <glyph glyph-name="Ccircumflex" unicode="&#x108;" horiz-adv-x="707" 
d="M652 232q0 -57 -29 -114t-90 -98t-138 -41q-138 0 -239.5 105t-101.5 258q0 151 101 256.5t240 105.5q53 0 102 -24.5t83 -66.5l49 79q7 12 13 12q7 0 8.5 -4t1.5 -19v-237q0 -16 -2 -19.5t-12 -3.5q-6 0 -8.5 1.5t-3.5 4t-2 9.5q-15 110 -75.5 174.5t-141.5 64.5
q-26 0 -55 -6.5t-67 -28t-67.5 -56t-50 -97.5t-20.5 -145q0 -83 21 -146.5t50.5 -98t68 -56t67 -27.5t54.5 -6q52 0 99 23t83 77t40 129q0 12 11 12q8 0 9.5 -3.5t1.5 -13.5zM540 750l-12 -16l-140 66l-140 -66l-10 16l151 117z" />
    <glyph glyph-name="ccircumflex" unicode="&#x109;" horiz-adv-x="435" 
d="M406 119q0 -4 -4 -16.5t-15.5 -32.5t-28.5 -37.5t-47 -30t-67 -12.5q-86 0 -147.5 65.5t-61.5 160.5t61.5 162.5t148.5 67.5q62 0 106.5 -33t44.5 -82q0 -21 -12 -32t-30 -11t-29.5 11.5t-11.5 29.5q0 41 49 41q-16 27 -49.5 40.5t-66.5 13.5q-21 0 -42.5 -9.5t-43.5 -31
t-35.5 -64.5t-13.5 -102q0 -104 43.5 -154.5t98.5 -50.5q43 0 78.5 25t51.5 76q2 10 4.5 12.5t8.5 2.5q10 0 10 -9zM391 530l-13 -14l-139 108l-139 -108l-13 14l152 162z" />
    <glyph glyph-name="Cdotaccent" unicode="&#x10a;" horiz-adv-x="707" 
d="M652 232q0 -57 -29 -114t-90 -98t-138 -41q-138 0 -239.5 105t-101.5 258q0 151 101 256.5t240 105.5q53 0 102 -24.5t83 -66.5l49 79q7 12 13 12q7 0 8.5 -4t1.5 -19v-237q0 -16 -2 -19.5t-12 -3.5q-6 0 -8.5 1.5t-3.5 4t-2 9.5q-15 110 -75.5 174.5t-141.5 64.5
q-26 0 -55 -6.5t-67 -28t-67.5 -56t-50 -97.5t-20.5 -145q0 -83 21 -146.5t50.5 -98t68 -56t67 -27.5t54.5 -6q52 0 99 23t83 77t40 129q0 12 11 12q8 0 9.5 -3.5t1.5 -13.5zM438 803q0 -19 -13.5 -33.5t-35.5 -14.5q-19 0 -33.5 14.5t-14.5 33.5q0 20 14 34.5t35 14.5
q19 0 33.5 -13.5t14.5 -35.5z" />
    <glyph glyph-name="cdotaccent" unicode="&#x10b;" horiz-adv-x="435" 
d="M406 119q0 -4 -4 -16.5t-15.5 -32.5t-28.5 -37.5t-47 -30t-67 -12.5q-86 0 -147.5 65.5t-61.5 160.5t61.5 162.5t148.5 67.5q62 0 106.5 -33t44.5 -82q0 -21 -12 -32t-30 -11t-29.5 11.5t-11.5 29.5q0 41 49 41q-16 27 -49.5 40.5t-66.5 13.5q-21 0 -42.5 -9.5t-43.5 -31
t-35.5 -64.5t-13.5 -102q0 -104 43.5 -154.5t98.5 -50.5q43 0 78.5 25t51.5 76q2 10 4.5 12.5t8.5 2.5q10 0 10 -9zM288 604q0 -19 -13.5 -33.5t-35.5 -14.5q-19 0 -33.5 14t-14.5 34t14 34.5t35 14.5q19 0 33.5 -13.5t14.5 -35.5z" />
    <glyph glyph-name="Ccaron" unicode="&#x10c;" horiz-adv-x="707" 
d="M652 232q0 -57 -29 -114t-90 -98t-138 -41q-138 0 -239.5 105t-101.5 258q0 151 101 256.5t240 105.5q53 0 102 -24.5t83 -66.5l49 79q7 12 13 12q7 0 8.5 -4t1.5 -19v-237q0 -16 -2 -19.5t-12 -3.5q-6 0 -8.5 1.5t-3.5 4t-2 9.5q-15 110 -75.5 174.5t-141.5 64.5
q-26 0 -55 -6.5t-67 -28t-67.5 -56t-50 -97.5t-20.5 -145q0 -83 21 -146.5t50.5 -98t68 -56t67 -27.5t54.5 -6q52 0 99 23t83 77t40 129q0 12 11 12q8 0 9.5 -3.5t1.5 -13.5zM540 851l-151 -117l-151 117l12 16l140 -66l140 66z" />
    <glyph glyph-name="ccaron" unicode="&#x10d;" horiz-adv-x="435" 
d="M406 119q0 -4 -4 -16.5t-15.5 -32.5t-28.5 -37.5t-47 -30t-67 -12.5q-86 0 -147.5 65.5t-61.5 160.5t61.5 162.5t148.5 67.5q62 0 106.5 -33t44.5 -82q0 -21 -12 -32t-30 -11t-29.5 11.5t-11.5 29.5q0 41 49 41q-16 27 -49.5 40.5t-66.5 13.5q-21 0 -42.5 -9.5t-43.5 -31
t-35.5 -64.5t-13.5 -102q0 -104 43.5 -154.5t98.5 -50.5q43 0 78.5 25t51.5 76q2 10 4.5 12.5t8.5 2.5q10 0 10 -9zM391 678l-152 -162l-152 162l13 14l139 -108l139 108z" />
    <glyph glyph-name="Dcaron" unicode="&#x10e;" horiz-adv-x="748" 
d="M693 335q0 -139 -88 -237t-213 -98h-350v29h20q51 0 63 8.5t12 38.5v531q0 30 -12 38.5t-63 8.5h-20v29h350q125 0 213 -101.5t88 -246.5zM602 336q0 141 -45 212q-66 106 -190 106h-105q-32 0 -39 -7t-7 -33v-545q0 -26 7 -33t39 -7h105q112 0 177 83q58 75 58 224z
M466 851l-151 -117l-151 117l12 16l140 -66l140 66z" />
    <glyph glyph-name="dcaron" unicode="&#x10f;" horiz-adv-x="544" 
d="M515 0l-141 -10v69q-51 -69 -134 -69t-144 65.5t-61 159.5q0 95 64 160.5t152 65.5q79 0 125 -64v221q0 37 -12.5 46.5t-63.5 9.5v29l139 11v-609q0 -37 12.5 -46.5t63.5 -9.5v-29zM374 117v206q0 20 -12 37q-7 12 -18 23.5t-36 24.5t-53 13q-35 0 -64 -18t-46 -44
q-34 -51 -34 -145q0 -55 12 -95.5t27.5 -60.5t36.5 -31.5t33.5 -14t24.5 -2.5q71 0 115 64q14 22 14 43zM556 618q0 -39 -15 -74t-29 -51t-19 -16q-8 0 -8 7q0 4 4 7q52 54 52 127l-1 15q-2 0 -4 -3q-12 -9 -24 -9q-16 0 -26.5 11t-10.5 26t10 25.5t26 10.5q45 0 45 -76z
" />
    <glyph glyph-name="Dcroat" unicode="&#x110;" horiz-adv-x="748" 
d="M693 335q0 -139 -88 -237t-213 -98h-350v29h20q51 0 63 8.5t12 38.5v252h-95v28h95v251q0 30 -12 38.5t-63 8.5h-20v29h350q125 0 213 -101.5t88 -246.5zM602 336q0 141 -45 212q-66 106 -190 106h-105q-32 0 -39 -7t-7 -33v-258h158v-28h-158v-259q0 -26 7 -33t39 -7
h105q112 0 177 83q58 75 58 224z" />
    <glyph glyph-name="dcroat" unicode="&#x111;" horiz-adv-x="544" 
d="M515 0l-141 -10v69q-51 -69 -134 -69t-144 65.5t-61 159.5q0 95 64 160.5t152 65.5q79 0 125 -64v158h-158v28h158v35q0 37 -12.5 46.5t-63.5 9.5v29l139 11v-131h76v-28h-76v-450q0 -37 12.5 -46.5t63.5 -9.5v-29zM374 117v206q0 20 -12 37q-7 12 -18 23.5t-36 24.5
t-53 13q-35 0 -64 -18t-46 -44q-34 -51 -34 -145q0 -55 12 -95.5t27.5 -60.5t36.5 -31.5t33.5 -14t24.5 -2.5q71 0 115 64q14 22 14 43z" />
    <glyph glyph-name="Emacron" unicode="&#x112;" horiz-adv-x="666" 
d="M638 256l-40 -256h-557v29h20q51 0 63 8.5t12 38.5v529q0 30 -12 38.5t-63 8.5h-20v29h544l26 -223h-22q-12 113 -49 153.5t-144 40.5h-133q-32 0 -39 -7t-7 -33v-244h91q69 0 88 24t19 93h22v-263h-22q0 69 -19 93t-88 24h-91v-270q0 -26 7 -33t39 -7h136q50 0 85 9.5
t57 24.5t37 46.5t22.5 62.5t15.5 84h22zM509 754h-353v29h353v-29z" />
    <glyph glyph-name="emacron" unicode="&#x113;" horiz-adv-x="435" 
d="M407 119q0 -10 -9.5 -29.5t-27.5 -42.5t-52 -40t-75 -17q-85 0 -149 66t-64 163q0 94 58.5 160.5t143.5 66.5q86 0 130.5 -56.5t44.5 -138.5q0 -14 -3.5 -16.5t-20.5 -2.5h-277v-19q0 -61 16 -104t40.5 -62t45.5 -27t41 -8q39 0 78 25t57 82q4 10 12 10q11 0 11 -10z
M345 251q-1 23 -4 43.5t-13 55t-35 55.5t-62 21q-14 0 -30.5 -6t-38.5 -22t-37 -54t-18 -93h238zM394 590h-353v29h353v-29z" />
    <glyph glyph-name="Ebreve" unicode="&#x114;" horiz-adv-x="666" 
d="M638 256l-40 -256h-557v29h20q51 0 63 8.5t12 38.5v529q0 30 -12 38.5t-63 8.5h-20v29h544l26 -223h-22q-12 113 -49 153.5t-144 40.5h-133q-32 0 -39 -7t-7 -33v-244h91q69 0 88 24t19 93h22v-263h-22q0 69 -19 93t-88 24h-91v-270q0 -26 7 -33t39 -7h136q50 0 85 9.5
t57 24.5t37 46.5t22.5 62.5t15.5 84h22zM478 916q-1 -75 -43 -123.5t-103 -48.5q-58 0 -101 48t-44 124h20q1 -61 38.5 -99t87.5 -38q48 0 86 37.5t39 99.5h20z" />
    <glyph glyph-name="ebreve" unicode="&#x115;" horiz-adv-x="435" 
d="M407 119q0 -10 -9.5 -29.5t-27.5 -42.5t-52 -40t-75 -17q-85 0 -149 66t-64 163q0 94 58.5 160.5t143.5 66.5q86 0 130.5 -56.5t44.5 -138.5q0 -14 -3.5 -16.5t-20.5 -2.5h-277v-19q0 -61 16 -104t40.5 -62t45.5 -27t41 -8q39 0 78 25t57 82q4 10 12 10q11 0 11 -10z
M345 251q-1 23 -4 43.5t-13 55t-35 55.5t-62 21q-14 0 -30.5 -6t-38.5 -22t-37 -54t-18 -93h238zM363 690q-1 -75 -43 -123.5t-103 -48.5q-58 0 -101 48t-44 124h20q1 -61 38.5 -99t87.5 -38q48 0 86 37.5t39 99.5h20z" />
    <glyph glyph-name="Edotaccent" unicode="&#x116;" horiz-adv-x="666" 
d="M638 256l-40 -256h-557v29h20q51 0 63 8.5t12 38.5v529q0 30 -12 38.5t-63 8.5h-20v29h544l26 -223h-22q-12 113 -49 153.5t-144 40.5h-133q-32 0 -39 -7t-7 -33v-244h91q69 0 88 24t19 93h22v-263h-22q0 69 -19 93t-88 24h-91v-270q0 -26 7 -33t39 -7h136q50 0 85 9.5
t57 24.5t37 46.5t22.5 62.5t15.5 84h22zM382 803q0 -19 -13.5 -33.5t-35.5 -14.5q-19 0 -33.5 14.5t-14.5 33.5q0 20 14 34.5t35 14.5q19 0 33.5 -13.5t14.5 -35.5z" />
    <glyph glyph-name="edotaccent" unicode="&#x117;" horiz-adv-x="435" 
d="M407 119q0 -10 -9.5 -29.5t-27.5 -42.5t-52 -40t-75 -17q-85 0 -149 66t-64 163q0 94 58.5 160.5t143.5 66.5q86 0 130.5 -56.5t44.5 -138.5q0 -14 -3.5 -16.5t-20.5 -2.5h-277v-19q0 -61 16 -104t40.5 -62t45.5 -27t41 -8q39 0 78 25t57 82q4 10 12 10q11 0 11 -10z
M345 251q-1 23 -4 43.5t-13 55t-35 55.5t-62 21q-14 0 -30.5 -6t-38.5 -22t-37 -54t-18 -93h238zM267 604q0 -19 -13.5 -33.5t-35.5 -14.5q-20 0 -34 14t-14 34t14 34.5t35 14.5q19 0 33.5 -13.5t14.5 -35.5z" />
    <glyph glyph-name="Eogonek" unicode="&#x118;" horiz-adv-x="666" 
d="M638 256l-40 -256h-107q-69 -48 -69 -92q0 -30 27 -48t56 -18q48 0 73 53q4 8 11 5t5 -11q-11 -40 -43 -65.5t-69 -25.5q-44 0 -74.5 25.5t-30.5 59.5q0 63 77 117h-413v29h20q51 0 63 8.5t12 38.5v529q0 30 -12 38.5t-63 8.5h-20v29h544l26 -223h-22q-12 113 -49 153.5
t-144 40.5h-133q-32 0 -39 -7t-7 -33v-244h91q69 0 88 24t19 93h22v-263h-22q0 69 -19 93t-88 24h-91v-270q0 -26 7 -33t39 -7h136q50 0 85 9.5t57 24.5t37 46.5t22.5 62.5t15.5 84h22z" />
    <glyph glyph-name="eogonek" unicode="&#x119;" horiz-adv-x="435" 
d="M407 119q0 -22 -29.5 -63.5t-81.5 -57.5q-24 -17 -35.5 -26t-25 -27.5t-13.5 -36.5q0 -30 27 -48t56 -18q48 0 73 53q4 8 11 5t5 -11q-11 -40 -43 -65.5t-69 -25.5q-44 0 -74.5 25.5t-30.5 59.5q0 56 66 107q-85 0 -149 66t-64 163q0 94 58.5 160.5t143.5 66.5
q86 0 130.5 -56.5t44.5 -138.5q0 -14 -3.5 -16.5t-20.5 -2.5h-277v-19q0 -61 16 -104t40.5 -62t45.5 -27t41 -8q39 0 78 25t57 82q4 10 12 10q11 0 11 -10zM345 251q-1 23 -4 43.5t-13 55t-35 55.5t-62 21q-14 0 -30.5 -6t-38.5 -22t-37 -54t-18 -93h238z" />
    <glyph glyph-name="Ecaron" unicode="&#x11a;" horiz-adv-x="666" 
d="M638 256l-40 -256h-557v29h20q51 0 63 8.5t12 38.5v529q0 30 -12 38.5t-63 8.5h-20v29h544l26 -223h-22q-12 113 -49 153.5t-144 40.5h-133q-32 0 -39 -7t-7 -33v-244h91q69 0 88 24t19 93h22v-263h-22q0 69 -19 93t-88 24h-91v-270q0 -26 7 -33t39 -7h136q50 0 85 9.5
t57 24.5t37 46.5t22.5 62.5t15.5 84h22zM484 851l-151 -117l-151 117l12 16l140 -66l140 66z" />
    <glyph glyph-name="ecaron" unicode="&#x11b;" horiz-adv-x="435" 
d="M407 119q0 -10 -9.5 -29.5t-27.5 -42.5t-52 -40t-75 -17q-85 0 -149 66t-64 163q0 94 58.5 160.5t143.5 66.5q86 0 130.5 -56.5t44.5 -138.5q0 -14 -3.5 -16.5t-20.5 -2.5h-277v-19q0 -61 16 -104t40.5 -62t45.5 -27t41 -8q39 0 78 25t57 82q4 10 12 10q11 0 11 -10z
M345 251q-1 23 -4 43.5t-13 55t-35 55.5t-62 21q-14 0 -30.5 -6t-38.5 -22t-37 -54t-18 -93h238zM370 678l-152 -162l-152 162l13 14l139 -108l139 108z" />
    <glyph glyph-name="Gcircumflex" unicode="&#x11c;" horiz-adv-x="768" 
d="M719 242q-47 0 -57.5 -7t-10.5 -37v-175q0 -22 -8 -22q-7 0 -26.5 21t-32.5 44q-26 -45 -78 -66t-111 -21q-139 0 -240 105t-101 258q0 152 101 257t239 105q112 0 185 -91l49 79q7 12 13 12q7 0 8.5 -4t1.5 -19v-237q0 -16 -2 -19.5t-12 -3.5q-5 0 -7 0.5t-3.5 2.5t-2 4
t-1.5 7q-12 84 -48.5 140t-79 78t-89.5 22q-26 0 -54.5 -6.5t-66.5 -28t-67.5 -56t-50 -97.5t-20.5 -145q0 -81 20.5 -144t50 -97.5t68 -56.5t69 -29t58.5 -7q16 0 36.5 3.5t50.5 14t50 37.5t20 67v64q0 30 -14.5 39t-76.5 9h-31v29q27 -2 146 -2q99 0 125 2v-29zM535 750
l-12 -16l-140 66l-140 -66l-10 16l151 117z" />
    <glyph glyph-name="gcircumflex" unicode="&#x11d;" 
d="M475 406q0 -14 -8.5 -20.5t-17.5 -6.5q-12 0 -19 7.5t-7 18.5q0 19 15 25q-4 2 -13 2q-52 0 -91 -40q40 -40 40 -97q0 -59 -45.5 -102t-111.5 -43q-51 0 -98 31q-16 -22 -16 -48q0 -31 19 -50q13 -14 26 -16.5t60 -2.5q53 0 77.5 -1t55 -7t54.5 -18q67 -35 67 -115
q0 -55 -63.5 -91.5t-154.5 -36.5q-92 0 -154.5 37t-62.5 89q0 37 27 63.5t65 37.5q-43 27 -43 88q0 46 30 83q-45 41 -45 103q0 59 45.5 102t111.5 43q56 0 103 -36q44 47 105 47q24 0 36.5 -15t12.5 -31zM305 296q0 124 -88 124q-44 0 -70 -39q-17 -27 -17 -86
q0 -124 88 -124q44 0 70 39q17 27 17 86zM413 -78q0 25 -13.5 42.5t-30.5 26t-48.5 13t-50.5 5t-53 0.5q-55 0 -70 -2t-31 -12q-40 -27 -40 -73q0 -43 49 -74.5t120 -31.5q69 0 118.5 31t49.5 75zM363 530l-13 -14l-139 108l-139 -108l-13 14l152 162z" />
    <glyph glyph-name="Gbreve" unicode="&#x11e;" horiz-adv-x="768" 
d="M719 242q-47 0 -57.5 -7t-10.5 -37v-175q0 -22 -8 -22q-7 0 -26.5 21t-32.5 44q-26 -45 -78 -66t-111 -21q-139 0 -240 105t-101 258q0 152 101 257t239 105q112 0 185 -91l49 79q7 12 13 12q7 0 8.5 -4t1.5 -19v-237q0 -16 -2 -19.5t-12 -3.5q-5 0 -7 0.5t-3.5 2.5t-2 4
t-1.5 7q-12 84 -48.5 140t-79 78t-89.5 22q-26 0 -54.5 -6.5t-66.5 -28t-67.5 -56t-50 -97.5t-20.5 -145q0 -81 20.5 -144t50 -97.5t68 -56.5t69 -29t58.5 -7q16 0 36.5 3.5t50.5 14t50 37.5t20 67v64q0 30 -14.5 39t-76.5 9h-31v29q27 -2 146 -2q99 0 125 2v-29zM529 916
q-1 -75 -43 -123.5t-103 -48.5q-58 0 -101 48t-44 124h20q1 -61 38.5 -99t87.5 -38q48 0 86 37.5t39 99.5h20z" />
    <glyph glyph-name="gbreve" unicode="&#x11f;" 
d="M475 406q0 -14 -8.5 -20.5t-17.5 -6.5q-12 0 -19 7.5t-7 18.5q0 19 15 25q-4 2 -13 2q-52 0 -91 -40q40 -40 40 -97q0 -59 -45.5 -102t-111.5 -43q-51 0 -98 31q-16 -22 -16 -48q0 -31 19 -50q13 -14 26 -16.5t60 -2.5q53 0 77.5 -1t55 -7t54.5 -18q67 -35 67 -115
q0 -55 -63.5 -91.5t-154.5 -36.5q-92 0 -154.5 37t-62.5 89q0 37 27 63.5t65 37.5q-43 27 -43 88q0 46 30 83q-45 41 -45 103q0 59 45.5 102t111.5 43q56 0 103 -36q44 47 105 47q24 0 36.5 -15t12.5 -31zM305 296q0 124 -88 124q-44 0 -70 -39q-17 -27 -17 -86
q0 -124 88 -124q44 0 70 39q17 27 17 86zM413 -78q0 25 -13.5 42.5t-30.5 26t-48.5 13t-50.5 5t-53 0.5q-55 0 -70 -2t-31 -12q-40 -27 -40 -73q0 -43 49 -74.5t120 -31.5q69 0 118.5 31t49.5 75zM356 690q-1 -75 -43 -123.5t-103 -48.5q-58 0 -101 48t-44 124h20
q1 -61 38.5 -99t87.5 -38q48 0 86 37.5t39 99.5h20z" />
    <glyph glyph-name="Gdotaccent" unicode="&#x120;" horiz-adv-x="768" 
d="M719 242q-47 0 -57.5 -7t-10.5 -37v-175q0 -22 -8 -22q-7 0 -26.5 21t-32.5 44q-26 -45 -78 -66t-111 -21q-139 0 -240 105t-101 258q0 152 101 257t239 105q112 0 185 -91l49 79q7 12 13 12q7 0 8.5 -4t1.5 -19v-237q0 -16 -2 -19.5t-12 -3.5q-5 0 -7 0.5t-3.5 2.5t-2 4
t-1.5 7q-12 84 -48.5 140t-79 78t-89.5 22q-26 0 -54.5 -6.5t-66.5 -28t-67.5 -56t-50 -97.5t-20.5 -145q0 -81 20.5 -144t50 -97.5t68 -56.5t69 -29t58.5 -7q16 0 36.5 3.5t50.5 14t50 37.5t20 67v64q0 30 -14.5 39t-76.5 9h-31v29q27 -2 146 -2q99 0 125 2v-29zM433 803
q0 -19 -13.5 -33.5t-35.5 -14.5q-20 0 -34 14.5t-14 33.5q0 20 14 34.5t35 14.5q19 0 33.5 -13.5t14.5 -35.5z" />
    <glyph glyph-name="gdotaccent" unicode="&#x121;" 
d="M475 406q0 -14 -8.5 -20.5t-17.5 -6.5q-12 0 -19 7.5t-7 18.5q0 19 15 25q-4 2 -13 2q-52 0 -91 -40q40 -40 40 -97q0 -59 -45.5 -102t-111.5 -43q-51 0 -98 31q-16 -22 -16 -48q0 -31 19 -50q13 -14 26 -16.5t60 -2.5q53 0 77.5 -1t55 -7t54.5 -18q67 -35 67 -115
q0 -55 -63.5 -91.5t-154.5 -36.5q-92 0 -154.5 37t-62.5 89q0 37 27 63.5t65 37.5q-43 27 -43 88q0 46 30 83q-45 41 -45 103q0 59 45.5 102t111.5 43q56 0 103 -36q44 47 105 47q24 0 36.5 -15t12.5 -31zM305 296q0 124 -88 124q-44 0 -70 -39q-17 -27 -17 -86
q0 -124 88 -124q44 0 70 39q17 27 17 86zM413 -78q0 25 -13.5 42.5t-30.5 26t-48.5 13t-50.5 5t-53 0.5q-55 0 -70 -2t-31 -12q-40 -27 -40 -73q0 -43 49 -74.5t120 -31.5q69 0 118.5 31t49.5 75zM260 604q0 -19 -13.5 -33.5t-35.5 -14.5q-19 0 -33.5 14t-14.5 34t14 34.5
t35 14.5q19 0 33.5 -13.5t14.5 -35.5z" />
    <glyph glyph-name="Gcommaaccent" unicode="&#x122;" horiz-adv-x="768" 
d="M719 242q-47 0 -57.5 -7t-10.5 -37v-175q0 -22 -8 -22q-7 0 -26.5 21t-32.5 44q-26 -45 -78 -66t-111 -21q-139 0 -240 105t-101 258q0 152 101 257t239 105q112 0 185 -91l49 79q7 12 13 12q7 0 8.5 -4t1.5 -19v-237q0 -16 -2 -19.5t-12 -3.5q-5 0 -7 0.5t-3.5 2.5t-2 4
t-1.5 7q-12 84 -48.5 140t-79 78t-89.5 22q-26 0 -54.5 -6.5t-66.5 -28t-67.5 -56t-50 -97.5t-20.5 -145q0 -81 20.5 -144t50 -97.5t68 -56.5t69 -29t58.5 -7q16 0 36.5 3.5t50.5 14t50 37.5t20 67v64q0 30 -14.5 39t-76.5 9h-31v29q27 -2 146 -2q99 0 125 2v-29zM424 -139
q0 -39 -15 -74t-29 -51t-19 -16q-8 0 -8 7q0 4 4 7q52 54 52 127l-1 15q-2 0 -4 -3q-12 -9 -24 -9q-16 0 -26.5 11t-10.5 26t10 25.5t26 10.5q45 0 45 -76z" />
    <glyph glyph-name="gcommaaccent" unicode="&#x123;" 
d="M252 553q0 -15 -10 -25.5t-26 -10.5q-45 0 -45 76q0 39 15 74t29 51t19 16q8 0 8 -7q0 -4 -4 -7q-52 -54 -52 -127l1 -15q2 0 4 3q12 9 24 9q16 0 26.5 -11t10.5 -26zM475 406q0 -14 -8.5 -20.5t-17.5 -6.5q-12 0 -19 7.5t-7 18.5q0 19 15 25q-4 2 -13 2q-52 0 -91 -40
q40 -40 40 -97q0 -59 -45.5 -102t-111.5 -43q-51 0 -98 31q-16 -22 -16 -48q0 -31 19 -50q13 -14 26 -16.5t60 -2.5q53 0 77.5 -1t55 -7t54.5 -18q67 -35 67 -115q0 -55 -63.5 -91.5t-154.5 -36.5q-92 0 -154.5 37t-62.5 89q0 37 27 63.5t65 37.5q-43 27 -43 88q0 46 30 83
q-45 41 -45 103q0 59 45.5 102t111.5 43q56 0 103 -36q44 47 105 47q24 0 36.5 -15t12.5 -31zM305 296q0 124 -88 124q-44 0 -70 -39q-17 -27 -17 -86q0 -124 88 -124q44 0 70 39q17 27 17 86zM413 -78q0 25 -13.5 42.5t-30.5 26t-48.5 13t-50.5 5t-53 0.5q-55 0 -70 -2
t-31 -12q-40 -27 -40 -73q0 -43 49 -74.5t120 -31.5q69 0 118.5 31t49.5 75z" />
    <glyph glyph-name="Hcircumflex" unicode="&#x124;" horiz-adv-x="734" 
d="M692 0q-24 2 -136 2q-111 0 -135 -2v29h20q51 0 63 8.5t12 38.5v265h-299v-265q0 -30 12 -38.5t63 -8.5h20v-29q-24 2 -136 2q-111 0 -135 -2v29h20q51 0 63 8.5t12 38.5v531q0 30 -12 38.5t-63 8.5h-20v29q24 -2 136 -2q111 0 135 2v-29h-20q-51 0 -63 -8.5t-12 -38.5
v-237h299v237q0 30 -12 38.5t-63 8.5h-20v29q24 -2 136 -2q111 0 135 2v-29h-20q-51 0 -63 -8.5t-12 -38.5v-531q0 -30 12 -38.5t63 -8.5h20v-29zM518 750l-12 -16l-140 66l-140 -66l-10 16l151 117z" />
    <glyph glyph-name="hcircumflex" unicode="&#x125;" horiz-adv-x="544" 
d="M521 0q-26 2 -109 2q-82 0 -108 -2v29q52 0 64 6.5t12 38.5v235q0 112 -76 112q-51 0 -91 -43.5t-40 -117.5v-186q0 -32 12.5 -38.5t63.5 -6.5v-29q-26 2 -109 2q-82 0 -108 -2v29q52 0 64 6.5t12 38.5v524q0 37 -12.5 46.5t-63.5 9.5v29l139 11v-349h1q9 21 23 39.5
t46 37.5t71 19q77 0 110 -45q16 -22 19.5 -49t3.5 -104v-184q1 -21 16.5 -25.5t59.5 -4.5v-29zM423 761l-12 -16l-140 66l-140 -66l-10 16l151 117z" />
    <glyph glyph-name="Hbar" unicode="&#x126;" horiz-adv-x="734" 
d="M692 0q-24 2 -136 2q-111 0 -135 -2v29h20q51 0 63 8.5t12 38.5v265h-299v-265q0 -30 12 -38.5t63 -8.5h20v-29q-24 2 -136 2q-111 0 -135 -2v29h20q51 0 63 8.5t12 38.5v423h-95v28h95v80q0 30 -12 38.5t-63 8.5h-20v29q24 -2 136 -2q111 0 135 2v-29h-20
q-51 0 -63 -8.5t-12 -38.5v-80h299v80q0 30 -12 38.5t-63 8.5h-20v29q24 -2 136 -2q111 0 135 2v-29h-20q-51 0 -63 -8.5t-12 -38.5v-80h95v-28h-95v-423q0 -30 12 -38.5t63 -8.5h20v-29zM516 370v129h-299v-129h299z" />
    <glyph glyph-name="hbar" unicode="&#x127;" horiz-adv-x="544" 
d="M521 0q-26 2 -109 2q-82 0 -108 -2v29q52 0 64 6.5t12 38.5v235q0 112 -76 112q-51 0 -91 -43.5t-40 -117.5v-186q0 -32 12.5 -38.5t63.5 -6.5v-29q-26 2 -109 2q-82 0 -108 -2v29q52 0 64 6.5t12 38.5v461h-76v28h76v35q0 37 -12.5 46.5t-63.5 9.5v29l139 11v-131h101
v-28h-101v-190h1q9 21 23 39.5t46 37.5t71 19q77 0 110 -45q16 -22 19.5 -49t3.5 -104v-184q1 -21 16.5 -25.5t59.5 -4.5v-29z" />
    <glyph glyph-name="Itilde" unicode="&#x128;" horiz-adv-x="353" 
d="M317 0q-24 2 -141 2q-116 0 -140 -2v29h22q53 0 65.5 8.5t12.5 38.5v531q0 30 -12.5 38.5t-65.5 8.5h-22v29q24 -2 141 -2q116 0 140 2v-29h-22q-53 0 -65.5 -8.5t-12.5 -38.5v-531q0 -30 12.5 -38.5t65.5 -8.5h22v-29zM339 811q-29 -32 -41.5 -44.5t-29.5 -22.5t-35 -10
q-21 0 -63 25q-35 24 -60 24q-22 0 -39 -11.5t-43 -37.5l-14 14q29 32 41.5 44.5t29.5 22.5t35 10q21 0 63 -25q35 -24 60 -24q22 0 39 11.5t43 37.5z" />
    <glyph glyph-name="itilde" unicode="&#x129;" horiz-adv-x="272" 
d="M241 0q-34 2 -103 2q-77 0 -105 -2v29q51 0 63.5 6.5t12.5 38.5v272q0 37 -12.5 46t-60.5 9v29l136 11v-368q0 -30 10.5 -37t58.5 -7v-29zM298 636q-29 -32 -41.5 -44.5t-29.5 -22.5t-35 -10q-21 0 -63 25q-35 24 -60 24q-22 0 -39 -11.5t-43 -37.5l-14 14
q29 32 41.5 44.5t29.5 22.5t35 10q21 0 63 -25q35 -24 60 -24q22 0 39 11.5t43 37.5z" />
    <glyph glyph-name="Imacron" unicode="&#x12a;" horiz-adv-x="353" 
d="M317 0q-24 2 -141 2q-116 0 -140 -2v29h22q53 0 65.5 8.5t12.5 38.5v531q0 30 -12.5 38.5t-65.5 8.5h-22v29q24 -2 141 -2q116 0 140 2v-29h-22q-53 0 -65.5 -8.5t-12.5 -38.5v-531q0 -30 12.5 -38.5t65.5 -8.5h22v-29zM353 754h-353v29h353v-29z" />
    <glyph glyph-name="imacron" unicode="&#x12b;" horiz-adv-x="272" 
d="M241 0q-34 2 -103 2q-77 0 -105 -2v29q51 0 63.5 6.5t12.5 38.5v272q0 37 -12.5 46t-60.5 9v29l136 11v-368q0 -30 10.5 -37t58.5 -7v-29zM312 590h-353v29h353v-29z" />
    <glyph glyph-name="Ibreve" unicode="&#x12c;" horiz-adv-x="353" 
d="M317 0q-24 2 -141 2q-116 0 -140 -2v29h22q53 0 65.5 8.5t12.5 38.5v531q0 30 -12.5 38.5t-65.5 8.5h-22v29q24 -2 141 -2q116 0 140 2v-29h-22q-53 0 -65.5 -8.5t-12.5 -38.5v-531q0 -30 12.5 -38.5t65.5 -8.5h22v-29zM322 916q-1 -75 -43 -123.5t-103 -48.5
q-58 0 -101 48t-44 124h20q1 -61 38.5 -99t87.5 -38q48 0 86 37.5t39 99.5h20z" />
    <glyph glyph-name="ibreve" unicode="&#x12d;" horiz-adv-x="272" 
d="M241 0q-34 2 -103 2q-77 0 -105 -2v29q51 0 63.5 6.5t12.5 38.5v272q0 37 -12.5 46t-60.5 9v29l136 11v-368q0 -30 10.5 -37t58.5 -7v-29zM281 690q-1 -75 -43 -123.5t-103 -48.5q-58 0 -101 48t-44 124h20q1 -61 38.5 -99t87.5 -38q48 0 86 37.5t39 99.5h20z" />
    <glyph glyph-name="Iogonek" unicode="&#x12e;" horiz-adv-x="353" 
d="M317 -111q-11 -40 -43 -65.5t-69 -25.5q-44 0 -74.5 25.5t-30.5 59.5q0 60 72 119q-113 0 -136 -2v29h22q53 0 65.5 8.5t12.5 38.5v531q0 30 -12.5 38.5t-65.5 8.5h-22v29q24 -2 141 -2q116 0 140 2v-29h-22q-53 0 -65.5 -8.5t-12.5 -38.5v-531q0 -30 12.5 -38.5
t65.5 -8.5h22v-29l-96 2q-31 -17 -54 -43q-22 -25 -22 -51q0 -30 26.5 -48t56.5 -18q48 0 73 53q4 8 11 5t5 -11z" />
    <glyph glyph-name="iogonek" unicode="&#x12f;" horiz-adv-x="272" 
d="M174 616q0 -18 -13.5 -33t-35.5 -15q-19 0 -33.5 13.5t-14.5 35.5q0 20 14 34t34 14q21 0 35 -14.5t14 -34.5zM244 -111q-11 -40 -43 -65.5t-69 -25.5q-44 0 -74.5 25.5t-30.5 59.5q0 59 73 119q-31 0 -67 -2v29q51 0 63.5 6.5t12.5 38.5v272q0 37 -12.5 46t-60.5 9v29
l136 11v-368q0 -30 10.5 -37t58.5 -7v-29q-28 2 -92 2q-30 -16 -54 -43q-23 -27 -23 -51q0 -30 26.5 -48t56.5 -18q48 0 73 53q4 8 11 5t5 -11z" />
    <glyph glyph-name="Idotaccent" unicode="&#x130;" horiz-adv-x="353" 
d="M317 0q-24 2 -141 2q-116 0 -140 -2v29h22q53 0 65.5 8.5t12.5 38.5v531q0 30 -12.5 38.5t-65.5 8.5h-22v29q24 -2 141 -2q116 0 140 2v-29h-22q-53 0 -65.5 -8.5t-12.5 -38.5v-531q0 -30 12.5 -38.5t65.5 -8.5h22v-29zM226 803q0 -19 -13.5 -33.5t-35.5 -14.5
q-19 0 -33.5 14.5t-14.5 33.5q0 20 14 34.5t35 14.5q19 0 33.5 -13.5t14.5 -35.5z" />
    <glyph glyph-name="dotlessi" unicode="&#x131;" horiz-adv-x="272" 
d="M241 0q-34 2 -103 2q-77 0 -105 -2v29q51 0 63.5 6.5t12.5 38.5v272q0 37 -12.5 46t-60.5 9v29l136 11v-368q0 -30 10.5 -37t58.5 -7v-29z" />
    <glyph glyph-name="Jcircumflex" unicode="&#x134;" horiz-adv-x="503" 
d="M451 654q-49 0 -60 -7t-11 -37v-461q0 -78 -54 -124t-123 -46q-64 0 -108 39.5t-44 93.5q0 26 14.5 38.5t34.5 12.5q24 0 37 -14.5t13 -34.5q0 -26 -18 -39.5t-42 -9.5q20 -38 52 -52t58 -14q42 0 71.5 41.5t29.5 106.5v459q0 30 -14.5 39t-77.5 9h-31v29q27 -2 147 -2
q101 0 126 2v-29zM465 750l-12 -16l-140 66l-140 -66l-10 16l151 117z" />
    <glyph glyph-name="jcircumflex" unicode="&#x135;" horiz-adv-x="299" 
d="M203 -51q0 -67 -38 -110t-93 -43q-42 0 -74 20t-32 54q0 18 11.5 30t30.5 12q18 0 29.5 -12t11.5 -29q0 -34 -34 -41q10 -6 24 -9.5t23 -4.5h9q69 0 69 129v400q0 37 -14 46.5t-70 9.5v29l147 11v-492zM307 530l-13 -14l-139 108l-139 -108l-13 14l152 162z" />
    <glyph glyph-name="Kcommaaccent" unicode="&#x136;" horiz-adv-x="761" 
d="M719 0q-35 2 -111 2q-102 0 -126 -2v29q52 0 52 28q0 9 -3 15q-3 8 -10 18l-185 277l-119 -115v-174q0 -35 14.5 -42t80.5 -7v-29q-24 2 -136 2q-111 0 -135 -2v29q66 0 80.5 7t14.5 42v527q0 35 -14.5 42t-80.5 7v29q24 -2 136 -2q111 0 135 2v-29q-66 0 -80.5 -7
t-14.5 -42v-323l305 295q29 28 29 45q0 30 -39 32v29q23 -2 108 -2q57 0 86 2v-29q-56 -1 -95 -29t-150 -138q-52 -48 -70 -68l225 -337q23 -35 42 -44t61 -9v-29zM421 -139q0 -39 -15 -74t-29 -51t-19 -16q-8 0 -8 7q0 4 4 7q52 54 52 127l-1 15q-2 0 -4 -3q-12 -9 -24 -9
q-16 0 -26.5 11t-10.5 26t10 25.5t26 10.5q45 0 45 -76z" />
    <glyph glyph-name="kcommaaccent" unicode="&#x137;" horiz-adv-x="517" 
d="M500 0q-43 2 -88 2q-76 0 -101 -2v29q35 0 35 23q0 15 -22 46l-96 138l-64 -56v-106q0 -32 12.5 -38.5t63.5 -6.5v-29q-28 2 -106 2t-106 -2v29q52 0 64 6.5t12 38.5v524q0 37 -12.5 46.5t-63.5 9.5v29l139 11v-482l143 126q21 18 21 38q0 24 -29 26v29q23 -2 100 -2
q56 0 76 2v-29q-66 -3 -134 -62q-3 -3 -21 -19t-34 -30.5t-16 -15.5l7 -10l134 -195q13 -19 29.5 -28.5t27.5 -11t29 -1.5v-29zM299 -139q0 -39 -15 -74t-29 -51t-19 -16q-8 0 -8 7q0 4 4 7q52 54 52 127l-1 15q-2 0 -4 -3q-12 -9 -24 -9q-16 0 -26.5 11t-10.5 26t10 25.5
t26 10.5q45 0 45 -76z" />
    <glyph glyph-name="Lacute" unicode="&#x139;" horiz-adv-x="612" 
d="M570 256l-26 -256h-503v29h20q51 0 63 8.5t12 38.5v531q0 30 -12 38.5t-63 8.5h-20v29q24 -2 143 -2q123 0 152 2v-29h-30q-61 0 -75 -9t-14 -39v-537q0 -26 7 -33t39 -7h87q36 0 65.5 8t48.5 19t34 31.5t23 36.5t14 44t8 43.5t5 44.5h22zM318 866q-3 -16 -21 -26
l-168 -96q-5 6 -13 18l143 129q14 14 24 14q16 0 26.5 -11.5t8.5 -27.5z" />
    <glyph glyph-name="lacute" unicode="&#x13a;" horiz-adv-x="272" 
d="M248 0q-28 2 -108 2q-79 0 -107 -2v29q51 0 63.5 6.5t12.5 38.5v524q0 37 -12.5 46.5t-63.5 9.5v29l139 11v-620q0 -32 12.5 -38.5t63.5 -6.5v-29zM270 877q-3 -16 -21 -26l-168 -96q-5 6 -13 18l143 129q14 14 24 14q16 0 26.5 -11.5t8.5 -27.5z" />
    <glyph glyph-name="Lcommaaccent" unicode="&#x13b;" horiz-adv-x="612" 
d="M570 256l-26 -256h-503v29h20q51 0 63 8.5t12 38.5v531q0 30 -12 38.5t-63 8.5h-20v29q24 -2 143 -2q123 0 152 2v-29h-30q-61 0 -75 -9t-14 -39v-537q0 -26 7 -33t39 -7h87q36 0 65.5 8t48.5 19t34 31.5t23 36.5t14 44t8 43.5t5 44.5h22zM346 -139q0 -39 -15 -74
t-29 -51t-19 -16q-8 0 -8 7q0 4 4 7q52 54 52 127l-1 15q-2 0 -4 -3q-12 -9 -24 -9q-16 0 -26.5 11t-10.5 26t10 25.5t26 10.5q45 0 45 -76z" />
    <glyph glyph-name="lcommaaccent" unicode="&#x13c;" horiz-adv-x="272" 
d="M248 0q-28 2 -108 2q-79 0 -107 -2v29q51 0 63.5 6.5t12.5 38.5v524q0 37 -12.5 46.5t-63.5 9.5v29l139 11v-620q0 -32 12.5 -38.5t63.5 -6.5v-29zM176 -139q0 -39 -15 -74t-29 -51t-19 -16q-8 0 -8 7q0 4 4 7q52 54 52 127l-1 15q-2 0 -4 -3q-12 -9 -24 -9
q-16 0 -26.5 11t-10.5 26t10 25.5t26 10.5q45 0 45 -76z" />
    <glyph glyph-name="Lcaron" unicode="&#x13d;" horiz-adv-x="612" 
d="M570 256l-26 -256h-503v29h20q51 0 63 8.5t12 38.5v531q0 30 -12 38.5t-63 8.5h-20v29q24 -2 143 -2q123 0 152 2v-29h-30q-61 0 -75 -9t-14 -39v-537q0 -26 7 -33t39 -7h87q36 0 65.5 8t48.5 19t34 31.5t23 36.5t14 44t8 43.5t5 44.5h22zM471 607q0 -39 -15 -74t-29 -51
t-19 -16q-8 0 -8 7q0 4 4 7q52 54 52 127l-1 15q-2 0 -4 -3q-12 -9 -24 -9q-16 0 -26.5 11t-10.5 26t10 25.5t26 10.5q45 0 45 -76z" />
    <glyph glyph-name="lcaron" unicode="&#x13e;" horiz-adv-x="272" 
d="M248 0q-28 2 -108 2q-79 0 -107 -2v29q51 0 63.5 6.5t12.5 38.5v524q0 37 -12.5 46.5t-63.5 9.5v29l139 11v-620q0 -32 12.5 -38.5t63.5 -6.5v-29zM289 618q0 -39 -15 -74t-29 -51t-19 -16q-8 0 -8 7q0 4 4 7q52 54 52 127l-1 15q-2 0 -4 -3q-12 -9 -24 -9
q-16 0 -26.5 11t-10.5 26t10 25.5t26 10.5q45 0 45 -76z" />
    <glyph glyph-name="Ldot" unicode="&#x13f;" horiz-adv-x="612" 
d="M570 256l-26 -256h-503v29h20q51 0 63 8.5t12 38.5v531q0 30 -12 38.5t-63 8.5h-20v29q24 -2 143 -2q123 0 152 2v-29h-30q-61 0 -75 -9t-14 -39v-537q0 -26 7 -33t39 -7h87q36 0 65.5 8t48.5 19t34 31.5t23 36.5t14 44t8 43.5t5 44.5h22zM530 406q0 -19 -13.5 -33.5
t-35.5 -14.5q-19 0 -33.5 14t-14.5 34t14 34.5t35 14.5q19 0 33.5 -13.5t14.5 -35.5z" />
    <glyph glyph-name="ldot" unicode="&#x140;" horiz-adv-x="272" 
d="M248 0q-28 2 -108 2q-79 0 -107 -2v29q51 0 63.5 6.5t12.5 38.5v524q0 37 -12.5 46.5t-63.5 9.5v29l139 11v-620q0 -32 12.5 -38.5t63.5 -6.5v-29zM325 367q0 -19 -13.5 -33.5t-35.5 -14.5q-20 0 -34 14.5t-14 33.5q0 20 14 34.5t35 14.5q19 0 33.5 -13.5t14.5 -35.5z
" />
    <glyph glyph-name="Lslash" unicode="&#x141;" horiz-adv-x="612" 
d="M570 256l-26 -256h-503v29h20q51 0 63 8.5t12 38.5v216l-63 -54l-22 25l85 73v271q0 30 -12 38.5t-63 8.5h-20v29q24 -2 143 -2q123 0 152 2v-29h-30q-61 0 -75 -9t-14 -39v-201l145 124l22 -25l-167 -143v-292q0 -26 7 -33t39 -7h87q36 0 65.5 8t48.5 19t34 31.5
t23 36.5t14 44t8 43.5t5 44.5h22z" />
    <glyph glyph-name="lslash" unicode="&#x142;" horiz-adv-x="329" 
d="M292 432l-22 25l-70 -60v297l-139 -11v-29q51 0 63.5 -9.5t12.5 -46.5v-254l-79 -68l22 -25l57 49v-226q0 -32 -12 -38.5t-64 -6.5v-29q28 2 107 2q80 0 108 -2v29q-51 0 -63.5 6.5t-12.5 38.5v280z" />
    <glyph glyph-name="Nacute" unicode="&#x143;" horiz-adv-x="734" 
d="M692 654q-33 0 -54.5 -7t-29 -21t-9.5 -23t-2 -25v-572q-3 -6 -12 -6q-7 0 -18 15l-390 594q-15 20 -17 22v-526q0 -16 2 -25t9.5 -23t29 -21t54.5 -7v-29q-26 2 -107 2t-107 -2v29q33 0 54.5 7t29 21t9.5 23t2 25v542q-27 7 -95 7v29h153q16 0 20.5 -2t11.5 -12
l347 -528v437q0 16 -2 25t-9.5 23t-29 21t-54.5 7v29q26 -2 107 -2t107 2v-29zM501 866q-3 -16 -21 -26l-168 -96q-5 6 -13 18l143 129q14 14 24 14q16 0 26.5 -11.5t8.5 -27.5z" />
    <glyph glyph-name="nacute" unicode="&#x144;" horiz-adv-x="544" 
d="M521 0q-26 2 -109 2q-82 0 -108 -2v29q52 0 64 6.5t12 38.5v235q0 112 -76 112q-51 0 -91 -43.5t-40 -117.5v-186q0 -32 12.5 -38.5t63.5 -6.5v-29q-26 2 -109 2q-82 0 -108 -2v29q52 0 64 6.5t12 38.5v271q0 37 -12.5 46.5t-63.5 9.5v29l136 11v-103h1q5 12 13 25
t24.5 33t44 32.5t61.5 12.5q77 0 110 -45q16 -22 19.5 -49t3.5 -104v-184q1 -21 16.5 -25.5t59.5 -4.5v-29zM392 664q0 -16 -16 -29l-149 -124q-9 7 -16 16l119 152q13 18 28 18q13 0 23.5 -10t10.5 -23z" />
    <glyph glyph-name="Ncommaaccent" unicode="&#x145;" horiz-adv-x="734" 
d="M692 654q-33 0 -54.5 -7t-29 -21t-9.5 -23t-2 -25v-572q-3 -6 -12 -6q-7 0 -18 15l-390 594q-15 20 -17 22v-526q0 -16 2 -25t9.5 -23t29 -21t54.5 -7v-29q-26 2 -107 2t-107 -2v29q33 0 54.5 7t29 21t9.5 23t2 25v542q-27 7 -95 7v29h153q16 0 20.5 -2t11.5 -12
l347 -528v437q0 16 -2 25t-9.5 23t-29 21t-54.5 7v29q26 -2 107 -2t107 2v-29zM407 -139q0 -39 -15 -74t-29 -51t-19 -16q-8 0 -8 7q0 4 4 7q52 54 52 127l-1 15q-2 0 -4 -3q-12 -9 -24 -9q-16 0 -26.5 11t-10.5 26t10 25.5t26 10.5q45 0 45 -76z" />
    <glyph glyph-name="ncommaaccent" unicode="&#x146;" horiz-adv-x="544" 
d="M521 0q-26 2 -109 2q-82 0 -108 -2v29q52 0 64 6.5t12 38.5v235q0 112 -76 112q-51 0 -91 -43.5t-40 -117.5v-186q0 -32 12.5 -38.5t63.5 -6.5v-29q-26 2 -109 2q-82 0 -108 -2v29q52 0 64 6.5t12 38.5v271q0 37 -12.5 46.5t-63.5 9.5v29l136 11v-103h1q5 12 13 25
t24.5 33t44 32.5t61.5 12.5q77 0 110 -45q16 -22 19.5 -49t3.5 -104v-184q1 -21 16.5 -25.5t59.5 -4.5v-29zM312 -139q0 -39 -15 -74t-29 -51t-19 -16q-8 0 -8 7q0 4 4 7q52 54 52 127l-1 15q-2 0 -4 -3q-12 -9 -24 -9q-16 0 -26.5 11t-10.5 26t10 25.5t26 10.5q45 0 45 -76
z" />
    <glyph glyph-name="Ncaron" unicode="&#x147;" horiz-adv-x="734" 
d="M692 654q-33 0 -54.5 -7t-29 -21t-9.5 -23t-2 -25v-572q-3 -6 -12 -6q-7 0 -18 15l-390 594q-15 20 -17 22v-526q0 -16 2 -25t9.5 -23t29 -21t54.5 -7v-29q-26 2 -107 2t-107 -2v29q33 0 54.5 7t29 21t9.5 23t2 25v542q-27 7 -95 7v29h153q16 0 20.5 -2t11.5 -12
l347 -528v437q0 16 -2 25t-9.5 23t-29 21t-54.5 7v29q26 -2 107 -2t107 2v-29zM518 851l-151 -117l-151 117l12 16l140 -66l140 66z" />
    <glyph glyph-name="ncaron" unicode="&#x148;" horiz-adv-x="544" 
d="M521 0q-26 2 -109 2q-82 0 -108 -2v29q52 0 64 6.5t12 38.5v235q0 112 -76 112q-51 0 -91 -43.5t-40 -117.5v-186q0 -32 12.5 -38.5t63.5 -6.5v-29q-26 2 -109 2q-82 0 -108 -2v29q52 0 64 6.5t12 38.5v271q0 37 -12.5 46.5t-63.5 9.5v29l136 11v-103h1q5 12 13 25
t24.5 33t44 32.5t61.5 12.5q77 0 110 -45q16 -22 19.5 -49t3.5 -104v-184q1 -21 16.5 -25.5t59.5 -4.5v-29zM424 678l-152 -162l-152 162l13 14l139 -108l139 108z" />
    <glyph glyph-name="Eng" unicode="&#x14a;" horiz-adv-x="734" 
d="M698 342q0 -70 -11.5 -132.5t-35 -115.5t-65.5 -84t-97 -31q-17 0 -29.5 12.5t-12.5 29.5t12.5 29.5t29.5 12.5q18 0 30 -12.5t12 -29.5q0 -7 -1 -11q27 14 43.5 46.5t23 87t8 92t1.5 106.5q0 89 -19.5 163t-66.5 125.5t-116 51.5q-60 0 -109.5 -30.5t-77.5 -81.5v-494
q0 -30 12.5 -38.5t65.5 -8.5h22v-29q-24 2 -141 2q-116 0 -140 -2v29h22q53 0 65.5 8.5t12.5 38.5v531q0 30 -12.5 38.5t-65.5 8.5h-22v29q24 -2 141 -2q14 0 40 2v-74q33 44 81.5 69.5t105.5 25.5q128 0 211 -107.5t83 -254.5z" />
    <glyph glyph-name="eng" unicode="&#x14b;" horiz-adv-x="495" 
d="M445 67q0 -56 -6.5 -102.5t-22 -89t-45.5 -66.5t-72 -24q-13 0 -22.5 9.5t-9.5 22.5t9.5 22.5t22.5 9.5t22.5 -9.5t9.5 -22.5v-1q23 16 34.5 62t13 83t1.5 106v242q0 112 -76 112q-51 0 -91 -43.5t-40 -117.5v-186q0 -32 12.5 -38.5t63.5 -6.5v-29q-26 2 -109 2
q-82 0 -108 -2v29q52 0 64 6.5t12 38.5v271q0 37 -12.5 46.5t-63.5 9.5v29l136 11v-103h1q5 12 13 25t24.5 33t44 32.5t61.5 12.5q77 0 110 -45q16 -22 19.5 -49t3.5 -104v-176z" />
    <glyph glyph-name="Omacron" unicode="&#x14c;" horiz-adv-x="762" 
d="M707 339q0 -150 -96 -255t-231 -105q-133 0 -229.5 104.5t-96.5 255.5q0 153 96.5 259t230.5 106q132 0 229 -106t97 -259zM614 354q0 86 -22 152.5t-58 103t-75 54.5t-79 18q-30 0 -60.5 -10t-62 -35t-55.5 -61.5t-39.5 -94t-15.5 -127.5q0 -74 14.5 -134.5t38.5 -100
t55 -67t62.5 -39t63.5 -11.5q39 0 78 19.5t74.5 58.5t58 110t22.5 164zM557 754h-353v29h353v-29z" />
    <glyph glyph-name="omacron" unicode="&#x14d;" 
d="M459 214q0 -94 -63 -159t-152 -65q-87 0 -150.5 64.5t-63.5 159.5t63 163.5t152 68.5q88 0 151 -68t63 -164zM383 223q0 100 -31 146q-39 57 -108 57t-107 -59q-31 -45 -31 -144t28 -146q38 -65 111 -65t112 67q26 47 26 144zM421 590h-353v29h353v-29z" />
    <glyph glyph-name="Obreve" unicode="&#x14e;" horiz-adv-x="762" 
d="M707 339q0 -150 -96 -255t-231 -105q-133 0 -229.5 104.5t-96.5 255.5q0 153 96.5 259t230.5 106q132 0 229 -106t97 -259zM614 354q0 86 -22 152.5t-58 103t-75 54.5t-79 18q-30 0 -60.5 -10t-62 -35t-55.5 -61.5t-39.5 -94t-15.5 -127.5q0 -74 14.5 -134.5t38.5 -100
t55 -67t62.5 -39t63.5 -11.5q39 0 78 19.5t74.5 58.5t58 110t22.5 164zM526 916q-1 -75 -43 -123.5t-103 -48.5q-58 0 -101 48t-44 124h20q1 -61 38.5 -99t87.5 -38q48 0 86 37.5t39 99.5h20z" />
    <glyph glyph-name="obreve" unicode="&#x14f;" 
d="M459 214q0 -94 -63 -159t-152 -65q-87 0 -150.5 64.5t-63.5 159.5t63 163.5t152 68.5q88 0 151 -68t63 -164zM383 223q0 100 -31 146q-39 57 -108 57t-107 -59q-31 -45 -31 -144t28 -146q38 -65 111 -65t112 67q26 47 26 144zM390 690q-1 -75 -43 -123.5t-103 -48.5
q-58 0 -101 48t-44 124h20q1 -61 38.5 -99t87.5 -38q48 0 86 37.5t39 99.5h20z" />
    <glyph glyph-name="Ohungarumlaut" unicode="&#x150;" horiz-adv-x="762" 
d="M707 339q0 -150 -96 -255t-231 -105q-133 0 -229.5 104.5t-96.5 255.5q0 153 96.5 259t230.5 106q132 0 229 -106t97 -259zM614 354q0 86 -22 152.5t-58 103t-75 54.5t-79 18q-30 0 -60.5 -10t-62 -35t-55.5 -61.5t-39.5 -94t-15.5 -127.5q0 -74 14.5 -134.5t38.5 -100
t55 -67t62.5 -39t63.5 -11.5q39 0 78 19.5t74.5 58.5t58 110t22.5 164zM383 896q0 -11 -11 -26l-91 -126q-4 2 -18 10l54 147q10 28 31 28q12 0 23.5 -9t11.5 -24zM546 896q0 -11 -11 -26l-91 -126q-4 2 -18 10l54 147q10 28 31 28q12 0 23.5 -9t11.5 -24z" />
    <glyph glyph-name="ohungarumlaut" unicode="&#x151;" 
d="M459 214q0 -94 -63 -159t-152 -65q-87 0 -150.5 64.5t-63.5 159.5t63 163.5t152 68.5q88 0 151 -68t63 -164zM383 223q0 100 -31 146q-39 57 -108 57t-107 -59q-31 -45 -31 -144t28 -146q38 -65 111 -65t112 67q26 47 26 144zM247 664q0 -11 -11 -26l-91 -126
q-4 2 -18 10l54 147q10 28 31 28q12 0 23.5 -9t11.5 -24zM410 664q0 -11 -11 -26l-91 -126q-4 2 -18 10l54 147q10 28 31 28q12 0 23.5 -9t11.5 -24z" />
    <glyph glyph-name="OE" unicode="&#x152;" horiz-adv-x="993" 
d="M965 256l-40 -256h-383q-30 0 -72 -9q-51 -12 -78 -12q-131 0 -228 104t-97 256q0 154 97 259.5t228 105.5q28 0 81 -12q39 -9 69 -9h370l26 -223h-22q-11 112 -45.5 153t-134.5 41h-118q-32 0 -39 -7t-7 -33v-245h110q72 0 93 24.5t21 92.5h22v-263h-22q0 69 -21 93
t-93 24h-110v-271q0 -26 7 -33t39 -7h116q41 0 71 5.5t51.5 19.5t35 29.5t23.5 45t15.5 56t12.5 71.5h22zM503 342q0 197 -5 237q-3 26 -7 41.5t-14.5 32t-31 24t-51.5 7.5q-95 0 -165.5 -94t-70.5 -236q0 -149 69.5 -252t167.5 -103q26 0 45 7t29 15.5t16.5 26t8.5 29
t5 35.5q4 36 4 230z" />
    <glyph glyph-name="oe" unicode="&#x153;" horiz-adv-x="762" 
d="M734 119q0 -7 -5 -21t-17 -32.5t-28.5 -35.5t-43.5 -28.5t-58 -11.5q-107 0 -175 104q-31 -53 -77 -78.5t-94 -25.5q-84 0 -145 66.5t-61 161.5q0 96 61 162t145 66q108 0 171 -102q25 44 68 73t96 29q76 0 119.5 -54t43.5 -141q0 -14 -3.5 -16.5t-20.5 -2.5h-270
q0 -105 38 -159q44 -61 109 -61q14 0 29.5 4.5t34 15t35.5 33.5t26 55q3 9 11 9q11 0 11 -10zM672 251q-5 175 -103 175q-15 0 -32 -6.5t-38.5 -23t-37.5 -54.5t-20 -91h231zM375 223q0 57 -14.5 98.5t-31.5 61t-41 30.5t-33.5 12t-17.5 1q-11 0 -23 -2t-33.5 -13.5t-38 -31
t-29 -60.5t-12.5 -96q0 -58 13 -101t29.5 -63.5t38.5 -32.5t33.5 -14t21.5 -2t22.5 2.5t34.5 15t38.5 33t29.5 63t13 99.5z" />
    <glyph glyph-name="Racute" unicode="&#x154;" horiz-adv-x="721" 
d="M717 87q0 -17 -5.5 -38.5t-28 -45.5t-57.5 -24q-38 0 -68.5 12t-44.5 26q-31 30 -37.5 56t-6.5 92q0 57 -5 79t-29 49q-38 39 -103 39h-116v-256q0 -30 12 -38.5t63 -8.5h20v-29q-23 2 -135 2q-111 0 -134 -2v29h20q51 0 63 8.5t12 38.5v531q0 30 -12 38.5t-63 8.5h-20
v29h299q107 0 182 -53.5t75 -126.5q0 -56 -50 -100.5t-126 -62.5q54 -15 92 -53q14 -15 22.5 -34t11.5 -33t7 -46l10 -75q7 -49 20 -74.5t44 -25.5q26 0 44 22t22 65q1 5 1 7t1 4.5t3 3.5t6 1q11 0 11 -15zM505 503q0 43 -15 73.5t-34 45t-52.5 22.5t-53.5 9t-54 1
q-50 0 -59 -1q-10 -2 -14.5 -7.5t-5.5 -11.5t-1 -20v-262h112q177 0 177 151zM495 866q-3 -16 -21 -26l-168 -96q-5 6 -13 18l143 129q14 14 24 14q16 0 26.5 -11.5t8.5 -27.5z" />
    <glyph glyph-name="racute" unicode="&#x155;" horiz-adv-x="381" 
d="M353 383q0 -19 -12 -29.5t-28 -10.5q-14 0 -26.5 10t-12.5 30q0 25 24 37q-4 1 -14 1q-55 0 -86 -55t-31 -133v-157q0 -29 11.5 -38t63.5 -9h20v-29q-23 2 -121 2q-85 0 -113 -2v29q52 0 64 6.5t12 38.5v271q0 37 -12.5 46.5t-63.5 9.5v29l134 11v-111h1q35 111 120 111
q31 0 50.5 -17t19.5 -41zM311 664q0 -16 -16 -29l-149 -124q-9 7 -16 16l119 152q13 18 28 18q13 0 23.5 -10t10.5 -23z" />
    <glyph glyph-name="Rcommaaccent" unicode="&#x156;" horiz-adv-x="721" 
d="M717 87q0 -17 -5.5 -38.5t-28 -45.5t-57.5 -24q-38 0 -68.5 12t-44.5 26q-31 30 -37.5 56t-6.5 92q0 57 -5 79t-29 49q-38 39 -103 39h-116v-256q0 -30 12 -38.5t63 -8.5h20v-29q-23 2 -135 2q-111 0 -134 -2v29h20q51 0 63 8.5t12 38.5v531q0 30 -12 38.5t-63 8.5h-20
v29h299q107 0 182 -53.5t75 -126.5q0 -56 -50 -100.5t-126 -62.5q54 -15 92 -53q14 -15 22.5 -34t11.5 -33t7 -46l10 -75q7 -49 20 -74.5t44 -25.5q26 0 44 22t22 65q1 5 1 7t1 4.5t3 3.5t6 1q11 0 11 -15zM505 503q0 43 -15 73.5t-34 45t-52.5 22.5t-53.5 9t-54 1
q-50 0 -59 -1q-10 -2 -14.5 -7.5t-5.5 -11.5t-1 -20v-262h112q177 0 177 151zM401 -139q0 -39 -15 -74t-29 -51t-19 -16q-8 0 -8 7q0 4 4 7q52 54 52 127l-1 15q-2 0 -4 -3q-12 -9 -24 -9q-16 0 -26.5 11t-10.5 26t10 25.5t26 10.5q45 0 45 -76z" />
    <glyph glyph-name="rcommaaccent" unicode="&#x157;" horiz-adv-x="381" 
d="M353 383q0 -19 -12 -29.5t-28 -10.5q-14 0 -26.5 10t-12.5 30q0 25 24 37q-4 1 -14 1q-55 0 -86 -55t-31 -133v-157q0 -29 11.5 -38t63.5 -9h20v-29q-23 2 -121 2q-85 0 -113 -2v29q52 0 64 6.5t12 38.5v271q0 37 -12.5 46.5t-63.5 9.5v29l134 11v-111h1q35 111 120 111
q31 0 50.5 -17t19.5 -41zM176 -139q0 -39 -15 -74t-29 -51t-19 -16q-8 0 -8 7q0 4 4 7q52 54 52 127l-1 15q-2 0 -4 -3q-12 -9 -24 -9q-16 0 -26.5 11t-10.5 26t10 25.5t26 10.5q45 0 45 -76z" />
    <glyph glyph-name="Rcaron" unicode="&#x158;" horiz-adv-x="721" 
d="M717 87q0 -17 -5.5 -38.5t-28 -45.5t-57.5 -24q-38 0 -68.5 12t-44.5 26q-31 30 -37.5 56t-6.5 92q0 57 -5 79t-29 49q-38 39 -103 39h-116v-256q0 -30 12 -38.5t63 -8.5h20v-29q-23 2 -135 2q-111 0 -134 -2v29h20q51 0 63 8.5t12 38.5v531q0 30 -12 38.5t-63 8.5h-20
v29h299q107 0 182 -53.5t75 -126.5q0 -56 -50 -100.5t-126 -62.5q54 -15 92 -53q14 -15 22.5 -34t11.5 -33t7 -46l10 -75q7 -49 20 -74.5t44 -25.5q26 0 44 22t22 65q1 5 1 7t1 4.5t3 3.5t6 1q11 0 11 -15zM505 503q0 43 -15 73.5t-34 45t-52.5 22.5t-53.5 9t-54 1
q-50 0 -59 -1q-10 -2 -14.5 -7.5t-5.5 -11.5t-1 -20v-262h112q177 0 177 151zM512 851l-151 -117l-151 117l12 16l140 -66l140 66z" />
    <glyph glyph-name="rcaron" unicode="&#x159;" horiz-adv-x="381" 
d="M353 383q0 -19 -12 -29.5t-28 -10.5q-14 0 -26.5 10t-12.5 30q0 25 24 37q-4 1 -14 1q-55 0 -86 -55t-31 -133v-157q0 -29 11.5 -38t63.5 -9h20v-29q-23 2 -121 2q-85 0 -113 -2v29q52 0 64 6.5t12 38.5v271q0 37 -12.5 46.5t-63.5 9.5v29l134 11v-111h1q35 111 120 111
q31 0 50.5 -17t19.5 -41zM343 678l-152 -162l-152 162l13 14l139 -108l139 108z" />
    <glyph glyph-name="Sacute" unicode="&#x15a;" horiz-adv-x="544" 
d="M489 184q0 -84 -55 -144.5t-138 -60.5q-118 0 -185 74l-33 -60q-8 -14 -14 -14q-7 0 -8.5 4t-1.5 19v202q0 15 1.5 19t9.5 4q10 0 11 -8q3 -103 63 -157q62 -54 156 -54q60 0 98 43.5t38 102.5q0 42 -21.5 79t-56.5 54q-21 9 -104 28q-62 16 -89.5 27.5t-51.5 38.5
q-54 58 -54 132q0 78 55 134.5t137 56.5q101 0 158 -74l33 61q7 13 14 13t8.5 -4t1.5 -19v-202q0 -15 -1.5 -19t-9.5 -4q-7 0 -8.5 3t-3.5 13q-29 205 -192 205q-57 0 -95.5 -39.5t-38.5 -93.5q0 -46 28 -81.5t68 -45.5l110 -28q27 -7 42 -12t38.5 -19t40.5 -35
q50 -61 50 -139zM406 866q-3 -16 -21 -26l-168 -96q-5 6 -13 18l143 129q14 14 24 14q16 0 26.5 -11.5t8.5 -27.5z" />
    <glyph glyph-name="sacute" unicode="&#x15b;" horiz-adv-x="386" 
d="M352 127q0 -62 -40.5 -99.5t-116.5 -37.5q-71 0 -109 47q-9 -10 -20 -25q-18 -22 -23 -22q-7 0 -8.5 4t-1.5 19v136q0 15 1.5 19t9.5 4q7 0 9 -4q1 -2 5 -20q30 -138 136 -138q60 0 86.5 26.5t26.5 64.5q0 39 -31 65q-18 14 -33.5 19.5t-59.5 14.5q-42 8 -66 16.5
t-46 27.5q-38 35 -38 81q0 49 37 85t120 36q56 0 94 -31q24 31 34 31q7 0 8.5 -4t1.5 -19v-104q0 -15 -1.5 -19t-9.5 -4q-10 0 -11 8q-8 124 -117 124q-60 0 -85.5 -23.5t-25.5 -53.5q0 -59 103 -80q55 -10 79.5 -18.5t49.5 -30.5q42 -42 42 -95zM313 664q0 -16 -16 -29
l-149 -124q-9 7 -16 16l119 152q13 18 28 18q13 0 23.5 -10t10.5 -23z" />
    <glyph glyph-name="Scircumflex" unicode="&#x15c;" horiz-adv-x="544" 
d="M489 184q0 -84 -55 -144.5t-138 -60.5q-118 0 -185 74l-33 -60q-8 -14 -14 -14q-7 0 -8.5 4t-1.5 19v202q0 15 1.5 19t9.5 4q10 0 11 -8q3 -103 63 -157q62 -54 156 -54q60 0 98 43.5t38 102.5q0 42 -21.5 79t-56.5 54q-21 9 -104 28q-62 16 -89.5 27.5t-51.5 38.5
q-54 58 -54 132q0 78 55 134.5t137 56.5q101 0 158 -74l33 61q7 13 14 13t8.5 -4t1.5 -19v-202q0 -15 -1.5 -19t-9.5 -4q-7 0 -8.5 3t-3.5 13q-29 205 -192 205q-57 0 -95.5 -39.5t-38.5 -93.5q0 -46 28 -81.5t68 -45.5l110 -28q27 -7 42 -12t38.5 -19t40.5 -35
q50 -61 50 -139zM423 750l-12 -16l-140 66l-140 -66l-10 16l151 117z" />
    <glyph glyph-name="scircumflex" unicode="&#x15d;" horiz-adv-x="386" 
d="M352 127q0 -62 -40.5 -99.5t-116.5 -37.5q-71 0 -109 47q-9 -10 -20 -25q-18 -22 -23 -22q-7 0 -8.5 4t-1.5 19v136q0 15 1.5 19t9.5 4q7 0 9 -4q1 -2 5 -20q30 -138 136 -138q60 0 86.5 26.5t26.5 64.5q0 39 -31 65q-18 14 -33.5 19.5t-59.5 14.5q-42 8 -66 16.5
t-46 27.5q-38 35 -38 81q0 49 37 85t120 36q56 0 94 -31q24 31 34 31q7 0 8.5 -4t1.5 -19v-104q0 -15 -1.5 -19t-9.5 -4q-10 0 -11 8q-8 124 -117 124q-60 0 -85.5 -23.5t-25.5 -53.5q0 -59 103 -80q55 -10 79.5 -18.5t49.5 -30.5q42 -42 42 -95zM345 530l-13 -14l-139 108
l-139 -108l-13 14l152 162z" />
    <glyph glyph-name="Scedilla" unicode="&#x15e;" horiz-adv-x="544" 
d="M489 184q0 -84 -55 -144.5t-138 -60.5h-2v-42q44 0 76 -17.5t32 -50.5q0 -17 -9 -29t-29.5 -19.5t-39.5 -12t-52 -6t-52.5 -2t-56.5 -0.5h-22v22h11q40 0 62 1t52.5 5t45 14t14.5 27q0 23 -22.5 34.5t-53.5 11.5v67q-87 14 -139 71l-33 -60q-8 -14 -14 -14q-7 0 -8.5 4
t-1.5 19v202q0 15 1.5 19t9.5 4q10 0 11 -8q3 -103 63 -157q62 -54 156 -54q60 0 98 43.5t38 102.5q0 42 -21.5 79t-56.5 54q-21 9 -104 28q-62 16 -89.5 27.5t-51.5 38.5q-54 58 -54 132q0 78 55 134.5t137 56.5q101 0 158 -74l33 61q7 13 14 13t8.5 -4t1.5 -19v-202
q0 -15 -1.5 -19t-9.5 -4q-7 0 -8.5 3t-3.5 13q-29 205 -192 205q-57 0 -95.5 -39.5t-38.5 -93.5q0 -46 28 -81.5t68 -45.5l110 -28q27 -7 42 -12t38.5 -19t40.5 -35q50 -61 50 -139z" />
    <glyph glyph-name="scedilla" unicode="&#x15f;" horiz-adv-x="386" 
d="M352 127q0 -57 -35 -94t-102 -42v-54q45 0 77 -17.5t32 -50.5q0 -17 -9.5 -29t-30 -19.5t-39 -12t-52 -6t-53 -2t-55.5 -0.5h-22v22h11q26 0 40 0.5t38.5 1.5t38 4t28.5 8t22 13.5t7 19.5q0 22 -23 34t-54 12v76q-53 7 -85 46q-9 -10 -20 -25q-18 -22 -23 -22
q-7 0 -8.5 4t-1.5 19v136q0 15 1.5 19t9.5 4q7 0 9 -4q1 -2 5 -20q30 -138 136 -138q60 0 86.5 26.5t26.5 64.5q0 39 -31 65q-18 14 -33.5 19.5t-59.5 14.5q-42 8 -66 16.5t-46 27.5q-38 35 -38 81q0 49 37 85t120 36q56 0 94 -31q24 31 34 31q7 0 8.5 -4t1.5 -19v-104
q0 -15 -1.5 -19t-9.5 -4q-10 0 -11 8q-8 124 -117 124q-60 0 -85.5 -23.5t-25.5 -53.5q0 -59 103 -80q55 -10 79.5 -18.5t49.5 -30.5q42 -42 42 -95z" />
    <glyph glyph-name="Scaron" unicode="&#x160;" horiz-adv-x="544" 
d="M489 184q0 -84 -55 -144.5t-138 -60.5q-118 0 -185 74l-33 -60q-8 -14 -14 -14q-7 0 -8.5 4t-1.5 19v202q0 15 1.5 19t9.5 4q10 0 11 -8q3 -103 63 -157q62 -54 156 -54q60 0 98 43.5t38 102.5q0 42 -21.5 79t-56.5 54q-21 9 -104 28q-62 16 -89.5 27.5t-51.5 38.5
q-54 58 -54 132q0 78 55 134.5t137 56.5q101 0 158 -74l33 61q7 13 14 13t8.5 -4t1.5 -19v-202q0 -15 -1.5 -19t-9.5 -4q-7 0 -8.5 3t-3.5 13q-29 205 -192 205q-57 0 -95.5 -39.5t-38.5 -93.5q0 -46 28 -81.5t68 -45.5l110 -28q27 -7 42 -12t38.5 -19t40.5 -35
q50 -61 50 -139zM423 851l-151 -117l-151 117l12 16l140 -66l140 66z" />
    <glyph glyph-name="scaron" unicode="&#x161;" horiz-adv-x="386" 
d="M352 127q0 -62 -40.5 -99.5t-116.5 -37.5q-71 0 -109 47q-9 -10 -20 -25q-18 -22 -23 -22q-7 0 -8.5 4t-1.5 19v136q0 15 1.5 19t9.5 4q7 0 9 -4q1 -2 5 -20q30 -138 136 -138q60 0 86.5 26.5t26.5 64.5q0 39 -31 65q-18 14 -33.5 19.5t-59.5 14.5q-42 8 -66 16.5
t-46 27.5q-38 35 -38 81q0 49 37 85t120 36q56 0 94 -31q24 31 34 31q7 0 8.5 -4t1.5 -19v-104q0 -15 -1.5 -19t-9.5 -4q-10 0 -11 8q-8 124 -117 124q-60 0 -85.5 -23.5t-25.5 -53.5q0 -59 103 -80q55 -10 79.5 -18.5t49.5 -30.5q42 -42 42 -95zM345 678l-152 -162
l-152 162l13 14l139 -108l139 108z" />
    <glyph glyph-name="Tcedilla" unicode="&#x162;" horiz-adv-x="707" 
d="M671 455h-22q-4 46 -7 70t-11 50t-18.5 37t-30.5 21.5t-46.5 13t-67.5 2.5q-48 0 -56 -2q-11 -3 -14.5 -10.5t-3.5 -27.5v-532q0 -20 4 -28t25 -14t69 -6h36v-29q-27 2 -153 2l1 -65q44 0 76 -17.5t32 -50.5q0 -17 -9.5 -29t-30 -19.5t-39 -12t-52 -6t-53 -2t-55.5 -0.5
h-22v22h11q26 0 40 0.5t38.5 1.5t38 4t28.5 8t22 13.5t7 19.5q0 22 -22.5 34t-53.5 12v87q-126 0 -153 -2v29h36q48 0 69 6t25 14t4 28v532q0 20 -3.5 28t-17.5 10q-8 2 -54 2q-41 0 -67.5 -2.5t-46.5 -13t-30.5 -21.5t-18.5 -37t-11 -50t-7 -70h-22l18 223h600z" />
    <glyph glyph-name="tcedilla" unicode="&#x163;" horiz-adv-x="381" 
d="M340 -131q0 -17 -9.5 -29t-30 -19.5t-39 -12t-52 -6t-53 -2t-55.5 -0.5h-22v22h11q26 0 40 0.5t38.5 1.5t38 4t28.5 8t22 13.5t7 19.5q0 22 -22.5 34t-53.5 12v80q-85 23 -85 129v278h-85v20q64 2 95.5 58t32.5 135h22v-184h141v-29h-141v-280q0 -110 68 -110
q30 0 49 30.5t19 83.5v55h22v-57q0 -56 -25 -94.5t-70 -39.5l1 -53q44 0 76 -17.5t32 -50.5z" />
    <glyph glyph-name="Tcaron" unicode="&#x164;" horiz-adv-x="707" 
d="M671 455h-22q-4 46 -7 70t-11 50t-18.5 37t-30.5 21.5t-46.5 13t-67.5 2.5q-48 0 -56 -2q-11 -3 -14.5 -10.5t-3.5 -27.5v-532q0 -20 4 -28t25 -14t69 -6h36v-29q-32 2 -175 2q-142 0 -174 -2v29h36q48 0 69 6t25 14t4 28v532q0 20 -3.5 28t-17.5 10q-8 2 -54 2
q-41 0 -67.5 -2.5t-46.5 -13t-30.5 -21.5t-18.5 -37t-11 -50t-7 -70h-22l18 223h600zM505 851l-151 -117l-151 117l12 16l140 -66l140 66z" />
    <glyph glyph-name="tcaron" unicode="&#x165;" horiz-adv-x="381" 
d="M326 124q0 -57 -25.5 -95.5t-70.5 -38.5q-22 0 -42.5 5.5t-40.5 19.5t-32 42t-12 67v278h-85v20q64 2 95.5 58t32.5 135h22v-184h141v-29h-141v-280q0 -110 68 -110q30 0 49 30.5t19 83.5v55h22v-57zM285 608q0 -39 -15 -74t-29 -51t-19 -16q-8 0 -8 7q0 4 4 7
q52 54 52 127l-1 15q-2 0 -4 -3q-12 -9 -24 -9q-16 0 -26.5 11t-10.5 26t10 25.5t26 10.5q45 0 45 -76z" />
    <glyph glyph-name="Utilde" unicode="&#x168;" horiz-adv-x="734" 
d="M692 654q-95 0 -95 -61v-378q0 -84 -60.5 -160t-157.5 -76q-98 0 -170.5 72t-72.5 178v378q0 30 -12 38.5t-63 8.5h-20v29q24 -2 136 -2q111 0 135 2v-29h-20q-51 0 -63 -8.5t-12 -38.5v-384q0 -62 16.5 -107t43.5 -67t52.5 -31.5t51.5 -9.5q75 0 132 61t57 161v350
q0 15 -2 24t-9.5 22.5t-29 20.5t-54.5 7v29q26 -2 109 -2q82 0 108 2v-29zM551 811q-29 -32 -41.5 -44.5t-29.5 -22.5t-35 -10q-21 0 -63 25q-35 24 -60 24q-22 0 -39 -11.5t-43 -37.5l-14 14q29 32 41.5 44.5t29.5 22.5t35 10q21 0 63 -25q35 -24 60 -24q22 0 39 11.5
t43 37.5z" />
    <glyph glyph-name="utilde" unicode="&#x169;" horiz-adv-x="544" 
d="M521 0l-139 -10v90q-16 -38 -45 -61q-34 -29 -83 -29q-81 0 -116 38q-20 23 -25 49.5t-5 81.5v150q0 68 -10 80t-66 12v29l141 11v-331q0 -24 2.5 -38.5t10.5 -30.5t26.5 -23.5t47.5 -7.5q55 0 87.5 45t32.5 111v179q0 37 -12.5 46.5t-63.5 9.5v29l141 11v-356
q0 -37 12.5 -46.5t63.5 -9.5v-29zM434 636q-29 -32 -41.5 -44.5t-29.5 -22.5t-35 -10q-21 0 -63 25q-35 24 -60 24q-22 0 -39 -11.5t-43 -37.5l-14 14q29 32 41.5 44.5t29.5 22.5t35 10q21 0 63 -25q35 -24 60 -24q22 0 39 11.5t43 37.5z" />
    <glyph glyph-name="Umacron" unicode="&#x16a;" horiz-adv-x="734" 
d="M692 654q-95 0 -95 -61v-378q0 -84 -60.5 -160t-157.5 -76q-98 0 -170.5 72t-72.5 178v378q0 30 -12 38.5t-63 8.5h-20v29q24 -2 136 -2q111 0 135 2v-29h-20q-51 0 -63 -8.5t-12 -38.5v-384q0 -62 16.5 -107t43.5 -67t52.5 -31.5t51.5 -9.5q75 0 132 61t57 161v350
q0 15 -2 24t-9.5 22.5t-29 20.5t-54.5 7v29q26 -2 109 -2q82 0 108 2v-29zM565 754h-353v29h353v-29z" />
    <glyph glyph-name="umacron" unicode="&#x16b;" horiz-adv-x="544" 
d="M521 0l-139 -10v90q-16 -38 -45 -61q-34 -29 -83 -29q-81 0 -116 38q-20 23 -25 49.5t-5 81.5v150q0 68 -10 80t-66 12v29l141 11v-331q0 -24 2.5 -38.5t10.5 -30.5t26.5 -23.5t47.5 -7.5q55 0 87.5 45t32.5 111v179q0 37 -12.5 46.5t-63.5 9.5v29l141 11v-356
q0 -37 12.5 -46.5t63.5 -9.5v-29zM448 590h-353v29h353v-29z" />
    <glyph glyph-name="Ubreve" unicode="&#x16c;" horiz-adv-x="734" 
d="M692 654q-95 0 -95 -61v-378q0 -84 -60.5 -160t-157.5 -76q-98 0 -170.5 72t-72.5 178v378q0 30 -12 38.5t-63 8.5h-20v29q24 -2 136 -2q111 0 135 2v-29h-20q-51 0 -63 -8.5t-12 -38.5v-384q0 -62 16.5 -107t43.5 -67t52.5 -31.5t51.5 -9.5q75 0 132 61t57 161v350
q0 15 -2 24t-9.5 22.5t-29 20.5t-54.5 7v29q26 -2 109 -2q82 0 108 2v-29zM534 916q-1 -75 -43 -123.5t-103 -48.5q-58 0 -101 48t-44 124h20q1 -61 38.5 -99t87.5 -38q48 0 86 37.5t39 99.5h20z" />
    <glyph glyph-name="ubreve" unicode="&#x16d;" horiz-adv-x="544" 
d="M521 0l-139 -10v90q-16 -38 -45 -61q-34 -29 -83 -29q-81 0 -116 38q-20 23 -25 49.5t-5 81.5v150q0 68 -10 80t-66 12v29l141 11v-331q0 -24 2.5 -38.5t10.5 -30.5t26.5 -23.5t47.5 -7.5q55 0 87.5 45t32.5 111v179q0 37 -12.5 46.5t-63.5 9.5v29l141 11v-356
q0 -37 12.5 -46.5t63.5 -9.5v-29zM417 690q-1 -75 -43 -123.5t-103 -48.5q-58 0 -101 48t-44 124h20q1 -61 38.5 -99t87.5 -38q48 0 86 37.5t39 99.5h20z" />
    <glyph glyph-name="Uring" unicode="&#x16e;" horiz-adv-x="734" 
d="M692 654q-95 0 -95 -61v-378q0 -84 -60.5 -160t-157.5 -76q-98 0 -170.5 72t-72.5 178v378q0 30 -12 38.5t-63 8.5h-20v29q24 -2 136 -2q111 0 135 2v-29h-20q-51 0 -63 -8.5t-12 -38.5v-384q0 -62 16.5 -107t43.5 -67t52.5 -31.5t51.5 -9.5q75 0 132 61t57 161v350
q0 15 -2 24t-9.5 22.5t-29 20.5t-54.5 7v29q26 -2 109 -2q82 0 108 2v-29zM452 802q0 60 -63 60t-63 -60t63 -60t63 60zM482 801q0 -35 -27 -61t-67 -26q-37 0 -64.5 25.5t-27.5 63.5q0 35 27 61t67 26q37 0 64.5 -25.5t27.5 -63.5z" />
    <glyph glyph-name="uring" unicode="&#x16f;" horiz-adv-x="544" 
d="M521 0l-139 -10v90q-16 -38 -45 -61q-34 -29 -83 -29q-81 0 -116 38q-20 23 -25 49.5t-5 81.5v150q0 68 -10 80t-66 12v29l141 11v-331q0 -24 2.5 -38.5t10.5 -30.5t26.5 -23.5t47.5 -7.5q55 0 87.5 45t32.5 111v179q0 37 -12.5 46.5t-63.5 9.5v29l141 11v-356
q0 -37 12.5 -46.5t63.5 -9.5v-29zM335 615q0 60 -63 60t-63 -60t63 -60t63 60zM365 614q0 -35 -27 -61t-67 -26q-37 0 -64.5 25.5t-27.5 63.5q0 35 27 61t67 26q37 0 64.5 -25.5t27.5 -63.5z" />
    <glyph glyph-name="Uhungarumlaut" unicode="&#x170;" horiz-adv-x="734" 
d="M692 654q-95 0 -95 -61v-378q0 -84 -60.5 -160t-157.5 -76q-98 0 -170.5 72t-72.5 178v378q0 30 -12 38.5t-63 8.5h-20v29q24 -2 136 -2q111 0 135 2v-29h-20q-51 0 -63 -8.5t-12 -38.5v-384q0 -62 16.5 -107t43.5 -67t52.5 -31.5t51.5 -9.5q75 0 132 61t57 161v350
q0 15 -2 24t-9.5 22.5t-29 20.5t-54.5 7v29q26 -2 109 -2q82 0 108 2v-29zM391 896q0 -11 -11 -26l-91 -126q-4 2 -18 10l54 147q10 28 31 28q12 0 23.5 -9t11.5 -24zM554 896q0 -11 -11 -26l-91 -126q-4 2 -18 10l54 147q10 28 31 28q12 0 23.5 -9t11.5 -24z" />
    <glyph glyph-name="uhungarumlaut" unicode="&#x171;" horiz-adv-x="544" 
d="M521 0l-139 -10v90q-16 -38 -45 -61q-34 -29 -83 -29q-81 0 -116 38q-20 23 -25 49.5t-5 81.5v150q0 68 -10 80t-66 12v29l141 11v-331q0 -24 2.5 -38.5t10.5 -30.5t26.5 -23.5t47.5 -7.5q55 0 87.5 45t32.5 111v179q0 37 -12.5 46.5t-63.5 9.5v29l141 11v-356
q0 -37 12.5 -46.5t63.5 -9.5v-29zM274 664q0 -11 -11 -26l-91 -126q-4 2 -18 10l54 147q10 28 31 28q12 0 23.5 -9t11.5 -24zM437 664q0 -11 -11 -26l-91 -126q-4 2 -18 10l54 147q10 28 31 28q12 0 23.5 -9t11.5 -24z" />
    <glyph glyph-name="Uogonek" unicode="&#x172;" horiz-adv-x="734" 
d="M692 654q-95 0 -95 -61v-378q0 -84 -60.5 -160t-157.5 -76h-11q-11 -9 -20 -20q-23 -27 -23 -51q0 -30 26.5 -48t56.5 -18q48 0 73 53q4 8 11 5t5 -11q-11 -40 -43 -65.5t-69 -25.5q-44 0 -74.5 25.5t-30.5 59.5q0 48 53 101q-84 17 -140.5 84.5t-56.5 160.5v378
q0 30 -12 38.5t-63 8.5h-20v29q24 -2 136 -2q111 0 135 2v-29h-20q-51 0 -63 -8.5t-12 -38.5v-384q0 -62 16.5 -107t43.5 -67t52.5 -31.5t51.5 -9.5q75 0 132 61t57 161v350q0 15 -2 24t-9.5 22.5t-29 20.5t-54.5 7v29q26 -2 109 -2q82 0 108 2v-29z" />
    <glyph glyph-name="uogonek" unicode="&#x173;" horiz-adv-x="544" 
d="M541 -111q-11 -40 -43 -65.5t-69 -25.5q-44 0 -74.5 25.5t-30.5 59.5q0 53 59 107h-1v90q-16 -38 -45 -61q-34 -29 -83 -29q-81 0 -116 38q-20 23 -25 49.5t-5 81.5v150q0 68 -10 80t-66 12v29l141 11v-331q0 -24 2.5 -38.5t10.5 -30.5t26.5 -23.5t47.5 -7.5
q55 0 87.5 45t32.5 111v179q0 37 -12.5 46.5t-63.5 9.5v29l141 11v-356q0 -37 12.5 -46.5t63.5 -9.5v-29l-90 -6q-20 -13 -40 -35q-22 -25 -22 -51q0 -30 26.5 -48t56.5 -18q48 0 73 53q4 8 11 5t5 -11z" />
    <glyph glyph-name="Wcircumflex" unicode="&#x174;" horiz-adv-x="1006" 
d="M988 654q-72 -1 -95 -69l-188 -587q-6 -19 -18 -19t-18 18l-167 519l-166 -519q-6 -18 -18 -18t-18 19l-198 618q-8 27 -24 32.5t-61 5.5v29q26 -2 116 -2q104 0 127 2v-29q-77 0 -77 -30q0 -5 5 -19l160 -498l143 446q-5 14 -10.5 32.5t-9.5 30t-7 17.5q-8 13 -23 17
t-55 4v29q26 -2 116 -2q103 0 127 2v-29q-77 0 -77 -30q0 -5 3 -14l162 -503l152 474q5 17 5 20q0 19 -19 35.5t-60 17.5v29q24 -2 104 -2q46 0 89 2v-29zM654 750l-12 -16l-140 66l-140 -66l-10 16l151 117z" />
    <glyph glyph-name="wcircumflex" unicode="&#x175;" horiz-adv-x="707" 
d="M688 402q-61 -4 -83 -66l-115 -328q-7 -18 -18 -18q-13 0 -19 19l-100 285l-100 -285q-6 -19 -19 -19q-11 0 -18 18l-126 358q-8 24 -20.5 30t-51.5 6v29l93 -2q77 0 102 2v-29q-58 0 -58 -27q0 -6 5 -19l96 -272l85 244q-18 52 -24 59q-13 15 -62 15v29l90 -2q70 0 98 2
v-29q-58 0 -58 -28q0 -5 5 -17l100 -283l92 262l4 18q0 18 -13.5 32.5t-43.5 15.5v29l85 -2q49 0 74 2v-29zM506 530l-13 -14l-139 108l-139 -108l-13 14l152 162z" />
    <glyph glyph-name="Ycircumflex" unicode="&#x176;" horiz-adv-x="734" 
d="M723 654q-82 0 -122 -65l-195 -315v-200q0 -28 11.5 -36.5t63.5 -8.5h20v-29q-24 2 -135 2t-134 -2v29h20q51 0 63 8.5t12 38.5v197l-211 342q-16 26 -34 32.5t-72 6.5v29q24 -2 123 -2q109 0 132 2v-29q-62 0 -62 -24q0 -6 8 -19l186 -301l169 275q12 19 12 32
q0 18 -14 27.5t-36 9.5v29q25 -2 102 -2l93 2v-29zM518 750l-12 -16l-140 66l-140 -66l-10 16l151 117z" />
    <glyph glyph-name="ycircumflex" unicode="&#x177;" horiz-adv-x="517" 
d="M498 402q-66 0 -93 -68l-173 -426q-46 -112 -123 -112q-39 0 -64.5 22.5t-25.5 52.5q0 20 11.5 29.5t26.5 9.5t26 -10t11 -27q0 -16 -9 -25.5t-17 -11.5l-9 -2q19 -18 50 -18q50 0 89 68q1 2 1.5 3.5t2 4.5t3 7.5t5.5 13t8 19.5t11.5 29t16.5 39l-149 366q-10 24 -23 30
t-56 6v29l97 -2q77 0 103 2v-29q-55 0 -55 -26q0 -7 6 -21l111 -272l102 252q6 15 6 24q0 41 -46 43v29l81 -2q46 0 75 2v-29zM411 530l-13 -14l-139 108l-139 -108l-13 14l152 162z" />
    <glyph glyph-name="Ydieresis" unicode="&#x178;" horiz-adv-x="734" 
d="M723 654q-82 0 -122 -65l-195 -315v-200q0 -28 11.5 -36.5t63.5 -8.5h20v-29q-24 2 -135 2t-134 -2v29h20q51 0 63 8.5t12 38.5v197l-211 342q-16 26 -34 32.5t-72 6.5v29q24 -2 123 -2q109 0 132 2v-29q-62 0 -62 -24q0 -6 8 -19l186 -301l169 275q12 19 12 32
q0 18 -14 27.5t-36 9.5v29q25 -2 102 -2l93 2v-29zM317 777q0 -17 -12.5 -30t-31.5 -13q-17 0 -30 13t-13 30q0 18 12.5 31t31.5 13q17 0 30 -12.5t13 -31.5zM505 777q0 -17 -12.5 -30t-31.5 -13q-17 0 -30 13t-13 30q0 18 12.5 31t31.5 13q17 0 30 -12.5t13 -31.5z" />
    <glyph glyph-name="Zacute" unicode="&#x179;" horiz-adv-x="598" 
d="M548 264l-16 -264h-454q-17 0 -20.5 3.5t-3.5 20.5l396 630h-160q-112 0 -153 -48.5t-47 -145.5h-22l11 223h440q15 0 19.5 -2t4.5 -12q0 -8 -8 -21l-388 -617h169q66 0 108 15.5t63 49.5t28.5 70.5t10.5 97.5h22zM433 866q-3 -16 -21 -26l-168 -96q-5 6 -13 18l143 129
q14 14 24 14q16 0 26.5 -11.5t8.5 -27.5z" />
    <glyph glyph-name="zacute" unicode="&#x17a;" horiz-adv-x="435" 
d="M393 184l-16 -184h-326q-17 0 -20.5 2.5t-3.5 15.5l286 393h-116q-78 0 -103.5 -29t-30.5 -110h-22l11 159h314q14 0 19 -1.5t5 -9.5q0 -6 -9 -17l-276 -381h121q84 0 111 34.5t34 127.5h22zM338 664q0 -16 -16 -29l-149 -124q-9 7 -16 16l119 152q13 18 28 18
q13 0 23.5 -10t10.5 -23z" />
    <glyph glyph-name="Zdotaccent" unicode="&#x17b;" horiz-adv-x="598" 
d="M548 264l-16 -264h-454q-17 0 -20.5 3.5t-3.5 20.5l396 630h-160q-112 0 -153 -48.5t-47 -145.5h-22l11 223h440q15 0 19.5 -2t4.5 -12q0 -8 -8 -21l-388 -617h169q66 0 108 15.5t63 49.5t28.5 70.5t10.5 97.5h22zM348 803q0 -19 -13.5 -33.5t-35.5 -14.5
q-19 0 -33.5 14.5t-14.5 33.5q0 20 14 34.5t35 14.5q19 0 33.5 -13.5t14.5 -35.5z" />
    <glyph glyph-name="zdotaccent" unicode="&#x17c;" horiz-adv-x="435" 
d="M393 184l-16 -184h-326q-17 0 -20.5 2.5t-3.5 15.5l286 393h-116q-78 0 -103.5 -29t-30.5 -110h-22l11 159h314q14 0 19 -1.5t5 -9.5q0 -6 -9 -17l-276 -381h121q84 0 111 34.5t34 127.5h22zM267 604q0 -19 -13.5 -33.5t-35.5 -14.5q-20 0 -34 14t-14 34t14 34.5t35 14.5
q19 0 33.5 -13.5t14.5 -35.5z" />
    <glyph glyph-name="Zcaron" unicode="&#x17d;" horiz-adv-x="598" 
d="M548 264l-16 -264h-454q-17 0 -20.5 3.5t-3.5 20.5l396 630h-160q-112 0 -153 -48.5t-47 -145.5h-22l11 223h440q15 0 19.5 -2t4.5 -12q0 -8 -8 -21l-388 -617h169q66 0 108 15.5t63 49.5t28.5 70.5t10.5 97.5h22zM450 851l-151 -117l-151 117l12 16l140 -66l140 66z" />
    <glyph glyph-name="zcaron" unicode="&#x17e;" horiz-adv-x="435" 
d="M393 184l-16 -184h-326q-17 0 -20.5 2.5t-3.5 15.5l286 393h-116q-78 0 -103.5 -29t-30.5 -110h-22l11 159h314q14 0 19 -1.5t5 -9.5q0 -6 -9 -17l-276 -381h121q84 0 111 34.5t34 127.5h22zM370 678l-152 -162l-152 162l13 14l139 -108l139 108z" />
    <glyph glyph-name="longs" unicode="&#x17f;" horiz-adv-x="299" 
d="M342 638q0 -18 -11 -29t-29 -11q-17 0 -28 11t-11 28q0 13 7.5 22.5t14.5 12.5l7 4l-35 8q-34 0 -59.5 -36.5t-25.5 -99.5v-472q0 -29 11.5 -38t63.5 -9h20v-29q-23 2 -121 2q-85 0 -113 -2v29q51 0 63.5 6.5t12.5 38.5v328h-78v29h78v117q0 72 45.5 114t103.5 42
q36 0 60 -19t24 -47z" />
    <glyph glyph-name="Ereversed" unicode="&#x18e;" horiz-adv-x="666" 
d="M638 0h-557l-40 256h22q8 -53 15.5 -84t22.5 -62.5t37 -46.5t57 -24.5t85 -9.5h136q32 0 39 7t7 33v270h-91q-69 0 -88 -24t-19 -93h-22v263h22q0 -69 19 -93t88 -24h91v244q0 26 -7 33t-39 7h-133q-107 0 -144 -40.5t-49 -153.5h-22l26 223h544v-29h-20q-51 0 -63 -8.5
t-12 -38.5v-529q0 -30 12 -38.5t63 -8.5h20v-29z" />
    <glyph glyph-name="florin" unicode="&#x192;" horiz-adv-x="299" 
d="M342 638q0 -18 -11 -29t-29 -11q-17 0 -28 11t-11 28q0 13 7 22.5t12.5 12.5t9.5 4q-16 8 -35 8q-34 0 -60.5 -36.5t-26.5 -99.5v-117h115v-29h-113v-326q0 -29 11.5 -38t63.5 -9h20v-29q-23 2 -121 2q-85 0 -113 -2v29q51 0 63.5 6.5t12.5 38.5v328h-78v29h78v117
q0 72 45.5 114t103.5 42q36 0 60 -19t24 -47z" />
    <glyph glyph-name="Ohorn" unicode="&#x1a0;" horiz-adv-x="761" 
d="M705 339q0 -150 -95 -254q-95 -106 -230 -106t-230 106q-96 105 -96 254q0 150 96 258q96 107 230 107q95 0 178 -59q35 8 51 40q-8 -2 -13 -2q-23 0 -36 14.5t-13 34.5t13 34t36 14q21 0 34.5 -17t13.5 -40q0 -34 -18 -61t-47 -34q16 -15 31 -31q95 -107 95 -258z
M613 355q0 144 -63 232q-68 95 -170 95t-170 -95q-63 -88 -63 -232q0 -156 63 -251q30 -46 74.5 -74t95.5 -28t95 28t75 74q63 95 63 251z" />
    <glyph glyph-name="ohorn" unicode="&#x1a1;" horiz-adv-x="489" 
d="M469 470q0 -35 -20 -62.5t-50 -33.5q59 -68 59 -161t-63 -158q-62 -65 -151 -65t-152 65q-62 65 -62 158q0 97 62 165q65 68 152 68q78 0 137 -54q35 8 53 40q-8 -2 -14 -2q-23 0 -35.5 14.5t-12.5 34.5t12.5 34.5t35.5 14.5q21 0 35 -17t14 -41zM382 224q0 99 -32 145
q-39 57 -106 57q-68 0 -107 -57q-31 -47 -31 -145q0 -106 31 -153q38 -59 107 -59t106 59q32 47 32 153z" />
    <glyph glyph-name="Uhorn" unicode="&#x1af;" horiz-adv-x="734" 
d="M702 722q0 -42 -31 -71.5t-75 -34.5v-388q0 -104 -63 -176q-63 -73 -153 -73q-100 0 -173 73q-71 73 -71 176v390q0 24 -16 30t-79 6v29l135 -2l135 2v-29q-63 0 -79 -6q-15 -5 -15 -30v-390q0 -104 41 -158q46 -62 122 -62q80 0 135 63q55 64 55 157v363q0 32 -24 47
q-23 16 -71 16v29l108 -2q5 0 13 2v-45q53 6 75 48q-7 -3 -18 -3q-23 0 -35.5 14.5t-12.5 34.5t12.5 34t35.5 14q21 0 35 -17.5t14 -40.5z" />
    <glyph glyph-name="uhorn" unicode="&#x1b0;" horiz-adv-x="544" 
d="M551 468q0 -40 -30.5 -67.5t-76.5 -35.5v-281q0 -37 12 -46q13 -9 64 -9v-29l-139 -10v92q-17 -42 -49 -67t-73 -25q-78 0 -114 31q-37 32 -37 100v224q0 37 -13 47q-13 9 -63 9v29l141 11v-320q0 -68 15 -86q21 -26 74 -26q50 0 83.5 44.5t33.5 107.5v184q0 37 -13 47
q-13 9 -63 9v29l141 11v-50q49 10 70 41q-8 -2 -12 -2q-23 0 -35.5 14.5t-12.5 34.5t12.5 34.5t35.5 14.5q21 0 35 -18t14 -42z" />
    <glyph glyph-name="Acaron" unicode="&#x1cd;" horiz-adv-x="734" 
d="M702 0q-23 2 -123 2q-107 0 -130 -2v29q76 0 76 30q0 5 -5 17l-55 157h-252l-46 -133q-5 -13 -5 -21q0 -21 18 -35t49 -15v-29q-26 2 -102 2l-96 -2v29q83 1 106 68l209 598q4 12 7.5 15.5t13.5 3.5t13.5 -3.5t6.5 -14.5l218 -626q10 -29 27 -35t70 -6v-29zM455 262
l-116 333l-116 -333h232zM518 851l-151 -117l-151 117l12 16l140 -66l140 66z" />
    <glyph glyph-name="acaron" unicode="&#x1ce;" 
d="M474 89q0 -52 -26.5 -73t-52.5 -21q-32 0 -53.5 23.5t-24.5 59.5q-15 -38 -49 -63t-81 -25q-57 0 -105 25.5t-48 78.5q0 65 68.5 113.5t208.5 50.5v40q0 62 -32.5 95t-72.5 33q-33 0 -64 -15t-47 -45q51 0 51 -41q0 -18 -11.5 -29.5t-29.5 -11.5t-30 11t-12 32
q0 49 42 84t103 35q74 0 124 -46q21 -18 31 -41.5t11.5 -40.5t1.5 -51v-175q0 -68 38 -68t38 65v56h22v-56zM311 141v99q-15 -1 -28.5 -2.5t-40.5 -6.5t-48 -15.5t-43 -25.5t-34 -40t-12 -56q0 -36 26.5 -60t63.5 -24q41 0 78.5 32.5t37.5 98.5zM397 678l-152 -162l-152 162
l13 14l139 -108l139 108z" />
    <glyph glyph-name="Icaron" unicode="&#x1cf;" horiz-adv-x="353" 
d="M317 0q-24 2 -141 2q-116 0 -140 -2v29h22q53 0 65.5 8.5t12.5 38.5v531q0 30 -12.5 38.5t-65.5 8.5h-22v29q24 -2 141 -2q116 0 140 2v-29h-22q-53 0 -65.5 -8.5t-12.5 -38.5v-531q0 -30 12.5 -38.5t65.5 -8.5h22v-29zM328 851l-151 -117l-151 117l12 16l140 -66l140 66
z" />
    <glyph glyph-name="icaron" unicode="&#x1d0;" horiz-adv-x="272" 
d="M241 0q-34 2 -103 2q-77 0 -105 -2v29q51 0 63.5 6.5t12.5 38.5v272q0 37 -12.5 46t-60.5 9v29l136 11v-368q0 -30 10.5 -37t58.5 -7v-29zM288 678l-152 -162l-152 162l13 14l139 -108l139 108z" />
    <glyph glyph-name="Ocaron" unicode="&#x1d1;" horiz-adv-x="762" 
d="M707 339q0 -150 -96 -255t-231 -105q-133 0 -229.5 104.5t-96.5 255.5q0 153 96.5 259t230.5 106q132 0 229 -106t97 -259zM614 354q0 86 -22 152.5t-58 103t-75 54.5t-79 18q-30 0 -60.5 -10t-62 -35t-55.5 -61.5t-39.5 -94t-15.5 -127.5q0 -74 14.5 -134.5t38.5 -100
t55 -67t62.5 -39t63.5 -11.5q39 0 78 19.5t74.5 58.5t58 110t22.5 164zM532 851l-151 -117l-151 117l12 16l140 -66l140 66z" />
    <glyph glyph-name="ocaron" unicode="&#x1d2;" 
d="M459 214q0 -94 -63 -159t-152 -65q-87 0 -150.5 64.5t-63.5 159.5t63 163.5t152 68.5q88 0 151 -68t63 -164zM383 223q0 100 -31 146q-39 57 -108 57t-107 -59q-31 -45 -31 -144t28 -146q38 -65 111 -65t112 67q26 47 26 144zM397 678l-152 -162l-152 162l13 14l139 -108
l139 108z" />
    <glyph glyph-name="Ucaron" unicode="&#x1d3;" horiz-adv-x="734" 
d="M692 654q-95 0 -95 -61v-378q0 -84 -60.5 -160t-157.5 -76q-98 0 -170.5 72t-72.5 178v378q0 30 -12 38.5t-63 8.5h-20v29q24 -2 136 -2q111 0 135 2v-29h-20q-51 0 -63 -8.5t-12 -38.5v-384q0 -62 16.5 -107t43.5 -67t52.5 -31.5t51.5 -9.5q75 0 132 61t57 161v350
q0 15 -2 24t-9.5 22.5t-29 20.5t-54.5 7v29q26 -2 109 -2q82 0 108 2v-29zM540 851l-151 -117l-151 117l12 16l140 -66l140 66z" />
    <glyph glyph-name="ucaron" unicode="&#x1d4;" horiz-adv-x="544" 
d="M521 0l-139 -10v90q-16 -38 -45 -61q-34 -29 -83 -29q-81 0 -116 38q-20 23 -25 49.5t-5 81.5v150q0 68 -10 80t-66 12v29l141 11v-331q0 -24 2.5 -38.5t10.5 -30.5t26.5 -23.5t47.5 -7.5q55 0 87.5 45t32.5 111v179q0 37 -12.5 46.5t-63.5 9.5v29l141 11v-356
q0 -37 12.5 -46.5t63.5 -9.5v-29zM424 678l-152 -162l-152 162l13 14l139 -108l139 108z" />
    <glyph glyph-name="Udieresisacute" unicode="&#x1d7;" horiz-adv-x="734" 
d="M692 654q-95 0 -95 -61v-378q0 -84 -60.5 -160t-157.5 -76q-98 0 -170.5 72t-72.5 178v378q0 30 -12 38.5t-63 8.5h-20v29q24 -2 136 -2q111 0 135 2v-29h-20q-51 0 -63 -8.5t-12 -38.5v-384q0 -62 16.5 -107t43.5 -67t52.5 -31.5t51.5 -9.5q75 0 132 61t57 161v350
q0 15 -2 24t-9.5 22.5t-29 20.5t-54.5 7v29q26 -2 109 -2q82 0 108 2v-29zM339 777q0 -17 -12.5 -30t-31.5 -13q-17 0 -30 13t-13 30q0 18 12.5 31t31.5 13q17 0 30 -12.5t13 -31.5zM527 777q0 -17 -12.5 -30t-31.5 -13q-17 0 -30 13t-13 30q0 18 12.5 31t31.5 13
q17 0 30 -12.5t13 -31.5zM523 1003q-3 -16 -21 -26l-168 -96q-5 6 -13 18l143 129q14 14 24 14q16 0 26.5 -11.5t8.5 -27.5z" />
    <glyph glyph-name="udieresisacute" unicode="&#x1d8;" horiz-adv-x="544" 
d="M521 0l-139 -10v90q-16 -38 -45 -61q-34 -29 -83 -29q-81 0 -116 38q-20 23 -25 49.5t-5 81.5v150q0 68 -10 80t-66 12v29l141 11v-331q0 -24 2.5 -38.5t10.5 -30.5t26.5 -23.5t47.5 -7.5q55 0 87.5 45t32.5 111v179q0 37 -12.5 46.5t-63.5 9.5v29l141 11v-356
q0 -37 12.5 -46.5t63.5 -9.5v-29zM236 604q0 -17 -12.5 -30t-31.5 -13q-17 0 -30 13t-13 30q0 18 12.5 31t31.5 13q17 0 30 -12.5t13 -31.5zM396 604q0 -17 -12.5 -30t-31.5 -13q-17 0 -30 13t-13 30q0 18 12.5 31t31.5 13q17 0 30 -12.5t13 -31.5zM406 827q-3 -16 -21 -26
l-168 -96q-5 6 -13 18l143 129q14 14 24 14q16 0 26.5 -11.5t8.5 -27.5z" />
    <glyph glyph-name="Udieresiscaron" unicode="&#x1d9;" horiz-adv-x="734" 
d="M692 654q-95 0 -95 -61v-378q0 -84 -60.5 -160t-157.5 -76q-98 0 -170.5 72t-72.5 178v378q0 30 -12 38.5t-63 8.5h-20v29q24 -2 136 -2q111 0 135 2v-29h-20q-51 0 -63 -8.5t-12 -38.5v-384q0 -62 16.5 -107t43.5 -67t52.5 -31.5t51.5 -9.5q75 0 132 61t57 161v350
q0 15 -2 24t-9.5 22.5t-29 20.5t-54.5 7v29q26 -2 109 -2q82 0 108 2v-29zM339 777q0 -17 -12.5 -30t-31.5 -13q-17 0 -30 13t-13 30q0 18 12.5 31t31.5 13q17 0 30 -12.5t13 -31.5zM527 777q0 -17 -12.5 -30t-31.5 -13q-17 0 -30 13t-13 30q0 18 12.5 31t31.5 13
q17 0 30 -12.5t13 -31.5zM540 988l-151 -117l-151 117l12 16l140 -66l140 66z" />
    <glyph glyph-name="udieresiscaron" unicode="&#x1da;" horiz-adv-x="544" 
d="M521 0l-139 -10v90q-16 -38 -45 -61q-34 -29 -83 -29q-81 0 -116 38q-20 23 -25 49.5t-5 81.5v150q0 68 -10 80t-66 12v29l141 11v-331q0 -24 2.5 -38.5t10.5 -30.5t26.5 -23.5t47.5 -7.5q55 0 87.5 45t32.5 111v179q0 37 -12.5 46.5t-63.5 9.5v29l141 11v-356
q0 -37 12.5 -46.5t63.5 -9.5v-29zM236 604q0 -17 -12.5 -30t-31.5 -13q-17 0 -30 13t-13 30q0 18 12.5 31t31.5 13q17 0 30 -12.5t13 -31.5zM396 604q0 -17 -12.5 -30t-31.5 -13q-17 0 -30 13t-13 30q0 18 12.5 31t31.5 13q17 0 30 -12.5t13 -31.5zM423 812l-151 -117
l-151 117l12 16l140 -66l140 66z" />
    <glyph glyph-name="Udieresisgrave" unicode="&#x1db;" horiz-adv-x="734" 
d="M692 654q-95 0 -95 -61v-378q0 -84 -60.5 -160t-157.5 -76q-98 0 -170.5 72t-72.5 178v378q0 30 -12 38.5t-63 8.5h-20v29q24 -2 136 -2q111 0 135 2v-29h-20q-51 0 -63 -8.5t-12 -38.5v-384q0 -62 16.5 -107t43.5 -67t52.5 -31.5t51.5 -9.5q75 0 132 61t57 161v350
q0 15 -2 24t-9.5 22.5t-29 20.5t-54.5 7v29q26 -2 109 -2q82 0 108 2v-29zM339 777q0 -17 -12.5 -30t-31.5 -13q-17 0 -30 13t-13 30q0 18 12.5 31t31.5 13q17 0 30 -12.5t13 -31.5zM527 777q0 -17 -12.5 -30t-31.5 -13q-17 0 -30 13t-13 30q0 18 12.5 31t31.5 13
q17 0 30 -12.5t13 -31.5zM457 899q-8 -12 -13 -18l-168 96q-18 10 -21 26q-2 16 8.5 27.5t25.5 11.5q9 0 25 -14z" />
    <glyph glyph-name="udieresisgrave" unicode="&#x1dc;" horiz-adv-x="544" 
d="M521 0l-139 -10v90q-16 -38 -45 -61q-34 -29 -83 -29q-81 0 -116 38q-20 23 -25 49.5t-5 81.5v150q0 68 -10 80t-66 12v29l141 11v-331q0 -24 2.5 -38.5t10.5 -30.5t26.5 -23.5t47.5 -7.5q55 0 87.5 45t32.5 111v179q0 37 -12.5 46.5t-63.5 9.5v29l141 11v-356
q0 -37 12.5 -46.5t63.5 -9.5v-29zM236 604q0 -17 -12.5 -30t-31.5 -13q-17 0 -30 13t-13 30q0 18 12.5 31t31.5 13q17 0 30 -12.5t13 -31.5zM396 604q0 -17 -12.5 -30t-31.5 -13q-17 0 -30 13t-13 30q0 18 12.5 31t31.5 13q17 0 30 -12.5t13 -31.5zM340 723q-8 -12 -13 -18
l-168 96q-18 10 -21 26q-2 16 8.5 27.5t25.5 11.5q9 0 25 -14z" />
    <glyph glyph-name="eturned" unicode="&#x1dd;" horiz-adv-x="435" 
d="M407 217q0 -94 -58.5 -160.5t-143.5 -66.5q-86 0 -130.5 56.5t-44.5 138.5q0 14 3.5 16.5t20.5 2.5h277v19q0 61 -16 104t-40.5 62t-45.5 27t-41 8q-39 0 -78 -25t-57 -82q-4 -10 -12 -10q-11 0 -11 10t9.5 29.5t27.5 42.5t52 40t75 17q85 0 149 -66t64 -163zM330 185
h-238q1 -23 4 -43.5t13 -55t35 -55.5t62 -21q14 0 30.5 6t38.5 22t37 54t18 93z" />
    <glyph glyph-name="Gcaron" unicode="&#x1e6;" horiz-adv-x="768" 
d="M719 242q-47 0 -57.5 -7t-10.5 -37v-175q0 -22 -8 -22q-7 0 -26.5 21t-32.5 44q-26 -45 -78 -66t-111 -21q-139 0 -240 105t-101 258q0 152 101 257t239 105q112 0 185 -91l49 79q7 12 13 12q7 0 8.5 -4t1.5 -19v-237q0 -16 -2 -19.5t-12 -3.5q-5 0 -7 0.5t-3.5 2.5t-2 4
t-1.5 7q-12 84 -48.5 140t-79 78t-89.5 22q-26 0 -54.5 -6.5t-66.5 -28t-67.5 -56t-50 -97.5t-20.5 -145q0 -81 20.5 -144t50 -97.5t68 -56.5t69 -29t58.5 -7q16 0 36.5 3.5t50.5 14t50 37.5t20 67v64q0 30 -14.5 39t-76.5 9h-31v29q27 -2 146 -2q99 0 125 2v-29zM535 851
l-151 -117l-151 117l12 16l140 -66l140 66z" />
    <glyph glyph-name="gcaron" unicode="&#x1e7;" 
d="M475 406q0 -14 -8.5 -20.5t-17.5 -6.5q-12 0 -19 7.5t-7 18.5q0 19 15 25q-4 2 -13 2q-52 0 -91 -40q40 -40 40 -97q0 -59 -45.5 -102t-111.5 -43q-51 0 -98 31q-16 -22 -16 -48q0 -31 19 -50q13 -14 26 -16.5t60 -2.5q53 0 77.5 -1t55 -7t54.5 -18q67 -35 67 -115
q0 -55 -63.5 -91.5t-154.5 -36.5q-92 0 -154.5 37t-62.5 89q0 37 27 63.5t65 37.5q-43 27 -43 88q0 46 30 83q-45 41 -45 103q0 59 45.5 102t111.5 43q56 0 103 -36q44 47 105 47q24 0 36.5 -15t12.5 -31zM305 296q0 124 -88 124q-44 0 -70 -39q-17 -27 -17 -86
q0 -124 88 -124q44 0 70 39q17 27 17 86zM413 -78q0 25 -13.5 42.5t-30.5 26t-48.5 13t-50.5 5t-53 0.5q-55 0 -70 -2t-31 -12q-40 -27 -40 -73q0 -43 49 -74.5t120 -31.5q69 0 118.5 31t49.5 75zM363 678l-152 -162l-152 162l13 14l139 -108l139 108z" />
    <glyph glyph-name="Oogonek" unicode="&#x1ea;" horiz-adv-x="762" 
d="M707 339q0 -149 -95 -253.5t-229 -106.5q-11 -9 -20 -20q-23 -25 -23 -51q0 -30 27 -48t56 -18q48 0 73 53q4 8 11 5t5 -11q-11 -40 -43 -65.5t-69 -25.5q-44 0 -74.5 25.5t-30.5 59.5q0 48 50 98q-122 15 -206.5 116.5t-84.5 241.5q0 153 96.5 259t230.5 106
q132 0 229 -106t97 -259zM614 354q0 86 -22 152.5t-58 103t-75 54.5t-79 18q-30 0 -60.5 -10t-62 -35t-55.5 -61.5t-39.5 -94t-15.5 -127.5q0 -74 14.5 -134.5t38.5 -100t55 -67t62.5 -39t63.5 -11.5q39 0 78 19.5t74.5 58.5t58 110t22.5 164z" />
    <glyph glyph-name="oogonek" unicode="&#x1eb;" 
d="M459 214q0 -93 -61.5 -157.5t-149.5 -66.5q-18 -12 -35 -31q-22 -25 -22 -51q0 -30 26.5 -48t56.5 -18q48 0 73 53q4 8 11 5t5 -11q-11 -40 -43 -65.5t-69 -25.5q-44 0 -74.5 25.5t-30.5 59.5q0 53 62 110q-75 14 -126.5 75.5t-51.5 145.5q0 95 63 163.5t152 68.5
q88 0 151 -68t63 -164zM383 223q0 100 -31 146q-39 57 -108 57t-107 -59q-31 -45 -31 -144t28 -146q38 -65 111 -65t112 67q26 47 26 144z" />
    <glyph glyph-name="jcaron" unicode="&#x1f0;" horiz-adv-x="299" 
d="M203 -51q0 -67 -38 -110t-93 -43q-42 0 -74 20t-32 54q0 18 11.5 30t30.5 12q18 0 29.5 -12t11.5 -29q0 -34 -34 -41q10 -6 24 -9.5t23 -4.5h9q69 0 69 129v400q0 37 -14 46.5t-70 9.5v29l147 11v-492zM307 678l-152 -162l-152 162l13 14l139 -108l139 108z" />
    <glyph glyph-name="Gacute" unicode="&#x1f4;" horiz-adv-x="768" 
d="M719 242q-47 0 -57.5 -7t-10.5 -37v-175q0 -22 -8 -22q-7 0 -26.5 21t-32.5 44q-26 -45 -78 -66t-111 -21q-139 0 -240 105t-101 258q0 152 101 257t239 105q112 0 185 -91l49 79q7 12 13 12q7 0 8.5 -4t1.5 -19v-237q0 -16 -2 -19.5t-12 -3.5q-5 0 -7 0.5t-3.5 2.5t-2 4
t-1.5 7q-12 84 -48.5 140t-79 78t-89.5 22q-26 0 -54.5 -6.5t-66.5 -28t-67.5 -56t-50 -97.5t-20.5 -145q0 -81 20.5 -144t50 -97.5t68 -56.5t69 -29t58.5 -7q16 0 36.5 3.5t50.5 14t50 37.5t20 67v64q0 30 -14.5 39t-76.5 9h-31v29q27 -2 146 -2q99 0 125 2v-29zM518 866
q-3 -16 -21 -26l-168 -96q-5 6 -13 18l143 129q14 14 24 14q16 0 26.5 -11.5t8.5 -27.5z" />
    <glyph glyph-name="gacute" unicode="&#x1f5;" 
d="M475 406q0 -14 -8.5 -20.5t-17.5 -6.5q-12 0 -19 7.5t-7 18.5q0 19 15 25q-4 2 -13 2q-52 0 -91 -40q40 -40 40 -97q0 -59 -45.5 -102t-111.5 -43q-51 0 -98 31q-16 -22 -16 -48q0 -31 19 -50q13 -14 26 -16.5t60 -2.5q53 0 77.5 -1t55 -7t54.5 -18q67 -35 67 -115
q0 -55 -63.5 -91.5t-154.5 -36.5q-92 0 -154.5 37t-62.5 89q0 37 27 63.5t65 37.5q-43 27 -43 88q0 46 30 83q-45 41 -45 103q0 59 45.5 102t111.5 43q56 0 103 -36q44 47 105 47q24 0 36.5 -15t12.5 -31zM305 296q0 124 -88 124q-44 0 -70 -39q-17 -27 -17 -86
q0 -124 88 -124q44 0 70 39q17 27 17 86zM413 -78q0 25 -13.5 42.5t-30.5 26t-48.5 13t-50.5 5t-53 0.5q-55 0 -70 -2t-31 -12q-40 -27 -40 -73q0 -43 49 -74.5t120 -31.5q69 0 118.5 31t49.5 75zM331 664q0 -16 -16 -29l-149 -124q-9 7 -16 16l119 152q13 18 28 18
q13 0 23.5 -10t10.5 -23z" />
    <glyph glyph-name="Aringacute" unicode="&#x1fa;" horiz-adv-x="734" 
d="M702 0q-23 2 -123 2q-107 0 -130 -2v29q76 0 76 30q0 5 -5 17l-55 157h-252l-46 -133q-5 -13 -5 -21q0 -21 18 -35t49 -15v-29q-26 2 -102 2l-96 -2v29q83 1 106 68l209 598q4 12 7.5 15.5t13.5 3.5t13.5 -3.5t6.5 -14.5l218 -626q10 -29 27 -35t70 -6v-29zM455 262
l-116 333l-116 -333h232zM430 802q0 60 -63 60t-63 -60t63 -60t63 60zM460 801q0 -35 -27 -61t-67 -26q-37 0 -64.5 25.5t-27.5 63.5q0 35 27 61t67 26q37 0 64.5 -25.5t27.5 -63.5zM468 1032q-3 -16 -21 -26l-168 -96q-5 6 -13 18l143 129q14 14 24 14q16 0 26.5 -11.5
t8.5 -27.5z" />
    <glyph glyph-name="aringacute" unicode="&#x1fb;" 
d="M474 89q0 -52 -26.5 -73t-52.5 -21q-32 0 -53.5 23.5t-24.5 59.5q-15 -38 -49 -63t-81 -25q-57 0 -105 25.5t-48 78.5q0 65 68.5 113.5t208.5 50.5v40q0 62 -32.5 95t-72.5 33q-33 0 -64 -15t-47 -45q51 0 51 -41q0 -18 -11.5 -29.5t-29.5 -11.5t-30 11t-12 32
q0 49 42 84t103 35q74 0 124 -46q21 -18 31 -41.5t11.5 -40.5t1.5 -51v-175q0 -68 38 -68t38 65v56h22v-56zM311 141v99q-15 -1 -28.5 -2.5t-40.5 -6.5t-48 -15.5t-43 -25.5t-34 -40t-12 -56q0 -36 26.5 -60t63.5 -24q41 0 78.5 32.5t37.5 98.5zM308 615q0 60 -63 60
t-63 -60t63 -60t63 60zM338 614q0 -35 -27 -61t-67 -26q-37 0 -64.5 25.5t-27.5 63.5q0 35 27 61t67 26q37 0 64.5 -25.5t27.5 -63.5zM346 845q-3 -16 -21 -26l-168 -96q-5 6 -13 18l143 129q14 14 24 14q16 0 26.5 -11.5t8.5 -27.5z" />
    <glyph glyph-name="AEacute" unicode="&#x1fc;" horiz-adv-x="884" 
d="M856 256l-40 -256h-480v29q49 0 60 7t11 37v241h-163l-76 -214q-5 -13 -5 -21q0 -21 16.5 -35t50.5 -15v-29q-25 2 -103 2l-96 -2v29q82 0 106 66l200 558q-12 1 -38 1h-41v29h545l26 -223h-22q-11 112 -44.5 153t-131.5 41h-103q-32 0 -39 -7t-7 -33v-271h88
q67 0 85 24.5t18 92.5h22v-263h-22q0 68 -18 92.5t-85 24.5h-88v-245q0 -26 7 -33t39 -7h102q48 0 81.5 10t53.5 25t34 47t20.5 61.5t14.5 83.5h22zM407 343v262q0 13 -1.5 20.5t-11.5 16.5t-29 9l-110 -308h152zM576 866q-3 -16 -21 -26l-168 -96q-5 6 -13 18l143 129
q14 14 24 14q16 0 26.5 -11.5t8.5 -27.5z" />
    <glyph glyph-name="aeacute" unicode="&#x1fd;" horiz-adv-x="707" 
d="M679 119q0 -9 -9 -28.5t-25.5 -43t-47.5 -40.5t-69 -17q-98 0 -165 90q-20 -42 -64.5 -66t-100.5 -24q-60 0 -106 25.5t-46 74.5q0 22 9 44t34.5 49t85 45t146.5 21v49q0 62 -32.5 95t-72.5 33q-32 0 -63.5 -15t-47.5 -45q51 0 51 -41q0 -18 -11.5 -29.5t-29.5 -11.5
t-30 11t-12 32q0 48 42 83.5t104 35.5q97 0 150 -78q57 78 147 78q78 0 120.5 -55t42.5 -140q0 -14 -3.5 -16.5t-20.5 -2.5h-269q0 -97 31 -148q44 -72 115 -72q38 0 73.5 25.5t51.5 82.5q3 9 11 9q11 0 11 -10zM617 251q-5 175 -102 175q-9 0 -20.5 -2.5t-30 -12.5
t-33.5 -27.5t-28 -52t-16 -80.5h230zM332 133q0 11 -4 28q-7 27 -7 69q-88 -5 -138 -34q-36 -20 -51 -49.5t-15 -55.5q0 -35 26 -58t62 -23q50 0 88.5 35t38.5 88zM474 664q0 -16 -16 -29l-149 -124q-9 7 -16 16l119 152q13 18 28 18q13 0 23.5 -10t10.5 -23z" />
    <glyph glyph-name="Oslashacute" unicode="&#x1fe;" horiz-adv-x="762" 
d="M707 339q0 -150 -96 -255t-231 -105q-100 0 -189 66l-68 -100l-17 12l69 103q-59 52 -90 126t-31 153q0 153 96.5 259t230.5 106q106 0 188 -67l69 101l17 -12l-69 -104q10 -8 25.5 -25.5t39.5 -52.5t40 -89.5t16 -115.5zM547 607q-77 77 -167 77q-14 0 -31 -3
t-47.5 -12.5t-57.5 -33t-53 -59t-41 -97t-15 -139.5q0 -159 64 -245zM626 340q0 159 -64 248l-349 -512q77 -77 168 -77q21 0 44.5 4.5t61.5 24.5t67 54t50.5 101t21.5 157zM515 866q-3 -16 -21 -26l-168 -96q-5 6 -13 18l143 129q14 14 24 14q16 0 26.5 -11.5t8.5 -27.5z
" />
    <glyph glyph-name="oslashacute" unicode="&#x1ff;" 
d="M454 214q0 -94 -62 -159t-148 -65q-53 0 -101 27l-67 -119l-17 10l68 121q-46 33 -69 82.5t-23 102.5q0 95 61.5 163.5t148.5 68.5q55 0 102 -30l66 117l17 -11l-66 -117q41 -33 65.5 -83t24.5 -108zM332 392q-40 34 -88 34q-73 0 -114 -68q-30 -49 -30 -144
q0 -110 43 -157zM389 214q0 109 -42 161l-189 -334q46 -31 86 -31q37 0 67.5 18t48.5 47q29 48 29 139zM365 664q0 -16 -16 -29l-149 -124q-9 7 -16 16l119 152q13 18 28 18q13 0 23.5 -10t10.5 -23z" />
    <glyph glyph-name="Adblgrave" unicode="&#x200;" horiz-adv-x="734" 
d="M702 0q-23 2 -123 2q-107 0 -130 -2v29q76 0 76 30q0 5 -5 17l-55 157h-252l-46 -133q-5 -13 -5 -21q0 -21 18 -35t49 -15v-29q-26 2 -102 2l-96 -2v29q83 1 106 68l209 598q4 12 7.5 15.5t13.5 3.5t13.5 -3.5t6.5 -14.5l218 -626q10 -29 27 -35t70 -6v-29zM455 262
l-116 333l-116 -333h232zM458 754q-14 -8 -18 -10l-91 126q-11 15 -11 26q0 15 11.5 24t23.5 9q21 0 31 -28zM295 754q-14 -8 -18 -10l-91 126q-11 15 -11 26q0 15 11.5 24t23.5 9q21 0 31 -28z" />
    <glyph glyph-name="adblgrave" unicode="&#x201;" 
d="M474 89q0 -52 -26.5 -73t-52.5 -21q-32 0 -53.5 23.5t-24.5 59.5q-15 -38 -49 -63t-81 -25q-57 0 -105 25.5t-48 78.5q0 65 68.5 113.5t208.5 50.5v40q0 62 -32.5 95t-72.5 33q-33 0 -64 -15t-47 -45q51 0 51 -41q0 -18 -11.5 -29.5t-29.5 -11.5t-30 11t-12 32
q0 49 42 84t103 35q74 0 124 -46q21 -18 31 -41.5t11.5 -40.5t1.5 -51v-175q0 -68 38 -68t38 65v56h22v-56zM311 141v99q-15 -1 -28.5 -2.5t-40.5 -6.5t-48 -15.5t-43 -25.5t-34 -40t-12 -56q0 -36 26.5 -60t63.5 -24q41 0 78.5 32.5t37.5 98.5zM363 522q-14 -8 -18 -10
l-91 126q-11 15 -11 26q0 15 11.5 24t23.5 9q21 0 31 -28zM200 522q-14 -8 -18 -10l-91 126q-11 15 -11 26q0 15 11.5 24t23.5 9q21 0 31 -28z" />
    <glyph glyph-name="Edblgrave" unicode="&#x204;" horiz-adv-x="666" 
d="M638 256l-40 -256h-557v29h20q51 0 63 8.5t12 38.5v529q0 30 -12 38.5t-63 8.5h-20v29h544l26 -223h-22q-12 113 -49 153.5t-144 40.5h-133q-32 0 -39 -7t-7 -33v-244h91q69 0 88 24t19 93h22v-263h-22q0 69 -19 93t-88 24h-91v-270q0 -26 7 -33t39 -7h136q50 0 85 9.5
t57 24.5t37 46.5t22.5 62.5t15.5 84h22zM451 754q-14 -8 -18 -10l-91 126q-11 15 -11 26q0 15 11.5 24t23.5 9q21 0 31 -28zM288 754q-14 -8 -18 -10l-91 126q-11 15 -11 26q0 15 11.5 24t23.5 9q21 0 31 -28z" />
    <glyph glyph-name="edblgrave" unicode="&#x205;" horiz-adv-x="435" 
d="M407 119q0 -10 -9.5 -29.5t-27.5 -42.5t-52 -40t-75 -17q-85 0 -149 66t-64 163q0 94 58.5 160.5t143.5 66.5q86 0 130.5 -56.5t44.5 -138.5q0 -14 -3.5 -16.5t-20.5 -2.5h-277v-19q0 -61 16 -104t40.5 -62t45.5 -27t41 -8q39 0 78 25t57 82q4 10 12 10q11 0 11 -10z
M345 251q-1 23 -4 43.5t-13 55t-35 55.5t-62 21q-14 0 -30.5 -6t-38.5 -22t-37 -54t-18 -93h238zM336 522q-14 -8 -18 -10l-91 126q-11 15 -11 26q0 15 11.5 24t23.5 9q21 0 31 -28zM173 522q-14 -8 -18 -10l-91 126q-11 15 -11 26q0 15 11.5 24t23.5 9q21 0 31 -28z" />
    <glyph glyph-name="Idblgrave" unicode="&#x208;" horiz-adv-x="353" 
d="M317 0q-24 2 -141 2q-116 0 -140 -2v29h22q53 0 65.5 8.5t12.5 38.5v531q0 30 -12.5 38.5t-65.5 8.5h-22v29q24 -2 141 -2q116 0 140 2v-29h-22q-53 0 -65.5 -8.5t-12.5 -38.5v-531q0 -30 12.5 -38.5t65.5 -8.5h22v-29zM295 754q-14 -8 -18 -10l-91 126q-11 15 -11 26
q0 15 11.5 24t23.5 9q21 0 31 -28zM132 754q-14 -8 -18 -10l-91 126q-11 15 -11 26q0 15 11.5 24t23.5 9q21 0 31 -28z" />
    <glyph glyph-name="idblgrave" unicode="&#x209;" horiz-adv-x="272" 
d="M241 0q-34 2 -103 2q-77 0 -105 -2v29q51 0 63.5 6.5t12.5 38.5v272q0 37 -12.5 46t-60.5 9v29l136 11v-368q0 -30 10.5 -37t58.5 -7v-29zM254 522q-14 -8 -18 -10l-91 126q-11 15 -11 26q0 15 11.5 24t23.5 9q21 0 31 -28zM91 522q-14 -8 -18 -10l-91 126q-11 15 -11 26
q0 15 11.5 24t23.5 9q21 0 31 -28z" />
    <glyph glyph-name="Odblgrave" unicode="&#x20c;" horiz-adv-x="762" 
d="M707 339q0 -150 -96 -255t-231 -105q-133 0 -229.5 104.5t-96.5 255.5q0 153 96.5 259t230.5 106q132 0 229 -106t97 -259zM614 354q0 86 -22 152.5t-58 103t-75 54.5t-79 18q-30 0 -60.5 -10t-62 -35t-55.5 -61.5t-39.5 -94t-15.5 -127.5q0 -74 14.5 -134.5t38.5 -100
t55 -67t62.5 -39t63.5 -11.5q39 0 78 19.5t74.5 58.5t58 110t22.5 164zM499 754q-14 -8 -18 -10l-91 126q-11 15 -11 26q0 15 11.5 24t23.5 9q21 0 31 -28zM336 754q-14 -8 -18 -10l-91 126q-11 15 -11 26q0 15 11.5 24t23.5 9q21 0 31 -28z" />
    <glyph glyph-name="odblgrave" unicode="&#x20d;" 
d="M459 214q0 -94 -63 -159t-152 -65q-87 0 -150.5 64.5t-63.5 159.5t63 163.5t152 68.5q88 0 151 -68t63 -164zM383 223q0 100 -31 146q-39 57 -108 57t-107 -59q-31 -45 -31 -144t28 -146q38 -65 111 -65t112 67q26 47 26 144zM363 522q-14 -8 -18 -10l-91 126
q-11 15 -11 26q0 15 11.5 24t23.5 9q21 0 31 -28zM200 522q-14 -8 -18 -10l-91 126q-11 15 -11 26q0 15 11.5 24t23.5 9q21 0 31 -28z" />
    <glyph glyph-name="Rdblgrave" unicode="&#x210;" horiz-adv-x="721" 
d="M717 87q0 -17 -5.5 -38.5t-28 -45.5t-57.5 -24q-38 0 -68.5 12t-44.5 26q-31 30 -37.5 56t-6.5 92q0 57 -5 79t-29 49q-38 39 -103 39h-116v-256q0 -30 12 -38.5t63 -8.5h20v-29q-23 2 -135 2q-111 0 -134 -2v29h20q51 0 63 8.5t12 38.5v531q0 30 -12 38.5t-63 8.5h-20
v29h299q107 0 182 -53.5t75 -126.5q0 -56 -50 -100.5t-126 -62.5q54 -15 92 -53q14 -15 22.5 -34t11.5 -33t7 -46l10 -75q7 -49 20 -74.5t44 -25.5q26 0 44 22t22 65q1 5 1 7t1 4.5t3 3.5t6 1q11 0 11 -15zM505 503q0 43 -15 73.5t-34 45t-52.5 22.5t-53.5 9t-54 1
q-50 0 -59 -1q-10 -2 -14.5 -7.5t-5.5 -11.5t-1 -20v-262h112q177 0 177 151zM451 754q-14 -8 -18 -10l-91 126q-11 15 -11 26q0 15 11.5 24t23.5 9q21 0 31 -28zM288 754q-14 -8 -18 -10l-91 126q-11 15 -11 26q0 15 11.5 24t23.5 9q21 0 31 -28z" />
    <glyph glyph-name="rdblgrave" unicode="&#x211;" horiz-adv-x="381" 
d="M353 383q0 -19 -12 -29.5t-28 -10.5q-14 0 -26.5 10t-12.5 30q0 25 24 37q-4 1 -14 1q-55 0 -86 -55t-31 -133v-157q0 -29 11.5 -38t63.5 -9h20v-29q-23 2 -121 2q-85 0 -113 -2v29q52 0 64 6.5t12 38.5v271q0 37 -12.5 46.5t-63.5 9.5v29l134 11v-111h1q35 111 120 111
q31 0 50.5 -17t19.5 -41zM309 522q-14 -8 -18 -10l-91 126q-11 15 -11 26q0 15 11.5 24t23.5 9q21 0 31 -28zM146 522q-14 -8 -18 -10l-91 126q-11 15 -11 26q0 15 11.5 24t23.5 9q21 0 31 -28z" />
    <glyph glyph-name="Udblgrave" unicode="&#x214;" horiz-adv-x="734" 
d="M692 654q-95 0 -95 -61v-378q0 -84 -60.5 -160t-157.5 -76q-98 0 -170.5 72t-72.5 178v378q0 30 -12 38.5t-63 8.5h-20v29q24 -2 136 -2q111 0 135 2v-29h-20q-51 0 -63 -8.5t-12 -38.5v-384q0 -62 16.5 -107t43.5 -67t52.5 -31.5t51.5 -9.5q75 0 132 61t57 161v350
q0 15 -2 24t-9.5 22.5t-29 20.5t-54.5 7v29q26 -2 109 -2q82 0 108 2v-29zM507 754q-14 -8 -18 -10l-91 126q-11 15 -11 26q0 15 11.5 24t23.5 9q21 0 31 -28zM344 754q-14 -8 -18 -10l-91 126q-11 15 -11 26q0 15 11.5 24t23.5 9q21 0 31 -28z" />
    <glyph glyph-name="udblgrave" unicode="&#x215;" horiz-adv-x="544" 
d="M521 0l-139 -10v90q-16 -38 -45 -61q-34 -29 -83 -29q-81 0 -116 38q-20 23 -25 49.5t-5 81.5v150q0 68 -10 80t-66 12v29l141 11v-331q0 -24 2.5 -38.5t10.5 -30.5t26.5 -23.5t47.5 -7.5q55 0 87.5 45t32.5 111v179q0 37 -12.5 46.5t-63.5 9.5v29l141 11v-356
q0 -37 12.5 -46.5t63.5 -9.5v-29zM390 522q-14 -8 -18 -10l-91 126q-11 15 -11 26q0 15 11.5 24t23.5 9q21 0 31 -28zM227 522q-14 -8 -18 -10l-91 126q-11 15 -11 26q0 15 11.5 24t23.5 9q21 0 31 -28z" />
    <glyph glyph-name="uni0218" unicode="&#x218;" horiz-adv-x="544" 
d="M489 184q0 -84 -55 -144.5t-138 -60.5q-118 0 -185 74l-33 -60q-8 -14 -14 -14q-7 0 -8.5 4t-1.5 19v202q0 15 1.5 19t9.5 4q10 0 11 -8q3 -103 63 -157q62 -54 156 -54q60 0 98 43.5t38 102.5q0 42 -21.5 79t-56.5 54q-21 9 -104 28q-62 16 -89.5 27.5t-51.5 38.5
q-54 58 -54 132q0 78 55 134.5t137 56.5q101 0 158 -74l33 61q7 13 14 13t8.5 -4t1.5 -19v-202q0 -15 -1.5 -19t-9.5 -4q-7 0 -8.5 3t-3.5 13q-29 205 -192 205q-57 0 -95.5 -39.5t-38.5 -93.5q0 -46 28 -81.5t68 -45.5l110 -28q27 -7 42 -12t38.5 -19t40.5 -35
q50 -61 50 -139zM312 -139q0 -39 -15 -74t-29 -51t-19 -16q-8 0 -8 7q0 4 4 7q52 54 52 127l-1 15q-2 0 -4 -3q-12 -9 -24 -9q-16 0 -26.5 11t-10.5 26t10 25.5t26 10.5q45 0 45 -76z" />
    <glyph glyph-name="uni0219" unicode="&#x219;" horiz-adv-x="386" 
d="M352 127q0 -62 -40.5 -99.5t-116.5 -37.5q-71 0 -109 47q-9 -10 -20 -25q-18 -22 -23 -22q-7 0 -8.5 4t-1.5 19v136q0 15 1.5 19t9.5 4q7 0 9 -4q1 -2 5 -20q30 -138 136 -138q60 0 86.5 26.5t26.5 64.5q0 39 -31 65q-18 14 -33.5 19.5t-59.5 14.5q-42 8 -66 16.5
t-46 27.5q-38 35 -38 81q0 49 37 85t120 36q56 0 94 -31q24 31 34 31q7 0 8.5 -4t1.5 -19v-104q0 -15 -1.5 -19t-9.5 -4q-10 0 -11 8q-8 124 -117 124q-60 0 -85.5 -23.5t-25.5 -53.5q0 -59 103 -80q55 -10 79.5 -18.5t49.5 -30.5q42 -42 42 -95zM233 -139q0 -39 -15 -74
t-29 -51t-19 -16q-8 0 -8 7q0 4 4 7q52 54 52 127l-1 15q-2 0 -4 -3q-12 -9 -24 -9q-16 0 -26.5 11t-10.5 26t10 25.5t26 10.5q45 0 45 -76z" />
    <glyph glyph-name="uni021A" unicode="&#x21a;" horiz-adv-x="707" 
d="M671 455h-22q-4 46 -7 70t-11 50t-18.5 37t-30.5 21.5t-46.5 13t-67.5 2.5q-48 0 -56 -2q-11 -3 -14.5 -10.5t-3.5 -27.5v-532q0 -20 4 -28t25 -14t69 -6h36v-29q-32 2 -175 2q-142 0 -174 -2v29h36q48 0 69 6t25 14t4 28v532q0 20 -3.5 28t-17.5 10q-8 2 -54 2
q-41 0 -67.5 -2.5t-46.5 -13t-30.5 -21.5t-18.5 -37t-11 -50t-7 -70h-22l18 223h600zM394 -139q0 -39 -15 -74t-29 -51t-19 -16q-8 0 -8 7q0 4 4 7q52 54 52 127l-1 15q-2 0 -4 -3q-12 -9 -24 -9q-16 0 -26.5 11t-10.5 26t10 25.5t26 10.5q45 0 45 -76z" />
    <glyph glyph-name="uni021B" unicode="&#x21b;" horiz-adv-x="381" 
d="M326 124q0 -57 -25.5 -95.5t-70.5 -38.5q-22 0 -42.5 5.5t-40.5 19.5t-32 42t-12 67v278h-85v20q64 2 95.5 58t32.5 135h22v-184h141v-29h-141v-280q0 -110 68 -110q30 0 49 30.5t19 83.5v55h22v-57zM231 -139q0 -39 -15 -74t-29 -51t-19 -16q-8 0 -8 7q0 4 4 7
q52 54 52 127l-1 15q-2 0 -4 -3q-12 -9 -24 -9q-16 0 -26.5 11t-10.5 26t10 25.5t26 10.5q45 0 45 -76z" />
    <glyph glyph-name="uni0237" unicode="&#x237;" horiz-adv-x="299" 
d="M203 -51q0 -67 -38 -110t-93 -43q-42 0 -74 20t-32 54q0 18 11.5 30t30.5 12q18 0 29.5 -12t11.5 -29q0 -34 -34 -41q10 -6 24 -9.5t23 -4.5h9q69 0 69 129v400q0 37 -14 46.5t-70 9.5v29l147 11v-492z" />
    <glyph glyph-name="ereversed" unicode="&#x258;" horiz-adv-x="435" 
d="M407 219q0 -97 -64 -163t-149 -66q-41 0 -75 17t-52 40t-27.5 42.5t-9.5 29.5t11 10q8 0 12 -10q18 -57 57 -82t78 -25q20 0 41 8t45.5 27t40.5 62t16 104v19h-277q-17 0 -20.5 2.5t-3.5 16.5q0 82 44.5 138.5t130.5 56.5q85 0 143.5 -66.5t58.5 -160.5zM330 251
q-3 55 -18 93t-37 54t-38.5 22t-30.5 6q-37 0 -62 -21t-35 -55.5t-13 -55t-4 -43.5h238z" />
    <glyph glyph-name="schwa" unicode="&#x259;" horiz-adv-x="435" 
d="M407 217q0 -94 -58.5 -160.5t-143.5 -66.5q-86 0 -130.5 56.5t-44.5 138.5q0 14 3.5 16.5t20.5 2.5h277v19q0 61 -16 104t-40.5 62t-45.5 27t-41 8q-39 0 -78 -25t-57 -82q-4 -10 -12 -10q-11 0 -11 10t9.5 29.5t27.5 42.5t52 40t75 17q85 0 149 -66t64 -163zM330 185
h-238q1 -23 4 -43.5t13 -55t35 -55.5t62 -21q14 0 30.5 6t38.5 22t37 54t18 93z" />
    <glyph glyph-name="ringhalfright" unicode="&#x2be;" horiz-adv-x="375" 
d="M321 508q0 -67 -44 -115t-106 -48q-45 0 -77.5 24.5t-32.5 60.5q0 17 10 26t25 9t24.5 -9.5t9.5 -24.5q0 -31 -28 -33q23 -26 68 -26q32 0 59.5 31.5t27.5 104.5q0 68 -28 101t-64 33q-63 0 -83 -65q-2 -9 -5 -11.5t-10 -2.5q-13 0 -13 12q0 3 3 12.5t11 23.5t20.5 27
t34.5 22t49 9q61 0 105 -46.5t44 -114.5z" />
    <glyph glyph-name="ringhalfleft" unicode="&#x2bf;" horiz-adv-x="375" 
d="M321 439q0 -3 -3 -12.5t-11 -23.5t-20.5 -27t-34.5 -22t-49 -9q-61 0 -105 46.5t-44 114.5q0 67 44 115t106 48q45 0 77.5 -24.5t32.5 -60.5q0 -17 -10 -26t-25 -9t-24.5 9.5t-9.5 24.5q0 31 28 33q-23 26 -68 26q-32 0 -59.5 -31.5t-27.5 -104.5q0 -68 28 -101t64 -33
q63 0 83 65q3 14 15 14q13 0 13 -12z" />
    <glyph glyph-name="circumflex" unicode="&#x2c6;" 
d="M397 530l-13 -14l-139 108l-139 -108l-13 14l152 162z" />
    <glyph glyph-name="caron" unicode="&#x2c7;" 
d="M397 678l-152 -162l-152 162l13 14l139 -108l139 108z" />
    <glyph glyph-name="breve" unicode="&#x2d8;" 
d="M390 690q-1 -75 -43 -123.5t-103 -48.5q-58 0 -101 48t-44 124h20q1 -61 38.5 -99t87.5 -38q48 0 86 37.5t39 99.5h20z" />
    <glyph glyph-name="dotaccent" unicode="&#x2d9;" horiz-adv-x="272" 
d="M185 604q0 -19 -13.5 -33.5t-35.5 -14.5q-20 0 -34 14t-14 34t14 34.5t35 14.5q19 0 33.5 -13.5t14.5 -35.5z" />
    <glyph glyph-name="ring" unicode="&#x2da;" horiz-adv-x="734" 
d="M430 615q0 60 -63 60t-63 -60t63 -60t63 60zM460 614q0 -35 -27 -61t-67 -26q-37 0 -64.5 25.5t-27.5 63.5q0 35 27 61t67 26q37 0 64.5 -25.5t27.5 -63.5z" />
    <glyph glyph-name="ogonek" unicode="&#x2db;" 
d="M353 -111q-11 -40 -43 -65.5t-69 -25.5q-44 0 -74.5 25.5t-30.5 59.5q0 61 75 121h50q-31 -15 -57 -45q-23 -25 -23 -51q0 -30 26.5 -48t56.5 -18q48 0 73 53q4 8 11 5t5 -11z" />
    <glyph glyph-name="tilde" unicode="&#x2dc;" 
d="M407 636q-29 -32 -41.5 -44.5t-29.5 -22.5t-35 -10q-21 0 -63 25q-35 24 -60 24q-22 0 -39 -11.5t-43 -37.5l-14 14q29 32 41.5 44.5t29.5 22.5t35 10q21 0 63 -25q35 -24 60 -24q22 0 39 11.5t43 37.5z" />
    <glyph glyph-name="hungarumlaut" unicode="&#x2dd;" 
d="M247 664q0 -11 -11 -26l-91 -126q-4 2 -18 10l54 147q10 28 31 28q12 0 23.5 -9t11.5 -24zM410 664q0 -11 -11 -26l-91 -126q-4 2 -18 10l54 147q10 28 31 28q12 0 23.5 -9t11.5 -24z" />
    <glyph glyph-name="uni0300" unicode="&#x300;" horiz-adv-x="0" 
d="M-184 527q-7 -9 -16 -16l-149 124q-16 13 -16 29q0 13 10.5 23t23.5 10q15 0 28 -18z" />
    <glyph glyph-name="uni0301" unicode="&#x301;" horiz-adv-x="0" 
d="M-125 664q0 -16 -16 -29l-149 -124q-9 7 -16 16l119 152q13 18 28 18q13 0 23.5 -10t10.5 -23z" />
    <glyph glyph-name="uni0302" unicode="&#x302;" horiz-adv-x="0" 
d="M-93 530l-13 -14l-139 108l-139 -108l-13 14l152 162z" />
    <glyph glyph-name="uni0303" unicode="&#x303;" horiz-adv-x="0" 
d="M-83 636q-29 -32 -41.5 -44.5t-29.5 -22.5t-35 -10q-21 0 -63 25q-35 24 -60 24q-22 0 -39 -11.5t-43 -37.5l-14 14q29 32 41.5 44.5t29.5 22.5t35 10q21 0 63 -25q35 -24 60 -24q22 0 39 11.5t43 37.5z" />
    <glyph glyph-name="uni0304" unicode="&#x304;" horiz-adv-x="0" 
d="M-69 590h-353v29h353v-29z" />
    <glyph glyph-name="uni0306" unicode="&#x306;" horiz-adv-x="0" 
d="M-100 690q-1 -75 -43 -123.5t-103 -48.5q-58 0 -101 48t-44 124h20q1 -61 38.5 -99t87.5 -38q48 0 86 37.5t39 99.5h20z" />
    <glyph glyph-name="uni0307" unicode="&#x307;" horiz-adv-x="0" 
d="M-196 604q0 -19 -13.5 -33.5t-35.5 -14.5q-19 0 -33.5 14t-14.5 34t14 34.5t35 14.5q19 0 33.5 -13.5t14.5 -35.5z" />
    <glyph glyph-name="uni0308" unicode="&#x308;" horiz-adv-x="0" 
d="M-281 604q0 -17 -12.5 -30t-31.5 -13q-17 0 -30 13t-13 30q0 18 12.5 31t31.5 13q17 0 30 -12.5t13 -31.5zM-121 604q0 -17 -12.5 -30t-31.5 -13q-17 0 -30 13t-13 30q0 18 12.5 31t31.5 13q17 0 30 -12.5t13 -31.5z" />
    <glyph glyph-name="uni0309" unicode="&#x309;" horiz-adv-x="0" 
d="M-150 644q0 -29 -29 -44q-65 -32 -65 -74v-19q0 -8 -8 -8t-8 8v19q0 50 48 88q13 10 13 29q0 29 -10 38q-13 13 -43 13q-41 0 -62 -23h1q11 0 19 -8t8 -20t-8 -19.5t-19 -7.5t-19 8t-8 20q0 30 26 48t62 18q46 0 74 -16q28 -18 28 -50z" />
    <glyph glyph-name="uni030A" unicode="&#x30a;" horiz-adv-x="0" 
d="M-182 615q0 60 -63 60t-63 -60t63 -60t63 60zM-152 614q0 -35 -27 -61t-67 -26q-37 0 -64.5 25.5t-27.5 63.5q0 35 27 61t67 26q37 0 64.5 -25.5t27.5 -63.5z" />
    <glyph glyph-name="uni030B" unicode="&#x30b;" horiz-adv-x="0" 
d="M-243 664q0 -11 -11 -26l-91 -126q-4 2 -18 10l54 147q10 28 31 28q12 0 23.5 -9t11.5 -24zM-80 664q0 -11 -11 -26l-91 -126q-4 2 -18 10l54 147q10 28 31 28q12 0 23.5 -9t11.5 -24z" />
    <glyph glyph-name="uni030C" unicode="&#x30c;" horiz-adv-x="0" 
d="M-93 678l-152 -162l-152 162l13 14l139 -108l139 108z" />
    <glyph glyph-name="uni030F" unicode="&#x30f;" horiz-adv-x="0" 
d="M-127 522q-14 -8 -18 -10l-91 126q-11 15 -11 26q0 15 11.5 24t23.5 9q21 0 31 -28zM-290 522q-14 -8 -18 -10l-91 126q-11 15 -11 26q0 15 11.5 24t23.5 9q21 0 31 -28z" />
    <glyph glyph-name="uni0311" unicode="&#x311;" horiz-adv-x="0" 
d="M-100 518h-20q-1 61 -38.5 99t-87.5 38q-48 0 -86 -37.5t-39 -99.5h-20q1 75 43 123.5t103 48.5q58 0 101 -48t44 -124z" />
    <glyph glyph-name="uni0323" unicode="&#x323;" horiz-adv-x="0" 
d="M-196 -152q0 -19 -13.5 -33.5t-35.5 -14.5q-19 0 -33.5 14t-14.5 34t14 34.5t35 14.5q19 0 33.5 -13.5t14.5 -35.5z" />
    <glyph glyph-name="uni0326" unicode="&#x326;" horiz-adv-x="0" 
d="M-205 -139q0 -39 -15 -74t-29 -51t-19 -16q-8 0 -8 7q0 4 4 7q52 54 52 127l-1 15q-2 0 -4 -3q-12 -9 -24 -9q-16 0 -26.5 11t-10.5 26t10 25.5t26 10.5q45 0 45 -76z" />
    <glyph glyph-name="uni032E" unicode="&#x32e;" horiz-adv-x="0" 
d="M-100 -65q-1 -75 -43 -123.5t-103 -48.5q-58 0 -101 48t-44 124h20q1 -61 38.5 -99t87.5 -38q48 0 86 37.5t39 99.5h20z" />
    <glyph glyph-name="uni032F" unicode="&#x32f;" horiz-adv-x="0" 
d="M-100 -237h-20q-1 61 -38.5 99t-87.5 38q-48 0 -86 -37.5t-39 -99.5h-20q1 75 43 123.5t103 48.5q58 0 101 -48t44 -124z" />
    <glyph glyph-name="uni0330" unicode="&#x330;" horiz-adv-x="0" 
d="M-83 -119q-29 -32 -41.5 -44.5t-29.5 -22.5t-35 -10q-21 0 -63 25q-35 24 -60 24q-22 0 -39 -11.5t-43 -37.5l-14 14q29 32 41.5 44.5t29.5 22.5t35 10q21 0 63 -25q35 -24 60 -24q22 0 39 11.5t43 37.5z" />
    <glyph glyph-name="uni0331" unicode="&#x331;" horiz-adv-x="0" 
d="M-69 -165h-353v29h353v-29z" />
    <glyph glyph-name="uni0332" unicode="&#x332;" horiz-adv-x="0" 
d="M-69 -165h-353v29h353v-29z" />
    <glyph glyph-name="Alpha" unicode="&#x391;" horiz-adv-x="734" 
d="M702 0q-23 2 -123 2q-107 0 -130 -2v29q76 0 76 30q0 5 -5 17l-55 157h-252l-46 -133q-5 -13 -5 -21q0 -21 18 -35t49 -15v-29q-26 2 -102 2l-96 -2v29q83 1 106 68l209 598q4 12 7.5 15.5t13.5 3.5t13.5 -3.5t6.5 -14.5l218 -626q10 -29 27 -35t70 -6v-29zM455 262
l-116 333l-116 -333h232z" />
    <glyph glyph-name="Beta" unicode="&#x392;" horiz-adv-x="693" 
d="M638 183q0 -74 -62.5 -128.5t-156.5 -54.5h-376v29h20q51 0 63 8.5t12 38.5v531q0 30 -12 38.5t-63 8.5h-20v29h349q95 0 156.5 -51t61.5 -118q0 -56 -46 -99.5t-118 -57.5q86 -9 139 -60t53 -114zM522 514q0 50 -34 95t-102 45h-126q-32 0 -39 -7t-7 -33v-249h145
q77 0 120 46.5t43 102.5zM547 184q0 63 -39 112t-107 49h-187v-276q0 -26 7 -33t39 -7h128q71 0 115 46t44 109z" />
    <glyph glyph-name="Gamma" unicode="&#x393;" horiz-adv-x="612" 
d="M570 458h-22q-11 111 -45 152.5t-133 41.5h-107q-32 0 -39 -7t-7 -33v-535q0 -30 14 -39t75 -9h30v-29q-29 2 -152 2q-119 0 -143 -2v29h20q51 0 63 8.5t12 38.5v529q0 30 -12 38.5t-63 8.5h-20v29h503z" />
    <glyph glyph-name="Delta" unicode="&#x394;" horiz-adv-x="816" 
d="M769 7q0 -5 -3 -6t-18 -1h-681q-15 0 -18 1t-3 6q0 7 4 13l334 676q6 11 9.5 14.5t14.5 3.5q10 0 13.5 -3.5t9.5 -14.5l334 -676q4 -6 4 -13zM650 69l-273 553l-272 -553h545z" />
    <glyph glyph-name="Epsilon" unicode="&#x395;" horiz-adv-x="666" 
d="M638 256l-40 -256h-557v29h20q51 0 63 8.5t12 38.5v529q0 30 -12 38.5t-63 8.5h-20v29h544l26 -223h-22q-12 113 -49 153.5t-144 40.5h-133q-32 0 -39 -7t-7 -33v-244h91q69 0 88 24t19 93h22v-263h-22q0 69 -19 93t-88 24h-91v-270q0 -26 7 -33t39 -7h136q50 0 85 9.5
t57 24.5t37 46.5t22.5 62.5t15.5 84h22z" />
    <glyph glyph-name="Zeta" unicode="&#x396;" horiz-adv-x="598" 
d="M548 264l-16 -264h-454q-17 0 -20.5 3.5t-3.5 20.5l396 630h-160q-112 0 -153 -48.5t-47 -145.5h-22l11 223h440q15 0 19.5 -2t4.5 -12q0 -8 -8 -21l-388 -617h169q66 0 108 15.5t63 49.5t28.5 70.5t10.5 97.5h22z" />
    <glyph glyph-name="Eta" unicode="&#x397;" horiz-adv-x="734" 
d="M692 0q-24 2 -136 2q-111 0 -135 -2v29h20q51 0 63 8.5t12 38.5v265h-299v-265q0 -30 12 -38.5t63 -8.5h20v-29q-24 2 -136 2q-111 0 -135 -2v29h20q51 0 63 8.5t12 38.5v531q0 30 -12 38.5t-63 8.5h-20v29q24 -2 136 -2q111 0 135 2v-29h-20q-51 0 -63 -8.5t-12 -38.5
v-237h299v237q0 30 -12 38.5t-63 8.5h-20v29q24 -2 136 -2q111 0 135 2v-29h-20q-51 0 -63 -8.5t-12 -38.5v-531q0 -30 12 -38.5t63 -8.5h20v-29z" />
    <glyph glyph-name="Theta" unicode="&#x398;" horiz-adv-x="762" 
d="M707 339q0 -150 -96 -255t-231 -105q-133 0 -229.5 104.5t-96.5 255.5q0 153 96.5 259t230.5 106q132 0 229 -106t97 -259zM619 340q0 88 -22 156.5t-57.5 108t-76.5 59.5t-83 20q-40 0 -80.5 -19.5t-76.5 -58.5t-58.5 -108.5t-22.5 -157.5t22.5 -156t58.5 -106.5
t76.5 -58t81.5 -19.5q31 0 63 11t64 37t56.5 64t39.5 97t15 131zM564 274h-22v34h-323v-34h-22v137h22v-34h323v34h22v-137z" />
    <glyph glyph-name="Iota" unicode="&#x399;" horiz-adv-x="353" 
d="M317 0q-24 2 -141 2q-116 0 -140 -2v29h22q53 0 65.5 8.5t12.5 38.5v531q0 30 -12.5 38.5t-65.5 8.5h-22v29q24 -2 141 -2q116 0 140 2v-29h-22q-53 0 -65.5 -8.5t-12.5 -38.5v-531q0 -30 12.5 -38.5t65.5 -8.5h22v-29z" />
    <glyph glyph-name="Kappa" unicode="&#x39a;" horiz-adv-x="761" 
d="M719 0q-35 2 -111 2q-102 0 -126 -2v29q52 0 52 28q0 9 -3 15q-3 8 -10 18l-185 277l-119 -115v-174q0 -35 14.5 -42t80.5 -7v-29q-24 2 -136 2q-111 0 -135 -2v29q66 0 80.5 7t14.5 42v527q0 35 -14.5 42t-80.5 7v29q24 -2 136 -2q111 0 135 2v-29q-66 0 -80.5 -7
t-14.5 -42v-323l305 295q29 28 29 45q0 30 -39 32v29q23 -2 108 -2q57 0 86 2v-29q-56 -1 -95 -29t-150 -138q-52 -48 -70 -68l225 -337q23 -35 42 -44t61 -9v-29z" />
    <glyph glyph-name="Lambda" unicode="&#x39b;" horiz-adv-x="680" 
d="M648 0q-26 2 -117 2q-105 0 -128 -2v29q77 0 77 30q0 4 -5 18l-164 506l-156 -481q-5 -15 -5 -22q0 -19 17.5 -34.5t52.5 -16.5v-29q-25 2 -101 2q-45 0 -88 -2v29q73 2 94 67l194 600q6 18 20 18q9 0 13.5 -3.5t8.5 -17.5l202 -626q8 -27 24 -32.5t61 -5.5v-29z" />
    <glyph glyph-name="Mu" unicode="&#x39c;" horiz-adv-x="897" 
d="M852 0q-23 2 -132 2t-132 -2v29h20q51 0 63 8.5t12 38.5v578h-1l-243 -634q-4 -9 -5.5 -12.5t-4.5 -5.5t-7 -2q-10 0 -17 19l-241 630h-1v-546q0 -15 2 -24t9.5 -22.5t29 -20.5t54.5 -7v-29q-26 2 -107 2t-107 -2v29q33 0 54.5 7t29 20.5t9.5 22.5t2 24v504
q0 30 -12 38.5t-63 8.5h-20v29h155q17 0 21.5 -2.5t9.5 -16.5l218 -570l218 569q6 14 10.5 17t20.5 3h155v-29h-20q-51 0 -63 -8.5t-12 -38.5v-531q0 -30 12 -38.5t63 -8.5h20v-29z" />
    <glyph glyph-name="Nu" unicode="&#x39d;" horiz-adv-x="734" 
d="M692 654q-33 0 -54.5 -7t-29 -21t-9.5 -23t-2 -25v-572q-3 -6 -12 -6q-7 0 -18 15l-390 594q-15 20 -17 22v-526q0 -16 2 -25t9.5 -23t29 -21t54.5 -7v-29q-26 2 -107 2t-107 -2v29q33 0 54.5 7t29 21t9.5 23t2 25v542q-27 7 -95 7v29h153q16 0 20.5 -2t11.5 -12
l347 -528v437q0 16 -2 25t-9.5 23t-29 21t-54.5 7v29q26 -2 107 -2t107 2v-29z" />
    <glyph glyph-name="Xi" unicode="&#x39e;" horiz-adv-x="653" 
d="M606 528h-22q0 55 -11 76q-6 10 -76 10h-342q-69 0 -75 -8q-8 -12 -12 -78h-22l8 150h544zM611 161l-8 -161h-554l-8 161h22q4 -74 12 -87q6 -10 79 -10h344q73 0 80 11q7 15 11 86h22zM516 274h-22v47h-336v-47h-22v158h22v-47h336v47h22v-158z" />
    <glyph glyph-name="Omicron" unicode="&#x39f;" horiz-adv-x="762" 
d="M707 339q0 -150 -96 -255t-231 -105q-133 0 -229.5 104.5t-96.5 255.5q0 153 96.5 259t230.5 106q132 0 229 -106t97 -259zM614 354q0 86 -22 152.5t-58 103t-75 54.5t-79 18q-30 0 -60.5 -10t-62 -35t-55.5 -61.5t-39.5 -94t-15.5 -127.5q0 -74 14.5 -134.5t38.5 -100
t55 -67t62.5 -39t63.5 -11.5q39 0 78 19.5t74.5 58.5t58 110t22.5 164z" />
    <glyph glyph-name="Pi" unicode="&#x3a0;" horiz-adv-x="734" 
d="M692 0q-24 2 -136 2q-111 0 -135 -2v29h20q51 0 63 8.5t12 38.5v576h-299v-576q0 -30 12 -38.5t63 -8.5h20v-29q-24 2 -136 2q-111 0 -135 -2v29h20q51 0 63 8.5t12 38.5v529q0 30 -12 38.5t-63 8.5h-20v29h651v-29h-20q-51 0 -63 -8.5t-12 -38.5v-529q0 -30 12 -38.5
t63 -8.5h20v-29z" />
    <glyph glyph-name="Rho" unicode="&#x3a1;" horiz-adv-x="666" 
d="M611 498q0 -75 -67.5 -127.5t-156.5 -52.5h-169v-242q0 -30 12 -38.5t63 -8.5h20v-29q-24 2 -136 2q-111 0 -135 -2v29h20q51 0 63 8.5t12 38.5v531q0 30 -12 38.5t-63 8.5h-20v29h337q99 0 165.5 -55t66.5 -130zM518 498q0 20 -1 33.5t-9.5 39t-24 41.5t-48.5 29t-79 13
h-94q-32 0 -39 -7t-7 -33v-272h139q46 0 79 13t49 29t24.5 41.5t9.5 39t1 33.5z" />
    <glyph glyph-name="Sigma" unicode="&#x3a3;" horiz-adv-x="707" 
d="M652 233l-26 -233h-547q-24 0 -24 10q0 5 10 16l232 274l-243 360q0 17 3.5 20t21.5 3h547l26 -223h-22q-14 117 -62.5 155.5t-175.5 38.5h-236l202 -300l6 -12q0 -4 -10 -17l-242 -286h277q126 0 177 37.5t64 156.5h22z" />
    <glyph glyph-name="Tau" unicode="&#x3a4;" horiz-adv-x="707" 
d="M671 455h-22q-4 46 -7 70t-11 50t-18.5 37t-30.5 21.5t-46.5 13t-67.5 2.5q-48 0 -56 -2q-11 -3 -14.5 -10.5t-3.5 -27.5v-532q0 -20 4 -28t25 -14t69 -6h36v-29q-32 2 -175 2q-142 0 -174 -2v29h36q48 0 69 6t25 14t4 28v532q0 20 -3.5 28t-17.5 10q-8 2 -54 2
q-41 0 -67.5 -2.5t-46.5 -13t-30.5 -21.5t-18.5 -37t-11 -50t-7 -70h-22l18 223h600z" />
    <glyph glyph-name="Upsilon" unicode="&#x3a5;" horiz-adv-x="762" 
d="M707 553q0 -9 -2.5 -12.5t-11.5 -3.5q-8 0 -10 3t-3 12q-4 38 -32.5 60t-67.5 22q-42 0 -73 -24.5t-47 -57.5t-25.5 -76.5t-11.5 -71t-2 -52.5v-275q0 -30 14 -39t75 -9h30v-29q-29 2 -160 2q-130 0 -159 -2v29h30q61 0 75 9t14 39v275q0 23 -1.5 48.5t-11 70.5t-25 78.5
t-47 59t-74.5 25.5q-39 0 -67.5 -22.5t-32.5 -58.5q-1 -10 -3 -13t-10 -3q-9 0 -11.5 3.5t-2.5 12.5q0 50 33 100.5t95 50.5q33 0 61 -12t47 -29.5t35 -43t25 -47t16 -48t9.5 -39.5t4.5 -27h1q17 117 69 181.5t129 64.5q62 0 95 -50t33 -101z" />
    <glyph glyph-name="Phi" unicode="&#x3a6;" horiz-adv-x="707" 
d="M652 341q0 -78 -75 -138.5t-188 -70.5v-55q0 -30 14 -39t75 -9h30v-29q-27 2 -157 2t-157 -2v29h30q61 0 75 9t14 39v56q-113 10 -186 70.5t-73 138.5q0 76 73 137t186 71v56q0 30 -14 39t-75 9h-30v29q27 -2 157 -2t157 2v-29h-30q-61 0 -75 -9t-14 -39v-55
q112 -10 187.5 -70t75.5 -140zM313 154v375q-168 -21 -168 -188q0 -165 168 -187zM561 342q0 166 -172 188v-377q172 23 172 189z" />
    <glyph glyph-name="Chi" unicode="&#x3a7;" horiz-adv-x="734" 
d="M711 0q-24 2 -123 2q-107 0 -131 -2v29q27 1 42 10.5t15 19.5q0 3 -7 14l-162 242l-147 -215q-11 -17 -11 -27q0 -16 13.5 -29.5t41.5 -14.5v-29q-23 2 -115 2q-62 0 -105 -2v29q95 1 139 66l168 245l-187 277q-16 24 -33.5 30.5t-72.5 6.5v29q24 -2 122 -2q108 0 132 2
v-29q-25 0 -41 -9.5t-16 -20.5q0 -7 7 -16l135 -200l120 176q10 15 10 26q0 15 -13 28.5t-41 15.5v29q23 -2 114 -2q62 0 105 2v-29q-43 0 -75 -14t-42.5 -25t-23.5 -30l-138 -201l214 -320q16 -24 36 -29.5t70 -5.5v-29z" />
    <glyph glyph-name="Psi" unicode="&#x3a8;" horiz-adv-x="762" 
d="M707 545q0 -8 -12 -10q-59 -8 -59 -115q-2 -260 -220 -287v-56q0 -30 14 -39t75 -9h30v-29q-27 2 -157 2t-157 -2v29h30q61 0 75 9t14 39v56q-104 14 -159 84t-56 180q-1 69 -14 101t-46 37q-10 3 -10 10q0 10 24 10h32q45 0 67 -33.5t23 -107.5q0 -224 139 -258v450
q0 30 -14 39t-75 9h-30v29q27 -2 157 -2t157 2v-29h-30q-61 0 -75 -9t-14 -39v-451q142 34 144 246q0 65 14 100.5t31.5 44.5t44.5 9h33q24 0 24 -10z" />
    <glyph glyph-name="Omega" unicode="&#x3a9;" horiz-adv-x="707" 
d="M662 156l-32 -156h-154q-17 0 -21 2.5t-4 16.5q0 64 52 211q56 148 56 225q0 108 -62 168.5t-144 60.5t-144 -60.5t-62 -168.5q0 -36 9 -78.5t18.5 -69.5t28.5 -80q52 -133 52 -209q0 -13 -3.5 -15.5t-20.5 -2.5h-155l-32 156h22q12 -59 18 -74q4 -13 15 -18t51 -5h79
q-5 27 -18 56t-26 50t-39 62q-30 47 -46 75t-31 71t-15 81q0 103 87 176.5t212 73.5t212 -73t87 -177q0 -39 -15 -82t-31 -71.5t-47 -75.5q-69 -104 -82 -166h79q40 0 51 5t15 19q8 21 18 73h22z" />
    <glyph glyph-name="baht" unicode="&#xe3f;" horiz-adv-x="693" 
d="M638 183q0 -74 -62.5 -128.5t-156.5 -54.5h-66v-28q0 -6 -4.5 -10t-9.5 -4q-14 0 -14 14v28h-282v29h20q51 0 63 8.5t12 38.5v531q0 30 -12 38.5t-63 8.5h-20v29h282v28q0 14 14 14q5 0 9.5 -4t4.5 -10v-28h39q95 0 156.5 -51t61.5 -118q0 -56 -46 -99.5t-118 -57.5
q86 -9 139 -60t53 -114zM522 514q0 50 -34 95t-102 45h-33v-289h6q77 0 120 46.5t43 102.5zM325 365v289h-65q-32 0 -39 -7t-7 -33v-249h111zM547 184q0 63 -39 112t-107 49h-48v-316h35q71 0 115 46t44 109zM325 29v316h-111v-276q0 -26 7 -33t39 -7h65z" />
    <glyph glyph-name="Ddotbelow" unicode="&#x1e0c;" horiz-adv-x="748" 
d="M693 335q0 -139 -88 -237t-213 -98h-350v29h20q51 0 63 8.5t12 38.5v531q0 30 -12 38.5t-63 8.5h-20v29h350q125 0 213 -101.5t88 -246.5zM602 336q0 141 -45 212q-66 106 -190 106h-105q-32 0 -39 -7t-7 -33v-545q0 -26 7 -33t39 -7h105q112 0 177 83q58 75 58 224z
M364 -152q0 -19 -13.5 -33.5t-35.5 -14.5q-19 0 -33.5 14t-14.5 34t14 34.5t35 14.5q19 0 33.5 -13.5t14.5 -35.5z" />
    <glyph glyph-name="ddotbelow" unicode="&#x1e0d;" horiz-adv-x="544" 
d="M515 0l-141 -10v69q-51 -69 -134 -69t-144 65.5t-61 159.5q0 95 64 160.5t152 65.5q79 0 125 -64v221q0 37 -12.5 46.5t-63.5 9.5v29l139 11v-609q0 -37 12.5 -46.5t63.5 -9.5v-29zM374 117v206q0 20 -12 37q-7 12 -18 23.5t-36 24.5t-53 13q-35 0 -64 -18t-46 -44
q-34 -51 -34 -145q0 -55 12 -95.5t27.5 -60.5t36.5 -31.5t33.5 -14t24.5 -2.5q71 0 115 64q14 22 14 43zM321 -152q0 -19 -13.5 -33.5t-35.5 -14.5q-20 0 -34 14t-14 34t14 34.5t35 14.5q19 0 33.5 -13.5t14.5 -35.5z" />
    <glyph glyph-name="Dlinebelow" unicode="&#x1e0e;" horiz-adv-x="748" 
d="M693 335q0 -139 -88 -237t-213 -98h-350v29h20q51 0 63 8.5t12 38.5v531q0 30 -12 38.5t-63 8.5h-20v29h350q125 0 213 -101.5t88 -246.5zM602 336q0 141 -45 212q-66 106 -190 106h-105q-32 0 -39 -7t-7 -33v-545q0 -26 7 -33t39 -7h105q112 0 177 83q58 75 58 224z
M491 -165h-353v29h353v-29z" />
    <glyph glyph-name="dlinebelow" unicode="&#x1e0f;" horiz-adv-x="544" 
d="M515 0l-141 -10v69q-51 -69 -134 -69t-144 65.5t-61 159.5q0 95 64 160.5t152 65.5q79 0 125 -64v221q0 37 -12.5 46.5t-63.5 9.5v29l139 11v-609q0 -37 12.5 -46.5t63.5 -9.5v-29zM374 117v206q0 20 -12 37q-7 12 -18 23.5t-36 24.5t-53 13q-35 0 -64 -18t-46 -44
q-34 -51 -34 -145q0 -55 12 -95.5t27.5 -60.5t36.5 -31.5t33.5 -14t24.5 -2.5q71 0 115 64q14 22 14 43zM448 -165h-353v29h353v-29z" />
    <glyph glyph-name="Hdotbelow" unicode="&#x1e24;" horiz-adv-x="734" 
d="M692 0q-24 2 -136 2q-111 0 -135 -2v29h20q51 0 63 8.5t12 38.5v265h-299v-265q0 -30 12 -38.5t63 -8.5h20v-29q-24 2 -136 2q-111 0 -135 -2v29h20q51 0 63 8.5t12 38.5v531q0 30 -12 38.5t-63 8.5h-20v29q24 -2 136 -2q111 0 135 2v-29h-20q-51 0 -63 -8.5t-12 -38.5
v-237h299v237q0 30 -12 38.5t-63 8.5h-20v29q24 -2 136 -2q111 0 135 2v-29h-20q-51 0 -63 -8.5t-12 -38.5v-531q0 -30 12 -38.5t63 -8.5h20v-29zM416 -152q0 -19 -13.5 -33.5t-35.5 -14.5q-19 0 -33.5 14t-14.5 34t14 34.5t35 14.5q19 0 33.5 -13.5t14.5 -35.5z" />
    <glyph glyph-name="hdotbelow" unicode="&#x1e25;" horiz-adv-x="544" 
d="M521 0q-26 2 -109 2q-82 0 -108 -2v29q52 0 64 6.5t12 38.5v235q0 112 -76 112q-51 0 -91 -43.5t-40 -117.5v-186q0 -32 12.5 -38.5t63.5 -6.5v-29q-26 2 -109 2q-82 0 -108 -2v29q52 0 64 6.5t12 38.5v524q0 37 -12.5 46.5t-63.5 9.5v29l139 11v-349h1q9 21 23 39.5
t46 37.5t71 19q77 0 110 -45q16 -22 19.5 -49t3.5 -104v-184q1 -21 16.5 -25.5t59.5 -4.5v-29zM326 -152q0 -19 -13.5 -33.5t-35.5 -14.5q-19 0 -33.5 14t-14.5 34t14 34.5t35 14.5q19 0 33.5 -13.5t14.5 -35.5z" />
    <glyph glyph-name="Hdieresis" unicode="&#x1e26;" horiz-adv-x="734" 
d="M692 0q-24 2 -136 2q-111 0 -135 -2v29h20q51 0 63 8.5t12 38.5v265h-299v-265q0 -30 12 -38.5t63 -8.5h20v-29q-24 2 -136 2q-111 0 -135 -2v29h20q51 0 63 8.5t12 38.5v531q0 30 -12 38.5t-63 8.5h-20v29q24 -2 136 -2q111 0 135 2v-29h-20q-51 0 -63 -8.5t-12 -38.5
v-237h299v237q0 30 -12 38.5t-63 8.5h-20v29q24 -2 136 -2q111 0 135 2v-29h-20q-51 0 -63 -8.5t-12 -38.5v-531q0 -30 12 -38.5t63 -8.5h20v-29zM317 777q0 -17 -12.5 -30t-31.5 -13q-17 0 -30 13t-13 30q0 18 12.5 31t31.5 13q17 0 30 -12.5t13 -31.5zM505 777
q0 -17 -12.5 -30t-31.5 -13q-17 0 -30 13t-13 30q0 18 12.5 31t31.5 13q17 0 30 -12.5t13 -31.5z" />
    <glyph glyph-name="hdieresis" unicode="&#x1e27;" horiz-adv-x="544" 
d="M521 0q-26 2 -109 2q-82 0 -108 -2v29q52 0 64 6.5t12 38.5v235q0 112 -76 112q-51 0 -91 -43.5t-40 -117.5v-186q0 -32 12.5 -38.5t63.5 -6.5v-29q-26 2 -109 2q-82 0 -108 -2v29q52 0 64 6.5t12 38.5v524q0 37 -12.5 46.5t-63.5 9.5v29l139 11v-349h1q9 21 23 39.5
t46 37.5t71 19q77 0 110 -45q16 -22 19.5 -49t3.5 -104v-184q1 -21 16.5 -25.5t59.5 -4.5v-29zM222 788q0 -17 -12.5 -30t-31.5 -13q-17 0 -30 13t-13 30q0 18 12.5 31t31.5 13q17 0 30 -12.5t13 -31.5zM410 788q0 -17 -12.5 -30t-31.5 -13q-17 0 -30 13t-13 30
q0 18 12.5 31t31.5 13q17 0 30 -12.5t13 -31.5z" />
    <glyph glyph-name="Hbrevebelow" unicode="&#x1e2a;" horiz-adv-x="734" 
d="M692 0q-24 2 -136 2q-111 0 -135 -2v29h20q51 0 63 8.5t12 38.5v265h-299v-265q0 -30 12 -38.5t63 -8.5h20v-29q-24 2 -136 2q-111 0 -135 -2v29h20q51 0 63 8.5t12 38.5v531q0 30 -12 38.5t-63 8.5h-20v29q24 -2 136 -2q111 0 135 2v-29h-20q-51 0 -63 -8.5t-12 -38.5
v-237h299v237q0 30 -12 38.5t-63 8.5h-20v29q24 -2 136 -2q111 0 135 2v-29h-20q-51 0 -63 -8.5t-12 -38.5v-531q0 -30 12 -38.5t63 -8.5h20v-29zM512 -65q-1 -75 -43 -123.5t-103 -48.5q-58 0 -101 48t-44 124h20q1 -61 38.5 -99t87.5 -38q48 0 86 37.5t39 99.5h20z" />
    <glyph glyph-name="hbrevebelow" unicode="&#x1e2b;" horiz-adv-x="544" 
d="M521 0q-26 2 -109 2q-82 0 -108 -2v29q52 0 64 6.5t12 38.5v235q0 112 -76 112q-51 0 -91 -43.5t-40 -117.5v-186q0 -32 12.5 -38.5t63.5 -6.5v-29q-26 2 -109 2q-82 0 -108 -2v29q52 0 64 6.5t12 38.5v524q0 37 -12.5 46.5t-63.5 9.5v29l139 11v-349h1q9 21 23 39.5
t46 37.5t71 19q77 0 110 -45q16 -22 19.5 -49t3.5 -104v-184q1 -21 16.5 -25.5t59.5 -4.5v-29zM422 -65q-1 -75 -43 -123.5t-103 -48.5q-58 0 -101 48t-44 124h20q1 -61 38.5 -99t87.5 -38q48 0 86 37.5t39 99.5h20z" />
    <glyph glyph-name="Idieresisacute" unicode="&#x1e2e;" horiz-adv-x="353" 
d="M317 0q-24 2 -141 2q-116 0 -140 -2v29h22q53 0 65.5 8.5t12.5 38.5v531q0 30 -12.5 38.5t-65.5 8.5h-22v29q24 -2 141 -2q116 0 140 2v-29h-22q-53 0 -65.5 -8.5t-12.5 -38.5v-531q0 -30 12.5 -38.5t65.5 -8.5h22v-29zM127 777q0 -17 -12.5 -30t-31.5 -13q-17 0 -30 13
t-13 30q0 18 12.5 31t31.5 13q17 0 30 -12.5t13 -31.5zM315 777q0 -17 -12.5 -30t-31.5 -13q-17 0 -30 13t-13 30q0 18 12.5 31t31.5 13q17 0 30 -12.5t13 -31.5zM311 1003q-3 -16 -21 -26l-168 -96q-5 6 -13 18l143 129q14 14 24 14q16 0 26.5 -11.5t8.5 -27.5z" />
    <glyph glyph-name="idieresisacute" unicode="&#x1e2f;" horiz-adv-x="272" 
d="M241 0q-34 2 -103 2q-77 0 -105 -2v29q51 0 63.5 6.5t12.5 38.5v272q0 37 -12.5 46t-60.5 9v29l136 11v-368q0 -30 10.5 -37t58.5 -7v-29zM100 604q0 -17 -12.5 -30t-31.5 -13q-17 0 -30 13t-13 30q0 18 12.5 31t31.5 13q17 0 30 -12.5t13 -31.5zM260 604
q0 -17 -12.5 -30t-31.5 -13q-17 0 -30 13t-13 30q0 18 12.5 31t31.5 13q17 0 30 -12.5t13 -31.5zM270 827q-3 -16 -21 -26l-168 -96q-5 6 -13 18l143 129q14 14 24 14q16 0 26.5 -11.5t8.5 -27.5z" />
    <glyph glyph-name="Ldotbelow" unicode="&#x1e36;" horiz-adv-x="612" 
d="M570 256l-26 -256h-503v29h20q51 0 63 8.5t12 38.5v531q0 30 -12 38.5t-63 8.5h-20v29q24 -2 143 -2q123 0 152 2v-29h-30q-61 0 -75 -9t-14 -39v-537q0 -26 7 -33t39 -7h87q36 0 65.5 8t48.5 19t34 31.5t23 36.5t14 44t8 43.5t5 44.5h22zM355 -152q0 -19 -13.5 -33.5
t-35.5 -14.5q-20 0 -34 14t-14 34t14 34.5t35 14.5q19 0 33.5 -13.5t14.5 -35.5z" />
    <glyph glyph-name="ldotbelow" unicode="&#x1e37;" horiz-adv-x="272" 
d="M248 0q-28 2 -108 2q-79 0 -107 -2v29q51 0 63.5 6.5t12.5 38.5v524q0 37 -12.5 46.5t-63.5 9.5v29l139 11v-620q0 -32 12.5 -38.5t63.5 -6.5v-29zM185 -152q0 -19 -13.5 -33.5t-35.5 -14.5q-20 0 -34 14t-14 34t14 34.5t35 14.5q19 0 33.5 -13.5t14.5 -35.5z" />
    <glyph glyph-name="Ldotbelowmacron" unicode="&#x1e38;" horiz-adv-x="612" 
d="M570 256l-26 -256h-503v29h20q51 0 63 8.5t12 38.5v531q0 30 -12 38.5t-63 8.5h-20v29q24 -2 143 -2q123 0 152 2v-29h-30q-61 0 -75 -9t-14 -39v-537q0 -26 7 -33t39 -7h87q36 0 65.5 8t48.5 19t34 31.5t23 36.5t14 44t8 43.5t5 44.5h22zM355 -152q0 -19 -13.5 -33.5
t-35.5 -14.5q-20 0 -34 14t-14 34t14 34.5t35 14.5q19 0 33.5 -13.5t14.5 -35.5zM365 754h-353v29h353v-29z" />
    <glyph glyph-name="ldotbelowmacron" unicode="&#x1e39;" horiz-adv-x="272" 
d="M248 0q-28 2 -108 2q-79 0 -107 -2v29q51 0 63.5 6.5t12.5 38.5v524q0 37 -12.5 46.5t-63.5 9.5v29l139 11v-620q0 -32 12.5 -38.5t63.5 -6.5v-29zM185 -152q0 -19 -13.5 -33.5t-35.5 -14.5q-20 0 -34 14t-14 34t14 34.5t35 14.5q19 0 33.5 -13.5t14.5 -35.5zM302 765
h-353v29h353v-29z" />
    <glyph glyph-name="Mdotbelow" unicode="&#x1e42;" horiz-adv-x="897" 
d="M852 0q-23 2 -132 2t-132 -2v29h20q51 0 63 8.5t12 38.5v578h-1l-243 -634q-4 -9 -5.5 -12.5t-4.5 -5.5t-7 -2q-10 0 -17 19l-241 630h-1v-546q0 -15 2 -24t9.5 -22.5t29 -20.5t54.5 -7v-29q-26 2 -107 2t-107 -2v29q33 0 54.5 7t29 20.5t9.5 22.5t2 24v504
q0 30 -12 38.5t-63 8.5h-20v29h155q17 0 21.5 -2.5t9.5 -16.5l218 -570l218 569q6 14 10.5 17t20.5 3h155v-29h-20q-51 0 -63 -8.5t-12 -38.5v-531q0 -30 12 -38.5t63 -8.5h20v-29zM498 -152q0 -19 -13.5 -33.5t-35.5 -14.5q-19 0 -33.5 14t-14.5 34t14 34.5t35 14.5
q19 0 33.5 -13.5t14.5 -35.5z" />
    <glyph glyph-name="mdotbelow" unicode="&#x1e43;" horiz-adv-x="816" 
d="M793 0q-26 2 -109 2q-82 0 -108 -2v29q52 0 64 6.5t12 38.5v235q0 112 -76 112q-51 0 -91 -43.5t-40 -117.5v-186q0 -32 12.5 -38.5t63.5 -6.5v-29q-26 2 -109 2q-82 0 -108 -2v29q52 0 64 6.5t12 38.5v235q0 112 -76 112q-51 0 -91 -43.5t-40 -117.5v-186
q0 -32 12.5 -38.5t63.5 -6.5v-29q-26 2 -109 2q-82 0 -108 -2v29q52 0 64 6.5t12 38.5v271q0 37 -12.5 46.5t-63.5 9.5v29l136 11v-103h1q5 12 13 25t24.5 33t44 32.5t61.5 12.5q113 0 131 -99q16 38 51 68.5t90 30.5q77 0 110 -45q16 -22 19.5 -49t3.5 -104v-184
q1 -21 16.5 -25.5t59.5 -4.5v-29zM457 -152q0 -19 -13.5 -33.5t-35.5 -14.5q-20 0 -34 14t-14 34t14 34.5t35 14.5q19 0 33.5 -13.5t14.5 -35.5z" />
    <glyph glyph-name="Ndotaccent" unicode="&#x1e44;" horiz-adv-x="734" 
d="M692 654q-33 0 -54.5 -7t-29 -21t-9.5 -23t-2 -25v-572q-3 -6 -12 -6q-7 0 -18 15l-390 594q-15 20 -17 22v-526q0 -16 2 -25t9.5 -23t29 -21t54.5 -7v-29q-26 2 -107 2t-107 -2v29q33 0 54.5 7t29 21t9.5 23t2 25v542q-27 7 -95 7v29h153q16 0 20.5 -2t11.5 -12
l347 -528v437q0 16 -2 25t-9.5 23t-29 21t-54.5 7v29q26 -2 107 -2t107 2v-29zM416 782q0 -19 -13.5 -33.5t-35.5 -14.5q-19 0 -33.5 14t-14.5 34t14 34.5t35 14.5q19 0 33.5 -13.5t14.5 -35.5z" />
    <glyph glyph-name="ndotaccent" unicode="&#x1e45;" horiz-adv-x="544" 
d="M521 0q-26 2 -109 2q-82 0 -108 -2v29q52 0 64 6.5t12 38.5v235q0 112 -76 112q-51 0 -91 -43.5t-40 -117.5v-186q0 -32 12.5 -38.5t63.5 -6.5v-29q-26 2 -109 2q-82 0 -108 -2v29q52 0 64 6.5t12 38.5v271q0 37 -12.5 46.5t-63.5 9.5v29l136 11v-103h1q5 12 13 25
t24.5 33t44 32.5t61.5 12.5q77 0 110 -45q16 -22 19.5 -49t3.5 -104v-184q1 -21 16.5 -25.5t59.5 -4.5v-29zM321 604q0 -19 -13.5 -33.5t-35.5 -14.5q-20 0 -34 14t-14 34t14 34.5t35 14.5q19 0 33.5 -13.5t14.5 -35.5z" />
    <glyph glyph-name="Ndotbelow" unicode="&#x1e46;" horiz-adv-x="734" 
d="M692 654q-33 0 -54.5 -7t-29 -21t-9.5 -23t-2 -25v-572q-3 -6 -12 -6q-7 0 -18 15l-390 594q-15 20 -17 22v-526q0 -16 2 -25t9.5 -23t29 -21t54.5 -7v-29q-26 2 -107 2t-107 -2v29q33 0 54.5 7t29 21t9.5 23t2 25v542q-27 7 -95 7v29h153q16 0 20.5 -2t11.5 -12
l347 -528v437q0 16 -2 25t-9.5 23t-29 21t-54.5 7v29q26 -2 107 -2t107 2v-29zM416 -152q0 -19 -13.5 -33.5t-35.5 -14.5q-19 0 -33.5 14t-14.5 34t14 34.5t35 14.5q19 0 33.5 -13.5t14.5 -35.5z" />
    </font>
</defs>
</svg>
