<?xml version="1.0" standalone="no"?>
<!DOCTYPE svg PUBLIC "-//W3C//DTD SVG 1.1//EN" "http://www.w3.org/Graphics/SVG/1.1/DTD/svg11.dtd" >
<svg xmlns="http://www.w3.org/2000/svg" xmlns:xlink="http://www.w3.org/1999/xlink" version="1.1">
<metadata>
Created by FontForge 20190801 at Thu Oct  8 09:59:37 2009
 By www-data
Copyright 2003, 2009 B. Jackowski and J. M. Nowacki (on behalf of TeX users groups). This work is released under the GUST Font License --  see http://tug.org/fonts/licenses/GUST-FONT-LICENSE.txt for details.
</metadata>
<defs>
<font id="lmroman12italic" horiz-adv-x="500" >
  <font-face 
    font-family="lmroman12italic"
    font-weight="400"
    font-style="italic"
    font-stretch="normal"
    units-per-em="1000"
    panose-1="0 0 5 0 0 0 0 0 0 0"
    ascent="806"
    descent="-194"
    x-height="441"
    cap-height="683"
    bbox="-449 -289 1358 1125"
    underline-thickness="44"
    underline-position="-175"
    slope="-14.0362"
    unicode-range="U+0020-FB04"
  />
<missing-glyph horiz-adv-x="280" 
 />
    <glyph glyph-name="I_J" unicode="IJ" horiz-adv-x="853" 
d="M322 19q0 -13 -5 -16t-14 -3q-18 0 -57 1t-58 1t-56.5 -1t-55.5 -1q-14 0 -14 10q0 13 5.5 16t18.5 3q49 0 62.5 7.5t20.5 35.5l135 540l4 24q0 7 -2 10t-15.5 5.5t-41.5 2.5q-15 0 -19.5 1.5t-4.5 9.5q0 18 19 18q18 0 56.5 -1t57.5 -1q18 0 56 1t57 1q14 0 14 -10
q0 -13 -5.5 -16t-23.5 -3q-44 0 -58 -7.5t-20 -33.5l-137 -550q-2 -9 -2 -17q0 -17 57 -17h12.5t7.5 -1t5 -3t1 -6zM947 672q0 -12 -5.5 -15t-16.5 -3q-31 0 -41.5 -7t-16.5 -30l-118 -476q-16 -65 -74 -113.5t-125 -48.5q-47 0 -79 28.5t-32 77.5q0 20 5.5 35t12.5 22
t16.5 11t13.5 4.5t8 0.5q16 0 26.5 -9.5t10.5 -25.5q0 -19 -15.5 -36t-38.5 -17q-9 0 -12 1q4 -34 28 -53t54 -19q40 0 77.5 45t51.5 100l118 473q3 12 3 16q0 14 -17.5 17.5t-55.5 3.5h-8q-15 0 -19.5 1.5t-4.5 9.5q0 18 20 18q19 0 59.5 -1t60.5 -1q17 0 51 1t50 1
q13 0 13 -11z" />
    <glyph glyph-name="i_j" unicode="ij" horiz-adv-x="570" 
d="M327 610q0 -22 -18 -39.5t-41 -17.5q-16 0 -28 10.5t-12 29.5q0 22 18 39.5t41 17.5q17 0 28.5 -10t11.5 -30zM629 610q0 -22 -18 -39.5t-41 -17.5q-16 0 -28 10.5t-12 29.5q0 22 18 39.5t41 17.5q17 0 28.5 -10t11.5 -30zM323 143q0 -3 -4 -17.5t-13.5 -38t-23 -45
t-35.5 -37t-48 -15.5q-29 0 -50.5 19.5t-21.5 59.5q0 22 8 44l80 217q13 33 13 61q0 30 -22 30q-61 0 -92 -125q-3 -11 -5.5 -14t-11.5 -3q-14 0 -14 9q0 3 4 18t14 38t23.5 44.5t35.5 37t48 15.5q31 0 51.5 -20.5t20.5 -57.5q0 -20 -11 -51l-59 -162q-32 -87 -32 -111
q0 -29 23 -29q59 0 92 124q3 12 5.5 15t11.5 3q13 0 13 -9zM486 -56q-15 -59 -65 -103.5t-108 -44.5q-34 0 -56.5 14.5t-22.5 40.5q0 21 14 34.5t31 13.5q16 0 24 -9t8 -20q0 -32 -35 -44q16 -10 37 -10q41 0 70.5 40.5t40.5 84.5l97 389q7 27 7 50q0 41 -28 41
q-35 0 -64.5 -35t-49.5 -88q-5 -14 -8 -16.5t-11 -2.5q-14 0 -14 9q0 8 15.5 42t52.5 72.5t81 38.5q39 0 60.5 -25.5t21.5 -62.5l-5 -35z" />
    <glyph glyph-name="f_k" unicode="fk" horiz-adv-x="774" 
d="M797 143q0 -3 -4 -18.5t-11.5 -38.5t-16.5 -38q-31 -58 -78 -58q-32 0 -56.5 23t-24.5 72q0 19 5 39q2 10 2 20q0 23 -12 40.5t-30.5 26.5t-32 13t-26.5 6l-52 -207q-9 -33 -36 -33q-12 0 -19 7.5t-7 17.5q0 1 4 18l92 369h-222l-62 -319q-55 -287 -159 -287
q-32 0 -55 17t-23 45q0 24 13.5 37.5t32.5 13.5q13 0 22 -7.5t9 -21.5q0 -37 -41 -45q14 -19 42 -19q17 0 29 15t16.5 28t10.5 36q18 67 31 134l73 373h-59q-24 0 -24 10q0 13 5.5 16t20.5 3h63l20 103q17 86 62.5 128t133.5 42q116 0 120 -61h1l8 32q4 14 7.5 16.5
t18.5 2.5h15q22 0 22 -10q0 -4 -3 -13l-103 -412q39 17 94 83q27 32 42.5 48t44 33.5t55.5 17.5q31 0 47 -17t16 -39q0 -23 -14 -37t-32 -14q-31 0 -31 29q0 15 9.5 28.5t32.5 16.5q-7 13 -30 13q-52 0 -122 -86q-59 -70 -89 -86q131 -23 131 -104q0 -15 -5 -34
q-9 -35 -9 -59q0 -42 30 -42q29 0 46 32t30 86q4 17 7 20.5t12 3.5q13 0 13 -9zM501 431l45 180h-1q-3 -5 -13.5 -12.5t-24.5 -7.5q-13 0 -22 7.5t-9 21.5q0 17 10.5 29t26.5 16q-27 19 -80 19q-36 0 -60 -9t-37 -29t-18 -34t-12 -41q-6 -24 -15.5 -73t-13.5 -67h224z" />
    <glyph glyph-name="f_f" unicode="ff" horiz-adv-x="600" 
d="M746 641q0 -21 -13.5 -35.5t-32.5 -14.5q-13 0 -22 7.5t-9 21.5q0 13 9.5 26.5t29.5 18.5q-17 19 -48 19q-16 0 -30 -14t-21 -38q-8 -31 -24.5 -113t-17.5 -88h76q15 0 19.5 -1.5t4.5 -9.5q0 -12 -6 -15t-21 -3h-78l-60 -309q-30 -149 -64 -206q-18 -31 -56 -61t-85 -30
q-38 0 -66 16t-28 47q0 21 13.5 35.5t32.5 14.5q13 0 22 -7.5t9 -21.5q0 -16 -10.5 -28.5t-27.5 -17.5q21 -18 56 -18q15 0 30 7t25.5 17t19 20.5t12.5 17.5l4 7q22 50 45 174l67 343h-229l-62 -319q-55 -287 -159 -287q-32 0 -55 17t-23 45q0 24 13.5 37.5t32.5 13.5
q13 0 22 -7.5t9 -21.5q0 -37 -41 -45q14 -19 42 -19q17 0 29.5 15.5t17 30t12.5 43.5q17 64 30 130l71 367h-59q-24 0 -24 10q0 13 5.5 16t20.5 3h63l20 103q6 33 16 58.5t29 53t53 43t81 15.5t76 -16.5t29 -46.5q0 -21 -13.5 -35.5t-32.5 -14.5q-13 0 -22 7.5t-9 21.5
q0 15 10 28t28 17q-23 19 -66 19q-37 0 -70 -24q-19 -16 -30 -49q-7 -22 -14 -54t-14.5 -71t-10.5 -55h230l22 112q31 161 131 161q35 0 60.5 -16.5t25.5 -46.5z" />
    <glyph glyph-name="f_i" unicode="fi" horiz-adv-x="550" 
d="M573 143q0 -2 -3.5 -17.5t-10.5 -38.5t-15 -39q-26 -58 -72 -58q-35 0 -57.5 24.5t-22.5 63.5q0 16 5 36l72 288h-197l-62 -319q-55 -287 -159 -287q-32 0 -55 17t-23 45q0 24 13.5 37.5t32.5 13.5q13 0 22 -7.5t9 -21.5q0 -37 -41 -45q14 -19 42 -19q17 0 29 15t16.5 28
t10.5 36q18 67 31 134l73 373h-59q-24 0 -24 10q0 13 5.5 16t20.5 3h63l19 98q19 97 70.5 136t141.5 39q138 0 138 -71q0 -24 -14 -38t-32 -14q-16 0 -24 9t-8 20q0 13 10 27.5t31 17.5q-25 29 -100 29q-35 0 -60.5 -8.5t-40 -19t-25.5 -35.5t-15.5 -42.5t-12.5 -54.5
q-4 -19 -9 -46t-9 -47h235q10 0 13.5 -0.5t6 -2.5t2.5 -6l-79 -319q-8 -34 -8 -53q0 -40 27 -40q39 0 67 118q4 17 7 20.5t12 3.5q13 0 13 -9z" />
    <glyph glyph-name="f_l" unicode="fl" horiz-adv-x="575" 
d="M598 143q0 -2 -3.5 -17.5t-10.5 -38.5t-15 -39q-26 -58 -72 -58q-35 0 -57.5 24.5t-22.5 63.5q0 16 5 36l72 288h-222l-62 -319q-55 -287 -159 -287q-32 0 -55 17t-23 45q0 24 13.5 37.5t32.5 13.5q13 0 22 -7.5t9 -21.5q0 -37 -41 -45q14 -19 42 -19q17 0 29 15t16.5 28
t10.5 36q18 67 31 134l73 373h-59q-24 0 -24 10q0 13 5.5 16t20.5 3h63l20 103q17 86 62.5 128t133.5 42q116 0 120 -61h1l8 32q4 14 7.5 16.5t18.5 2.5h15q22 0 22 -9l-2 -13l-143 -569q-8 -30 -8 -53q0 -40 27 -40q39 0 67 118q4 17 7 20.5t12 3.5q13 0 13 -9zM501 431
l45 180h-1q-3 -5 -13.5 -12.5t-24.5 -7.5q-13 0 -22 7.5t-9 21.5q0 17 10.5 29t26.5 16q-27 19 -80 19q-36 0 -60 -9t-37 -29t-18 -34t-12 -41q-6 -24 -15.5 -73t-13.5 -67h224z" />
    <glyph glyph-name="f_f_i" unicode="&#xfb00;i" horiz-adv-x="863" 
d="M886 143q0 -2 -3.5 -17.5t-10.5 -38.5t-15 -39q-26 -58 -72 -58q-35 0 -57.5 24.5t-22.5 63.5q0 16 5 36l72 288h-210l-69 -351q-9 -45 -28 -102q-16 -47 -40.5 -80t-50.5 -47.5t-45.5 -20t-36.5 -5.5q-39 0 -69 15.5t-30 47.5q0 21 13.5 35.5t32.5 14.5q13 0 22 -7.5
t9 -21.5q0 -36 -38 -44q21 -20 61 -20q23 0 46.5 16.5t33 29t14.5 21.5q23 46 47 173l67 346h-239l-62 -320q-56 -286 -159 -286q-32 0 -55 17t-23 45q0 24 13.5 37.5t32.5 13.5q13 0 22 -7.5t9 -21.5q0 -37 -41 -45q14 -19 43 -19q12 0 22 7.5t17 23.5t10 25.5t9 29.5
q20 81 32 145l69 355h-59q-24 0 -24 10q0 13 5.5 16t20.5 3h63l22 110q8 33 17 55.5t29 50.5t56.5 42.5t87.5 14.5q117 0 117 -63q0 -21 -13.5 -35.5t-32.5 -14.5q-13 0 -22 7.5t-9 21.5q0 17 10.5 29t26.5 16q-26 19 -76 19q-85 0 -109 -62q-17 -44 -43 -191h239l19 97
q21 104 75.5 140t142.5 36q145 0 145 -70q0 -25 -14 -39t-32 -14q-16 0 -24 9t-8 20q0 13 10 27.5t31 17.5q-26 29 -106 29q-20 0 -36 -1.5t-30 -6.5t-24.5 -9t-20 -15.5t-15.5 -19t-12.5 -27t-10.5 -32t-10 -41t-9 -46t-10 -55.5h247q10 0 13.5 -0.5t6 -2.5t2.5 -6
l-79 -319q-8 -34 -8 -53q0 -40 27 -40q39 0 67 118q4 17 7 20.5t12 3.5q13 0 13 -9z" />
    <glyph glyph-name="f_f_l" unicode="ffl" horiz-adv-x="875" 
d="M898 143q0 -2 -3.5 -17.5t-10.5 -38.5t-15 -39q-26 -58 -72 -58q-35 0 -57.5 24.5t-22.5 63.5q0 16 5 36l72 288h-222l-60 -309q-40 -174 -73 -218q-60 -79 -137 -79q-40 0 -69.5 16t-29.5 47q0 21 13.5 35.5t32.5 14.5q13 0 22 -7.5t9 -21.5q0 -36 -38 -44
q21 -20 60 -20q34 0 62.5 27.5t37.5 52.5q20 49 43 166l66 340h-239l-62 -319q-55 -287 -159 -287q-32 0 -55 17t-23 45q0 24 13.5 37.5t32.5 13.5q13 0 22 -7.5t9 -21.5q0 -37 -41 -45q14 -19 42 -19q17 0 29.5 15.5t17 30t12.5 43.5q17 64 30 130l71 367h-59q-24 0 -24 10
q0 13 5.5 16t20.5 3h63l20 103q6 33 16 58.5t29 53t53 43t81 15.5t76 -16.5t29 -46.5q0 -21 -13.5 -35.5t-32.5 -14.5q-13 0 -22 7.5t-9 21.5q0 15 10 28t28 17q-23 19 -66 19q-37 0 -70 -24q-19 -16 -30 -49q-7 -22 -14 -54t-14.5 -71t-10.5 -55h240l20 103q17 86 62.5 128
t133.5 42q116 0 120 -61h1l8 32q4 14 7.5 16.5t18.5 2.5h15q22 0 22 -9l-2 -13l-143 -569q-8 -30 -8 -53q0 -40 27 -40q39 0 67 118q4 17 7 20.5t12 3.5q13 0 13 -9zM801 431l45 180h-1q-3 -5 -13.5 -12.5t-24.5 -7.5q-13 0 -22 7.5t-9 21.5q0 17 10.5 29t26.5 16
q-27 19 -80 19q-36 0 -60 -9t-37 -29t-18 -34t-12 -41q-6 -24 -15.5 -73t-13.5 -67h224z" />
    <glyph glyph-name=".notdef" horiz-adv-x="280" 
 />
    <glyph glyph-name=".null" horiz-adv-x="0" 
 />
    <glyph glyph-name="nonmarkingreturn" horiz-adv-x="333" 
 />
    <glyph glyph-name="space" unicode=" " horiz-adv-x="350" 
 />
    <glyph glyph-name="exclam" unicode="!" horiz-adv-x="300" 
d="M361 655l-147 -459q-5 -16 -17 -16q-14 0 -14 11q0 3 2 13l81 456q4 24 19 37.5t24.5 15.5t16.5 2q14 0 27 -8.5t13 -29.5q0 -8 -5 -22zM211 57q0 -22 -18 -39.5t-41 -17.5q-16 0 -28 10.5t-12 29.5q0 22 18 39.5t41 17.5q17 0 28.5 -10t11.5 -30z" />
    <glyph glyph-name="quotedbl" unicode="&#x22;" horiz-adv-x="388" 
d="M349 674l-79 -251h-28l47 251q2 13 13 21.5t24 8.5t20 -8.5t3 -21.5zM437 674l-79 -251h-28l47 251q2 13 13 21.5t24 8.5t20 -8.5t3 -21.5z" />
    <glyph glyph-name="numbersign" unicode="#" horiz-adv-x="800" 
d="M763 156q0 -18 -32 -18h-201l-154 -314q-8 -18 -20 -18q-8 0 -13.5 6t-5.5 13q0 5 7 17l145 296h-165l-154 -314q-8 -18 -20 -18q-8 0 -13.5 6t-5.5 13q0 5 7 17l145 296h-137q-32 0 -32 19q0 18 32 18h156l72 149h-181q-11 0 -16 0.5t-10.5 5t-5.5 13.5q0 18 32 18h201
l154 315q8 18 20 18q8 0 13.5 -6t5.5 -13q0 -5 -7 -17l-145 -297h165l154 315q8 18 20 18q8 0 13.5 -6t5.5 -13q0 -5 -7 -17l-145 -297h137q31 0 31 -19q0 -18 -31 -18h-156l-73 -149h182q32 0 32 -19zM580 324h-164l-73 -149h165z" />
    <glyph glyph-name="dollar" unicode="$" horiz-adv-x="490" 
d="M573 560q-8 -76 -57 -76q-36 0 -34 35q2 21 17.5 34.5t33.5 13.5q5 0 17 -3q0 11 -0.5 19t-7 26t-18.5 30.5t-37 23t-60 12.5l-68 -277q23 -5 36 -9.5t31.5 -16t31.5 -28.5q37 -48 31 -116q-7 -78 -67 -150t-162 -87q-3 -1 -7 -16l-8 -31h-29l11 46q-60 4 -100 40.5
t-34 112.5q7 81 57 81q36 0 34 -35q-2 -21 -17.5 -34.5t-33.5 -13.5q-10 0 -18 4q-6 -118 120 -126l76 304q-29 8 -41 12t-30 14.5t-30 25.5q-38 50 -33 110q7 81 75 146.5t154 72.5l11 46h29l-11 -46q71 -4 107 -43t31 -101zM331 406l67 268q-68 -8 -114.5 -55t-51.5 -99
q-2 -30 8 -52.5t29.5 -35t32 -17.5t29.5 -9zM434 193q8 101 -97 122l-73 -295q68 9 116.5 61t53.5 112z" />
    <glyph glyph-name="percent" unicode="%" horiz-adv-x="800" 
d="M832 731q0 -6 -11 -19l-643 -755q-12 -13 -19 -13q-18 0 -18 19q0 8 9 18l572 673v1q-57 -31 -125 -31q-72 0 -129 42q4 -18 4 -40q0 -96 -56 -187.5t-121 -91.5q-40 0 -66 34t-26 97q0 100 60.5 186t127.5 86q34 0 60 -35q51 -72 147 -72q58 0 110 27.5t80 59.5
q16 20 25 20q8 0 13.5 -6t5.5 -13zM771 223q0 -96 -56 -187.5t-121 -91.5q-41 0 -66.5 36t-25.5 95q0 99 60 185.5t128 86.5q41 0 61 -37t20 -87zM444 630q0 42 -13.5 71t-39.5 29q-41 0 -75 -57.5t-49.5 -121t-15.5 -104.5q0 -80 46 -80q49 0 98 86t49 177zM744 227
q0 8 -1 18.5t-5.5 32t-16.5 35.5t-31 14q-26 0 -53 -29t-44 -68q-14 -34 -28.5 -93t-14.5 -93q0 -80 46 -80q50 0 99 88t49 175z" />
    <glyph glyph-name="ampersand" unicode="&#x26;" horiz-adv-x="750" 
d="M719 313q0 -35 -9.5 -75t-34.5 -87t-62.5 -84.5t-100 -62.5t-140.5 -25q-115 0 -181.5 57.5t-66.5 138.5q0 45 26 106.5t70 107.5q-11 29 -11 66q0 96 66 178t143 82q49 0 76 -32.5t27 -79.5q0 -77 -49 -77q-31 0 -31 29q0 8 2 16t15 18t35 10q0 54 -23.5 75t-51.5 21
q-45 0 -81.5 -48.5t-54 -108t-19.5 -111.5q51 35 98 35q31 0 47 -17.5t16 -41.5q0 -33 -28 -62t-68 -29q-47 0 -81 34q-20 -36 -36.5 -94t-16.5 -95q0 -82 53.5 -120t127.5 -38q72 0 129.5 24t91 59t56 79.5t30.5 81t8 67.5q0 76 -52 140q-78 -49 -104 -75t-26 -68
q0 -7 5 -24q10 31 41 31q30 0 30 -29q0 -17 -13 -30t-31 -13q-24 0 -41.5 17.5t-17.5 51.5q0 33 20 62.5t40.5 44.5t62.5 42q21 13 35.5 23.5t36.5 30.5t40.5 47.5t31.5 60.5q-15 0 -23 7t-9 14l-1 7q0 16 13 30t31 14q17 0 24 -9.5t7 -18.5q0 -12 -10 -41t-41.5 -77
t-76.5 -81q57 -71 57 -154zM396 407q0 35 -34 35q-41 0 -93 -60q7 -21 22.5 -35.5t38.5 -14.5q27 0 46.5 22.5t19.5 52.5z" />
    <glyph glyph-name="quotesingle" unicode="'" horiz-adv-x="300" 
d="M349 674l-79 -251h-28l47 251q2 13 13 21.5t24 8.5t20 -8.5t3 -21.5z" />
    <glyph glyph-name="parenleft" unicode="(" horiz-adv-x="400" 
d="M509 742q0 -3 -11 -14q-76 -65 -134.5 -156.5t-89.5 -174t-50.5 -169.5t-24.5 -137.5t-5 -83.5q0 -139 62 -237l6 -13q0 -8 -9 -8q-11 0 -37.5 40.5t-42.5 88.5q-25 70 -25 163q0 58 12 128t37 154t74 172t114 158q34 37 70 67t44 30z" />
    <glyph glyph-name="parenright" unicode=")" horiz-adv-x="400" 
d="M375 457q0 -146 -60.5 -317.5t-179.5 -297.5q-28 -31 -65 -62t-46 -31q-4 0 -6 2t-2 4l-1 2q0 3 13 16q75 64 132.5 154.5t88.5 172.5t50.5 168t25 138t5.5 86q0 140 -61 235l-7 15q0 8 14 8q99 -102 99 -293z" />
    <glyph glyph-name="asterisk" unicode="*" 
d="M527 446q0 -11 -9.5 -20.5t-20.5 -9.5q-9 0 -20 11l-89 89l-28 -165q-4 -32 -31 -32q-18 0 -18 17q0 5 5 19l52 161l-151 -100q-25 0 -25 19q0 17 24 28l149 72l-111 69q-15 10 -15 19q0 10 9.5 20t21.5 10q8 0 19 -11l89 -88l28 163q7 33 31 33q8 0 13.5 -5t5.5 -12
l-4 -16l-54 -164l140 94q8 6 17 6q19 0 19 -19q0 -17 -24 -28l-149 -72l110 -69q16 -11 16 -19z" />
    <glyph glyph-name="plus" unicode="+" horiz-adv-x="750" 
d="M736 249q0 -18 -32 -18h-253l-64 -259q-5 -23 -21 -23q-7 0 -12.5 5.5t-5.5 13.5q0 5 4 19l61 244h-244q-31 0 -31 19q0 18 31 18h253l64 257q5 25 21 25q9 0 14 -6t5 -13q0 -2 -1.5 -6t-1.5 -7l-62 -250h243q11 0 16 -0.5t10.5 -5t5.5 -13.5z" />
    <glyph glyph-name="comma" unicode="," horiz-adv-x="300" 
d="M214 42q0 -52 -30.5 -110t-62.5 -91.5t-42 -33.5q-9 0 -9 10q0 3 13 16q86 75 108 182q-16 -15 -39 -15q-16 0 -28 9.5t-12 28.5q0 23 17.5 41t41.5 18q43 0 43 -55z" />
    <glyph glyph-name="hyphen" unicode="-" horiz-adv-x="350" 
d="M332 232q0 -7 -8 -31q-2 -8 -6 -9.5t-19 -1.5h-190q-24 0 -24 10q0 7 8 31q2 8 5.5 9.5t19.5 1.5h190q24 0 24 -10z" />
    <glyph glyph-name="period" unicode="." horiz-adv-x="300" 
d="M211 58q0 -24 -19 -41t-40 -17q-18 0 -29 11t-11 28q0 23 18.5 40.5t40.5 17.5q16 0 28 -9.5t12 -29.5z" />
    <glyph glyph-name="slash" unicode="/" 
d="M607 731q0 -5 -7 -17l-544 -947q-8 -17 -20 -17q-8 0 -13.5 6t-5.5 13q0 5 7 17l544 947q8 17 20 17q8 0 13.5 -6t5.5 -13z" />
    <glyph glyph-name="zero" unicode="0" 
d="M463 160q-86 -181 -218 -181q-40 0 -67.5 17t-40 45t-17 52.5t-4.5 51.5q0 28 8 82t30 131.5t53.5 144.5t86.5 114.5t122 47.5q30 0 53.5 -10t36.5 -28t21 -35t11.5 -39.5t4 -33t0.5 -22.5q0 -67 -26.5 -173t-53.5 -164zM404 177q8 25 24.5 85t37 152t20.5 134
q0 55 -23.5 76t-52.5 21t-61 -21t-57 -64q-31 -55 -74 -228t-43 -235q0 -46 20.5 -72t53.5 -26q27 0 51.5 15.5t39.5 33.5t30.5 49t20.5 43.5t13 36.5z" />
    <glyph glyph-name="one" unicode="1" 
d="M407 18q0 -18 -20 -18l-129 2l-126 -2q-16 0 -16 10q0 13 5.5 16t21.5 3h8q55 0 71 8t22 35l119 477q-59 -42 -111 -42q-14 0 -14 11q0 8 3 12t5.5 5t11.5 2q93 9 170 115q10 13 15 13q10 0 10 -10q0 -6 -2 -14l-143 -569l-4 -22q0 -8 2.5 -11.5t18.5 -6.5t50 -3h8
q15 0 19.5 -1.5t4.5 -9.5z" />
    <glyph glyph-name="two" unicode="2" 
d="M503 163q0 -6 -9 -32.5t-26.5 -62t-50.5 -62.5t-72 -27t-90 36l-30 20t-25.5 12.5t-31.5 6.5q-38 0 -55 -62q-3 -9 -5.5 -11t-10.5 -2q-14 0 -14 9q0 5 4.5 20.5t18 44.5t33 59t54 63.5t76.5 57.5q107 62 154 127q53 76 53 173q0 56 -26 84t-63 28q-43 0 -82 -30.5
t-62.5 -73t-37.5 -84t-14 -68.5q0 -33 22 -33q41 0 69.5 53t28.5 85q0 16 -8 33l-3 9q0 10 11 10q7 0 13.5 -17.5t6.5 -34.5q0 -21 -12.5 -56.5t-41.5 -68.5t-65 -33q-48 0 -48 61q0 27 15 70t42 88t72.5 77.5t96.5 32.5q67 0 109.5 -47t42.5 -119q0 -64 -29.5 -110.5
t-86.5 -90.5q-48 -34 -73 -48l-76 -43q-3 -2 -9 -5.5t-22.5 -16t-31.5 -27t-34.5 -38.5t-33.5 -49q8 3 26 3q28 0 94 -16q60 -15 89 -15q42 0 73.5 34.5t45.5 78.5q3 11 5 13.5t11 2.5q13 0 13 -9z" />
    <glyph glyph-name="three" unicode="3" 
d="M553 533q0 -58 -43 -117.5t-120 -86.5q80 -35 80 -126q0 -88 -76.5 -156t-170.5 -68q-60 0 -94.5 36t-34.5 90q0 76 49 76q6 0 12.5 -2t12.5 -9.5t6 -18.5q0 -5 -1.5 -12.5t-14.5 -19.5t-36 -12q0 -53 29 -80.5t72 -27.5q32 0 68 18t61 52q26 37 39 89t13 77q0 85 -79 85
h-27q-11 0 -15 0.5t-6.5 2.5t-2.5 7q0 13 5 16t20 3h22q39 0 70 14t49 37t30.5 46.5t17.5 49t6.5 39t1.5 20.5q0 47 -25 68.5t-60 21.5q-71 0 -129 -57t-58 -117q0 -39 27 -39q22 0 41.5 19t19.5 45q0 14 -8 30l-4 10q0 10 11 10q7 0 14 -16.5t7 -32.5q0 -35 -26 -60
t-56 -25q-22 0 -37.5 15t-15.5 48q0 67 66 128.5t150 61.5q64 0 102 -38t38 -94z" />
    <glyph glyph-name="four" unicode="4" 
d="M463 13q0 -9 -33 -18t-58 -9q-15 0 -21 1l-36 -146q-8 -35 -37 -35q-13 0 -19.5 7.5t-6.5 16.5q0 11 9 38l33 135q-19 7 -29.5 11t-11.5 5t-4.5 2t-12.5 4q-35 12 -72 12q-57 0 -76 -15q-25 -21 -31 -21q-4 0 -9 6.5t-5 9.5q0 6 9 15.5t19 15.5q35 19 90.5 82t96.5 134
q86 146 143 361q3 12 5.5 18t11 14t21.5 8t19.5 -7.5t6.5 -16.5t-13.5 -56.5t-48 -132t-78.5 -155.5q-74 -123 -186 -232q9 1 28 1q39 0 74 -12q15 -4 61 -22q47 187 49 192q10 18 31 18q11 0 18.5 -7t7.5 -18q0 -2 -4 -18l-46 -183q5 -1 18 -1q30 0 64 12l9 3q5 0 9.5 -6.5
t4.5 -10.5z" />
    <glyph glyph-name="five" unicode="5" 
d="M488 266q0 -111 -80.5 -199t-176.5 -88q-59 0 -92.5 39t-33.5 98q0 89 53 89q5 0 10.5 -1t14 -9t8.5 -22q0 -19 -16 -34.5t-41 -11.5q-4 -48 22.5 -84.5t75.5 -36.5q35 0 73 24.5t66 75.5q19 35 35.5 100.5t16.5 101.5q0 19 -3.5 36.5t-18.5 36t-41 18.5q-75 0 -136 -70
q-7 -8 -13 -8q-11 0 -11 10q0 6 2 14l76 303q4 16 11 16q2 0 12 -4q48 -27 111 -27t126 28l12 3q8 0 8 -8q0 -9 -24 -30t-71 -41.5t-96 -20.5q-44 0 -79 15l-51 -208q60 48 125 48q59 0 92.5 -44t33.5 -109z" />
    <glyph glyph-name="six" unicode="6" 
d="M497 272q0 -109 -77 -201t-172 -92q-32 0 -56.5 12.5t-38 31t-22 43.5t-11 46.5t-2.5 43.5q0 62 24.5 164.5t80.5 182.5q113 162 241 162q38 0 66 -17t28 -59q0 -17 -4.5 -30t-10.5 -19t-13.5 -9t-11.5 -3.5t-7 -0.5q-13 0 -22 7.5t-9 21.5q0 2 0.5 5t3 10.5t7 13
t14.5 10.5t24 6q-10 40 -67 40q-14 0 -31 -4t-47 -22t-56.5 -48.5t-55.5 -91t-48 -141.5q60 92 139 92q39 0 67.5 -18t42 -45t19 -50t5.5 -41zM376 99q18 38 36 112.5t18 104.5q0 10 -1.5 20t-7 28.5t-22 30t-41.5 11.5q-46 0 -82.5 -35t-56.5 -86t-30 -99.5t-10 -85.5
q0 -39 18 -66.5t54 -27.5q74 0 125 93z" />
    <glyph glyph-name="seven" unicode="7" 
d="M613 657q0 -5 -16 -28q-162 -247 -246 -577q-5 -21 -8 -31.5t-9 -21.5t-15 -15.5t-22 -4.5q-17 0 -25 9.5t-8 20.5q0 8 9.5 43t37.5 109t67 151q47 97 130 229q-26 -13 -48 -13q-20 0 -29.5 10t-18.5 29q-11 21 -18 27.5t-20 6.5q-47 0 -101 -40t-96 -122
q-7 -11 -9.5 -13.5t-9.5 -2.5q-13 0 -13 8q0 3 5 14l94 205q5 11 8 13t10 2q14 0 14 -9l-25 -57q66 66 135 66q19 0 29.5 -11t12.5 -21.5t4 -34.5q2 -29 7.5 -39.5t21.5 -10.5q52 0 116 99q10 13 13 15.5t10 2.5q13 0 13 -8z" />
    <glyph glyph-name="eight" unicode="8" 
d="M483 207q0 -85 -72.5 -156.5t-164.5 -71.5q-64 0 -107 37t-43 98q0 64 50 124.5t139 100.5q-31 26 -43.5 39t-22.5 35t-10 52q0 77 63 138.5t142 61.5q54 0 92 -31t38 -86q0 -107 -158 -190q38 -31 54 -46.5t29.5 -43t13.5 -61.5zM502 550q0 43 -26 67t-65 24
q-56 0 -103.5 -41t-47.5 -94q0 -36 28 -61l81 -71q62 33 97.5 80t35.5 96zM428 168q0 31 -11.5 48t-43.5 46l-71 61q-67 -30 -113.5 -90t-46.5 -120q0 -46 29 -76.5t79 -30.5q66 0 122 50t56 112z" />
    <glyph glyph-name="nine" unicode="9" 
d="M542 490q0 -75 -28.5 -182.5t-92.5 -192.5q-104 -136 -214 -136q-23 0 -43.5 4.5t-41 23t-20.5 49.5q0 27 11.5 42t19.5 17t16 2q13 0 22 -7.5t9 -21.5q0 -16 -11.5 -30t-35.5 -16q16 -36 76 -36q17 0 36 5.5t46.5 25t52 51t49.5 89.5t43 134q-57 -92 -139 -92
q-39 0 -67.5 18t-41.5 45t-19 50t-6 41q0 110 78.5 201t175.5 91q30 0 52.5 -10.5t35.5 -29t21.5 -36t11.5 -41t3.5 -34.5t0.5 -24zM483 550q0 10 -2 21.5t-8 29t-21 29t-37 11.5q-45 0 -80 -31t-57 -78q-12 -25 -30 -98.5t-18 -105.5q0 -9 1.5 -19t7 -28.5t22 -30
t41.5 -11.5q48 0 85.5 37.5t57 91.5t29 101.5t9.5 80.5z" />
    <glyph glyph-name="colon" unicode=":" horiz-adv-x="300" 
d="M295 392q0 -21 -18 -39.5t-42 -18.5q-19 0 -29.5 11.5t-10.5 27.5q0 21 18.5 39.5t41.5 18.5q18 0 29 -11.5t11 -27.5zM211 58q0 -24 -19 -41t-40 -17q-18 0 -29 11t-11 28q0 23 18.5 40.5t40.5 17.5q16 0 28 -9.5t12 -29.5z" />
    <glyph glyph-name="semicolon" unicode=";" horiz-adv-x="300" 
d="M295 392q0 -21 -18 -39.5t-42 -18.5q-19 0 -29.5 11.5t-10.5 27.5q0 21 18.5 39.5t41.5 18.5q18 0 29 -11.5t11 -27.5zM209 50q0 -40 -17.5 -85.5t-40.5 -79t-44 -56t-28 -22.5q-9 0 -9 10q0 4 13 16q79 79 99 175l-7 -3q-5 -3 -15 -4q-3 -1 -8 -1q-16 0 -28 9.5
t-12 28.5q0 23 17.5 41t41.5 18q38 0 38 -47z" />
    <glyph glyph-name="less" unicode="&#x3c;" horiz-adv-x="762" 
d="M677 -9q-5 -19 -24 -19q-4 1 -15 7l-479 249q-18 9 -14 22q2 12 25 21l603 249l19 7q19 0 14 -19q-2 -12 -25 -21l-575 -238l456 -237q17 -9 15 -21z" />
    <glyph glyph-name="equal" unicode="=" horiz-adv-x="750" 
d="M759 342q0 -18 -31 -18h-535q-11 0 -16 0.5t-10.5 5t-5.5 13.5q0 18 32 18h535q31 0 31 -19zM713 156q0 -18 -32 -18h-535q-32 0 -32 19q0 18 32 18h535q32 0 32 -19z" />
    <glyph glyph-name="greater" unicode="&#x3e;" horiz-adv-x="762" 
d="M742 250q-4 -12 -26 -22l-603 -249l-19 -7q-18 0 -14 18q2 13 25 22l575 238l-455 237q-11 5 -14.5 9.5t-1.5 12.5q5 18 24 18q4 -1 15 -7l479 -249q17 -9 15 -21z" />
    <glyph glyph-name="question" unicode="?" 
d="M542 592q0 -41 -20.5 -85t-62.5 -79l-100 -82q-59 -47 -69 -58q-18 -25 -18 -52q0 -36 27 -36q19 0 42.5 17.5t36.5 55.5q2 7 4.5 9t10.5 2q13 0 13 -9q0 -22 -32.5 -58.5t-76.5 -36.5q-24 0 -40.5 19t-16.5 50q0 60 52 105l133 109q24 19 38 33t30.5 44.5t16.5 64.5
q0 40 -23.5 65t-61.5 25q-58 0 -110 -51t-83 -139q35 0 35 -29q0 -18 -13.5 -31.5t-31.5 -13.5q-13 0 -22 7.5t-9 21.5q0 13 9.5 41.5t29.5 65t46.5 69.5t66 56t82.5 23q53 0 85 -34.5t32 -88.5zM311 57q0 -22 -18 -39.5t-41 -17.5q-16 0 -28 10.5t-12 29.5q0 22 18 39.5
t41 17.5q17 0 28.5 -10t11.5 -30z" />
    <glyph glyph-name="at" unicode="@" horiz-adv-x="750" 
d="M764 359q-27 -122 -61.5 -176t-87.5 -54q-14 0 -28 4t-28.5 20.5t-14.5 43.5q-68 -68 -136 -68q-55 0 -94.5 41t-39.5 116q0 105 75.5 192t163.5 87q37 0 66.5 -21.5t43.5 -63.5h25q23 0 23 -9q0 -6 -2 -14l-65 -262q-3 -12 -3 -21q0 -25 18 -25q31 0 57 39.5t40.5 93.5
t22 99.5t7.5 67.5q0 104 -55 169.5t-144 65.5q-88 0 -174.5 -63t-141 -165.5t-54.5 -210.5q0 -100 53 -167.5t149 -67.5q122 0 257 60q14 7 31 7q23 0 23 -8q0 -10 -54.5 -29t-86.5 -27q-88 -23 -170 -23q-107 0 -168.5 72.5t-61.5 184.5q0 113 58.5 220t151.5 172t189 65
q101 0 163.5 -72t62.5 -184q0 -39 -10 -89zM601 430q3 12 3 15q0 7 -4 21.5t-13 33t-28.5 32t-45.5 13.5q-65 0 -123.5 -89.5t-58.5 -185.5q0 -23 5 -47.5t24.5 -49t50.5 -24.5q47 0 96 44q44 40 53 75z" />
    <glyph glyph-name="A" unicode="A" horiz-adv-x="727" 
d="M677 18q0 -18 -18 -18q-16 0 -49 1t-50 1t-52 -1t-51 -1q-14 0 -14 10q0 13 5 16t18 3q22 0 35.5 4.5t18 12.5t5.5 13t0 14l-11 161h-232l-73 -129q-17 -30 -17 -43q0 -30 38 -33q14 0 14 -10q0 -9 -3.5 -13.5t-6.5 -5t-8 -0.5q-13 0 -40.5 1t-41.5 1q-13 0 -38.5 -1
t-37.5 -1t-12 10q0 12 4.5 15t14.5 4q37 4 61 22.5t48 60.5l333 584q6 11 10 14.5t14 3.5t12.5 -4t3.5 -20l44 -628q2 -20 11.5 -26.5t44.5 -6.5q11 0 15.5 -1.5t4.5 -9.5zM512 263l-23 333l-190 -333h213z" />
    <glyph glyph-name="B" unicode="B" horiz-adv-x="688" 
d="M662 220q0 -82 -76 -151t-176 -69h-317q-24 0 -24 10q0 13 5.5 16t21.5 3q44 0 56.5 7.5t19.5 35.5l137 551q2 6 2 15q0 16 -53 16h-12.5t-7.5 1t-5 3t-1 6q0 13 5.5 16t21.5 3h297q78 0 121 -39.5t43 -95.5q0 -65 -57 -120t-138 -71q61 -8 99 -44t38 -93zM639 553
q0 40 -21.5 70.5t-74.5 30.5h-117q-26 0 -34.5 -5.5t-14.5 -32.5l-62 -251h131q81 0 137 59t56 129zM580 232q0 46 -23.5 79.5t-76.5 33.5h-171l-70 -284q-4 -14 -4 -20q0 -8 4.5 -10t25.5 -2h123q78 0 135 61.5t57 141.5z" />
    <glyph glyph-name="C" unicode="C" horiz-adv-x="700" 
d="M734 438q-3 -12 -5.5 -14.5t-10.5 -2.5q-13 0 -13 9v9q5 25 5 53q0 23 -4.5 48t-17 58.5t-43.5 55t-76 21.5q-65 0 -129 -39t-105 -95q-44 -60 -70.5 -140t-32 -123.5t-5.5 -69.5q0 -97 50 -148.5t123 -51.5q76 0 149.5 61.5t105.5 169.5q3 10 15 10q14 0 14 -9
q-2 -10 -7 -27.5t-31 -64t-65 -84.5q-97 -85 -196 -85q-100 0 -168.5 70.5t-68.5 193.5q0 115 61 223t157.5 173t195.5 65q100 0 148 -89l65 80q3 4 6.5 6.5t4.5 2.5h2q9 0 9 -9q-1 -10 -2 -13z" />
    <glyph glyph-name="D" unicode="D" horiz-adv-x="738" 
d="M759 440q0 -83 -32.5 -164.5t-85 -141.5t-120.5 -97t-136 -37h-294q-24 0 -24 10q0 13 5.5 16t21.5 3q44 0 56.5 7.5t19.5 35.5l137 551q2 6 2 15q0 16 -53 16h-12.5t-7.5 1t-5 3t-1 6q0 13 5.5 16t21.5 3h298q92 0 148 -66t56 -177zM684 477q0 77 -40.5 127t-118.5 50
h-98q-27 0 -35 -5.5t-14 -32.5l-138 -552q-4 -14 -4 -23q0 -8 4.5 -10t25.5 -2h103q67 0 125.5 36.5t98.5 96.5q42 64 66.5 161.5t24.5 153.5z" />
    <glyph glyph-name="E" unicode="E" horiz-adv-x="663" 
d="M673 246q0 -3 -4 -12l-88 -218q-5 -11 -8.5 -13.5t-18.5 -2.5h-464q-24 0 -24 10q0 13 5.5 16t21.5 3q44 0 56.5 7.5t19.5 35.5l135 543q4 14 4 19q0 6 -2 9t-14.5 6t-38.5 3q-24 0 -24 10q0 13 5.5 16t20.5 3h451q15 0 20 -1.5t5 -9.5q0 -2 -1 -7t-1 -7l-24 -177
q-2 -15 -4 -18t-11 -3q-14 0 -14 11q0 3 1 10.5t1 9.5q5 32 5 61q0 53 -24 77.5t-107 24.5h-125q-25 0 -33.5 -5.5t-14.5 -30.5l-62 -248h83q59 0 81.5 20t38.5 80q2 11 4.5 14t11.5 3q13 0 13 -10q0 -6 -2 -14l-56 -222q-2 -11 -5 -14t-11 -3q-14 0 -14 10l2 9q9 36 9 54
q0 24 -14 34t-61 10h-87l-69 -278q-4 -14 -4 -20q0 -8 4.5 -10t25.5 -2h122q73 0 118.5 21.5t71 58.5t55.5 111q2 4 5.5 12.5t6 14t3.5 6.5q3 3 11 3q13 0 13 -10z" />
    <glyph glyph-name="F" unicode="F" horiz-adv-x="638" 
d="M692 479q-2 -15 -4 -18t-11 -3q-14 0 -14 11q0 5 2 19q6 46 6 66q0 53 -26.5 75.5t-102.5 22.5h-115q-25 0 -33.5 -5.5t-14.5 -30.5l-65 -261h79q60 0 81.5 20t36.5 80q3 11 5.5 14t11.5 3q13 0 13 -10l-58 -236q-2 -11 -5 -14t-11 -3q-14 0 -14 11l2 9q9 33 9 54
q0 23 -14.5 33t-58.5 10h-84l-64 -257q-4 -14 -4 -20q0 -13 16.5 -16.5t53.5 -3.5h6q24 0 24 -10q0 -19 -20 -19t-61.5 1t-62.5 1q-19 0 -58 -1t-57 -1q-14 0 -14 10q0 13 5.5 16t21.5 3q44 0 56.5 7.5t19.5 35.5l135 543q4 14 4 19q0 6 -2 9t-14.5 6t-38.5 3q-24 0 -24 10
q0 13 5.5 16t20.5 3h438q15 0 20 -1.5t5 -9.5q0 -2 -1 -7t-1 -7z" />
    <glyph glyph-name="G" unicode="G" horiz-adv-x="757" 
d="M751 261q0 -19 -14 -19q-39 -1 -47.5 -8t-18.5 -46l-46 -184q-3 -3 -7 -3q-7 0 -19.5 21t-18.5 42q-39 -47 -93.5 -66t-100.5 -19q-102 0 -170 71t-68 193q0 115 61 223t157.5 173t195.5 65q100 0 148 -89l65 80q3 4 6.5 6.5t4.5 2.5h2q9 0 9 -9q-1 -10 -2 -13l-61 -244
q-3 -12 -5.5 -14.5t-10.5 -2.5q-13 0 -13 9v9q5 25 5 53q0 23 -4.5 48t-17 58.5t-43.5 55t-76 21.5q-55 0 -115 -31t-110 -92q-56 -69 -86 -169.5t-30 -172.5q0 -56 17 -97.5t44.5 -63t56.5 -31.5t59 -10q52 0 97.5 24t66.5 61q7 12 15.5 43.5t14 57t5.5 28.5
q0 13 -17.5 16.5t-54.5 3.5h-7q-24 0 -24 10q0 19 20 19q19 0 58.5 -1t59.5 -1q17 0 50.5 1t49.5 1q12 0 12 -10z" />
    <glyph glyph-name="H" unicode="H" horiz-adv-x="727" 
d="M831 672q0 -12 -5.5 -15t-20.5 -3q-45 0 -57.5 -7.5t-19.5 -34.5l-138 -551q-2 -4 -2 -15q0 -6 2 -9t15 -5.5t39 -2.5q23 0 23 -10q0 -13 -5 -16t-14 -3q-17 0 -54.5 1t-55.5 1t-54.5 -1t-53.5 -1q-14 0 -14 10q0 13 5.5 16t21.5 3q44 0 56.5 7.5t19.5 35.5l67 269h-275
l-71 -280l-2 -15q0 -6 2 -9t15 -5.5t39 -2.5q23 0 23 -10q0 -13 -5 -16t-14 -3q-17 0 -54.5 1t-55.5 1t-54.5 -1t-53.5 -1q-14 0 -14 10q0 13 5.5 16t21.5 3q44 0 56.5 7.5t19.5 35.5l137 551q2 6 2 15q0 16 -53 16h-12.5t-7.5 1t-5 3t-1 6q0 13 5 16t14 3q18 0 55 -1t56 -1
q18 0 54.5 1t53.5 1q14 0 14 -11q0 -12 -5.5 -15t-20.5 -3q-45 0 -57.5 -7.5t-19.5 -34.5l-60 -242h275l63 253q2 6 2 15q0 16 -53 16h-12.5t-7.5 1t-5 3t-1 6q0 13 5 16t14 3q18 0 55 -1t56 -1q18 0 54.5 1t53.5 1q14 0 14 -11z" />
    <glyph glyph-name="I" unicode="I" horiz-adv-x="377" 
d="M322 19q0 -13 -5 -16t-14 -3q-18 0 -57 1t-58 1t-56.5 -1t-55.5 -1q-14 0 -14 10q0 13 5.5 16t18.5 3q49 0 62.5 7.5t20.5 35.5l135 540l4 24q0 7 -2 10t-15.5 5.5t-41.5 2.5q-15 0 -19.5 1.5t-4.5 9.5q0 18 19 18q18 0 56.5 -1t57.5 -1q18 0 56 1t57 1q14 0 14 -10
q0 -13 -5.5 -16t-23.5 -3q-44 0 -58 -7.5t-20 -33.5l-137 -550q-2 -9 -2 -17q0 -17 57 -17h12.5t7.5 -1t5 -3t1 -6z" />
    <glyph glyph-name="J" unicode="J" horiz-adv-x="513" 
d="M608 672q0 -12 -5 -15t-17 -3q-31 0 -41.5 -7t-16.5 -30l-118 -476q-16 -65 -74 -113.5t-125 -48.5q-47 0 -79 28.5t-32 77.5q0 20 5.5 35t12.5 22t16.5 11t13.5 4.5t8 0.5q16 0 26.5 -9.5t10.5 -25.5q0 -19 -15.5 -36t-38.5 -17q-9 0 -12 1q4 -34 27.5 -53t54.5 -19
q40 0 77.5 45t51.5 100l118 473q3 12 3 16q0 14 -17.5 17.5t-55.5 3.5h-8q-14 0 -19 1.5t-5 9.5q0 18 20 18q19 0 59.5 -1t60.5 -1q17 0 51 1t50 1q13 0 13 -11z" />
    <glyph glyph-name="K" unicode="K" horiz-adv-x="752" 
d="M693 19q0 -19 -17 -19h-3q-3 0 -9 0.5t-15 1t-25 0.5h-36q-17 0 -50 -1t-49 -1q-14 0 -14 10q0 19 17 19q48 0 48 32q0 9 -5 21l-105 285l-143 -121q-49 -194 -49 -200t2 -9t15 -5.5t39 -2.5q23 0 23 -10q0 -13 -5 -16t-14 -3q-17 0 -54.5 1t-55.5 1t-54.5 -1t-53.5 -1
q-14 0 -14 10q0 13 5.5 16t21.5 3q44 0 56.5 7.5t19.5 35.5l137 551q2 6 2 15q0 16 -53 16h-12.5t-7.5 1t-5 3t-1 6q0 13 5 16t14 3q18 0 55 -1t56 -1q18 0 54.5 1t53.5 1q14 0 14 -11q0 -12 -5.5 -15t-20.5 -3q-45 0 -57.5 -7.5t-19.5 -34.5l-81 -324l356 298q5 5 9 8
q2 4 6 6q19 16 19 35q0 17 -23 19q-12 0 -12 10q0 13 5 16t14 3q14 0 45 -1t46 -1q12 0 36 1t35 1t11 -10q0 -17 -17 -19q-62 -6 -151 -81l-186 -156l128 -347q9 -24 20.5 -32t35.5 -9q19 0 19 -10z" />
    <glyph glyph-name="L" unicode="L" horiz-adv-x="613" 
d="M607 234l-76 -217q-4 -13 -8 -15t-20 -2h-413q-24 0 -24 10q0 13 5.5 16t21.5 3q44 0 56.5 7.5t19.5 35.5l137 551q2 6 2 15q0 16 -53 16h-12.5t-7.5 1t-5 3t-1 6q0 13 5 16t14 3q19 0 58 -1t59 -1t61 1t61 1q16 0 16 -11q0 -12 -6 -15t-21 -3h-7q-55 0 -70 -8.5
t-22 -37.5l-136 -544q-4 -14 -4 -23q0 -8 4.5 -10t25.5 -2h82q44 0 80.5 14t58 32t41 50t27.5 51.5t20 53.5q7 19 10 22.5t11 3.5q13 0 13 -10q0 -3 -3 -12z" />
    <glyph glyph-name="M" unicode="M" horiz-adv-x="877" 
d="M977 672q0 -12 -5.5 -15t-20.5 -3q-45 0 -57.5 -7.5t-19.5 -34.5l-138 -551q-2 -4 -2 -15q0 -6 2 -9t15 -5.5t39 -2.5q23 0 23 -10q0 -9 -3.5 -13.5t-6.5 -5t-8 -0.5q-17 0 -53.5 1t-54.5 1t-53 -1t-52 -1q-13 0 -13 10q0 13 5.5 16t21.5 3q44 0 56.5 7.5t19.5 35.5
l142 570h-1l-371 -624q-11 -18 -23 -18q-9 0 -11.5 4t-4.5 18l-58 614h-1l-135 -541q-4 -15 -4 -24q0 -40 58 -42q14 0 14 -10q0 -19 -17 -19q-14 0 -44.5 1t-45.5 1t-44.5 -1t-43.5 -1q-12 0 -12 10q0 19 15 19q17 1 26 3t25 8t27 21t17 39l130 523q2 6 2 15q0 16 -53 16
h-12.5t-7.5 1t-5 3t-1 6q0 13 5.5 16t21.5 3h121q18 0 21.5 -3t5.5 -20l54 -566l340 573q7 12 12.5 14t21.5 2h117q15 0 19.5 -1.5t4.5 -9.5z" />
    <glyph glyph-name="N" unicode="N" horiz-adv-x="727" 
d="M831 672q0 -18 -15 -18q-23 -1 -38.5 -5t-32.5 -20.5t-24 -45.5l-141 -565q-3 -12 -6 -15t-12 -3q-8 0 -11 2.5t-6 12.5l-208 607l-132 -527q-4 -15 -4 -24q0 -40 58 -42q14 0 14 -10q0 -19 -17 -19q-14 0 -44.5 1t-45.5 1t-44.5 -1t-43.5 -1q-12 0 -12 10q0 19 15 19
q17 1 26 3t25 8t27 21t17 39l137 548q-22 6 -58 6h-12.5t-7.5 1t-5 3t-1 6q0 13 5.5 16t21.5 3h114q16 0 19.5 -2.5t7.5 -13.5l182 -530l112 448q4 24 4 27q0 40 -57 42q-15 0 -15 10q0 9 3.5 13.5t6.5 5t8 0.5q14 0 44.5 -1t45.5 -1t44 1t43 1q13 0 13 -11z" />
    <glyph glyph-name="O" unicode="O" horiz-adv-x="750" 
d="M773 446q0 -115 -59 -224t-153 -176t-191 -67q-101 0 -162.5 73t-61.5 183q0 113 58.5 222.5t153 178t192.5 68.5q101 0 162 -73.5t61 -184.5zM695 485q0 94 -42.5 145.5t-108.5 51.5q-51 0 -107.5 -34.5t-104.5 -101.5q-54 -76 -79 -176t-25 -164q0 -92 40 -148t107 -56
q65 0 126 48t102.5 120.5t66.5 156.5t25 158z" />
    <glyph glyph-name="P" unicode="P" horiz-adv-x="663" 
d="M716 537q0 -87 -80.5 -153t-176.5 -66h-153l-65 -257l-2 -15q0 -6 2 -9t15 -5.5t39 -2.5q23 0 23 -10q0 -13 -5 -16t-14 -3q-17 0 -54.5 1t-55.5 1t-54.5 -1t-53.5 -1q-14 0 -14 10q0 13 5.5 16t21.5 3q44 0 56.5 7.5t19.5 35.5l137 551q2 6 2 15q0 16 -53 16h-12.5
t-7.5 1t-5 3t-1 6q0 13 5.5 16t21.5 3h286q79 0 126 -41t47 -105zM635 561q0 93 -121 93h-87q-27 0 -35 -5.5t-14 -32.5l-68 -274h126q16 0 31.5 2t28 5.5t23.5 8t19 9t15 9t11 8t8 6.5l3 3q33 36 46.5 88t13.5 80z" />
    <glyph glyph-name="Q" unicode="Q" horiz-adv-x="750" 
d="M679 -1q0 -4 -5.5 -23t-18 -49.5t-26.5 -52.5q-45 -68 -105 -68q-75 0 -75 89q0 22 11 99q-44 -15 -90 -15q-101 0 -162.5 73t-61.5 183q0 113 58.5 222.5t153 178t192.5 68.5q101 0 162 -73.5t61 -184.5q0 -77 -29.5 -159t-96.5 -160.5t-159 -120.5q0 -64 13 -89t47 -25
q35 0 65.5 29t44.5 73q4 15 11 15q10 0 10 -10zM695 480q0 90 -41 146t-109 56q-58 0 -115 -39.5t-97 -97.5q-60 -87 -84.5 -185.5t-24.5 -157.5q0 -65 23.5 -117t73.5 -73q-6 13 -6 31q0 37 28 70.5t67 33.5q73 0 77 -108q57 36 100.5 98t65 128t32 120.5t10.5 94.5z
M464 25q2 20 2 32q0 33 -11.5 51.5t-44.5 18.5q-30 0 -52.5 -27.5t-22.5 -56.5q0 -42 40 -42q44 0 89 24z" />
    <glyph glyph-name="R" unicode="R" horiz-adv-x="713" 
d="M707 92q0 -9 -10 -33.5t-37 -52t-63 -27.5q-47 0 -82 24.5t-35 78.5q0 21 16 85q15 54 15 75q0 36 -21.5 63t-74.5 27h-108l-68 -271l-2 -15q0 -6 2 -9t15 -5.5t39 -2.5q23 0 23 -10q0 -13 -5 -16t-14 -3q-17 0 -54 1t-55 1t-54 -1t-53 -1q-14 0 -14 10q0 13 5.5 16
t21.5 3q44 0 56.5 7.5t19.5 35.5l137 551q2 6 2 15q0 16 -53 16h-12.5t-7.5 1t-5 3t-1 6q0 13 5.5 16t21.5 3h251q89 0 142.5 -42.5t53.5 -104.5q0 -64 -58 -119t-150 -77q86 -34 86 -117l-5 -53q-11 -85 -11 -114q0 -18 1.5 -28t9.5 -19.5t23 -9.5q24 0 44.5 23.5
t32.5 63.5q3 11 5.5 13.5t10.5 2.5q14 0 14 -10zM622 558q0 23 -7 40.5t-22 27.5t-29 16t-36.5 8.5t-35 3t-34.5 0.5q-49 0 -56 -2q-8 -1 -13.5 -7.5t-10.5 -28.5l-66 -264h102q57 0 99 20.5t62 46t31.5 59.5t13.5 50.5t2 29.5z" />
    <glyph glyph-name="S" unicode="S" horiz-adv-x="550" 
d="M526 237q0 -98 -71.5 -178t-161.5 -80q-103 0 -151 73l-45 -60q-11 -13 -15 -13q-10 0 -10 9q0 5 3 14l52 208q3 12 6 14.5t11 2.5q13 0 13 -9l-1 -8q-8 -32 -8 -61q0 -72 42 -106.5t106 -34.5q66 0 117.5 61.5t51.5 132.5q0 78 -60 98l-61 18q-57 16 -75 24t-33 24
q-38 41 -38 102q0 90 70 163t157 73q92 0 129 -71l45 60q8 11 14 11q10 0 10 -9q0 -5 -3 -14l-52 -208q-3 -12 -6 -14.5t-11 -2.5q-14 0 -14 10q0 3 2 9q4 29 4 59q0 143 -120 143q-63 0 -113 -54t-50 -119q0 -27 7 -45.5t21 -29t24 -14.5t27 -9l97 -29q40 -13 65 -48.5
t25 -91.5z" />
    <glyph glyph-name="T" unicode="T" horiz-adv-x="700" 
d="M760 474q-2 -13 -4.5 -16t-11.5 -3q-14 0 -14 11l2 11q11 59 11 97q0 48 -28 61.5t-100 13.5q-47 0 -54 -2q-13 -3 -21 -35l-136 -544q-2 -10 -2 -17q0 -11 6 -14t23 -5q24 -3 49 -3h12q15 0 19.5 -1.5t4.5 -9.5q0 -18 -21 -18l-145 2l-142 -2q-17 0 -17 10q0 13 5.5 16
t21.5 3h12q61 0 78 9t24 38l135 541q4 8 4 21q0 4 -1 6t-6 3.5t-16 1.5h-34q-100 0 -135 -29.5t-73 -143.5q-6 -15 -8.5 -18t-10.5 -3q-13 0 -13 10q0 4 3 13l61 184q4 12 8 14t20 2h502q14 0 19 -1.5t5 -9.5q0 -2 -2 -12z" />
    <glyph glyph-name="U" unicode="U" horiz-adv-x="727" 
d="M831 672q0 -18 -15 -18q-23 -1 -38.5 -5t-32.5 -20.5t-24 -45.5l-90 -362q-23 -93 -98 -167.5t-162 -74.5q-71 0 -121 49.5t-50 134.5q0 34 8 66l98 394q2 6 2 15q0 16 -53 16h-12.5t-7.5 1t-5 3t-1 6q0 13 5 16t14 3q18 0 55 -1t56 -1q18 0 54.5 1t53.5 1q14 0 14 -11
q0 -12 -5.5 -15t-20.5 -3q-45 0 -57.5 -7.5t-19.5 -34.5l-100 -401q-10 -37 -10 -77q0 -61 30.5 -93.5t76.5 -32.5q74 0 141 65.5t89 153.5l89 358q4 12 4 27q0 40 -57 42q-15 0 -15 10q0 9 3.5 13.5t6.5 5t8 0.5q29 -2 88 -2q14 0 43.5 1t42.5 1t13 -11z" />
    <glyph glyph-name="V" unicode="V" horiz-adv-x="727" 
d="M853 673q0 -8 -3 -12t-6 -5t-9 -2q-38 -4 -61 -23.5t-47 -59.5l-346 -576q-6 -10 -10 -13t-13 -3q-10 0 -12.5 4t-4.5 18l-60 617q-2 23 -11 29.5t-43 6.5q-19 0 -19 10q0 19 17 19q15 0 48 -1t49 -1q17 0 51.5 1t50.5 1q14 0 14 -11q0 -12 -5 -15t-19 -3q-28 0 -42 -9
t-15 -16.5t0 -20.5l52 -520l300 503q11 18 11 31q0 26 -37 32q-13 0 -13 10q0 19 17 19q13 0 40.5 -1t41.5 -1q12 0 36.5 1t35.5 1q12 0 12 -10z" />
    <glyph glyph-name="W" unicode="W" horiz-adv-x="977" 
d="M1103 673q0 -17 -16 -19q-59 -5 -99 -80l-312 -579q-9 -16 -23 -16q-11 0 -13 3.5t-3 18.5l-21 509l-279 -513q-6 -12 -10 -15t-13 -3q-11 0 -13 3.5t-3 18.5l-26 621q-1 14 -2.5 19.5t-11 9t-31.5 3.5q-11 0 -15.5 1.5t-4.5 9.5q0 18 17 18q27 -2 94 -2q17 0 50.5 1
t49.5 1q14 0 14 -11q0 -18 -20 -18q-24 0 -38 -4t-19.5 -12t-6.5 -14t0 -17l20 -500l240 442q5 10 5 13l-2 68q-2 14 -10 19t-34 5q-21 0 -21 10q0 19 17 19q24 -2 93 -2q16 0 50 1t51 1q14 0 14 -10q0 -13 -5 -16t-14 -3q-24 0 -39 -4t-20 -12t-6.5 -14t-0.5 -16l21 -501
l259 480q10 20 10 30q0 31 -48 37q-13 0 -13 11q0 18 18 18q14 0 43 -1t43 -1h31.5t20.5 0.5t11.5 1t6.5 0.5h3q11 0 11 -10z" />
    <glyph glyph-name="X" unicode="X" horiz-adv-x="727" 
d="M685 19q0 -19 -17 -19q-16 0 -49.5 1t-49.5 1q-17 0 -52 -1t-51 -1q-14 0 -14 10q0 18 13 19q20 2 33 9t16.5 12t3.5 9q0 6 -3 12l-92 245l-190 -217q-22 -25 -22 -41q0 -25 32 -29q10 -1 10 -10t-3.5 -13.5t-6.5 -5t-8 -0.5q-14 0 -45.5 1t-46.5 1q-14 0 -42 -1t-41 -1
q-12 0 -12 11q0 8 3 12t6 4.5t10 1.5q78 7 136 73l211 240l-105 281q-4 12 -8 17t-16.5 9.5t-36.5 4.5q-10 0 -14 0.5t-7 2.5t-3 7q0 9 3.5 13.5t6.5 5t8 0.5q15 0 48.5 -1t49.5 -1q17 0 52 1t52 1q14 0 14 -10q0 -17 -17 -19q-38 -3 -51 -29l81 -218l155 176q22 24 22 43
q0 24 -29 28q-13 2 -13 11q0 18 18 18l92 -2q14 0 42 1t41 1q12 0 12 -10q0 -18 -11 -19q-25 -1 -42 -4.5t-48.5 -22.5t-61.5 -54l-167 -192l120 -322q4 -12 8 -17t17.5 -9t39.5 -4q19 0 19 -10z" />
    <glyph glyph-name="Y" unicode="Y" horiz-adv-x="727" 
d="M860 673q0 -8 -3 -12t-6 -5t-9 -2q-36 -3 -64 -20t-65 -62l-238 -290q-7 -8 -13 -28q-10 -41 -14.5 -60t-16.5 -65q-19 -76 -19 -83q0 -6 2 -9t14.5 -5.5t38.5 -2.5q24 0 24 -10q0 -13 -5 -16t-14 -3q-17 0 -54 1t-55 1t-54 -1t-53 -1q-14 0 -14 10q0 13 5 16t17 3
q46 1 59 6.5t20 28.5q52 208 52 209q0 2 -1 4.5t-2 6t-1 4.5l-107 335q-6 19 -18.5 25t-45.5 6q-19 0 -19 10q0 9 3.5 13.5t6.5 5t8 0.5q15 0 48.5 -1t49.5 -1q17 0 52 1t52 1q15 0 15 -11q0 -18 -20 -18q-51 0 -51 -24q2 -10 3 -12l98 -308l225 275q25 30 25 47
q0 19 -29 22q-11 0 -11 10q0 19 17 19q13 0 40.5 -1t41.5 -1q12 0 37 1t36 1q12 0 12 -10z" />
    <glyph glyph-name="Z" unicode="Z" horiz-adv-x="600" 
d="M589 241l-69 -223q-5 -13 -8.5 -15.5t-18.5 -2.5h-393q-22 0 -22 8q0 12 11 26l515 620h-141q-102 0 -150.5 -44t-75.5 -130q-5 -14 -7 -17t-11 -3q-13 0 -13 10q1 6 3 13l55 183q4 12 7.5 14.5t19.5 2.5h379q22 0 22 -8q0 -10 -10 -22l-515 -622h149q59 0 100.5 13.5
t68 43.5t41 61t30.5 81q1 4 4 12t5 13t3 6q3 3 11 3q13 0 13 -10q0 -3 -3 -13z" />
    <glyph glyph-name="bracketleft" unicode="[" horiz-adv-x="300" 
d="M199 -224q0 -18 -6.5 -22t-22.5 -4h-75q-24 0 -24 10q0 4 3 13l240 960q3 12 7 14.5t20 2.5h75q24 0 24 -10q0 -13 -4.5 -19t-9 -7t-15.5 -1h-65l-231 -926h60q15 0 19.5 -1.5t4.5 -9.5z" />
    <glyph glyph-name="backslash" unicode="\" 
d="M386 -230q-2 -8 -9.5 -14t-15.5 -6q-15 0 -17 22l-105 940v18q1 8 9 14t16 6q14 0 16 -22l105 -940z" />
    <glyph glyph-name="bracketright" unicode="]" horiz-adv-x="300" 
d="M110 -233q-3 -12 -7 -14.5t-20 -2.5h-75q-24 0 -24 10q0 13 4.5 19t9 7t15.5 1h65l231 926h-60q-15 0 -19.5 1.5t-4.5 9.5q0 18 6.5 22t22.5 4h75q24 0 24 -10q0 -4 -3 -13z" />
    <glyph glyph-name="asciicircum" unicode="^" horiz-adv-x="556" 
d="M707 584l-17 -22l-242 123l-301 -123l-6 22l323 160z" />
    <glyph glyph-name="underscore" unicode="_" horiz-adv-x="727" 
d="M710 -125q-4 -14 -18 -14h-727q-13 0 -10 14t17 14h727q6 0 9 -4t2 -10z" />
    <glyph glyph-name="grave" unicode="`" 
d="M437 522q-3 -6 -10 -10.5t-11 -4.5q-8 0 -10 6l-97 126q-14 14 -5 30q13 27 40 27q6 0 11.5 -3.5t7.5 -6.5l2 -4l70 -147q5 -8 2 -13z" />
    <glyph glyph-name="a" unicode="a" 
d="M513 143q0 -2 -3.5 -17.5t-10.5 -38.5t-15 -39q-26 -58 -72 -58q-15 0 -29 4.5t-29.5 21.5t-20.5 45q-60 -71 -120 -71q-51 0 -83 42.5t-32 109.5q0 109 71 204t153 95q56 0 80 -59l1 1q1 4 3 10.5t12 17.5t24 11q13 0 19.5 -7.5t6.5 -16.5q0 -5 -3 -16l-70 -279
q-8 -30 -8 -53q0 -40 27 -40q39 0 67 118q4 17 7 20.5t12 3.5q13 0 13 -9zM339 121l47 190l3 14q0 6 -2.5 18.5t-8.5 31.5t-20.5 32.5t-35.5 13.5q-31 0 -62.5 -32t-51.5 -81q-14 -35 -31 -104.5t-17 -103.5q0 -9 1.5 -20t6 -29t17 -29.5t30.5 -11.5q39 0 78.5 42.5
t45.5 68.5z" />
    <glyph glyph-name="b" unicode="b" horiz-adv-x="450" 
d="M449 289q0 -108 -71 -203.5t-154 -95.5q-48 0 -79 40.5t-31 109.5q0 37 9 73l101 405q3 15 3 17q0 7 -1.5 10t-13.5 6t-35 3q-22 0 -22 10q0 9 3 13t7 5t13 2l100 9q23 1 23 -9q0 -2 -3 -13l-71 -286q56 56 107 56t83 -43t32 -109zM332 108q16 34 35 108.5t19 114.5
q0 41 -14.5 65.5t-40.5 24.5q-37 0 -76 -41t-48 -75q-1 -5 -4 -15t-4 -15q-33 -135 -33 -169q0 -38 14 -67t45 -29q25 0 53.5 24.5t53.5 73.5z" />
    <glyph glyph-name="c" unicode="c" horiz-adv-x="450" 
d="M457 105q0 -5 -9 -17.5t-28 -29t-42.5 -32t-57.5 -26t-69 -10.5q-62 0 -101.5 43.5t-39.5 118.5q0 110 78 199.5t170 89.5q45 0 74 -24t29 -60q0 -24 -10.5 -38t-19.5 -17t-17 -3q-6 0 -12.5 2t-12.5 9.5t-6 18.5q0 18 14 30.5t33 13.5q-14 48 -73 48q-33 0 -67 -25
t-59 -69q-23 -40 -40 -107.5t-17 -105.5q0 -46 20.5 -75t57.5 -29q43 0 92.5 25t86.5 75q9 10 12 10q5 0 9.5 -5t4.5 -10z" />
    <glyph glyph-name="d" unicode="d" 
d="M523 143q0 -2 -3.5 -17.5t-10.5 -38.5t-15 -39q-26 -58 -72 -58q-15 0 -29 4.5t-29.5 21.5t-20.5 45q-60 -71 -120 -71q-51 0 -83 42.5t-32 109.5q0 109 71 204t153 95q55 0 82 -61l59 238q3 12 3 17q0 7 -1.5 10t-13.5 6t-35 3q-22 0 -22 10q0 9 3 13t7 5t13 2l100 9
q23 1 23 -9q0 -2 -1.5 -6t-1.5 -7l-142 -567q-8 -35 -8 -54q0 -40 27 -40q39 0 67 118q4 17 7 20.5t12 3.5q13 0 13 -9zM350 123l46 188l3 14q0 9 -3 27.5t-20 43.5t-44 25q-31 0 -62.5 -32t-51.5 -81q-14 -35 -31 -104.5t-17 -103.5q0 -9 1.5 -20t6 -29t17 -29.5
t30.5 -11.5q39 0 78.5 42.5t46.5 70.5z" />
    <glyph glyph-name="e" unicode="e" horiz-adv-x="450" 
d="M457 105q0 -5 -9 -17.5t-28 -29t-42.5 -32t-57.5 -26t-69 -10.5q-63 0 -100 48t-37 125q0 123 78 200.5t165 77.5q43 0 69.5 -24t26.5 -59q0 -30 -13.5 -53t-37.5 -36t-47 -21t-52.5 -11.5t-43 -4t-29.5 -0.5h-36q-17 -66 -17 -111q0 -15 2.5 -31t10 -35.5t23.5 -32
t39 -12.5q43 0 92.5 25t86.5 75q9 10 12 10q5 0 9.5 -5t4.5 -10zM419 359q0 26 -17 44t-46 18q-12 0 -27.5 -5t-41 -19.5t-49.5 -52t-38 -92.5h21q18 0 33.5 0.5t49 6.5t56 16t41 32t18.5 52z" />
    <glyph glyph-id="f" name="f" unicode="f" horiz-adv-x="300" 
d="M446 642q0 -24 -14 -37.5t-32 -13.5q-13 0 -22 7.5t-9 21.5q0 7 2.5 15t12 17.5t25.5 12.5q-15 19 -43 19q-17 0 -29.5 -16t-17 -32.5t-10.5 -45.5l-32 -159h76q15 0 19.5 -1.5t4.5 -9.5q0 -12 -6 -15t-21 -3h-78l-62 -319q-55 -287 -159 -287q-32 0 -55 17t-23 45
q0 24 13.5 37.5t32.5 13.5q13 0 22 -7.5t9 -21.5q0 -37 -41 -45q14 -19 42 -19q17 0 29.5 15.5t17 30t12.5 43.5q17 64 30 130l71 367h-59q-24 0 -24 10q0 13 5.5 16t20.5 3h63l21 109q34 164 128 164q32 0 56 -17t24 -45z" />
    <glyph glyph-name="g" unicode="g" horiz-adv-x="450" 
d="M365 -60q-16 -62 -69.5 -103t-127.5 -41q-116 0 -116 54q0 22 14 35.5t31 13.5q16 0 24 -9t8 -20q0 -30 -31 -43q28 -12 71 -12q28 0 52 12t39.5 31t24.5 34.5t14 30.5l32 130q-53 -53 -105 -53q-50 0 -83 41t-33 109q0 108 71 199.5t151 91.5q56 0 81 -57h1q2 14 12 26
t26 12q13 0 19.5 -7.5t6.5 -16.5q0 -5 -3 -16zM397 313l3 16q0 9 -3.5 27.5t-20.5 42t-44 23.5q-32 0 -63 -32.5t-51 -81.5q-13 -32 -29.5 -99t-16.5 -100q0 -9 1.5 -20t6 -29t17 -29.5t31.5 -11.5q37 0 76.5 40.5t46.5 70.5z" />
    <glyph glyph-name="h" unicode="h" 
d="M523 143q0 -3 -4 -17.5t-13.5 -38t-23 -45t-36 -37t-48.5 -15.5q-31 0 -51.5 21.5t-20.5 56.5q0 19 13 55q61 176 61 231q0 67 -46 67q-33 0 -63.5 -19.5t-49 -47.5t-29.5 -49.5t-14 -33.5l-62 -248q-9 -33 -36 -33q-12 0 -19 7.5t-7 17.5q0 1 4 18l146 584q3 12 3 18
q0 7 -1.5 10t-13.5 6t-35 3q-22 0 -22 10q0 9 3 13t7 5t13 2l100 9q23 1 23 -9q0 -4 -3 -13l-75 -301q58 71 134 71q100 0 100 -102q0 -56 -60 -224q-19 -47 -19 -75q0 -30 23 -30q59 0 92 124q3 12 5.5 15t11.5 3q13 0 13 -9z" />
    <glyph glyph-name="i" unicode="i" horiz-adv-x="300" 
d="M323 143q0 -3 -4 -17.5t-13.5 -38t-23 -45t-35.5 -37t-48 -15.5q-29 0 -50.5 19.5t-21.5 59.5q0 22 8 44l80 217q13 33 13 61q0 30 -22 30q-61 0 -92 -125q-3 -11 -5.5 -14t-11.5 -3q-14 0 -14 9q0 3 4 18t14 38t23.5 44.5t35.5 37t48 15.5q31 0 51.5 -20.5t20.5 -57.5
q0 -20 -11 -51l-59 -162q-32 -87 -32 -111q0 -29 23 -29q59 0 92 124q3 12 5.5 15t11.5 3q13 0 13 -9zM350 610q0 -22 -18 -39.5t-41 -17.5q-16 0 -28 10.5t-12 29.5q0 22 18 39.5t41 17.5q17 0 28.5 -10t11.5 -30z" />
    <glyph glyph-name="j" unicode="j" horiz-adv-x="300" 
d="M215 -58q-15 -57 -61 -101.5t-105 -44.5q-32 0 -58.5 13.5t-26.5 41.5q0 21 14 34.5t31 13.5q16 0 24 -9t8 -20q0 -32 -34 -43q18 -11 43 -11q24 0 44 15.5t32.5 39.5t18.5 40.5t9 29.5l97 389q7 27 7 50q0 41 -28 41q-35 0 -64.5 -35t-49.5 -88q-5 -14 -8 -16.5
t-11 -2.5q-14 0 -14 9q0 8 15.5 42t52.5 72.5t81 38.5q39 0 60.5 -25.5t21.5 -62.5l-5 -35zM350 610q0 -22 -18 -39.5t-41 -17.5q-16 0 -28 10.5t-12 29.5q0 22 18 39.5t41 17.5q17 0 28.5 -10t11.5 -30z" />
    <glyph glyph-name="k" unicode="k" horiz-adv-x="450" 
d="M473 143q0 -3 -4 -18.5t-11.5 -38.5t-16.5 -38q-31 -58 -78 -58q-32 0 -56.5 23t-24.5 72q0 19 5 39q2 10 2 20q0 23 -12 40.5t-30.5 26.5t-32 13t-26.5 6l-52 -207q-9 -33 -36 -33q-12 0 -19 7.5t-7 17.5q0 1 4 18l146 584q3 12 3 18q0 7 -1.5 10t-13.5 6t-35 3
q-22 0 -22 10q0 9 3 13t7 5t13 2l100 9q23 1 23 -9q0 -4 -3 -13l-103 -412q39 17 94 83q27 32 42.5 48t44 33.5t55.5 17.5q31 0 47 -17t16 -39q0 -23 -14 -37t-32 -14q-31 0 -31 29q0 15 9.5 28.5t32.5 16.5q-7 13 -30 13q-52 0 -122 -86q-59 -70 -89 -86q131 -23 131 -104
q0 -15 -5 -34q-9 -35 -9 -59q0 -42 30 -42q29 0 46 32t30 86q4 17 7 20.5t12 3.5q13 0 13 -9z" />
    <glyph glyph-name="l" unicode="l" horiz-adv-x="250" 
d="M273 142q0 -2 -4 -19.5t-12 -42t-16 -39.5q-25 -51 -68 -51q-35 0 -57.5 24.5t-22.5 63.5q0 12 5 35l126 504q3 12 3 18q0 7 -1.5 10t-13.5 6t-35 3q-22 0 -22 10q0 9 3 13t7 5t13 2l100 9q23 1 23 -9q0 -2 -1.5 -6t-1.5 -7l-142 -567q-8 -35 -8 -54q0 -40 27 -40
q16 0 29 19t19.5 38t15.5 52q2 5 5 15.5t3 11.5q2 6 13 6q13 0 13 -10z" />
    <glyph glyph-name="m" unicode="m" horiz-adv-x="800" 
d="M823 143q0 -3 -4 -17.5t-13.5 -38t-23 -45t-36 -37t-48.5 -15.5q-31 0 -51.5 21.5t-20.5 56.5q0 19 13 55q61 176 61 231q0 67 -46 67q-33 0 -63.5 -19.5t-49 -47.5t-29.5 -49.5t-14 -33.5l-61 -246q-8 -35 -37 -35q-13 0 -19.5 7.5t-6.5 16.5q0 5 3 16l66 264q8 36 8 60
q0 67 -46 67q-32 0 -61.5 -18.5t-49 -45.5t-31 -50t-16.5 -40q-2 -11 -7.5 -32.5t-8.5 -32.5l-46 -185q-9 -27 -35 -27t-26 24q0 5 4 19l73 292q8 28 8 55q0 41 -26 41q-38 0 -68 -118q-4 -17 -7 -20.5t-11 -3.5q-14 0 -14 10q13 62 32 99q26 53 70 53q34 0 56 -23t24 -58
q58 81 143 81q40 0 68.5 -22t32.5 -69q60 91 148 91q100 0 100 -102q0 -56 -60 -224q-19 -47 -19 -75q0 -30 23 -30q59 0 92 124q3 12 5.5 15t11.5 3q13 0 13 -9z" />
    <glyph glyph-name="n" unicode="n" horiz-adv-x="550" 
d="M573 143q0 -3 -4 -17.5t-13.5 -38t-23 -45t-36 -37t-48.5 -15.5q-31 0 -51.5 21.5t-20.5 56.5q0 19 13 55q61 176 61 231q0 67 -46 67q-27 0 -52.5 -13.5t-42.5 -32.5t-31 -41.5t-21 -38t-9 -24.5l-61 -246q-8 -35 -37 -35q-26 0 -26 24q0 5 4 19l73 292q8 28 8 55
q0 41 -26 41q-38 0 -68 -118q-4 -17 -7 -20.5t-11 -3.5q-14 0 -14 10q13 62 32 99q26 53 70 53q34 0 56 -23t24 -58q59 81 142 81q100 0 100 -102q0 -56 -60 -224q-19 -47 -19 -75q0 -30 23 -30q59 0 92 124q3 12 5.5 15t11.5 3q13 0 13 -9z" />
    <glyph glyph-name="o" unicode="o" 
d="M497 279q0 -109 -78 -199t-170 -90q-58 0 -98.5 42.5t-40.5 119.5q0 110 78 199.5t170 89.5q59 0 99 -43.5t40 -118.5zM433 317q0 45 -20 74.5t-57 29.5q-30 0 -64.5 -24.5t-60.5 -69.5q-23 -40 -40 -107.5t-17 -105.5q0 -49 21.5 -76.5t54.5 -27.5q30 0 64.5 23.5
t62.5 72.5q22 38 39 106.5t17 104.5z" />
    <glyph glyph-name="p" unicode="p" 
d="M499 289q0 -109 -71 -204t-153 -95q-58 0 -82 60q-48 -188 -48 -200q0 -15 48 -15q15 0 19.5 -1.5t4.5 -9.5q0 -18 -18 -18q-14 0 -45 1t-46 1q-14 0 -41.5 -1t-40.5 -1q-12 0 -12 10q0 13 5 16t16 3q28 0 37.5 6.5t15.5 30.5l113 453q8 30 8 55q0 41 -26 41
q-38 0 -68 -118q-4 -17 -7 -20.5t-11 -3.5q-14 0 -14 10q13 62 32 99q26 53 70 53q28 0 50.5 -18t28.5 -53q6 9 19 22.5t43 31t58 17.5q51 0 83 -43t32 -109zM382 108q16 34 35 108.5t19 114.5q0 41 -14.5 65.5t-40.5 24.5q-37 0 -76.5 -42t-47.5 -71l-47 -189
q-3 -12 -3 -14q0 -4 1 -10.5t5.5 -22.5t11 -28.5t20 -23t30.5 -10.5q25 0 53.5 24.5t53.5 73.5z" />
    <glyph glyph-name="q" unicode="q" horiz-adv-x="450" 
d="M416 -176q0 -18 -18 -18q-15 0 -48 1t-49 1t-48 -1t-47 -1q-14 0 -14 10q0 13 5 16t17 3q47 1 57 8.5t21 48.5l38 152l-1 1q-53 -55 -106 -55q-51 0 -83 42.5t-32 109.5q0 109 71 204t153 95q59 0 84 -66q11 21 32.5 43t28.5 22q9 0 9 -9q0 -6 -2 -14l-138 -550
q-2 -9 -2 -17q0 -15 48 -15q15 0 19.5 -1.5t4.5 -9.5zM350 123l46 188l3 14q0 9 -3 27.5t-20 43.5t-44 25q-31 0 -62.5 -32t-51.5 -81q-14 -35 -31 -104.5t-17 -103.5q0 -9 1.5 -20t6 -29t17 -29.5t30.5 -11.5q39 0 78.5 42.5t46.5 70.5z" />
    <glyph glyph-name="r" unicode="r" horiz-adv-x="413" 
d="M481 383q0 -24 -14.5 -36.5t-30.5 -12.5q-31 0 -31 29q0 17 10.5 29t23.5 15q-22 14 -55 14q-29 0 -55 -18.5t-42 -45t-24.5 -45t-10.5 -26.5l-65 -261q-9 -35 -37 -35q-26 0 -26 24q0 5 4 19l73 292q8 28 8 55q0 41 -26 41q-38 0 -68 -118q-4 -17 -7 -20.5t-11 -3.5
q-14 0 -14 10q13 62 32 99q26 53 70 53q26 0 49.5 -17t29.5 -57q53 74 121 74q13 0 27 -2t31 -7.5t27.5 -18t10.5 -30.5z" />
    <glyph glyph-name="s" unicode="s" horiz-adv-x="400" 
d="M384 155q0 -23 -9.5 -49t-29.5 -53t-58 -45t-87 -18q-54 0 -90 26t-36 70q0 25 11 39.5t19.5 17t16.5 2.5q12 0 21.5 -7.5t9.5 -21.5q0 -2 -0.5 -5t-3 -10.5t-7 -13t-14.5 -10.5t-23 -6q7 -32 35.5 -46.5t61.5 -14.5q38 0 66.5 13.5t42 34t19.5 37.5t6 30q0 57 -76 72
q-61 14 -79 31q-28 31 -28 68q0 14 4.5 31.5t16 38t28 37t44.5 27.5t62 11q47 0 75.5 -24t28.5 -60q0 -25 -11 -38.5t-29 -13.5q-14 0 -20.5 7.5t-6.5 17.5q0 5 1.5 11t11 15.5t25.5 11.5q-5 24 -26 38.5t-51 14.5q-53 0 -78 -32.5t-25 -61.5q0 -21 11.5 -34t22 -17t29.5 -8
q26 -6 40.5 -11t36 -17t32 -33.5t10.5 -51.5z" />
    <glyph glyph-name="t" unicode="t" horiz-adv-x="325" 
d="M348 143q0 -8 -15.5 -42t-52 -72.5t-80.5 -38.5q-39 0 -60.5 25.5t-21.5 62.5q0 16 5 36l72 288h-81q-24 0 -24 10q0 13 5.5 16t21.5 3h85l39 157q10 37 38 37q13 0 19.5 -8t6.5 -16q-1 -11 -2 -13l-40 -157h79q14 0 19 -1.5t5 -9.5q0 -12 -6 -15t-21 -3h-83l-75 -299
q-8 -30 -8 -53q0 -40 29 -40q66 0 116 129q4 9 6.5 11t10.5 2q13 0 13 -9z" />
    <glyph glyph-name="u" unicode="u" horiz-adv-x="525" 
d="M548 143q0 -2 -3.5 -17.5t-10.5 -38.5t-15 -39q-26 -58 -72 -58q-27 0 -48 15.5t-29 44.5q-48 -60 -109 -60q-44 0 -76 26.5t-32 87.5q0 54 45 179q31 86 31 109q0 29 -23 29q-59 0 -92 -125q-3 -11 -5.5 -14t-11.5 -3q-14 0 -14 9t11 42.5t42 72t72 38.5q35 0 54 -23
t19 -55q0 -19 -13 -56q-58 -161 -58 -219q0 -78 54 -78q33 0 60 21.5t43 55.5l2 16l72 289q8 39 39 39q10 0 17.5 -6.5t7.5 -17.5q0 -6 -4 -20l-71 -284q-8 -30 -8 -53q0 -40 27 -40q39 0 67 118q4 17 7 20.5t12 3.5q13 0 13 -9z" />
    <glyph glyph-name="v" unicode="v" horiz-adv-x="450" 
d="M484 377q0 -18 -10.5 -72.5t-32.5 -129t-67 -130t-102 -55.5q-19 0 -36.5 4.5t-37.5 16t-32 36.5t-12 61q0 53 44 175q31 86 31 109q0 29 -23 29q-59 0 -92 -125q-3 -11 -5.5 -14t-11.5 -3q-14 0 -14 9t11 42.5t42 72t72 38.5q35 0 54 -23t19 -55q0 -18 -13 -57
q-57 -151 -57 -212q0 -84 65 -84q40 0 74 40t52 93.5t27.5 95.5t9.5 56q0 49 -26 80q-11 12 -11 24q0 16 14.5 29t29.5 13q38 0 38 -64z" />
    <glyph glyph-name="w" unicode="w" horiz-adv-x="650" 
d="M627 129q-24 -64 -57 -101.5t-85 -37.5q-86 0 -110 66q-40 -66 -96 -66q-49 0 -87 27t-38 93q0 53 44 173q31 86 31 109q0 29 -23 29q-59 0 -92 -125q-3 -11 -5.5 -14t-11.5 -3q-14 0 -14 9t11 42.5t42 72t72 38.5q35 0 54 -23t19 -55q0 -19 -19 -71q-50 -139 -50 -195
q0 -34 15 -60.5t54 -26.5q35 0 60 39.5t25 58.5q0 28 8 62l55 222q11 39 39 39q10 0 17.5 -6.5t7.5 -17.5q0 -3 -17 -74l-33 -132q-20 -80 -20 -107q0 -84 65 -84q64 0 104 102q13 33 30 94.5t17 88.5q0 49 -26 80q-11 12 -11 24q0 16 14.5 29t29.5 13q38 0 38 -64
q0 -40 -21 -123t-36 -125z" />
    <glyph glyph-name="x" unicode="x" horiz-adv-x="450" 
d="M473 143q0 -9 -10 -32.5t-27.5 -51t-47.5 -48.5t-64 -21q-40 0 -63 22t-31 47q-36 -69 -95 -69q-33 0 -58.5 15t-25.5 43q0 20 13.5 34.5t32.5 14.5q13 0 22 -7.5t9 -21.5q0 -34 -36 -44q18 -14 45 -14q53 0 81 88l41 165q18 70 18 94q0 33 -13 48.5t-33 15.5
q-35 0 -67.5 -34t-49.5 -90q-4 -12 -6.5 -15t-10.5 -3q-14 0 -14 9t10 32.5t27 51t47.5 48.5t65.5 21t59 -20t33 -48q38 68 96 68q30 0 57 -13.5t27 -44.5q0 -24 -14.5 -36.5t-30.5 -12.5q-31 0 -31 29q0 34 35 44q-18 14 -44 14q-21 0 -37.5 -12t-28 -37.5t-18 -46.5
t-15.5 -58l-23 -91q-20 -82 -20 -102q0 -13 3 -25.5t14.5 -25.5t30.5 -13q36 0 68.5 35.5t48.5 87.5q4 14 6 16.5t11 2.5q13 0 13 -9z" />
    <glyph glyph-name="y" unicode="y" horiz-adv-x="475" 
d="M404 -3q-19 -77 -80 -139t-135 -62q-39 0 -64.5 23t-25.5 61q0 20 6 33.5t15.5 18.5t15 6.5t10.5 1.5q14 0 22.5 -8.5t8.5 -20.5q0 -2 -0.5 -5t-3 -10.5t-7.5 -13t-15 -10.5t-23 -6q9 -50 62 -50q56 0 103 66q36 52 57 146q-38 -38 -89 -38q-44 0 -76 26.5t-32 87.5
q0 54 45 179q31 86 31 109q0 29 -23 29q-59 0 -92 -125q-3 -11 -5.5 -14t-11.5 -3q-14 0 -14 9t11 42.5t42 72t72 38.5q35 0 54 -23t19 -55q0 -19 -13 -56q-58 -161 -58 -219q0 -78 54 -78q38 0 67.5 29t36.5 58l73 295q11 39 39 39q10 0 17.5 -6.5t7.5 -17.5q0 -6 -4 -20z
" />
    <glyph glyph-name="z" unicode="z" horiz-adv-x="400" 
d="M423 140q0 -30 -43.5 -90t-104.5 -60q-21 0 -34 10.5t-28 32.5q-22 32 -45 32q-37 0 -76 -62q-4 -7 -5.5 -9t-4 -3t-7.5 -1q-14 0 -14 8q0 5 13.5 26.5t41 57t58.5 66.5l142 142q25 25 51 56q-30 0 -69 20q-35 15 -51 15q-23 0 -44.5 -13.5t-29.5 -35.5q-3 -8 -5.5 -10
t-10.5 -2q-13 0 -13 9q0 24 33 68t80 44q15 0 27 -7t18.5 -14t16.5 -22q23 -32 44 -32q15 0 28.5 13t33.5 48q5 10 8 12t10 2q13 0 13 -8q0 -16 -57.5 -88t-123.5 -131q-61 -54 -126 -131q7 2 21 2q24 0 56 -16q39 -19 59 -19q28 0 60.5 21.5t48.5 66.5q2 7 4.5 9.5
t10.5 2.5q14 0 14 -10z" />
    <glyph glyph-name="braceleft" unicode="{" 
d="M612 739q-3 -9 -12 -11q-71 -4 -122 -46q-22 -17 -30.5 -38t-23.5 -81l-45 -180q-4 -17 -9.5 -29t-20.5 -34t-46 -40t-75 -30q93 -29 90 -103q-2 -20 -21 -91l-37 -150q-10 -38 -9 -48q0 -32 25 -57.5t78 -28.5q7 -1 8.5 -1t4.5 -2.5t0 -7.5q-2 -11 -22 -11
q-84 0 -130 38q-29 25 -31 56.5t11 72.5l50 198q9 30 3.5 51t-14.5 35t-26.5 22t-31 11.5t-28.5 4.5q-7 1 -8.5 1t-4.5 2.5t0 7.5q2 11 16 11q63 4 116 45q24 20 33 42t27 96l46 183q15 53 80 88t142 35h8.5t6 -1t3 -3.5t-0.5 -6.5z" />
    <glyph glyph-name="bar" unicode="|" horiz-adv-x="278" 
d="M105 -217q-9 -33 -28 -33q-21 0 -12 33l233 934q9 33 29 33t11 -33z" />
    <glyph glyph-name="braceright" unicode="}" 
d="M490 250q-3 -11 -17 -11q-65 -4 -115 -45q-24 -20 -33 -41.5t-28 -96.5l-46 -183q-15 -53 -79.5 -88t-141.5 -35q-7 0 -10 0.5t-6 3t-2 7.5q3 9 12 11q33 2 59.5 10.5t36.5 15.5t27 20q21 17 29.5 38t23.5 81l45 180q4 17 9.5 29t20.5 34t46.5 40t75.5 30q-94 28 -91 103
q0 2 21 91l38 150q9 39 9 48q0 32 -25 57.5t-79 28.5q-7 1 -8.5 1t-4.5 2.5t0 7.5q3 11 23 11q82 0 129 -38q29 -25 31 -56.5t-11 -72.5l-50 -198q-9 -30 -3.5 -51t14.5 -35t26.5 -22t31 -11.5t28.5 -4.5q5 -1 6.5 -1t5 -1t2.5 -3t0 -6z" />
    <glyph glyph-name="asciitilde" unicode="~" horiz-adv-x="556" 
d="M627 290l-65 -44q-22 -16 -65 -35q-45 -18 -78 -18q-43 0 -91 34q-20 13 -30 19t-28 12t-37 6q-69 0 -171 -71l-10 17l65 44q24 16 66 35q45 18 78 18q41 0 91 -34q55 -37 95 -37q67 0 171 71z" />
    <glyph glyph-name="uni00A0" unicode="&#xa0;" 
 />
    <glyph glyph-name="exclamdown" unicode="&#xa1;" horiz-adv-x="300" 
d="M312 460q0 -22 -18 -39.5t-41 -17.5q-17 0 -28.5 10t-11.5 30q0 22 18 39.5t41 17.5q16 0 28 -10.5t12 -29.5zM158 -160q-4 -24 -19 -37.5t-24.5 -15.5t-16.5 -2q-14 0 -27 8.5t-13 29.5q0 8 5 22l147 459q5 16 17 16q14 0 14 -11q0 -3 -2 -13z" />
    <glyph glyph-name="cent" unicode="&#xa2;" horiz-adv-x="450" 
d="M457 105q0 -5 -9 -17t-26.5 -28.5t-40.5 -31.5t-55.5 -26t-66.5 -12l-4 -18q-3 -14 -18 -14q-13 0 -10 14l4 19q-54 7 -87.5 50t-33.5 111q0 105 72 192.5t162 95.5l4 19q4 14 18 14q5 0 8.5 -4.5t1.5 -9.5l-4 -19q39 -4 64 -27t25 -56q0 -24 -10.5 -38t-19.5 -17t-17 -3
q-6 0 -12.5 2t-12.5 9.5t-6 18.5q0 18 14 30.5t33 13.5q-12 42 -63 48l-103 -410q42 3 87.5 28t79.5 71q9 10 12 10q5 0 9.5 -5t4.5 -10zM338 419q-62 -13 -107 -92q-23 -40 -40 -107.5t-17 -105.5q0 -41 16.5 -68.5t45.5 -33.5z" />
    <glyph glyph-name="sterling" unicode="&#xa3;" horiz-adv-x="755" 
d="M620 138q0 -34 -52 -91t-126 -57q-36 0 -64 15t-86 59q-74 -74 -141 -74q-28 0 -46.5 13t-18.5 35q0 35 38.5 68t90.5 33q29 0 58 -12q5 15 28 102l26 104h-52q-10 0 -13.5 0.5t-6 2.5t-2.5 6q0 14 5.5 17t20.5 3h55l40 161q18 73 76 128t124 55q51 0 81.5 -35.5
t30.5 -96.5q0 -90 -51 -90q-31 0 -31 29q0 6 1.5 13.5t14.5 19t37 11.5l1 21q0 50 -22.5 79t-61.5 29q-40 0 -79.5 -41t-57.5 -113l-42 -170h77h11t6.5 -1t4.5 -3t1 -5q0 -14 -5.5 -17t-20.5 -3h-82l-40 -164q-7 -29 -29 -69q66 -48 88 -60t53 -12q41 0 79 29.5t54 78.5
q3 11 15 11q13 0 13 -9zM255 86q-28 15 -57 15q-33 0 -55.5 -21.5t-22.5 -41.5q0 -13 8.5 -20.5t22.5 -7.5q29 0 57.5 22.5t46.5 53.5z" />
    <glyph glyph-name="currency" unicode="&#xa4;" horiz-adv-x="750" 
d="M600 40q-15 -13 -30 -3q-4 2 -11 13l-41 55q-60 -41 -127 -41t-107 42l-70 -56q-27 -22 -42 -12q-12 9 14 32l78 62q-29 52 -12 118q16 65 69 116l-48 64q-14 17 0 28q16 13 31 4q1 -1 7 -9l45 -59q61 42 128 42t107 -42l68 54q29 23 43 13q13 -10 -15 -33l-76 -60
q29 -52 12 -118q-16 -66 -71 -118l49 -65q13 -17 -1 -27zM587 250q16 62 -17 106t-95 44t-117 -44t-70 -106q-16 -62 17 -106t95 -44t117 44t70 106z" />
    <glyph glyph-name="yen" unicode="&#xa5;" horiz-adv-x="727" 
d="M860 673q0 -8 -3 -12t-6 -5t-9 -2q-36 -3 -64 -20t-65 -62l-198 -241h149q6 0 9 -4.5t1 -9.5q-4 -14 -17 -14h-165l-17 -21q-7 -8 -13 -28l-14 -57h182q14 0 11 -14q-4 -14 -18 -14h-182l-10 -40q-19 -76 -19 -83q0 -6 2 -9t14.5 -5.5t38.5 -2.5q24 0 24 -10
q0 -13 -5 -16t-14 -3q-17 0 -54 1t-55 1t-54 -1t-53 -1q-14 0 -14 10q0 13 5 16t17 3q46 1 59 6.5t20 28.5l27 105h-183q-5 0 -8 4.5t-2 9.5q3 14 17 14h183q18 72 18 76q0 2 -1 4.5t-2 6t-1 4.5l-5 15h-165q-5 0 -8.5 4t-2.5 10q4 14 18 14h149l-93 292q-6 19 -18.5 25
t-45.5 6q-19 0 -19 10q0 9 3.5 13.5t6.5 5t8 0.5q15 0 48.5 -1t49.5 -1q17 0 52 1t52 1q15 0 15 -11q0 -18 -20 -18q-51 0 -51 -24q2 -10 3 -12l91 -287h24l208 254q25 30 25 47q0 19 -29 22q-11 0 -11 10q0 19 17 19q13 0 40.5 -1t41.5 -1q12 0 37 1t36 1q12 0 12 -10z" />
    <glyph glyph-name="brokenbar" unicode="&#xa6;" horiz-adv-x="278" 
d="M245 343q-3 -14 -24 -14q-8 0 -12.5 4t-3.5 10l93 374q9 33 29 33t11 -33zM105 -217q-9 -33 -28 -33q-21 0 -12 33l93 374q3 14 24 14q8 0 12.5 -4t3.5 -10z" />
    <glyph glyph-name="section" unicode="&#xa7;" horiz-adv-x="482" 
d="M499 194q-10 -39 -42.5 -70.5t-76.5 -50.5q28 -52 12 -111q-17 -71 -76.5 -122t-127.5 -51q-65 0 -93.5 54t-9.5 128q4 15 17.5 26t28.5 11t23.5 -11t4.5 -26t-18 -26t-29 -11h-5q0 -45 24.5 -74t67.5 -29q47 0 87.5 39t53.5 92q20 74 -65 126l-80 48q-50 30 -75 73.5
t-12 96.5q10 39 42.5 70.5t76.5 50.5q-28 52 -12 111q17 71 76.5 122t127.5 51q65 0 93.5 -54t9.5 -128q-4 -15 -17.5 -26t-28.5 -11t-23.5 11t-4.5 26t18 26t29 11h5q0 45 -24.5 74t-67.5 29q-47 0 -87.5 -39t-53.5 -92q-20 -74 65 -126l80 -48q50 -30 75 -73.5t12 -96.5z
M433 194q17 69 -61 117l-80 48q-29 17 -52 46q-48 -28 -66 -99q-17 -69 61 -117l80 -48q30 -18 52 -47q48 28 66 100z" />
    <glyph glyph-name="dieresis" unicode="&#xa8;" 
d="M365 609q0 -20 -16.5 -35.5t-36.5 -15.5q-14 0 -25 9.5t-11 26.5q0 19 16.5 35t36.5 16q15 0 25.5 -9t10.5 -27zM525 609q0 -20 -16.5 -35.5t-36.5 -15.5q-14 0 -25 9.5t-11 26.5q0 19 16.5 35t36.5 16q15 0 25.5 -9t10.5 -27z" />
    <glyph glyph-name="copyright" unicode="&#xa9;" horiz-adv-x="683" 
d="M683 342q0 -142 -100 -242t-241 -100q-142 0 -242 100t-100 242q0 141 100 241t242 100q141 0 241 -100t100 -241zM647 342q0 126 -89.5 215.5t-215.5 89.5q-127 0 -216.5 -89.5t-89.5 -215.5q0 -127 89.5 -216.5t216.5 -89.5q126 0 215.5 89.5t89.5 216.5zM512 402
q-3 -11 -10 -11q-8 0 -8 6v6q3 27 3 33q0 14 -3 30t-11 36.5t-27 34t-47 13.5q-41 0 -81 -24t-66 -59q-27 -38 -44 -88t-20.5 -77t-3.5 -44q0 -60 31.5 -92.5t77.5 -32.5q47 0 93 38.5t66 106.5q2 6 10 6t8 -6q-10 -56 -64 -110l-4 -4l-8 -6t-11 -8.5t-14.5 -9.5t-17.5 -9
t-20.5 -8.5t-23 -5.5t-24.5 -2q-62 0 -105 44.5t-43 120.5q0 110 81.5 199.5t177.5 89.5q63 0 93 -56l40 50l9 6q5 0 5 -6t-1 -8z" />
    <glyph glyph-name="ordfeminine" unicode="&#xaa;" horiz-adv-x="463" 
d="M533 496q0 -2 -2.5 -12.5t-7.5 -27t-11 -27.5q-20 -40 -58 -40q-56 0 -69 49q-47 -49 -98 -49q-43 0 -71.5 29.5t-30.5 76.5q-4 76 52.5 142.5t124.5 66.5q48 0 70 -41v1l2.5 7.5t9.5 12t20 7.5q22 0 22 -17q1 -3 -1 -11l-49 -195q-6 -23 -5 -37q0 -28 24 -28q32 0 52 82
q3 12 5 14.5t10 2.5q11 0 11 -6zM483 349q-2 -10 -16 -10h-301q-6 0 -9.5 3t-2.5 7q4 10 17 10h301q5 0 8.5 -3t2.5 -7zM388 480l33 133l2 10q-13 67 -60 67q-26 0 -51 -22.5t-41 -56.5q-11 -25 -22.5 -73t-10.5 -72q7 -63 50 -63q32 0 64 29.5t36 47.5z" />
    <glyph glyph-name="guillemotleft" unicode="&#xab;" horiz-adv-x="550" 
d="M393 472q-60 -127 -147 -232q36 -107 31 -232q0 -8 -8 -8h-4q-8 0 -8 8q-8 129 -70 229q-2 4 -2 5q0 3 3 6q113 99 187 231q1 4 7 4h4q8 0 8 -8q0 -2 -1 -3zM543 472q-60 -127 -147 -232q36 -107 31 -232q0 -8 -8 -8h-4q-8 0 -8 8q-8 129 -70 229q-2 4 -2 5q0 3 3 6
q113 99 187 231q1 4 7 4h4q8 0 8 -8q0 -2 -1 -3z" />
    <glyph glyph-name="logicalnot" unicode="&#xac;" horiz-adv-x="750" 
d="M760 343l-47 -187q-4 -18 -22 -18q-7 0 -11.5 5t-2.5 13l42 169h-545q-7 0 -11.5 5t-2.5 13q5 18 23 18h563q7 0 11.5 -5t2.5 -13z" />
    <glyph glyph-name="uni00AD" unicode="&#xad;" horiz-adv-x="350" 
d="M332 232q0 -7 -8 -31q-2 -8 -6 -9.5t-19 -1.5h-190q-24 0 -24 10q0 7 8 31q2 8 5.5 9.5t19.5 1.5h190q24 0 24 -10z" />
    <glyph glyph-name="registered" unicode="&#xae;" horiz-adv-x="683" 
d="M683 342q0 -142 -100 -242t-241 -100q-142 0 -242 100t-100 242q0 141 100 241t242 100q141 0 241 -100t100 -241zM647 342q0 126 -89.5 215.5t-215.5 89.5q-127 0 -216.5 -89.5t-89.5 -215.5q0 -127 89.5 -216.5t216.5 -89.5q126 0 215.5 89.5t89.5 216.5zM550 192
q0 -6 -6 -21.5t-23.5 -32.5t-39.5 -17q-30 0 -51.5 15.5t-21.5 49.5q0 19 10 53q9 36 9 47q0 22 -13.5 39t-46.5 17h-68l-42 -169l-1 -10q0 -10 35 -10q14 0 14 -7q0 -11 -12 -11l-68 1l-67 -1q-9 0 -9 6q0 8 3.5 10t13.5 2q27 0 35 5t13 22l85 344q2 4 2 10q0 10 -33 10
q-17 0 -17 6q0 8 3.5 10t13.5 2h157q56 0 89.5 -26.5t33.5 -65.5q0 -40 -36.5 -75t-93.5 -48q54 -21 54 -73l-4 -33q-6 -57 -6 -71q0 -36 21 -36q31 0 48 54q2 7 3.5 8.5t6.5 1.5q9 0 9 -6zM497 484q0 21 -9.5 34.5t-28.5 18.5t-31.5 6t-33.5 1q-31 0 -35 -1q-10 -2 -15 -23
l-41 -165h63q44 0 73.5 17.5t40.5 44t14 41.5t3 26z" />
    <glyph glyph-name="macron" unicode="&#xaf;" 
d="M563 606q0 -12 -5.5 -15t-20.5 -3h-274q-15 0 -19.5 1.5t-4.5 9.5q0 12 5.5 14.5t20.5 2.5h274q24 0 24 -10z" />
    <glyph glyph-name="degree" unicode="&#xb0;" horiz-adv-x="375" 
d="M452 558q-13 -52 -58.5 -88.5t-97.5 -36.5t-79.5 36.5t-14.5 88.5t58.5 88.5t97.5 36.5t79.5 -36.5t14.5 -88.5zM416 558q9 37 -10.5 63t-56.5 26t-69.5 -26t-41.5 -63t10.5 -63t56.5 -26t69.5 26t41.5 63z" />
    <glyph glyph-name="plusminus" unicode="&#xb1;" horiz-adv-x="750" 
d="M749 300q0 -18 -32 -18h-253l-61 -245h243q11 0 16 -0.5t10.5 -5t5.5 -13.5q0 -18 -32 -18h-535q-31 0 -31 19q0 18 31 18h253l1 1l61 244h-244q-31 0 -31 19q0 18 31 18h253l64 257q5 25 21 25q9 0 14 -6t5 -13q0 -2 -1.5 -6t-1.5 -7l-62 -250h243q11 0 16 -0.5t10.5 -5
t5.5 -13.5z" />
    <glyph glyph-name="two.superior" unicode="&#xb2;" horiz-adv-x="377" 
d="M434 403q0 -7 -9 -31t-36 -51.5t-64 -27.5q-28 0 -66 21q-42 24 -63 24q-28 0 -38 -37q-3 -8 -11 -8q-10 0 -11 5q0 8 8.5 29.5t40 58t78.5 59.5q76 38 107 76q16 20 24 44.5t9 37.5t0 22q-1 34 -20.5 50.5t-46.5 16.5q-59 0 -97.5 -56.5t-36.5 -96.5q2 -20 17 -20
q30 0 48.5 32t17.5 51q0 9 -6 20l-3 5q0 6 8 6q5 0 10 -10.5t6 -20.5q1 -24 -21.5 -59.5t-59.5 -35.5q-36 0 -36 37q-2 41 41 100.5t113 59.5q48 0 80.5 -28t34.5 -71q1 -39 -18.5 -67t-59.5 -54q-40 -23 -51 -29l-53 -25q-57 -27 -91 -82q6 2 19 2q18 0 68 -10q54 -9 65 -9
q30 0 51.5 20.5t30.5 47.5q6 9 11 10q9 0 10 -6z" />
    <glyph glyph-name="three.superior" unicode="&#xb3;" horiz-adv-x="351" 
d="M459 625q2 -35 -27.5 -70.5t-84.5 -51.5q59 -21 62 -76q2 -53 -50.5 -93.5t-120.5 -40.5q-43 0 -69 21.5t-28 53.5q-1 7 0 16t9 19.5t24 10.5q22 0 23 -18q0 -3 -1 -7.5t-10 -11.5t-25 -7q1 -32 23 -48.5t53 -16.5q55 0 91 42q18 22 25.5 53.5t6.5 45.5q-2 51 -59 51h-20
q-17 0 -17 6q-1 8 2.5 10t14.5 2h16q34 0 58.5 12.5t36 28t18 36.5t7 30t0.5 16q-1 28 -20 41t-44 13q-51 0 -91.5 -34t-38.5 -70q2 -23 21 -23q16 0 29.5 11t12.5 27q0 9 -7 18l-3 6q0 6 8 6q5 0 10.5 -10t5.5 -19q1 -21 -16.5 -36t-39.5 -15q-39 0 -40 37q-2 40 43.5 77
t106.5 37q46 0 74.5 -22.5t30.5 -56.5z" />
    <glyph glyph-name="acute" unicode="&#xb4;" 
d="M531 669q0 -16 -20 -30l-160 -126q-6 -6 -13 -6q-4 0 -9 4.5t-5 10.5q0 5 9 13l143 147q14 14 28 14q11 0 19 -8t8 -19z" />
    <glyph glyph-name="uni00B5" unicode="&#xb5;" 
d="M523 143q0 -3 -4 -19.5t-11.5 -41t-15.5 -40.5q-26 -52 -70 -52q-29 0 -50.5 18t-28.5 50q-51 -68 -120 -68q-55 0 -88 31q-50 -206 -54 -214q-8 -22 -33 -22q-9 0 -17 6t-8 18q0 8 4 22l144 575q9 34 37 34q25 0 25 -24q0 -3 -3 -15.5t-8 -32.5t-7 -29l-42 -168
q-12 -50 -12 -77q0 -84 65 -84q60 0 105 70q10 14 16 35l71 282q8 33 36 33q12 0 19 -7.5t7 -16.5q0 -2 -1.5 -8t-4 -15.5t-3.5 -14.5q-7 -30 -15 -62t-15 -61l-28 -108q-16 -70 -16 -87q0 -40 27 -40q38 0 67 116q6 21 7 22q3 3 12 3q13 0 13 -8z" />
    <glyph glyph-name="paragraph" unicode="&#xb6;" horiz-adv-x="611" 
d="M751 674q-5 -20 -38 -20h-50l-204 -815q-9 -33 -28 -33q-21 0 -12 33l204 815h-70l-204 -815q-9 -33 -28 -33q-21 0 -12 33l98 391q-50 2 -96 17t-83.5 42t-53.5 72.5t-2 101.5q23 95 113.5 163t194.5 68h243q10 0 15.5 -0.5t10 -5.5t2.5 -14z" />
    <glyph glyph-name="periodcentered" unicode="&#xb7;" horiz-adv-x="750" 
d="M510 351q0 -24 -19 -41t-40 -17q-18 0 -29 11t-11 28q0 23 18.5 40.5t40.5 17.5q16 0 28 -9.5t12 -29.5z" />
    <glyph glyph-name="cedilla" unicode="&#xb8;" horiz-adv-x="450" 
d="M326 -109q0 -29 -20 -47.5t-59 -25.5t-65 -8.5t-70 -1.5q-12 0 -12 10q0 8 6 10q6 1 33 1q127 0 127 62q0 34 -49 39q-12 0 -12 10q0 2 6.5 29t8.5 33t24 6h11q24 0 25 -6q-2 -7 -7 -28.5t-7 -28.5q60 -10 60 -54z" />
    <glyph glyph-name="one.superior" unicode="&#xb9;" horiz-adv-x="368" 
d="M369 316q0 -11 -14 -11l-93 2l-91 -2q-11 0 -11 6q-1 8 3 10t15 2h6q40 0 51 5t15 21l71 286q-39 -25 -78 -25q-11 0 -11 6q0 7 2.5 8.5t11.5 3.5q66 5 119 69q6 7 10 7q8 0 8 -6q0 -1 -0.5 -4t-0.5 -4l-86 -341l-2 -14q0 -4 2 -6t13.5 -4t35.5 -2h6q18 0 18 -7z" />
    <glyph glyph-name="ordmasculine" unicode="&#xba;" horiz-adv-x="419" 
d="M507 591q4 -76 -58.5 -139t-140.5 -63q-48 0 -83.5 29.5t-38.5 83.5q-4 77 58.5 139.5t139.5 62.5q50 0 85 -30t38 -83zM439 349q-2 -10 -16 -10h-257q-6 0 -9 3t-2 7q2 10 16 10h256q6 0 9.5 -3t2.5 -7zM452 618q-2 31 -20 51.5t-49 20.5q-25 0 -53 -17t-48 -48
q-18 -28 -30.5 -75.5t-10.5 -74.5q1 -34 20.5 -53t47.5 -19q60 0 103 67q17 26 29 74t11 74z" />
    <glyph glyph-name="guillemotright" unicode="&#xbb;" horiz-adv-x="550" 
d="M485 242q0 -4 -2 -6q-113 -101 -187 -232q-2 -4 -7 -4h-4q-8 0 -8 8q0 2 1 3q57 124 146 232q-35 110 -30 233q0 7 8 7h4q8 0 8 -7q8 -128 70 -230q1 -1 1 -4zM335 242q0 -4 -2 -6q-113 -101 -187 -232q-2 -4 -7 -4h-4q-8 0 -8 8q0 2 1 3q57 124 146 232q-35 110 -30 233
q0 7 8 7h4q8 0 8 -7q8 -128 70 -230q1 -1 1 -4z" />
    <glyph glyph-name="onequarter" unicode="&#xbc;" horiz-adv-x="789" 
d="M369 316q0 -11 -14 -11l-93 2l-91 -2q-11 0 -11 6q-1 8 3.5 10t15.5 2h6q39 0 50 5t15 21l72 286q-42 -25 -79 -25q-10 0 -11 6q0 7 2.5 8.5t11.5 3.5q68 5 119 69q6 7 10 7q8 0 8 -6q0 -1 -0.5 -4t-0.5 -4l-86 -341l-2 -14q0 -4 2 -6t14 -4t36 -2h6q17 0 17 -7zM714 8
q0 -6 -23 -11t-42 -5h-15l-22 -87q-5 -21 -25 -21q-19 0 -19 14q-1 3 5 23l20 81l-43 13q-25 7 -52 7q-42 0 -55 -9q-16 -12 -21 -12q-4 0 -7.5 3.5t-2.5 5.5q-2 10 18 19q25 12 62.5 49.5t66.5 79.5q57 89 92 217q5 24 26 24q19 0 19 -14q1 -5 -7.5 -34t-30.5 -79.5
t-52 -93.5q-51 -74 -127 -139q7 1 20 1q28 0 54 -8q5 -1 45 -13q2 6 8.5 34.5t12.5 52.5t8 28q6 11 21 11q19 0 21 -15l-3 -11l-27 -109q2 -1 12 -1q18 0 46 7q2 0 4 1t3 1q3 0 6.5 -4t3.5 -6zM818 663q-1 -3 -5 -9l-561 -643q-6 -9 -17 -9q-7 0 -11.5 5t-2.5 13q2 6 5 9
l561 644q6 8 17 8q7 0 11.5 -5t2.5 -13z" />
    <glyph glyph-name="onehalf" unicode="&#xbd;" horiz-adv-x="789" 
d="M369 316q0 -11 -14 -11l-93 2l-91 -2q-11 0 -11 6q-1 8 3.5 10t15.5 2h6q39 0 50 5t15 21l72 286q-42 -25 -79 -25q-10 0 -11 6q0 7 2.5 8.5t11.5 3.5q68 5 119 69q6 7 10 7q8 0 8 -6q0 -1 -0.5 -4t-0.5 -4l-86 -341l-2 -14q0 -4 2 -6t14 -4t36 -2h6q17 0 17 -7zM737 98
q-1 -5 -4 -14t-11.5 -27t-20 -32.5t-31 -26t-42.5 -11.5q-24 0 -66 22q-42 23 -64 23q-27 0 -37 -37q-4 -8 -12 -8q-10 0 -10 6q0 7 8 28.5t40 58.5t79 60q74 37 107 76q38 50 33 104q-2 33 -21.5 50t-46.5 17q-40 0 -73 -30.5t-47.5 -65.5t-13.5 -58q2 -19 18 -19
q29 0 48 31.5t18 50.5q0 10 -7 20l-2 6q-1 2 2 4t5 2q6 0 10.5 -10.5t5.5 -21.5q2 -23 -20 -58.5t-60 -35.5q-35 0 -37 36q-2 41 41.5 101t113.5 60q48 0 80 -28t34 -72q2 -38 -17.5 -65.5t-59.5 -54.5q-42 -25 -51 -29l-54 -26q-57 -27 -90 -81q5 1 18 1q24 0 69 -9
q38 -9 65 -9q30 0 51.5 20.5t30.5 47.5q6 9 11 9q9 0 10 -5zM747 663q-1 -3 -5 -9l-561 -643q-7 -9 -17 -9q-7 0 -11.5 5t-2.5 13q2 6 5 9l561 644q6 8 17 8q7 0 11.5 -5t2.5 -13z" />
    <glyph glyph-name="threequarters" unicode="&#xbe;" horiz-adv-x="789" 
d="M454 427q2 -53 -50.5 -93.5t-120.5 -40.5q-43 0 -69 21.5t-28 53.5q0 46 34 46q22 0 22 -18q0 -3 -0.5 -7.5t-9.5 -11.5t-25 -7q1 -32 22.5 -48.5t52.5 -16.5q56 0 91 42q17 22 25 53t8 46q-4 51 -60 51h-20q-17 0 -17 6q0 8 3.5 10t14.5 2h15q34 0 58.5 12t36 28.5
t18 36t7.5 30.5t0 16q-3 54 -64 54q-51 0 -91 -34t-38 -70q0 -23 20 -23q16 0 29.5 11t13.5 27l-1 3q-1 4 -2.5 7.5t-4.5 7.5l-2 6q0 6 7 6q5 0 10.5 -10t6.5 -19q1 -21 -17 -36t-40 -15q-38 0 -39 37q-3 40 42.5 77t106.5 37q47 0 75 -23t29 -56q2 -34 -27 -70t-83 -52
q58 -21 61 -76zM714 8q0 -6 -23 -11t-42 -5h-15l-22 -87q-5 -21 -25 -21q-19 0 -19 14q-1 3 5 23l20 81l-43 13q-25 7 -52 7q-42 0 -55 -9q-16 -12 -21 -12q-4 0 -7.5 3.5t-2.5 5.5q-2 10 18 19q25 12 62.5 49.5t66.5 79.5q57 89 92 217q5 24 26 24q19 0 19 -14
q1 -5 -7.5 -34t-30.5 -79.5t-52 -93.5q-51 -74 -127 -139q7 1 20 1q28 0 54 -8q5 -1 45 -13q2 6 8.5 34.5t12.5 52.5t8 28q6 11 21 11q19 0 21 -15l-3 -11l-27 -109q2 -1 12 -1q18 0 46 7q2 0 4 1t3 1q3 0 6.5 -4t3.5 -6zM818 663q-1 -3 -5 -9l-561 -643q-6 -9 -17 -9
q-7 0 -11.5 5t-2.5 13q2 6 5 9l561 644q6 8 17 8q7 0 11.5 -5t2.5 -13z" />
    <glyph glyph-name="questiondown" unicode="&#xbf;" 
d="M412 460q0 -22 -18 -39.5t-41 -17.5q-17 0 -28.5 10t-11.5 30q0 22 18 39.5t41 17.5q16 0 28 -10.5t12 -29.5zM433 40q0 -13 -9.5 -41.5t-29.5 -65t-46.5 -69.5t-66 -56t-82.5 -23q-53 0 -85 34.5t-32 88.5q0 41 20.5 85t62.5 79l100 82q59 47 69 58q18 25 18 52
q0 36 -27 36q-19 0 -42.5 -17.5t-36.5 -55.5q-2 -7 -4.5 -9t-10.5 -2q-13 0 -13 9q0 22 32.5 58.5t76.5 36.5q24 0 40.5 -19t16.5 -50q0 -60 -52 -105l-133 -109q-24 -19 -38 -33t-30.5 -44.5t-16.5 -64.5q0 -40 23.5 -65t61.5 -25q58 0 110 51t83 139q-35 0 -35 29
q0 18 13.5 31.5t31.5 13.5q13 0 22 -7.5t9 -21.5z" />
    <glyph glyph-name="Agrave" unicode="&#xc0;" horiz-adv-x="727" 
d="M677 18q0 -18 -18 -18q-16 0 -49 1t-50 1t-52 -1t-51 -1q-14 0 -14 10q0 13 5 16t18 3q22 0 35.5 4.5t18 12.5t5.5 13t0 14l-11 161h-232l-73 -129q-17 -30 -17 -43q0 -30 38 -33q14 0 14 -10q0 -9 -3.5 -13.5t-6.5 -5t-8 -0.5q-13 0 -40.5 1t-41.5 1q-13 0 -38.5 -1
t-37.5 -1t-12 10q0 12 4.5 15t14.5 4q37 4 61 22.5t48 60.5l333 584q6 11 10 14.5t14 3.5t12.5 -4t3.5 -20l44 -628q2 -20 11.5 -26.5t44.5 -6.5q11 0 15.5 -1.5t4.5 -9.5zM512 263l-23 333l-190 -333h213zM621 761q-1 -5 -8 -10.5t-11 -6.5q-7 -1 -13 3l-130 97
q-19 8 -12 26q4 13 15.5 22t25.5 9q6 0 11.5 -2.5t8.5 -4.5l2 -2l106 -120q8 -7 5 -11z" />
    <glyph glyph-name="Aacute" unicode="&#xc1;" horiz-adv-x="727" 
d="M677 18q0 -18 -18 -18q-16 0 -49 1t-50 1t-52 -1t-51 -1q-14 0 -14 10q0 13 5 16t18 3q22 0 35.5 4.5t18 12.5t5.5 13t0 14l-11 161h-232l-73 -129q-17 -30 -17 -43q0 -30 38 -33q14 0 14 -10q0 -9 -3.5 -13.5t-6.5 -5t-8 -0.5q-13 0 -40.5 1t-41.5 1q-13 0 -38.5 -1
t-37.5 -1t-12 10q0 12 4.5 15t14.5 4q37 4 61 22.5t48 60.5l333 584q6 11 10 14.5t14 3.5t12.5 -4t3.5 -20l44 -628q2 -20 11.5 -26.5t44.5 -6.5q11 0 15.5 -1.5t4.5 -9.5zM512 263l-23 333l-190 -333h213zM716 870q-2 -18 -25 -26l-179 -97q-9 -4 -14 -3q-4 1 -8 6t-3 11
q0 4 11 11l166 120q13 9 26 9q14 0 21 -9t5 -22z" />
    <glyph glyph-name="Acircumflex" unicode="&#xc2;" horiz-adv-x="727" 
d="M677 18q0 -18 -18 -18q-16 0 -49 1t-50 1t-52 -1t-51 -1q-14 0 -14 10q0 13 5 16t18 3q22 0 35.5 4.5t18 12.5t5.5 13t0 14l-11 161h-232l-73 -129q-17 -30 -17 -43q0 -30 38 -33q14 0 14 -10q0 -9 -3.5 -13.5t-6.5 -5t-8 -0.5q-13 0 -40.5 1t-41.5 1q-13 0 -38.5 -1
t-37.5 -1t-12 10q0 12 4.5 15t14.5 4q37 4 61 22.5t48 60.5l333 584q6 11 10 14.5t14 3.5t12.5 -4t3.5 -20l44 -628q2 -20 11.5 -26.5t44.5 -6.5q11 0 15.5 -1.5t4.5 -9.5zM512 263l-23 333l-190 -333h213zM689 753q3 -4 1.5 -9t-7 -8t-10.5 -1l-111 55l-141 -55
q-11 -4 -12 6q1 7 7 12l154 98q9 3 12 0z" />
    <glyph glyph-name="Atilde" unicode="&#xc3;" horiz-adv-x="727" 
d="M677 18q0 -18 -18 -18q-16 0 -49 1t-50 1t-52 -1t-51 -1q-14 0 -14 10q0 13 5 16t18 3q22 0 35.5 4.5t18 12.5t5.5 13t0 14l-11 161h-232l-73 -129q-17 -30 -17 -43q0 -30 38 -33q14 0 14 -10q0 -9 -3.5 -13.5t-6.5 -5t-8 -0.5q-13 0 -40.5 1t-41.5 1q-13 0 -38.5 -1
t-37.5 -1t-12 10q0 12 4.5 15t14.5 4q37 4 61 22.5t48 60.5l333 584q6 11 10 14.5t14 3.5t12.5 -4t3.5 -20l44 -628q2 -20 11.5 -26.5t44.5 -6.5q11 0 15.5 -1.5t4.5 -9.5zM512 263l-23 333l-190 -333h213zM718 821q0 -10 -47 -48.5t-77 -38.5q-25 0 -48 34q-11 18 -18 24
t-17 6q-26 0 -82 -50q-13 -13 -19 -13q-9 0 -9 9q0 5 21 25.5t52 41t51 20.5q28 0 49 -37q17 -27 33 -27q14 0 34.5 12.5t34.5 25.5l14 13q12 12 18 12q10 -1 10 -9z" />
    <glyph glyph-name="Adieresis" unicode="&#xc4;" horiz-adv-x="727" 
d="M677 18q0 -18 -18 -18q-16 0 -49 1t-50 1t-52 -1t-51 -1q-14 0 -14 10q0 13 5 16t18 3q22 0 35.5 4.5t18 12.5t5.5 13t0 14l-11 161h-232l-73 -129q-17 -30 -17 -43q0 -30 38 -33q14 0 14 -10q0 -9 -3.5 -13.5t-6.5 -5t-8 -0.5q-13 0 -40.5 1t-41.5 1q-13 0 -38.5 -1
t-37.5 -1t-12 10q0 12 4.5 15t14.5 4q37 4 61 22.5t48 60.5l333 584q6 11 10 14.5t14 3.5t12.5 -4t3.5 -20l44 -628q2 -20 11.5 -26.5t44.5 -6.5q11 0 15.5 -1.5t4.5 -9.5zM512 263l-23 333l-190 -333h213zM507 785q0 -20 -16.5 -35.5t-36.5 -15.5q-14 0 -25 9.5t-11 26.5
q0 19 16.5 35t36.5 16q15 0 26 -9t10 -27zM697 785q0 -20 -16.5 -35.5t-36.5 -15.5q-14 0 -25 9.5t-11 26.5q0 19 16.5 35t36.5 16q15 0 26 -9t10 -27z" />
    <glyph glyph-name="Aring" unicode="&#xc5;" horiz-adv-x="727" 
d="M677 18q0 -18 -18 -18q-16 0 -49 1t-50 1t-52 -1t-51 -1q-14 0 -14 10q0 13 5 16t18 3q22 0 35.5 4.5t18 12.5t5.5 13t0 14l-11 161h-232l-73 -129q-17 -30 -17 -43q0 -30 38 -33q14 0 14 -10q0 -9 -3.5 -13.5t-6.5 -5t-8 -0.5q-13 0 -40.5 1t-41.5 1q-13 0 -38.5 -1
t-37.5 -1t-12 10q0 12 4.5 15t14.5 4q37 4 61 22.5t48 60.5l333 584q6 11 10 14.5t14 3.5t12.5 -4t3.5 -20l44 -628q2 -20 11.5 -26.5t44.5 -6.5q11 0 15.5 -1.5t4.5 -9.5zM512 263l-23 333l-190 -333h213zM623 825q0 37 -44 37q-32 0 -50.5 -21t-20.5 -41l-3 -21
q0 -37 45 -37q38 0 55.5 30t17.5 53zM656 823q-1 -42 -36 -75.5t-77 -33.5q-33 0 -52 19.5t-19 47.5q0 41 35.5 75t78.5 34q33 0 51.5 -19t18.5 -48z" />
    <glyph glyph-name="AE" unicode="&#xc6;" horiz-adv-x="863" 
d="M873 246q0 -3 -4 -12l-88 -218q-5 -11 -8.5 -13.5t-18.5 -2.5h-393q-24 0 -24 10q0 13 5.5 16t18.5 3q30 0 40 7.5t16 31.5l61 246h-147l-123 -211q-15 -23 -15 -41q0 -29 38 -33q13 0 13 -11q0 -18 -18 -18q-13 0 -40.5 1t-41.5 1l-76 -2q-11 0 -11 10q0 8 3 12t6 5t9 2
q20 2 35 7t35.5 23.5t39.5 51.5l313 542q-8 1 -29 1h-17q-24 0 -24 10q0 13 5.5 16t21.5 3h452q17 0 21 -3.5t2 -21.5l-24 -176q-2 -15 -4.5 -18.5t-11.5 -3.5q-13 0 -13 10q0 1 1 11.5t1 13.5q6 44 6 66q0 48 -24 70.5t-98 22.5h-91q-26 0 -34.5 -5.5t-14.5 -32.5l-68 -273
h79q58 0 79.5 20.5t36.5 79.5q3 11 5.5 14t11.5 3q13 0 13 -10l-58 -236q-2 -11 -5 -14t-11 -3q-14 0 -14 11q0 2 2 10q9 37 9 54q0 23 -14 32.5t-58 9.5h-83l-63 -253q-4 -14 -4 -20q0 -8 4.5 -10t25.5 -2h93q42 0 74 8.5t53.5 21.5t40.5 39.5t31.5 52t30.5 69.5
q2 4 5.5 12.5t6 14t3.5 6.5q3 3 11 3q13 0 13 -10zM486 343l66 267q4 14 4 20q0 21 -30 21l-179 -308h139z" />
    <glyph glyph-name="Ccedilla" unicode="&#xc7;" horiz-adv-x="700" 
d="M734 438q-3 -12 -5.5 -14.5t-10.5 -2.5q-13 0 -13 9v9q5 25 5 53q0 23 -4.5 48t-17 58.5t-43.5 55t-76 21.5q-65 0 -129 -39t-105 -95q-44 -60 -70.5 -140t-32 -123.5t-5.5 -69.5q0 -97 50 -148.5t123 -51.5q76 0 149.5 61.5t105.5 169.5q3 10 15 10q14 0 14 -9
q-2 -10 -7 -27.5t-31 -64t-65 -84.5q-97 -85 -196 -85h-10q-2 -7 -4.5 -19t-3.5 -15q60 -10 60 -54q0 -29 -20 -47.5t-59 -25.5t-65 -8.5t-70 -1.5q-12 0 -12 10q0 8 6 10q6 1 33 1q127 0 127 62q0 34 -49 39q-12 0 -12 10q0 11 11 48q-75 22 -122 88.5t-47 166.5
q0 115 61 223t157.5 173t195.5 65q100 0 148 -89l65 80q3 4 6.5 6.5t4.5 2.5h2q9 0 9 -9q-1 -10 -2 -13z" />
    <glyph glyph-name="Egrave" unicode="&#xc8;" horiz-adv-x="663" 
d="M673 246q0 -3 -4 -12l-88 -218q-5 -11 -8.5 -13.5t-18.5 -2.5h-464q-24 0 -24 10q0 13 5.5 16t21.5 3q44 0 56.5 7.5t19.5 35.5l135 543q4 14 4 19q0 6 -2 9t-14.5 6t-38.5 3q-24 0 -24 10q0 13 5.5 16t20.5 3h451q15 0 20 -1.5t5 -9.5q0 -2 -1 -7t-1 -7l-24 -177
q-2 -15 -4 -18t-11 -3q-14 0 -14 11q0 3 1 10.5t1 9.5q5 32 5 61q0 53 -24 77.5t-107 24.5h-125q-25 0 -33.5 -5.5t-14.5 -30.5l-62 -248h83q59 0 81.5 20t38.5 80q2 11 4.5 14t11.5 3q13 0 13 -10q0 -6 -2 -14l-56 -222q-2 -11 -5 -14t-11 -3q-14 0 -14 10l2 9q9 36 9 54
q0 24 -14 34t-61 10h-87l-69 -278q-4 -14 -4 -20q0 -8 4.5 -10t25.5 -2h122q73 0 118.5 21.5t71 58.5t55.5 111q2 4 5.5 12.5t6 14t3.5 6.5q3 3 11 3q13 0 13 -10zM589 761q-1 -5 -8 -10.5t-11 -6.5q-7 -1 -13 3l-130 97q-19 8 -12 26q4 13 15.5 22t25.5 9q6 0 11.5 -2.5
t8.5 -4.5l2 -2l106 -120q8 -7 5 -11z" />
    <glyph glyph-name="Eacute" unicode="&#xc9;" horiz-adv-x="663" 
d="M673 246q0 -3 -4 -12l-88 -218q-5 -11 -8.5 -13.5t-18.5 -2.5h-464q-24 0 -24 10q0 13 5.5 16t21.5 3q44 0 56.5 7.5t19.5 35.5l135 543q4 14 4 19q0 6 -2 9t-14.5 6t-38.5 3q-24 0 -24 10q0 13 5.5 16t20.5 3h451q15 0 20 -1.5t5 -9.5q0 -2 -1 -7t-1 -7l-24 -177
q-2 -15 -4 -18t-11 -3q-14 0 -14 11q0 3 1 10.5t1 9.5q5 32 5 61q0 53 -24 77.5t-107 24.5h-125q-25 0 -33.5 -5.5t-14.5 -30.5l-62 -248h83q59 0 81.5 20t38.5 80q2 11 4.5 14t11.5 3q13 0 13 -10q0 -6 -2 -14l-56 -222q-2 -11 -5 -14t-11 -3q-14 0 -14 10l2 9q9 36 9 54
q0 24 -14 34t-61 10h-87l-69 -278q-4 -14 -4 -20q0 -8 4.5 -10t25.5 -2h122q73 0 118.5 21.5t71 58.5t55.5 111q2 4 5.5 12.5t6 14t3.5 6.5q3 3 11 3q13 0 13 -10zM684 870q-2 -18 -25 -26l-179 -97q-9 -4 -14 -3q-4 1 -8 6t-3 11q0 4 11 11l166 120q13 9 26 9q14 0 21 -9
t5 -22z" />
    <glyph glyph-name="Ecircumflex" unicode="&#xca;" horiz-adv-x="663" 
d="M673 246q0 -3 -4 -12l-88 -218q-5 -11 -8.5 -13.5t-18.5 -2.5h-464q-24 0 -24 10q0 13 5.5 16t21.5 3q44 0 56.5 7.5t19.5 35.5l135 543q4 14 4 19q0 6 -2 9t-14.5 6t-38.5 3q-24 0 -24 10q0 13 5.5 16t20.5 3h451q15 0 20 -1.5t5 -9.5q0 -2 -1 -7t-1 -7l-24 -177
q-2 -15 -4 -18t-11 -3q-14 0 -14 11q0 3 1 10.5t1 9.5q5 32 5 61q0 53 -24 77.5t-107 24.5h-125q-25 0 -33.5 -5.5t-14.5 -30.5l-62 -248h83q59 0 81.5 20t38.5 80q2 11 4.5 14t11.5 3q13 0 13 -10q0 -6 -2 -14l-56 -222q-2 -11 -5 -14t-11 -3q-14 0 -14 10l2 9q9 36 9 54
q0 24 -14 34t-61 10h-87l-69 -278q-4 -14 -4 -20q0 -8 4.5 -10t25.5 -2h122q73 0 118.5 21.5t71 58.5t55.5 111q2 4 5.5 12.5t6 14t3.5 6.5q3 3 11 3q13 0 13 -10zM657 753q3 -4 1.5 -9t-7 -8t-10.5 -1l-111 55l-141 -55q-11 -4 -12 6q1 7 7 12l154 98q9 3 12 0z" />
    <glyph glyph-name="Edieresis" unicode="&#xcb;" horiz-adv-x="663" 
d="M673 246q0 -3 -4 -12l-88 -218q-5 -11 -8.5 -13.5t-18.5 -2.5h-464q-24 0 -24 10q0 13 5.5 16t21.5 3q44 0 56.5 7.5t19.5 35.5l135 543q4 14 4 19q0 6 -2 9t-14.5 6t-38.5 3q-24 0 -24 10q0 13 5.5 16t20.5 3h451q15 0 20 -1.5t5 -9.5q0 -2 -1 -7t-1 -7l-24 -177
q-2 -15 -4 -18t-11 -3q-14 0 -14 11q0 3 1 10.5t1 9.5q5 32 5 61q0 53 -24 77.5t-107 24.5h-125q-25 0 -33.5 -5.5t-14.5 -30.5l-62 -248h83q59 0 81.5 20t38.5 80q2 11 4.5 14t11.5 3q13 0 13 -10q0 -6 -2 -14l-56 -222q-2 -11 -5 -14t-11 -3q-14 0 -14 10l2 9q9 36 9 54
q0 24 -14 34t-61 10h-87l-69 -278q-4 -14 -4 -20q0 -8 4.5 -10t25.5 -2h122q73 0 118.5 21.5t71 58.5t55.5 111q2 4 5.5 12.5t6 14t3.5 6.5q3 3 11 3q13 0 13 -10zM475 785q0 -20 -16.5 -35.5t-36.5 -15.5q-14 0 -25 9.5t-11 26.5q0 19 16.5 35t36.5 16q15 0 26 -9t10 -27z
M665 785q0 -20 -16.5 -35.5t-36.5 -15.5q-14 0 -25 9.5t-11 26.5q0 19 16.5 35t36.5 16q15 0 26 -9t10 -27z" />
    <glyph glyph-name="Igrave" unicode="&#xcc;" horiz-adv-x="377" 
d="M322 19q0 -13 -5 -16t-14 -3q-18 0 -57 1t-58 1t-56.5 -1t-55.5 -1q-14 0 -14 10q0 13 5.5 16t18.5 3q49 0 62.5 7.5t20.5 35.5l135 540l4 24q0 7 -2 10t-15.5 5.5t-41.5 2.5q-15 0 -19.5 1.5t-4.5 9.5q0 18 19 18q18 0 56.5 -1t57.5 -1q18 0 56 1t57 1q14 0 14 -10
q0 -13 -5.5 -16t-23.5 -3q-44 0 -58 -7.5t-20 -33.5l-137 -550q-2 -9 -2 -17q0 -17 57 -17h12.5t7.5 -1t5 -3t1 -6zM446 761q-1 -5 -8 -10.5t-11 -6.5q-7 -1 -13 3l-130 97q-19 8 -12 26q4 13 15.5 22t25.5 9q6 0 11.5 -2.5t7.5 -4.5l3 -2l106 -120q8 -7 5 -11z" />
    <glyph glyph-name="Iacute" unicode="&#xcd;" horiz-adv-x="377" 
d="M322 19q0 -13 -5 -16t-14 -3q-18 0 -57 1t-58 1t-56.5 -1t-55.5 -1q-14 0 -14 10q0 13 5.5 16t18.5 3q49 0 62.5 7.5t20.5 35.5l135 540l4 24q0 7 -2 10t-15.5 5.5t-41.5 2.5q-15 0 -19.5 1.5t-4.5 9.5q0 18 19 18q18 0 56.5 -1t57.5 -1q18 0 56 1t57 1q14 0 14 -10
q0 -13 -5.5 -16t-23.5 -3q-44 0 -58 -7.5t-20 -33.5l-137 -550q-2 -9 -2 -17q0 -17 57 -17h12.5t7.5 -1t5 -3t1 -6zM541 870q-2 -18 -25 -26l-179 -97q-9 -4 -14 -3q-4 1 -8 6t-3 11q0 4 11 11l166 120q13 9 26 9q14 0 21 -9t5 -22z" />
    <glyph glyph-name="Icircumflex" unicode="&#xce;" horiz-adv-x="377" 
d="M322 19q0 -13 -5 -16t-14 -3q-18 0 -57 1t-58 1t-56.5 -1t-55.5 -1q-14 0 -14 10q0 13 5.5 16t18.5 3q49 0 62.5 7.5t20.5 35.5l135 540l4 24q0 7 -2 10t-15.5 5.5t-41.5 2.5q-15 0 -19.5 1.5t-4.5 9.5q0 18 19 18q18 0 56.5 -1t57.5 -1q18 0 56 1t57 1q14 0 14 -10
q0 -13 -5.5 -16t-23.5 -3q-44 0 -58 -7.5t-20 -33.5l-137 -550q-2 -9 -2 -17q0 -17 57 -17h12.5t7.5 -1t5 -3t1 -6zM514 753q3 -4 1.5 -9t-7 -8t-10.5 -1l-111 55l-141 -55q-11 -4 -12 6q1 7 7 12l154 98q9 3 12 0z" />
    <glyph glyph-name="Idieresis" unicode="&#xcf;" horiz-adv-x="377" 
d="M322 19q0 -13 -5 -16t-14 -3q-18 0 -57 1t-58 1t-56.5 -1t-55.5 -1q-14 0 -14 10q0 13 5.5 16t18.5 3q49 0 62.5 7.5t20.5 35.5l135 540l4 24q0 7 -2 10t-15.5 5.5t-41.5 2.5q-15 0 -19.5 1.5t-4.5 9.5q0 18 19 18q18 0 56.5 -1t57.5 -1q18 0 56 1t57 1q14 0 14 -10
q0 -13 -5.5 -16t-23.5 -3q-44 0 -58 -7.5t-20 -33.5l-137 -550q-2 -9 -2 -17q0 -17 57 -17h12.5t7.5 -1t5 -3t1 -6zM332 785q0 -20 -16.5 -35.5t-36.5 -15.5q-14 0 -25 9.5t-11 26.5q0 19 16.5 35t36.5 16q15 0 26 -9t10 -27zM522 785q0 -20 -16.5 -35.5t-36.5 -15.5
q-14 0 -25 9.5t-11 26.5q0 19 16.5 35t36.5 16q15 0 26 -9t10 -27z" />
    <glyph glyph-name="Eth" unicode="&#xd0;" horiz-adv-x="738" 
d="M759 440q0 -83 -32.5 -164.5t-85 -141.5t-120.5 -97t-136 -37h-294q-24 0 -24 10q0 13 5.5 16t21.5 3q44 0 56.5 7.5t19.5 35.5l64 256h-89q-13 0 -10 14q2 14 17 14h89l66 267q2 6 2 15q0 16 -53 16h-12.5t-7.5 1t-5 3t-1 6q0 13 5.5 16t21.5 3h298q92 0 148 -66
t56 -177zM684 477q0 77 -40.5 127t-118.5 50h-98q-27 0 -35 -5.5t-14 -32.5l-65 -260h145q6 0 9.5 -4.5t1.5 -9.5q-3 -14 -18 -14h-145l-66 -264q-4 -14 -4 -23q0 -8 4.5 -10t25.5 -2h103q67 0 125.5 36.5t98.5 96.5q42 64 66.5 161.5t24.5 153.5z" />
    <glyph glyph-name="Ntilde" unicode="&#xd1;" horiz-adv-x="727" 
d="M831 672q0 -18 -15 -18q-23 -1 -38.5 -5t-32.5 -20.5t-24 -45.5l-141 -565q-3 -12 -6 -15t-12 -3q-8 0 -11 2.5t-6 12.5l-208 607l-132 -527q-4 -15 -4 -24q0 -40 58 -42q14 0 14 -10q0 -19 -17 -19q-14 0 -44.5 1t-45.5 1t-44.5 -1t-43.5 -1q-12 0 -12 10q0 19 15 19
q17 1 26 3t25 8t27 21t17 39l137 548q-22 6 -58 6h-12.5t-7.5 1t-5 3t-1 6q0 13 5.5 16t21.5 3h114q16 0 19.5 -2.5t7.5 -13.5l182 -530l112 448q4 24 4 27q0 40 -57 42q-15 0 -15 10q0 9 3.5 13.5t6.5 5t8 0.5q14 0 44.5 -1t45.5 -1t44 1t43 1q13 0 13 -11zM718 821
q0 -10 -47 -48.5t-77 -38.5q-25 0 -48 34q-11 18 -18 24t-17 6q-26 0 -82 -50q-13 -13 -19 -13q-9 0 -9 9q0 5 21 25.5t52 41t51 20.5q28 0 49 -37q17 -27 33 -27q14 0 34.5 12.5t34.5 25.5l14 13q12 12 18 12q10 -1 10 -9z" />
    <glyph glyph-name="Ograve" unicode="&#xd2;" horiz-adv-x="750" 
d="M773 446q0 -115 -59 -224t-153 -176t-191 -67q-101 0 -162.5 73t-61.5 183q0 113 58.5 222.5t153 178t192.5 68.5q101 0 162 -73.5t61 -184.5zM695 485q0 94 -42.5 145.5t-108.5 51.5q-51 0 -107.5 -34.5t-104.5 -101.5q-54 -76 -79 -176t-25 -164q0 -92 40 -148t107 -56
q65 0 126 48t102.5 120.5t66.5 156.5t25 158zM632 761q-1 -5 -8 -10.5t-11 -6.5q-7 -1 -13 3l-130 97q-19 8 -12 26q4 13 15.5 22t25.5 9q6 0 11.5 -2.5t7.5 -4.5l3 -2l106 -120q8 -7 5 -11z" />
    <glyph glyph-name="Oacute" unicode="&#xd3;" horiz-adv-x="750" 
d="M773 446q0 -115 -59 -224t-153 -176t-191 -67q-101 0 -162.5 73t-61.5 183q0 113 58.5 222.5t153 178t192.5 68.5q101 0 162 -73.5t61 -184.5zM695 485q0 94 -42.5 145.5t-108.5 51.5q-51 0 -107.5 -34.5t-104.5 -101.5q-54 -76 -79 -176t-25 -164q0 -92 40 -148t107 -56
q65 0 126 48t102.5 120.5t66.5 156.5t25 158zM727 870q-2 -18 -25 -26l-179 -97q-9 -4 -14 -3q-4 1 -8 6t-3 11q0 4 11 11l166 120q13 9 26 9q14 0 21 -9t5 -22z" />
    <glyph glyph-name="Ocircumflex" unicode="&#xd4;" horiz-adv-x="750" 
d="M773 446q0 -115 -59 -224t-153 -176t-191 -67q-101 0 -162.5 73t-61.5 183q0 113 58.5 222.5t153 178t192.5 68.5q101 0 162 -73.5t61 -184.5zM695 485q0 94 -42.5 145.5t-108.5 51.5q-51 0 -107.5 -34.5t-104.5 -101.5q-54 -76 -79 -176t-25 -164q0 -92 40 -148t107 -56
q65 0 126 48t102.5 120.5t66.5 156.5t25 158zM700 753q3 -4 1.5 -9t-7 -8t-10.5 -1l-111 55l-141 -55q-11 -4 -12 6q1 7 7 12l154 98q9 3 12 0z" />
    <glyph glyph-name="Otilde" unicode="&#xd5;" horiz-adv-x="750" 
d="M773 446q0 -115 -59 -224t-153 -176t-191 -67q-101 0 -162.5 73t-61.5 183q0 113 58.5 222.5t153 178t192.5 68.5q101 0 162 -73.5t61 -184.5zM695 485q0 94 -42.5 145.5t-108.5 51.5q-51 0 -107.5 -34.5t-104.5 -101.5q-54 -76 -79 -176t-25 -164q0 -92 40 -148t107 -56
q65 0 126 48t102.5 120.5t66.5 156.5t25 158zM729 821q0 -10 -47 -48.5t-77 -38.5q-25 0 -48 34q-11 18 -18 24t-17 6q-26 0 -82 -50q-13 -13 -19 -13q-9 0 -9 9q0 5 21 25.5t52 41t51 20.5q28 0 49 -37q17 -27 33 -27q14 0 34.5 12.5t34.5 25.5l14 13q12 12 18 12
q10 -1 10 -9z" />
    <glyph glyph-name="Odieresis" unicode="&#xd6;" horiz-adv-x="750" 
d="M773 446q0 -115 -59 -224t-153 -176t-191 -67q-101 0 -162.5 73t-61.5 183q0 113 58.5 222.5t153 178t192.5 68.5q101 0 162 -73.5t61 -184.5zM695 485q0 94 -42.5 145.5t-108.5 51.5q-51 0 -107.5 -34.5t-104.5 -101.5q-54 -76 -79 -176t-25 -164q0 -92 40 -148t107 -56
q65 0 126 48t102.5 120.5t66.5 156.5t25 158zM518 785q0 -20 -16.5 -35.5t-36.5 -15.5q-14 0 -25 9.5t-11 26.5q0 19 16.5 35t36.5 16q15 0 26 -9t10 -27zM708 785q0 -20 -16.5 -35.5t-36.5 -15.5q-14 0 -25 9.5t-11 26.5q0 19 16.5 35t36.5 16q15 0 26 -9t10 -27z" />
    <glyph glyph-name="multiply" unicode="&#xd7;" horiz-adv-x="750" 
d="M600 40q-15 -13 -30 -3q-4 2 -11 13l-129 173l-216 -173q-27 -22 -42 -12q-12 9 14 32l224 179l-137 181q-14 17 0 28q16 13 31 4q1 -1 7 -9l133 -177l215 172q29 23 43 13q13 -10 -15 -33l-224 -178l138 -183q13 -17 -1 -27z" />
    <glyph glyph-name="Oslash" unicode="&#xd8;" horiz-adv-x="750" 
d="M773 446q0 -115 -59 -224t-153 -176t-191 -67q-39 0 -74 13t-48.5 23t-33.5 28l-81 -93q-7 -8 -12 -8q-11 0 -11 10q0 7 42 52l48 56q-54 72 -54 175q0 113 58.5 222.5t153 178t192.5 68.5q94 0 155 -65l81 94q7 9 13 9q11 0 11 -11q0 -4 -8 -13l-83 -96q54 -68 54 -176z
M678 609q-47 75 -133 75q-59 0 -124 -40t-117 -124q-39 -65 -65 -161t-26 -163q0 -59 18 -100zM706 485q0 57 -17 102l-447 -513q43 -75 133 -75q63 0 128.5 43t112.5 120q41 69 65.5 163.5t24.5 159.5z" />
    <glyph glyph-name="Ugrave" unicode="&#xd9;" horiz-adv-x="727" 
d="M831 672q0 -18 -15 -18q-23 -1 -38.5 -5t-32.5 -20.5t-24 -45.5l-90 -362q-23 -93 -98 -167.5t-162 -74.5q-71 0 -121 49.5t-50 134.5q0 34 8 66l98 394q2 6 2 15q0 16 -53 16h-12.5t-7.5 1t-5 3t-1 6q0 13 5 16t14 3q18 0 55 -1t56 -1q18 0 54.5 1t53.5 1q14 0 14 -11
q0 -12 -5.5 -15t-20.5 -3q-45 0 -57.5 -7.5t-19.5 -34.5l-100 -401q-10 -37 -10 -77q0 -61 30.5 -93.5t76.5 -32.5q74 0 141 65.5t89 153.5l89 358q4 12 4 27q0 40 -57 42q-15 0 -15 10q0 9 3.5 13.5t6.5 5t8 0.5q29 -2 88 -2q14 0 43.5 1t42.5 1t13 -11zM642 761
q-1 -5 -8 -10.5t-11 -6.5q-7 -1 -13 3l-130 97q-19 8 -12 26q4 13 15.5 22t25.5 9q6 0 11.5 -2.5t7.5 -4.5l3 -2l106 -120q8 -7 5 -11z" />
    <glyph glyph-name="Uacute" unicode="&#xda;" horiz-adv-x="727" 
d="M831 672q0 -18 -15 -18q-23 -1 -38.5 -5t-32.5 -20.5t-24 -45.5l-90 -362q-23 -93 -98 -167.5t-162 -74.5q-71 0 -121 49.5t-50 134.5q0 34 8 66l98 394q2 6 2 15q0 16 -53 16h-12.5t-7.5 1t-5 3t-1 6q0 13 5 16t14 3q18 0 55 -1t56 -1q18 0 54.5 1t53.5 1q14 0 14 -11
q0 -12 -5.5 -15t-20.5 -3q-45 0 -57.5 -7.5t-19.5 -34.5l-100 -401q-10 -37 -10 -77q0 -61 30.5 -93.5t76.5 -32.5q74 0 141 65.5t89 153.5l89 358q4 12 4 27q0 40 -57 42q-15 0 -15 10q0 9 3.5 13.5t6.5 5t8 0.5q29 -2 88 -2q14 0 43.5 1t42.5 1t13 -11zM737 870
q-2 -18 -25 -26l-179 -97q-9 -4 -14 -3q-4 1 -8 6t-3 11q0 4 11 11l166 120q13 9 26 9q14 0 21 -9t5 -22z" />
    <glyph glyph-name="Ucircumflex" unicode="&#xdb;" horiz-adv-x="727" 
d="M831 672q0 -18 -15 -18q-23 -1 -38.5 -5t-32.5 -20.5t-24 -45.5l-90 -362q-23 -93 -98 -167.5t-162 -74.5q-71 0 -121 49.5t-50 134.5q0 34 8 66l98 394q2 6 2 15q0 16 -53 16h-12.5t-7.5 1t-5 3t-1 6q0 13 5 16t14 3q18 0 55 -1t56 -1q18 0 54.5 1t53.5 1q14 0 14 -11
q0 -12 -5.5 -15t-20.5 -3q-45 0 -57.5 -7.5t-19.5 -34.5l-100 -401q-10 -37 -10 -77q0 -61 30.5 -93.5t76.5 -32.5q74 0 141 65.5t89 153.5l89 358q4 12 4 27q0 40 -57 42q-15 0 -15 10q0 9 3.5 13.5t6.5 5t8 0.5q29 -2 88 -2q14 0 43.5 1t42.5 1t13 -11zM710 753
q3 -4 1.5 -9t-7 -8t-10.5 -1l-111 55l-141 -55q-11 -4 -12 6q1 7 7 12l154 98q9 3 12 0z" />
    <glyph glyph-name="Udieresis" unicode="&#xdc;" horiz-adv-x="727" 
d="M831 672q0 -18 -15 -18q-23 -1 -38.5 -5t-32.5 -20.5t-24 -45.5l-90 -362q-23 -93 -98 -167.5t-162 -74.5q-71 0 -121 49.5t-50 134.5q0 34 8 66l98 394q2 6 2 15q0 16 -53 16h-12.5t-7.5 1t-5 3t-1 6q0 13 5 16t14 3q18 0 55 -1t56 -1q18 0 54.5 1t53.5 1q14 0 14 -11
q0 -12 -5.5 -15t-20.5 -3q-45 0 -57.5 -7.5t-19.5 -34.5l-100 -401q-10 -37 -10 -77q0 -61 30.5 -93.5t76.5 -32.5q74 0 141 65.5t89 153.5l89 358q4 12 4 27q0 40 -57 42q-15 0 -15 10q0 9 3.5 13.5t6.5 5t8 0.5q29 -2 88 -2q14 0 43.5 1t42.5 1t13 -11zM528 785
q0 -20 -16.5 -35.5t-36.5 -15.5q-14 0 -25 9.5t-11 26.5q0 19 16.5 35t36.5 16q15 0 26 -9t10 -27zM718 785q0 -20 -16.5 -35.5t-36.5 -15.5q-14 0 -25 9.5t-11 26.5q0 19 16.5 35t36.5 16q15 0 26 -9t10 -27z" />
    <glyph glyph-name="Yacute" unicode="&#xdd;" horiz-adv-x="727" 
d="M860 673q0 -8 -3 -12t-6 -5t-9 -2q-36 -3 -64 -20t-65 -62l-238 -290q-7 -8 -13 -28q-10 -41 -14.5 -60t-16.5 -65q-19 -76 -19 -83q0 -6 2 -9t14.5 -5.5t38.5 -2.5q24 0 24 -10q0 -13 -5 -16t-14 -3q-17 0 -54 1t-55 1t-54 -1t-53 -1q-14 0 -14 10q0 13 5 16t17 3
q46 1 59 6.5t20 28.5q52 208 52 209q0 2 -1 4.5t-2 6t-1 4.5l-107 335q-6 19 -18.5 25t-45.5 6q-19 0 -19 10q0 9 3.5 13.5t6.5 5t8 0.5q15 0 48.5 -1t49.5 -1q17 0 52 1t52 1q15 0 15 -11q0 -18 -20 -18q-51 0 -51 -24q2 -10 3 -12l98 -308l225 275q25 30 25 47
q0 19 -29 22q-11 0 -11 10q0 19 17 19q13 0 40.5 -1t41.5 -1q12 0 37 1t36 1q12 0 12 -10zM716 870q-2 -18 -25 -26l-179 -97q-9 -4 -14 -3q-4 1 -8 6t-3 11q0 4 11 11l166 120q13 9 26 9q14 0 21 -9t5 -22z" />
    <glyph glyph-name="Thorn" unicode="&#xde;" horiz-adv-x="613" 
d="M634 410q0 -86 -73 -159t-168 -73h-126q-13 -49 -16 -65q-16 -59 -16 -67q0 -7 2.5 -10t15 -5t37.5 -2q24 0 24 -10q0 -7 -1.5 -11t-5.5 -6t-5 -2t-6 -1q-54 3 -108 3t-106 -3q-14 3 -14 12q0 12 6 15t23 3q44 0 55.5 8t18.5 37l137 545q2 8 2 19q0 16 -54 16
q-24 0 -24 10q0 7 1.5 11t5.5 6t5 2t6 1q54 -3 108 -3t106 3q14 -4 14 -11q0 -13 -6 -16t-25 -3q-37 0 -49 -5.5t-17 -18.5l-21 -78h117q48 0 81.5 -15.5t48.5 -40.5t21 -45.5t6 -40.5zM551 416q0 49 -24 78q-23 29 -73 29h-101l-79 -316h97q74 0 127 66t53 143z" />
    <glyph glyph-name="germandbls" unicode="&#xdf;" horiz-adv-x="525" 
d="M512 166q0 -60 -53 -118t-123 -58q-38 0 -67 18.5t-29 52.5q0 22 11 32.5t23 10.5q24 0 24 -23q0 -27 -28 -32q15 -39 66 -39q35 0 60.5 36.5t34.5 69t9 46.5q0 25 -25 64q-26 29 -26 79q0 38 12.5 61t46.5 58q27 27 44 89t17 87q0 38 -18.5 61t-55.5 23q-36 0 -63 -13
t-39 -27q-19 -28 -34 -105l-88 -451q-55 -292 -170 -292q-26 0 -44.5 16.5t-18.5 43.5t15 40t31 13q13 0 22 -7.5t9 -21.5q0 -39 -44 -45q9 -19 31 -19q33 0 54 50.5t42 160.5l73 375h-59q-24 0 -24 10q0 13 5.5 16t20.5 3h63l20 103q17 85 64 127.5t134 42.5q61 0 97 -31.5
t36 -80.5q0 -75 -89 -181q-45 -54 -45 -77t34 -68q44 -52 44 -100z" />
    <glyph glyph-name="agrave" unicode="&#xe0;" 
d="M513 143q0 -2 -3.5 -17.5t-10.5 -38.5t-15 -39q-26 -58 -72 -58q-15 0 -29 4.5t-29.5 21.5t-20.5 45q-60 -71 -120 -71q-51 0 -83 42.5t-32 109.5q0 109 71 204t153 95q56 0 80 -59l1 1q1 4 3 10.5t12 17.5t24 11q13 0 19.5 -7.5t6.5 -16.5q0 -5 -3 -16l-70 -279
q-8 -30 -8 -53q0 -40 27 -40q39 0 67 118q4 17 7 20.5t12 3.5q13 0 13 -9zM339 121l47 190l3 14q0 6 -2.5 18.5t-8.5 31.5t-20.5 32.5t-35.5 13.5q-31 0 -62.5 -32t-51.5 -81q-14 -35 -31 -104.5t-17 -103.5q0 -9 1.5 -20t6 -29t17 -29.5t30.5 -11.5q39 0 78.5 42.5
t45.5 68.5zM437 522q-3 -6 -10 -10.5t-11 -4.5q-8 0 -10 6l-97 126q-14 14 -5 30q13 27 40 27q6 0 11.5 -3.5t7.5 -6.5l2 -4l70 -147q5 -8 2 -13z" />
    <glyph glyph-name="aacute" unicode="&#xe1;" 
d="M513 143q0 -2 -3.5 -17.5t-10.5 -38.5t-15 -39q-26 -58 -72 -58q-15 0 -29 4.5t-29.5 21.5t-20.5 45q-60 -71 -120 -71q-51 0 -83 42.5t-32 109.5q0 109 71 204t153 95q56 0 80 -59l1 1q1 4 3 10.5t12 17.5t24 11q13 0 19.5 -7.5t6.5 -16.5q0 -5 -3 -16l-70 -279
q-8 -30 -8 -53q0 -40 27 -40q39 0 67 118q4 17 7 20.5t12 3.5q13 0 13 -9zM339 121l47 190l3 14q0 6 -2.5 18.5t-8.5 31.5t-20.5 32.5t-35.5 13.5q-31 0 -62.5 -32t-51.5 -81q-14 -35 -31 -104.5t-17 -103.5q0 -9 1.5 -20t6 -29t17 -29.5t30.5 -11.5q39 0 78.5 42.5
t45.5 68.5zM531 669q0 -16 -20 -30l-160 -126q-6 -6 -13 -6q-4 0 -9 4.5t-5 10.5q0 5 9 13l143 147q14 14 28 14q11 0 19 -8t8 -19z" />
    <glyph glyph-name="acircumflex" unicode="&#xe2;" 
d="M513 143q0 -2 -3.5 -17.5t-10.5 -38.5t-15 -39q-26 -58 -72 -58q-15 0 -29 4.5t-29.5 21.5t-20.5 45q-60 -71 -120 -71q-51 0 -83 42.5t-32 109.5q0 109 71 204t153 95q56 0 80 -59l1 1q1 4 3 10.5t12 17.5t24 11q13 0 19.5 -7.5t6.5 -16.5q0 -5 -3 -16l-70 -279
q-8 -30 -8 -53q0 -40 27 -40q39 0 67 118q4 17 7 20.5t12 3.5q13 0 13 -9zM339 121l47 190l3 14q0 6 -2.5 18.5t-8.5 31.5t-20.5 32.5t-35.5 13.5q-31 0 -62.5 -32t-51.5 -81q-14 -35 -31 -104.5t-17 -103.5q0 -9 1.5 -20t6 -29t17 -29.5t30.5 -11.5q39 0 78.5 42.5
t45.5 68.5zM521 537q6 -7 -3 -14.5t-15 -1.5l-97 99l-149 -99q-9 -6 -14 1t3 15l166 144q9 7 15 0z" />
    <glyph glyph-name="atilde" unicode="&#xe3;" 
d="M513 143q0 -2 -3.5 -17.5t-10.5 -38.5t-15 -39q-26 -58 -72 -58q-15 0 -29 4.5t-29.5 21.5t-20.5 45q-60 -71 -120 -71q-51 0 -83 42.5t-32 109.5q0 109 71 204t153 95q56 0 80 -59l1 1q1 4 3 10.5t12 17.5t24 11q13 0 19.5 -7.5t6.5 -16.5q0 -5 -3 -16l-70 -279
q-8 -30 -8 -53q0 -40 27 -40q39 0 67 118q4 17 7 20.5t12 3.5q13 0 13 -9zM339 121l47 190l3 14q0 6 -2.5 18.5t-8.5 31.5t-20.5 32.5t-35.5 13.5q-31 0 -62.5 -32t-51.5 -81q-14 -35 -31 -104.5t-17 -103.5q0 -9 1.5 -20t6 -29t17 -29.5t30.5 -11.5q39 0 78.5 42.5
t45.5 68.5zM559 640q0 -10 -47 -48.5t-77 -38.5q-25 0 -48 34q-11 18 -18 24t-17 6q-26 0 -82 -50q-13 -13 -19 -13q-9 0 -9 9q0 5 21 25.5t52 41t51 20.5q28 0 49 -37q17 -27 33 -27q14 0 34.5 13t34.5 25l14 13q12 12 18 12q10 -1 10 -9z" />
    <glyph glyph-name="adieresis" unicode="&#xe4;" 
d="M513 143q0 -2 -3.5 -17.5t-10.5 -38.5t-15 -39q-26 -58 -72 -58q-15 0 -29 4.5t-29.5 21.5t-20.5 45q-60 -71 -120 -71q-51 0 -83 42.5t-32 109.5q0 109 71 204t153 95q56 0 80 -59l1 1q1 4 3 10.5t12 17.5t24 11q13 0 19.5 -7.5t6.5 -16.5q0 -5 -3 -16l-70 -279
q-8 -30 -8 -53q0 -40 27 -40q39 0 67 118q4 17 7 20.5t12 3.5q13 0 13 -9zM339 121l47 190l3 14q0 6 -2.5 18.5t-8.5 31.5t-20.5 32.5t-35.5 13.5q-31 0 -62.5 -32t-51.5 -81q-14 -35 -31 -104.5t-17 -103.5q0 -9 1.5 -20t6 -29t17 -29.5t30.5 -11.5q39 0 78.5 42.5
t45.5 68.5zM365 609q0 -20 -16.5 -35.5t-36.5 -15.5q-14 0 -25 9.5t-11 26.5q0 19 16.5 35t36.5 16q15 0 25.5 -9t10.5 -27zM525 609q0 -20 -16.5 -35.5t-36.5 -15.5q-14 0 -25 9.5t-11 26.5q0 19 16.5 35t36.5 16q15 0 25.5 -9t10.5 -27z" />
    <glyph glyph-name="aring" unicode="&#xe5;" 
d="M513 143q0 -2 -3.5 -17.5t-10.5 -38.5t-15 -39q-26 -58 -72 -58q-15 0 -29 4.5t-29.5 21.5t-20.5 45q-60 -71 -120 -71q-51 0 -83 42.5t-32 109.5q0 109 71 204t153 95q56 0 80 -59l1 1q1 4 3 10.5t12 17.5t24 11q13 0 19.5 -7.5t6.5 -16.5q0 -5 -3 -16l-70 -279
q-8 -30 -8 -53q0 -40 27 -40q39 0 67 118q4 17 7 20.5t12 3.5q13 0 13 -9zM339 121l47 190l3 14q0 6 -2.5 18.5t-8.5 31.5t-20.5 32.5t-35.5 13.5q-31 0 -62.5 -32t-51.5 -81q-14 -35 -31 -104.5t-17 -103.5q0 -9 1.5 -20t6 -29t17 -29.5t30.5 -11.5q39 0 78.5 42.5
t45.5 68.5zM463 638q0 37 -44 37q-32 0 -50.5 -20.5t-20.5 -41.5l-3 -21q0 -37 45 -37q38 0 55.5 30t17.5 53zM496 636q-1 -42 -36 -75.5t-77 -33.5q-33 0 -52 19.5t-19 47.5q0 41 35.5 75t78.5 34q33 0 51.5 -19t18.5 -48z" />
    <glyph glyph-name="ae" unicode="&#xe6;" horiz-adv-x="700" 
d="M682 105q0 -6 -14 -23.5t-36.5 -38.5t-58.5 -37t-73 -16q-75 0 -108 73l-12 -47q-7 -26 -30 -26q-11 0 -17 6.5t-6 14.5l10 47q-59 -68 -115 -68q-55 0 -92.5 30.5t-37.5 78.5q0 11 2 25.5t20 53.5t50 74.5t101 81.5t163 82q3 11 10.5 17.5t13.5 6.5l6 1q22 0 22 -22
q0 -9 -7 -33q64 55 134 55q43 0 69.5 -24t26.5 -59q0 -36 -20.5 -61.5t-46 -37.5t-62.5 -18.5t-55 -7.5t-40 -1h-45q-14 -61 -14 -100q0 -49 20 -85.5t61 -36.5q37 0 79.5 25t76.5 76q7 9 11 9q5 0 9.5 -5t4.5 -10zM669 359q0 27 -17 44.5t-46 17.5q-47 0 -96 -43.5
t-70 -125.5h28q201 0 201 107zM360 144l61 247q-84 -36 -146.5 -96.5t-89 -117t-26.5 -103.5q0 -33 20 -48.5t46 -15.5q44 0 86 52t49 82z" />
    <glyph glyph-name="ccedilla" unicode="&#xe7;" horiz-adv-x="450" 
d="M457 105q0 -5 -9 -17.5t-27.5 -29t-42.5 -31.5t-57.5 -26t-68.5 -11q-6 -31 -10 -45q60 -10 60 -54q0 -29 -20 -47.5t-59 -25.5t-65 -8.5t-70 -1.5q-12 0 -12 10q0 8 6 10q6 1 33 1q127 0 127 62q0 34 -49 39q-12 0 -12 10t14 61q-39 16 -62 55.5t-23 95.5
q0 110 78 199.5t170 89.5q45 0 74 -24t29 -60q0 -24 -10.5 -38t-19.5 -17t-17 -3q-6 0 -12.5 2t-12.5 9.5t-6 18.5q0 18 14 30.5t33 13.5q-14 48 -73 48q-33 0 -67 -25t-59 -69q-23 -40 -40 -107.5t-17 -105.5q0 -46 20.5 -75t57.5 -29q43 0 92.5 25t86.5 75q9 10 12 10
q5 0 9.5 -5t4.5 -10z" />
    <glyph glyph-name="egrave" unicode="&#xe8;" horiz-adv-x="450" 
d="M457 105q0 -5 -9 -17.5t-28 -29t-42.5 -32t-57.5 -26t-69 -10.5q-63 0 -100 48t-37 125q0 123 78 200.5t165 77.5q43 0 69.5 -24t26.5 -59q0 -30 -13.5 -53t-37.5 -36t-47 -21t-52.5 -11.5t-43 -4t-29.5 -0.5h-36q-17 -66 -17 -111q0 -15 2.5 -31t10 -35.5t23.5 -32
t39 -12.5q43 0 92.5 25t86.5 75q9 10 12 10q5 0 9.5 -5t4.5 -10zM419 359q0 26 -17 44t-46 18q-12 0 -27.5 -5t-41 -19.5t-49.5 -52t-38 -92.5h21q18 0 33.5 0.5t49 6.5t56 16t41 32t18.5 52zM412 522q-8 -15 -21 -15q-8 0 -10 6l-97 126q-14 14 -5 30q13 27 40 27
q6 0 11.5 -3.5t7.5 -6.5l2 -4l70 -147q5 -8 2 -13z" />
    <glyph glyph-name="eacute" unicode="&#xe9;" horiz-adv-x="450" 
d="M457 105q0 -5 -9 -17.5t-28 -29t-42.5 -32t-57.5 -26t-69 -10.5q-63 0 -100 48t-37 125q0 123 78 200.5t165 77.5q43 0 69.5 -24t26.5 -59q0 -30 -13.5 -53t-37.5 -36t-47 -21t-52.5 -11.5t-43 -4t-29.5 -0.5h-36q-17 -66 -17 -111q0 -15 2.5 -31t10 -35.5t23.5 -32
t39 -12.5q43 0 92.5 25t86.5 75q9 10 12 10q5 0 9.5 -5t4.5 -10zM419 359q0 26 -17 44t-46 18q-12 0 -27.5 -5t-41 -19.5t-49.5 -52t-38 -92.5h21q18 0 33.5 0.5t49 6.5t56 16t41 32t18.5 52zM506 669q0 -16 -20 -30l-160 -126q-6 -6 -13 -6q-4 0 -9 4.5t-5 10.5q0 5 9 13
l143 147q14 14 28 14q11 0 19 -8t8 -19z" />
    <glyph glyph-name="ecircumflex" unicode="&#xea;" horiz-adv-x="450" 
d="M457 105q0 -5 -9 -17.5t-28 -29t-42.5 -32t-57.5 -26t-69 -10.5q-63 0 -100 48t-37 125q0 123 78 200.5t165 77.5q43 0 69.5 -24t26.5 -59q0 -30 -13.5 -53t-37.5 -36t-47 -21t-52.5 -11.5t-43 -4t-29.5 -0.5h-36q-17 -66 -17 -111q0 -15 2.5 -31t10 -35.5t23.5 -32
t39 -12.5q43 0 92.5 25t86.5 75q9 10 12 10q5 0 9.5 -5t4.5 -10zM419 359q0 26 -17 44t-46 18q-12 0 -27.5 -5t-41 -19.5t-49.5 -52t-38 -92.5h21q18 0 33.5 0.5t49 6.5t56 16t41 32t18.5 52zM496 537q6 -7 -3 -14.5t-15 -1.5l-97 99l-149 -99q-9 -6 -14 1t3 15l166 144
q9 7 15 0z" />
    <glyph glyph-name="edieresis" unicode="&#xeb;" horiz-adv-x="450" 
d="M457 105q0 -5 -9 -17.5t-28 -29t-42.5 -32t-57.5 -26t-69 -10.5q-63 0 -100 48t-37 125q0 123 78 200.5t165 77.5q43 0 69.5 -24t26.5 -59q0 -30 -13.5 -53t-37.5 -36t-47 -21t-52.5 -11.5t-43 -4t-29.5 -0.5h-36q-17 -66 -17 -111q0 -15 2.5 -31t10 -35.5t23.5 -32
t39 -12.5q43 0 92.5 25t86.5 75q9 10 12 10q5 0 9.5 -5t4.5 -10zM419 359q0 26 -17 44t-46 18q-12 0 -27.5 -5t-41 -19.5t-49.5 -52t-38 -92.5h21q18 0 33.5 0.5t49 6.5t56 16t41 32t18.5 52zM340 609q0 -20 -16.5 -35.5t-36.5 -15.5q-14 0 -25 9.5t-11 26.5q0 19 16.5 35
t36.5 16q15 0 25.5 -9t10.5 -27zM500 609q0 -20 -16.5 -35.5t-36.5 -15.5q-14 0 -25 9.5t-11 26.5q0 19 16.5 35t36.5 16q15 0 25.5 -9t10.5 -27z" />
    <glyph glyph-name="igrave" unicode="&#xec;" horiz-adv-x="300" 
d="M323 143q0 -3 -4 -17.5t-13.5 -38t-23 -45t-35.5 -37t-48 -15.5q-29 0 -50.5 19.5t-21.5 59.5q0 22 8 44l80 217q13 33 13 61q0 30 -22 30q-61 0 -92 -125q-3 -11 -5.5 -14t-11.5 -3q-14 0 -14 9q0 3 4 18t14 38t23.5 44.5t35.5 37t48 15.5q31 0 51.5 -20.5t20.5 -57.5
q0 -20 -11 -51l-59 -162q-32 -87 -32 -111q0 -29 23 -29q59 0 92 124q3 12 5.5 15t11.5 3q13 0 13 -9zM337 522q-3 -6 -10 -10.5t-11 -4.5q-8 0 -10 6l-97 126q-14 14 -5 30q13 27 40 27q6 0 11.5 -3.5t7.5 -6.5l2 -4l70 -147q5 -8 2 -13z" />
    <glyph glyph-name="iacute" unicode="&#xed;" horiz-adv-x="300" 
d="M323 143q0 -3 -4 -17.5t-13.5 -38t-23 -45t-35.5 -37t-48 -15.5q-29 0 -50.5 19.5t-21.5 59.5q0 22 8 44l80 217q13 33 13 61q0 30 -22 30q-61 0 -92 -125q-3 -11 -5.5 -14t-11.5 -3q-14 0 -14 9q0 3 4 18t14 38t23.5 44.5t35.5 37t48 15.5q31 0 51.5 -20.5t20.5 -57.5
q0 -20 -11 -51l-59 -162q-32 -87 -32 -111q0 -29 23 -29q59 0 92 124q3 12 5.5 15t11.5 3q13 0 13 -9zM431 669q0 -16 -20 -30l-160 -126q-6 -6 -13 -6q-4 0 -9 4.5t-5 10.5q0 5 9 13l143 147q14 14 28 14q11 0 19 -8t8 -19z" />
    <glyph glyph-name="icircumflex" unicode="&#xee;" horiz-adv-x="300" 
d="M323 143q0 -3 -4 -17.5t-13.5 -38t-23 -45t-35.5 -37t-48 -15.5q-29 0 -50.5 19.5t-21.5 59.5q0 22 8 44l80 217q13 33 13 61q0 30 -22 30q-61 0 -92 -125q-3 -11 -5.5 -14t-11.5 -3q-14 0 -14 9q0 3 4 18t14 38t23.5 44.5t35.5 37t48 15.5q31 0 51.5 -20.5t20.5 -57.5
q0 -20 -11 -51l-59 -162q-32 -87 -32 -111q0 -29 23 -29q59 0 92 124q3 12 5.5 15t11.5 3q13 0 13 -9zM421 537q6 -7 -3 -14.5t-15 -1.5l-97 99l-149 -99q-9 -6 -14 1t3 15l166 144q9 7 15 0z" />
    <glyph glyph-name="idieresis" unicode="&#xef;" horiz-adv-x="300" 
d="M323 143q0 -3 -4 -17.5t-13.5 -38t-23 -45t-35.5 -37t-48 -15.5q-29 0 -50.5 19.5t-21.5 59.5q0 22 8 44l80 217q13 33 13 61q0 30 -22 30q-61 0 -92 -125q-3 -11 -5.5 -14t-11.5 -3q-14 0 -14 9q0 3 4 18t14 38t23.5 44.5t35.5 37t48 15.5q31 0 51.5 -20.5t20.5 -57.5
q0 -20 -11 -51l-59 -162q-32 -87 -32 -111q0 -29 23 -29q59 0 92 124q3 12 5.5 15t11.5 3q13 0 13 -9zM265 609q0 -20 -16.5 -35.5t-36.5 -15.5q-14 0 -25 9.5t-11 26.5q0 19 16.5 35t36.5 16q15 0 25.5 -9t10.5 -27zM425 609q0 -20 -16.5 -35.5t-36.5 -15.5q-14 0 -25 9.5
t-11 26.5q0 19 16.5 35t36.5 16q15 0 25.5 -9t10.5 -27z" />
    <glyph glyph-name="eth" unicode="&#xf0;" 
d="M522 354q0 -26 -3.5 -58.5t-19.5 -88t-44 -95.5q-39 -56 -95.5 -89t-112.5 -33q-68 0 -109.5 46t-41.5 117q0 106 83 199t180 93q59 0 89 -56q-9 125 -84 212l-93 -47l-8 -2q-12 0 -12 12q0 10 11 16l82 41q-29 28 -67 49q-6 3 -6 9t5.5 11t10.5 4q51 -16 100 -51l91 46
l8 2q12 0 12 -12q0 -11 -12 -17l-76 -38q112 -101 112 -270zM443 306q0 49 -22 84t-66 35q-40 0 -81.5 -30t-65.5 -82q-16 -36 -31 -96.5t-15 -96.5q0 -56 27.5 -82t63.5 -26q81 0 137 94q21 35 37 97t16 103z" />
    <glyph glyph-name="ntilde" unicode="&#xf1;" horiz-adv-x="550" 
d="M573 143q0 -3 -4 -17.5t-13.5 -38t-23 -45t-36 -37t-48.5 -15.5q-31 0 -51.5 21.5t-20.5 56.5q0 19 13 55q61 176 61 231q0 67 -46 67q-27 0 -52.5 -13.5t-42.5 -32.5t-31 -41.5t-21 -38t-9 -24.5l-61 -246q-8 -35 -37 -35q-26 0 -26 24q0 5 4 19l73 292q8 28 8 55
q0 41 -26 41q-38 0 -68 -118q-4 -17 -7 -20.5t-11 -3.5q-14 0 -14 10q13 62 32 99q26 53 70 53q34 0 56 -23t24 -58q59 81 142 81q100 0 100 -102q0 -56 -60 -224q-19 -47 -19 -75q0 -30 23 -30q59 0 92 124q3 12 5.5 15t11.5 3q13 0 13 -9zM584 640q0 -10 -47 -48.5
t-77 -38.5q-25 0 -48 34q-11 18 -18 24t-17 6q-26 0 -82 -50q-13 -13 -19 -13q-9 0 -9 9q0 5 21 25.5t52 41t51 20.5q28 0 49 -37q17 -27 33 -27q14 0 34.5 13t34.5 25l14 13q12 12 18 12q10 -1 10 -9z" />
    <glyph glyph-name="ograve" unicode="&#xf2;" 
d="M497 279q0 -109 -78 -199t-170 -90q-58 0 -98.5 42.5t-40.5 119.5q0 110 78 199.5t170 89.5q59 0 99 -43.5t40 -118.5zM433 317q0 45 -20 74.5t-57 29.5q-30 0 -64.5 -24.5t-60.5 -69.5q-23 -40 -40 -107.5t-17 -105.5q0 -49 21.5 -76.5t54.5 -27.5q30 0 64.5 23.5
t62.5 72.5q22 38 39 106.5t17 104.5zM437 522q-3 -6 -10 -10.5t-11 -4.5q-8 0 -10 6l-97 126q-14 14 -5 30q13 27 40 27q6 0 11.5 -3.5t7.5 -6.5l2 -4l70 -147q5 -8 2 -13z" />
    <glyph glyph-name="oacute" unicode="&#xf3;" 
d="M497 279q0 -109 -78 -199t-170 -90q-58 0 -98.5 42.5t-40.5 119.5q0 110 78 199.5t170 89.5q59 0 99 -43.5t40 -118.5zM433 317q0 45 -20 74.5t-57 29.5q-30 0 -64.5 -24.5t-60.5 -69.5q-23 -40 -40 -107.5t-17 -105.5q0 -49 21.5 -76.5t54.5 -27.5q30 0 64.5 23.5
t62.5 72.5q22 38 39 106.5t17 104.5zM531 669q0 -16 -20 -30l-160 -126q-6 -6 -13 -6q-4 0 -9 4.5t-5 10.5q0 5 9 13l143 147q14 14 28 14q11 0 19 -8t8 -19z" />
    <glyph glyph-name="ocircumflex" unicode="&#xf4;" 
d="M497 279q0 -109 -78 -199t-170 -90q-58 0 -98.5 42.5t-40.5 119.5q0 110 78 199.5t170 89.5q59 0 99 -43.5t40 -118.5zM433 317q0 45 -20 74.5t-57 29.5q-30 0 -64.5 -24.5t-60.5 -69.5q-23 -40 -40 -107.5t-17 -105.5q0 -49 21.5 -76.5t54.5 -27.5q30 0 64.5 23.5
t62.5 72.5q22 38 39 106.5t17 104.5zM521 537q6 -7 -3 -14.5t-15 -1.5l-97 99l-149 -99q-9 -6 -14 1t3 15l166 144q9 7 15 0z" />
    <glyph glyph-name="otilde" unicode="&#xf5;" 
d="M497 279q0 -109 -78 -199t-170 -90q-58 0 -98.5 42.5t-40.5 119.5q0 110 78 199.5t170 89.5q59 0 99 -43.5t40 -118.5zM433 317q0 45 -20 74.5t-57 29.5q-30 0 -64.5 -24.5t-60.5 -69.5q-23 -40 -40 -107.5t-17 -105.5q0 -49 21.5 -76.5t54.5 -27.5q30 0 64.5 23.5
t62.5 72.5q22 38 39 106.5t17 104.5zM559 640q0 -10 -47 -48.5t-77 -38.5q-25 0 -48 34q-11 18 -18 24t-17 6q-26 0 -82 -50q-13 -13 -19 -13q-9 0 -9 9q0 5 21 25.5t52 41t51 20.5q28 0 49 -37q17 -27 33 -27q14 0 34.5 13t34.5 25l14 13q12 12 18 12q10 -1 10 -9z" />
    <glyph glyph-name="odieresis" unicode="&#xf6;" 
d="M497 279q0 -109 -78 -199t-170 -90q-58 0 -98.5 42.5t-40.5 119.5q0 110 78 199.5t170 89.5q59 0 99 -43.5t40 -118.5zM433 317q0 45 -20 74.5t-57 29.5q-30 0 -64.5 -24.5t-60.5 -69.5q-23 -40 -40 -107.5t-17 -105.5q0 -49 21.5 -76.5t54.5 -27.5q30 0 64.5 23.5
t62.5 72.5q22 38 39 106.5t17 104.5zM365 609q0 -20 -16.5 -35.5t-36.5 -15.5q-14 0 -25 9.5t-11 26.5q0 19 16.5 35t36.5 16q15 0 25.5 -9t10.5 -27zM525 609q0 -20 -16.5 -35.5t-36.5 -15.5q-14 0 -25 9.5t-11 26.5q0 19 16.5 35t36.5 16q15 0 25.5 -9t10.5 -27z" />
    <glyph glyph-name="divide" unicode="&#xf7;" horiz-adv-x="750" 
d="M736 250q0 -18 -31 -18h-535q-11 0 -16 0.5t-10.5 5t-5.5 13.5q0 18 32 18h535q31 0 31 -19zM522 403q0 -24 -19 -41t-40 -17q-18 0 -29 11t-11 28q0 23 18.5 40.5t40.5 17.5q16 0 28 -9.5t12 -29.5zM451 117q0 -24 -19 -41t-40 -17q-18 0 -29 11t-11 28q0 23 18.5 40.5
t40.5 17.5q16 0 28 -9.5t12 -29.5z" />
    <glyph glyph-name="oslash" unicode="&#xf8;" 
d="M492 283q0 -109 -76.5 -202t-166.5 -93q-45 0 -79 27l-72 -98q-18 -23 -22 -23q-9 1 -9 10q0 4 7 13l81 112q-40 47 -40 119q0 110 76.5 202.5t166.5 92.5q45 0 79 -27l80 110q8 11 14 11q9 0 9 -9q0 -4 -8 -15l-80 -111q40 -46 40 -119zM418 390q-22 33 -61 33
q-55 0 -100.5 -56t-66.5 -124t-21 -124q0 -32 10 -57zM437 311q0 34 -9 58l-239 -328q23 -33 61 -33q53 0 98 53.5t67 122t22 127.5z" />
    <glyph glyph-name="ugrave" unicode="&#xf9;" horiz-adv-x="525" 
d="M548 143q0 -2 -3.5 -17.5t-10.5 -38.5t-15 -39q-26 -58 -72 -58q-27 0 -48 15.5t-29 44.5q-48 -60 -109 -60q-44 0 -76 26.5t-32 87.5q0 54 45 179q31 86 31 109q0 29 -23 29q-59 0 -92 -125q-3 -11 -5.5 -14t-11.5 -3q-14 0 -14 9t11 42.5t42 72t72 38.5q35 0 54 -23
t19 -55q0 -19 -13 -56q-58 -161 -58 -219q0 -78 54 -78q33 0 60 21.5t43 55.5l2 16l72 289q8 39 39 39q10 0 17.5 -6.5t7.5 -17.5q0 -6 -4 -20l-71 -284q-8 -30 -8 -53q0 -40 27 -40q39 0 67 118q4 17 7 20.5t12 3.5q13 0 13 -9zM450 522q-8 -15 -21 -15q-8 0 -10 6l-97 126
q-14 14 -5 30q13 27 40 27q6 0 11.5 -3.5t7.5 -6.5l2 -4l70 -147q5 -8 2 -13z" />
    <glyph glyph-name="uacute" unicode="&#xfa;" horiz-adv-x="525" 
d="M548 143q0 -2 -3.5 -17.5t-10.5 -38.5t-15 -39q-26 -58 -72 -58q-27 0 -48 15.5t-29 44.5q-48 -60 -109 -60q-44 0 -76 26.5t-32 87.5q0 54 45 179q31 86 31 109q0 29 -23 29q-59 0 -92 -125q-3 -11 -5.5 -14t-11.5 -3q-14 0 -14 9t11 42.5t42 72t72 38.5q35 0 54 -23
t19 -55q0 -19 -13 -56q-58 -161 -58 -219q0 -78 54 -78q33 0 60 21.5t43 55.5l2 16l72 289q8 39 39 39q10 0 17.5 -6.5t7.5 -17.5q0 -6 -4 -20l-71 -284q-8 -30 -8 -53q0 -40 27 -40q39 0 67 118q4 17 7 20.5t12 3.5q13 0 13 -9zM544 669q0 -16 -20 -30l-160 -126
q-6 -6 -13 -6q-4 0 -9 4.5t-5 10.5q0 5 9 13l143 147q14 14 28 14q11 0 19 -8t8 -19z" />
    <glyph glyph-name="ucircumflex" unicode="&#xfb;" horiz-adv-x="525" 
d="M548 143q0 -2 -3.5 -17.5t-10.5 -38.5t-15 -39q-26 -58 -72 -58q-27 0 -48 15.5t-29 44.5q-48 -60 -109 -60q-44 0 -76 26.5t-32 87.5q0 54 45 179q31 86 31 109q0 29 -23 29q-59 0 -92 -125q-3 -11 -5.5 -14t-11.5 -3q-14 0 -14 9t11 42.5t42 72t72 38.5q35 0 54 -23
t19 -55q0 -19 -13 -56q-58 -161 -58 -219q0 -78 54 -78q33 0 60 21.5t43 55.5l2 16l72 289q8 39 39 39q10 0 17.5 -6.5t7.5 -17.5q0 -6 -4 -20l-71 -284q-8 -30 -8 -53q0 -40 27 -40q39 0 67 118q4 17 7 20.5t12 3.5q13 0 13 -9zM534 537q6 -7 -3 -14.5t-15 -1.5l-97 99
l-149 -99q-9 -6 -14 1t3 15l166 144q9 7 15 0z" />
    <glyph glyph-name="udieresis" unicode="&#xfc;" horiz-adv-x="525" 
d="M548 143q0 -2 -3.5 -17.5t-10.5 -38.5t-15 -39q-26 -58 -72 -58q-27 0 -48 15.5t-29 44.5q-48 -60 -109 -60q-44 0 -76 26.5t-32 87.5q0 54 45 179q31 86 31 109q0 29 -23 29q-59 0 -92 -125q-3 -11 -5.5 -14t-11.5 -3q-14 0 -14 9t11 42.5t42 72t72 38.5q35 0 54 -23
t19 -55q0 -19 -13 -56q-58 -161 -58 -219q0 -78 54 -78q33 0 60 21.5t43 55.5l2 16l72 289q8 39 39 39q10 0 17.5 -6.5t7.5 -17.5q0 -6 -4 -20l-71 -284q-8 -30 -8 -53q0 -40 27 -40q39 0 67 118q4 17 7 20.5t12 3.5q13 0 13 -9zM378 609q0 -20 -16.5 -35.5t-36.5 -15.5
q-14 0 -25 9.5t-11 26.5q0 19 16.5 35t36.5 16q15 0 25.5 -9t10.5 -27zM538 609q0 -20 -16.5 -35.5t-36.5 -15.5q-14 0 -25 9.5t-11 26.5q0 19 16.5 35t36.5 16q15 0 25.5 -9t10.5 -27z" />
    <glyph glyph-name="yacute" unicode="&#xfd;" horiz-adv-x="475" 
d="M404 -3q-19 -77 -80 -139t-135 -62q-39 0 -64.5 23t-25.5 61q0 20 6 33.5t15.5 18.5t15 6.5t10.5 1.5q14 0 22.5 -8.5t8.5 -20.5q0 -2 -0.5 -5t-3 -10.5t-7.5 -13t-15 -10.5t-23 -6q9 -50 62 -50q56 0 103 66q36 52 57 146q-38 -38 -89 -38q-44 0 -76 26.5t-32 87.5
q0 54 45 179q31 86 31 109q0 29 -23 29q-59 0 -92 -125q-3 -11 -5.5 -14t-11.5 -3q-14 0 -14 9t11 42.5t42 72t72 38.5q35 0 54 -23t19 -55q0 -19 -13 -56q-58 -161 -58 -219q0 -78 54 -78q38 0 67.5 29t36.5 58l73 295q11 39 39 39q10 0 17.5 -6.5t7.5 -17.5q0 -6 -4 -20z
M519 669q0 -16 -20 -30l-160 -126q-6 -6 -13 -6q-4 0 -9 4.5t-5 10.5q0 5 9 13l143 147q14 14 28 14q11 0 19 -8t8 -19z" />
    <glyph glyph-name="thorn" unicode="&#xfe;" 
d="M499 289q0 -109 -71 -204t-153 -95q-58 0 -82 60q-48 -188 -48 -200q0 -15 48 -15q15 0 19.5 -1.5t4.5 -9.5q0 -18 -18 -18q-14 0 -45 1t-46 1q-14 0 -41.5 -1t-40.5 -1q-12 0 -12 10q0 13 5 16t16 3q28 0 37.5 6.5t15.5 30.5l85 341l101 405q3 15 3 17q0 7 -1.5 10
t-13.5 6t-35 3q-22 0 -22 10q0 9 3 13t7 5t13 2l100 9q23 1 23 -9q0 -2 -3 -13l-71 -286q56 56 107 56t83 -43t32 -109zM382 108q16 34 35 108.5t19 114.5q0 41 -14.5 65.5t-40.5 24.5q-37 0 -76.5 -42t-47.5 -71l-47 -189q-3 -12 -3 -14q0 -4 1 -10.5t5.5 -22.5t11 -28.5
t20 -23t30.5 -10.5q25 0 53.5 24.5t53.5 73.5z" />
    <glyph glyph-name="ydieresis" unicode="&#xff;" horiz-adv-x="475" 
d="M404 -3q-19 -77 -80 -139t-135 -62q-39 0 -64.5 23t-25.5 61q0 20 6 33.5t15.5 18.5t15 6.5t10.5 1.5q14 0 22.5 -8.5t8.5 -20.5q0 -2 -0.5 -5t-3 -10.5t-7.5 -13t-15 -10.5t-23 -6q9 -50 62 -50q56 0 103 66q36 52 57 146q-38 -38 -89 -38q-44 0 -76 26.5t-32 87.5
q0 54 45 179q31 86 31 109q0 29 -23 29q-59 0 -92 -125q-3 -11 -5.5 -14t-11.5 -3q-14 0 -14 9t11 42.5t42 72t72 38.5q35 0 54 -23t19 -55q0 -19 -13 -56q-58 -161 -58 -219q0 -78 54 -78q38 0 67.5 29t36.5 58l73 295q11 39 39 39q10 0 17.5 -6.5t7.5 -17.5q0 -6 -4 -20z
M353 609q0 -20 -16.5 -35.5t-36.5 -15.5q-14 0 -25 9.5t-11 26.5q0 19 16.5 35t36.5 16q15 0 25.5 -9t10.5 -27zM513 609q0 -20 -16.5 -35.5t-36.5 -15.5q-14 0 -25 9.5t-11 26.5q0 19 16.5 35t36.5 16q15 0 25.5 -9t10.5 -27z" />
    <glyph glyph-name="Amacron" unicode="&#x100;" horiz-adv-x="727" 
d="M677 18q0 -18 -18 -18q-16 0 -49 1t-50 1t-52 -1t-51 -1q-14 0 -14 10q0 13 5 16t18 3q22 0 35.5 4.5t18 12.5t5.5 13t0 14l-11 161h-232l-73 -129q-17 -30 -17 -43q0 -30 38 -33q14 0 14 -10q0 -9 -3.5 -13.5t-6.5 -5t-8 -0.5q-13 0 -40.5 1t-41.5 1q-13 0 -38.5 -1
t-37.5 -1t-12 10q0 12 4.5 15t14.5 4q37 4 61 22.5t48 60.5l333 584q6 11 10 14.5t14 3.5t12.5 -4t3.5 -20l44 -628q2 -20 11.5 -26.5t44.5 -6.5q11 0 15.5 -1.5t4.5 -9.5zM512 263l-23 333l-190 -333h213zM718 772q0 -12 -5 -15t-21 -3h-274q-14 0 -19 1.5t-5 9.5
q0 12 5.5 14.5t20.5 2.5h274q24 0 24 -10z" />
    <glyph glyph-name="amacron" unicode="&#x101;" 
d="M513 143q0 -2 -3.5 -17.5t-10.5 -38.5t-15 -39q-26 -58 -72 -58q-15 0 -29 4.5t-29.5 21.5t-20.5 45q-60 -71 -120 -71q-51 0 -83 42.5t-32 109.5q0 109 71 204t153 95q56 0 80 -59l1 1q1 4 3 10.5t12 17.5t24 11q13 0 19.5 -7.5t6.5 -16.5q0 -5 -3 -16l-70 -279
q-8 -30 -8 -53q0 -40 27 -40q39 0 67 118q4 17 7 20.5t12 3.5q13 0 13 -9zM339 121l47 190l3 14q0 6 -2.5 18.5t-8.5 31.5t-20.5 32.5t-35.5 13.5q-31 0 -62.5 -32t-51.5 -81q-14 -35 -31 -104.5t-17 -103.5q0 -9 1.5 -20t6 -29t17 -29.5t30.5 -11.5q39 0 78.5 42.5
t45.5 68.5zM563 606q0 -12 -5.5 -15t-20.5 -3h-274q-15 0 -19.5 1.5t-4.5 9.5q0 12 5.5 14.5t20.5 2.5h274q24 0 24 -10z" />
    <glyph glyph-name="Abreve" unicode="&#x102;" horiz-adv-x="727" 
d="M677 18q0 -18 -18 -18q-16 0 -49 1t-50 1t-52 -1t-51 -1q-14 0 -14 10q0 13 5 16t18 3q22 0 35.5 4.5t18 12.5t5.5 13t0 14l-11 161h-232l-73 -129q-17 -30 -17 -43q0 -30 38 -33q14 0 14 -10q0 -9 -3.5 -13.5t-6.5 -5t-8 -0.5q-13 0 -40.5 1t-41.5 1q-13 0 -38.5 -1
t-37.5 -1t-12 10q0 12 4.5 15t14.5 4q37 4 61 22.5t48 60.5l333 584q6 11 10 14.5t14 3.5t12.5 -4t3.5 -20l44 -628q2 -20 11.5 -26.5t44.5 -6.5q11 0 15.5 -1.5t4.5 -9.5zM512 263l-23 333l-190 -333h213zM724 905q0 -12 -12 -37t-32.5 -53.5t-55 -49.5t-72.5 -21
q-50 0 -76.5 34.5t-26.5 82.5q0 53 16 53q10 0 10 -9l-3 -15q-2 -14 -2 -21q0 -40 23 -66t62 -26q42 0 84.5 32t62.5 91q4 14 12 14q10 0 10 -9z" />
    <glyph glyph-name="abreve" unicode="&#x103;" 
d="M513 143q0 -2 -3.5 -17.5t-10.5 -38.5t-15 -39q-26 -58 -72 -58q-15 0 -29 4.5t-29.5 21.5t-20.5 45q-60 -71 -120 -71q-51 0 -83 42.5t-32 109.5q0 109 71 204t153 95q56 0 80 -59l1 1q1 4 3 10.5t12 17.5t24 11q13 0 19.5 -7.5t6.5 -16.5q0 -5 -3 -16l-70 -279
q-8 -30 -8 -53q0 -40 27 -40q39 0 67 118q4 17 7 20.5t12 3.5q13 0 13 -9zM339 121l47 190l3 14q0 6 -2.5 18.5t-8.5 31.5t-20.5 32.5t-35.5 13.5q-31 0 -62.5 -32t-51.5 -81q-14 -35 -31 -104.5t-17 -103.5q0 -9 1.5 -20t6 -29t17 -29.5t30.5 -11.5q39 0 78.5 42.5
t45.5 68.5zM554 678q0 -12 -12 -37t-32.5 -53.5t-55 -49.5t-72.5 -21q-50 0 -76.5 34.5t-26.5 82.5q0 53 16 53q10 0 10 -9l-3 -14q-2 -15 -2 -22q0 -40 23 -66t62 -26q42 0 84.5 32t62.5 91q4 14 12 14q10 0 10 -9z" />
    <glyph glyph-name="Aogonek" unicode="&#x104;" horiz-adv-x="727" 
d="M667 -115q-21 -42 -61 -69t-78 -27q-47 0 -73 27t-18 63q13 63 111 123q-15 0 -46 -1t-45 -1t-14 10q0 13 5 16t18 3q22 0 35.5 4.5t18 12.5t5.5 13t0 14l-11 161h-232l-73 -129q-17 -30 -17 -43q0 -30 38 -33q14 0 14 -10q0 -9 -3.5 -13.5t-6.5 -5t-8 -0.5
q-13 0 -40.5 1t-41.5 1q-13 0 -38.5 -1t-37.5 -1t-12 10q0 12 4.5 15t14.5 4q37 4 61 22.5t48 60.5l333 584q6 11 10 14.5t14 3.5t12.5 -4t3.5 -20l44 -628q2 -20 11.5 -26.5t44.5 -6.5q11 0 15.5 -1.5t4.5 -9.5q0 -18 -18 -18l-73 2q-86 -51 -96 -97q-7 -32 17 -50.5
t55 -18.5q52 0 89 56q5 8 12.5 5t3.5 -12zM512 263l-23 333l-190 -333h213z" />
    <glyph glyph-name="aogonek" unicode="&#x105;" 
d="M467 -115q-21 -42 -61 -69t-78 -27q-47 0 -73 27t-18 63q14 67 121 132q-20 18 -25 50q-60 -71 -120 -71q-51 0 -83 42.5t-32 109.5q0 109 71 204t153 95q56 0 80 -59l1 1q1 4 3 10.5t12 17.5t24 11q13 0 19.5 -7.5t6.5 -16.5q0 -5 -3 -16l-70 -279q-8 -30 -8 -53
q0 -40 27 -40q39 0 67 118q4 17 7 20.5t12 3.5q13 0 13 -9q0 -2 -3.5 -17.5t-10.5 -38.5t-15 -39q-26 -58 -72 -58q-18 0 -34 8q-78 -47 -88 -93q-7 -32 17 -50.5t55 -18.5q52 0 89 56q5 8 12.5 5t3.5 -12zM339 121l47 190l3 14q0 6 -2.5 18.5t-8.5 31.5t-20.5 32.5
t-35.5 13.5q-31 0 -62.5 -32t-51.5 -81q-14 -35 -31 -104.5t-17 -103.5q0 -9 1.5 -20t6 -29t17 -29.5t30.5 -11.5q39 0 78.5 42.5t45.5 68.5z" />
    <glyph glyph-name="Cacute" unicode="&#x106;" horiz-adv-x="700" 
d="M734 438q-3 -12 -5.5 -14.5t-10.5 -2.5q-13 0 -13 9v9q5 25 5 53q0 23 -4.5 48t-17 58.5t-43.5 55t-76 21.5q-65 0 -129 -39t-105 -95q-44 -60 -70.5 -140t-32 -123.5t-5.5 -69.5q0 -97 50 -148.5t123 -51.5q76 0 149.5 61.5t105.5 169.5q3 10 15 10q14 0 14 -9
q-2 -10 -7 -27.5t-31 -64t-65 -84.5q-97 -85 -196 -85q-100 0 -168.5 70.5t-68.5 193.5q0 115 61 223t157.5 173t195.5 65q100 0 148 -89l65 80q3 4 6.5 6.5t4.5 2.5h2q9 0 9 -9q-1 -10 -2 -13zM737 870q-2 -18 -25 -26l-179 -97q-9 -4 -14 -3q-4 1 -8 6t-3 11q0 4 11 11
l166 120q13 9 26 9q14 0 21 -9t5 -22z" />
    <glyph glyph-name="cacute" unicode="&#x107;" horiz-adv-x="450" 
d="M457 105q0 -5 -9 -17.5t-28 -29t-42.5 -32t-57.5 -26t-69 -10.5q-62 0 -101.5 43.5t-39.5 118.5q0 110 78 199.5t170 89.5q45 0 74 -24t29 -60q0 -24 -10.5 -38t-19.5 -17t-17 -3q-6 0 -12.5 2t-12.5 9.5t-6 18.5q0 18 14 30.5t33 13.5q-14 48 -73 48q-33 0 -67 -25
t-59 -69q-23 -40 -40 -107.5t-17 -105.5q0 -46 20.5 -75t57.5 -29q43 0 92.5 25t86.5 75q9 10 12 10q5 0 9.5 -5t4.5 -10zM529 669q0 -16 -20 -30l-160 -126q-6 -6 -13 -6q-4 0 -9 4.5t-5 10.5q0 5 9 13l143 147q14 14 28 14q11 0 19 -8t8 -19z" />
    <glyph glyph-name="Ccircumflex" unicode="&#x108;" horiz-adv-x="700" 
d="M734 438q-3 -12 -5.5 -14.5t-10.5 -2.5q-13 0 -13 9v9q5 25 5 53q0 23 -4.5 48t-17 58.5t-43.5 55t-76 21.5q-65 0 -129 -39t-105 -95q-44 -60 -70.5 -140t-32 -123.5t-5.5 -69.5q0 -97 50 -148.5t123 -51.5q76 0 149.5 61.5t105.5 169.5q3 10 15 10q14 0 14 -9
q-2 -10 -7 -27.5t-31 -64t-65 -84.5q-97 -85 -196 -85q-100 0 -168.5 70.5t-68.5 193.5q0 115 61 223t157.5 173t195.5 65q100 0 148 -89l65 80q3 4 6.5 6.5t4.5 2.5h2q9 0 9 -9q-1 -10 -2 -13zM710 753q3 -4 1.5 -9t-7 -8t-10.5 -1l-111 55l-141 -55q-11 -4 -12 6q1 7 7 12
l154 98q9 3 12 0z" />
    <glyph glyph-name="ccircumflex" unicode="&#x109;" horiz-adv-x="450" 
d="M457 105q0 -5 -9 -17.5t-28 -29t-42.5 -32t-57.5 -26t-69 -10.5q-62 0 -101.5 43.5t-39.5 118.5q0 110 78 199.5t170 89.5q45 0 74 -24t29 -60q0 -24 -10.5 -38t-19.5 -17t-17 -3q-6 0 -12.5 2t-12.5 9.5t-6 18.5q0 18 14 30.5t33 13.5q-14 48 -73 48q-33 0 -67 -25
t-59 -69q-23 -40 -40 -107.5t-17 -105.5q0 -46 20.5 -75t57.5 -29q43 0 92.5 25t86.5 75q9 10 12 10q5 0 9.5 -5t4.5 -10zM519 537q6 -7 -3 -14.5t-15 -1.5l-97 99l-149 -99q-9 -6 -14 1t3 15l166 144q9 7 15 0z" />
    <glyph glyph-name="Cdotaccent" unicode="&#x10a;" horiz-adv-x="700" 
d="M734 438q-3 -12 -5.5 -14.5t-10.5 -2.5q-13 0 -13 9v9q5 25 5 53q0 23 -4.5 48t-17 58.5t-43.5 55t-76 21.5q-65 0 -129 -39t-105 -95q-44 -60 -70.5 -140t-32 -123.5t-5.5 -69.5q0 -97 50 -148.5t123 -51.5q76 0 149.5 61.5t105.5 169.5q3 10 15 10q14 0 14 -9
q-2 -10 -7 -27.5t-31 -64t-65 -84.5q-97 -85 -196 -85q-100 0 -168.5 70.5t-68.5 193.5q0 115 61 223t157.5 173t195.5 65q100 0 148 -89l65 80q3 4 6.5 6.5t4.5 2.5h2q9 0 9 -9q-1 -10 -2 -13zM636 812q0 -22 -18 -39.5t-41 -17.5q-16 0 -28 10.5t-12 29.5q0 22 18 39.5
t41 17.5q17 0 28.5 -10t11.5 -30z" />
    <glyph glyph-name="cdotaccent" unicode="&#x10b;" horiz-adv-x="450" 
d="M457 105q0 -5 -9 -17.5t-28 -29t-42.5 -32t-57.5 -26t-69 -10.5q-62 0 -101.5 43.5t-39.5 118.5q0 110 78 199.5t170 89.5q45 0 74 -24t29 -60q0 -24 -10.5 -38t-19.5 -17t-17 -3q-6 0 -12.5 2t-12.5 9.5t-6 18.5q0 18 14 30.5t33 13.5q-14 48 -73 48q-33 0 -67 -25
t-59 -69q-23 -40 -40 -107.5t-17 -105.5q0 -46 20.5 -75t57.5 -29q43 0 92.5 25t86.5 75q9 10 12 10q5 0 9.5 -5t4.5 -10zM448 610q0 -22 -18 -39.5t-41 -17.5q-16 0 -28 10.5t-12 29.5q0 22 18 39.5t41 17.5q17 0 28.5 -10t11.5 -30z" />
    <glyph glyph-name="Ccaron" unicode="&#x10c;" horiz-adv-x="700" 
d="M734 438q-3 -12 -5.5 -14.5t-10.5 -2.5q-13 0 -13 9v9q5 25 5 53q0 23 -4.5 48t-17 58.5t-43.5 55t-76 21.5q-65 0 -129 -39t-105 -95q-44 -60 -70.5 -140t-32 -123.5t-5.5 -69.5q0 -97 50 -148.5t123 -51.5q76 0 149.5 61.5t105.5 169.5q3 10 15 10q14 0 14 -9
q-2 -10 -7 -27.5t-31 -64t-65 -84.5q-97 -85 -196 -85q-100 0 -168.5 70.5t-68.5 193.5q0 115 61 223t157.5 173t195.5 65q100 0 148 -89l65 80q3 4 6.5 6.5t4.5 2.5h2q9 0 9 -9q-1 -10 -2 -13zM729 834l-154 -98q-9 -3 -12 0l-107 98q-5 5 2 13.5t14 4.5l112 -55l140 55
q6 2 10 -1t2.5 -8.5t-7.5 -8.5z" />
    <glyph glyph-name="ccaron" unicode="&#x10d;" horiz-adv-x="450" 
d="M457 105q0 -5 -9 -17.5t-28 -29t-42.5 -32t-57.5 -26t-69 -10.5q-62 0 -101.5 43.5t-39.5 118.5q0 110 78 199.5t170 89.5q45 0 74 -24t29 -60q0 -24 -10.5 -38t-19.5 -17t-17 -3q-6 0 -12.5 2t-12.5 9.5t-6 18.5q0 18 14 30.5t33 13.5q-14 48 -73 48q-33 0 -67 -25
t-59 -69q-23 -40 -40 -107.5t-17 -105.5q0 -46 20.5 -75t57.5 -29q43 0 92.5 25t86.5 75q9 10 12 10q5 0 9.5 -5t4.5 -10zM553 666l-166 -144q-9 -8 -15 0l-94 144q-6 7 3 14.5t15 1.5l97 -99l149 99q9 6 14 -1t-3 -15z" />
    <glyph glyph-name="Dcaron" unicode="&#x10e;" horiz-adv-x="738" 
d="M759 440q0 -83 -32.5 -164.5t-85 -141.5t-120.5 -97t-136 -37h-294q-24 0 -24 10q0 13 5.5 16t21.5 3q44 0 56.5 7.5t19.5 35.5l137 551q2 6 2 15q0 16 -53 16h-12.5t-7.5 1t-5 3t-1 6q0 13 5.5 16t21.5 3h298q92 0 148 -66t56 -177zM684 477q0 77 -40.5 127t-118.5 50
h-98q-27 0 -35 -5.5t-14 -32.5l-138 -552q-4 -14 -4 -23q0 -8 4.5 -10t25.5 -2h103q67 0 125.5 36.5t98.5 96.5q42 64 66.5 161.5t24.5 153.5zM657 834l-154 -98q-9 -3 -12 0l-107 98q-5 5 2 13.5t14 4.5l112 -55l140 55q6 2 10 -1t2.5 -8.5t-7.5 -8.5z" />
    <glyph glyph-name="dcaron" unicode="&#x10f;" 
d="M523 143q0 -2 -3.5 -17.5t-10.5 -38.5t-15 -39q-26 -58 -72 -58q-15 0 -29 4.5t-29.5 21.5t-20.5 45q-60 -71 -120 -71q-51 0 -83 42.5t-32 109.5q0 109 71 204t153 95q55 0 82 -61l59 238q3 12 3 17q0 7 -1.5 10t-13.5 6t-35 3q-22 0 -22 10q0 9 3 13t7 5t13 2l100 9
q23 1 23 -9q0 -2 -1.5 -6t-1.5 -7l-142 -567q-8 -35 -8 -54q0 -40 27 -40q39 0 67 118q4 17 7 20.5t12 3.5q13 0 13 -9zM350 123l46 188l3 14q0 9 -3 27.5t-20 43.5t-44 25q-31 0 -62.5 -32t-51.5 -81q-14 -35 -31 -104.5t-17 -103.5q0 -9 1.5 -20t6 -29t17 -29.5
t30.5 -11.5q39 0 78.5 42.5t46.5 70.5zM652 653q0 -39 -23 -82.5t-46.5 -68.5t-31.5 -25q-7 0 -7 7q0 2 10 12q64 55 81 137q-12 -12 -29 -12q-12 0 -21 7t-9 22q0 17 13 30.5t31 13.5q32 0 32 -41z" />
    <glyph glyph-name="Dcroat" unicode="&#x110;" horiz-adv-x="738" 
d="M759 440q0 -83 -32.5 -164.5t-85 -141.5t-120.5 -97t-136 -37h-294q-24 0 -24 10q0 13 5.5 16t21.5 3q44 0 56.5 7.5t19.5 35.5l64 256h-89q-13 0 -10 14q2 14 17 14h89l66 267q2 6 2 15q0 16 -53 16h-12.5t-7.5 1t-5 3t-1 6q0 13 5.5 16t21.5 3h298q92 0 148 -66
t56 -177zM684 477q0 77 -40.5 127t-118.5 50h-98q-27 0 -35 -5.5t-14 -32.5l-65 -260h145q6 0 9.5 -4.5t1.5 -9.5q-3 -14 -18 -14h-145l-66 -264q-4 -14 -4 -23q0 -8 4.5 -10t25.5 -2h103q67 0 125.5 36.5t98.5 96.5q42 64 66.5 161.5t24.5 153.5z" />
    <glyph glyph-name="dcroat" unicode="&#x111;" 
d="M523 143q0 -2 -3.5 -17.5t-10.5 -38.5t-15 -39q-26 -58 -72 -58q-15 0 -29 4.5t-29.5 21.5t-20.5 45q-60 -71 -120 -71q-51 0 -83 42.5t-32 109.5q0 109 71 204t153 95q55 0 82 -61l38 155h-118q-14 0 -11 14q4 14 18 14h118l14 55q3 12 3 17q0 7 -1.5 10t-13.5 6t-35 3
q-22 0 -22 10q0 9 3 13t7 5t13 2l100 9q23 1 23 -9q0 -2 -1.5 -6t-1.5 -7l-27 -108h49q6 0 9 -4.5t1 -9.5q-3 -14 -17 -14h-49l-108 -431q-8 -35 -8 -54q0 -40 27 -40q39 0 67 118q4 17 7 20.5t12 3.5q13 0 13 -9zM350 123l46 188l3 14q0 9 -3 27.5t-20 43.5t-44 25
q-31 0 -62.5 -32t-51.5 -81q-14 -35 -31 -104.5t-17 -103.5q0 -9 1.5 -20t6 -29t17 -29.5t30.5 -11.5q39 0 78.5 42.5t46.5 70.5z" />
    <glyph glyph-name="Emacron" unicode="&#x112;" horiz-adv-x="663" 
d="M673 246q0 -3 -4 -12l-88 -218q-5 -11 -8.5 -13.5t-18.5 -2.5h-464q-24 0 -24 10q0 13 5.5 16t21.5 3q44 0 56.5 7.5t19.5 35.5l135 543q4 14 4 19q0 6 -2 9t-14.5 6t-38.5 3q-24 0 -24 10q0 13 5.5 16t20.5 3h451q15 0 20 -1.5t5 -9.5q0 -2 -1 -7t-1 -7l-24 -177
q-2 -15 -4 -18t-11 -3q-14 0 -14 11q0 3 1 10.5t1 9.5q5 32 5 61q0 53 -24 77.5t-107 24.5h-125q-25 0 -33.5 -5.5t-14.5 -30.5l-62 -248h83q59 0 81.5 20t38.5 80q2 11 4.5 14t11.5 3q13 0 13 -10q0 -6 -2 -14l-56 -222q-2 -11 -5 -14t-11 -3q-14 0 -14 10l2 9q9 36 9 54
q0 24 -14 34t-61 10h-87l-69 -278q-4 -14 -4 -20q0 -8 4.5 -10t25.5 -2h122q73 0 118.5 21.5t71 58.5t55.5 111q2 4 5.5 12.5t6 14t3.5 6.5q3 3 11 3q13 0 13 -10zM686 772q0 -12 -5 -15t-21 -3h-274q-14 0 -19 1.5t-5 9.5q0 12 5.5 14.5t20.5 2.5h274q24 0 24 -10z" />
    <glyph glyph-name="emacron" unicode="&#x113;" horiz-adv-x="450" 
d="M457 105q0 -5 -9 -17.5t-28 -29t-42.5 -32t-57.5 -26t-69 -10.5q-63 0 -100 48t-37 125q0 123 78 200.5t165 77.5q43 0 69.5 -24t26.5 -59q0 -30 -13.5 -53t-37.5 -36t-47 -21t-52.5 -11.5t-43 -4t-29.5 -0.5h-36q-17 -66 -17 -111q0 -15 2.5 -31t10 -35.5t23.5 -32
t39 -12.5q43 0 92.5 25t86.5 75q9 10 12 10q5 0 9.5 -5t4.5 -10zM419 359q0 26 -17 44t-46 18q-12 0 -27.5 -5t-41 -19.5t-49.5 -52t-38 -92.5h21q18 0 33.5 0.5t49 6.5t56 16t41 32t18.5 52zM538 606q0 -12 -5 -15t-21 -3h-274q-14 0 -19 1.5t-5 9.5q0 12 5.5 14.5
t20.5 2.5h274q24 0 24 -10z" />
    <glyph glyph-name="Ebreve" unicode="&#x114;" horiz-adv-x="663" 
d="M673 246q0 -3 -4 -12l-88 -218q-5 -11 -8.5 -13.5t-18.5 -2.5h-464q-24 0 -24 10q0 13 5.5 16t21.5 3q44 0 56.5 7.5t19.5 35.5l135 543q4 14 4 19q0 6 -2 9t-14.5 6t-38.5 3q-24 0 -24 10q0 13 5.5 16t20.5 3h451q15 0 20 -1.5t5 -9.5q0 -2 -1 -7t-1 -7l-24 -177
q-2 -15 -4 -18t-11 -3q-14 0 -14 11q0 3 1 10.5t1 9.5q5 32 5 61q0 53 -24 77.5t-107 24.5h-125q-25 0 -33.5 -5.5t-14.5 -30.5l-62 -248h83q59 0 81.5 20t38.5 80q2 11 4.5 14t11.5 3q13 0 13 -10q0 -6 -2 -14l-56 -222q-2 -11 -5 -14t-11 -3q-14 0 -14 10l2 9q9 36 9 54
q0 24 -14 34t-61 10h-87l-69 -278q-4 -14 -4 -20q0 -8 4.5 -10t25.5 -2h122q73 0 118.5 21.5t71 58.5t55.5 111q2 4 5.5 12.5t6 14t3.5 6.5q3 3 11 3q13 0 13 -10zM692 905q0 -12 -12 -37t-32.5 -53.5t-55 -49.5t-72.5 -21q-50 0 -76.5 34.5t-26.5 82.5q0 53 16 53
q10 0 10 -9l-3 -15q-2 -14 -2 -21q0 -40 23 -66t62 -26q42 0 84.5 32t62.5 91q4 14 12 14q10 0 10 -9z" />
    <glyph glyph-name="ebreve" unicode="&#x115;" horiz-adv-x="450" 
d="M457 105q0 -5 -9 -17.5t-28 -29t-42.5 -32t-57.5 -26t-69 -10.5q-63 0 -100 48t-37 125q0 123 78 200.5t165 77.5q43 0 69.5 -24t26.5 -59q0 -30 -13.5 -53t-37.5 -36t-47 -21t-52.5 -11.5t-43 -4t-29.5 -0.5h-36q-17 -66 -17 -111q0 -15 2.5 -31t10 -35.5t23.5 -32
t39 -12.5q43 0 92.5 25t86.5 75q9 10 12 10q5 0 9.5 -5t4.5 -10zM419 359q0 26 -17 44t-46 18q-12 0 -27.5 -5t-41 -19.5t-49.5 -52t-38 -92.5h21q18 0 33.5 0.5t49 6.5t56 16t41 32t18.5 52zM529 678q0 -12 -12 -37t-32.5 -53.5t-55 -49.5t-72.5 -21q-50 0 -76.5 34.5
t-26.5 82.5q0 53 16 53q10 0 10 -9l-2 -14q-3 -15 -3 -22q0 -40 23 -66t62 -26q42 0 84.5 32t62.5 91q4 14 12 14q10 0 10 -9z" />
    <glyph glyph-name="Edotaccent" unicode="&#x116;" horiz-adv-x="663" 
d="M673 246q0 -3 -4 -12l-88 -218q-5 -11 -8.5 -13.5t-18.5 -2.5h-464q-24 0 -24 10q0 13 5.5 16t21.5 3q44 0 56.5 7.5t19.5 35.5l135 543q4 14 4 19q0 6 -2 9t-14.5 6t-38.5 3q-24 0 -24 10q0 13 5.5 16t20.5 3h451q15 0 20 -1.5t5 -9.5q0 -2 -1 -7t-1 -7l-24 -177
q-2 -15 -4 -18t-11 -3q-14 0 -14 11q0 3 1 10.5t1 9.5q5 32 5 61q0 53 -24 77.5t-107 24.5h-125q-25 0 -33.5 -5.5t-14.5 -30.5l-62 -248h83q59 0 81.5 20t38.5 80q2 11 4.5 14t11.5 3q13 0 13 -10q0 -6 -2 -14l-56 -222q-2 -11 -5 -14t-11 -3q-14 0 -14 10l2 9q9 36 9 54
q0 24 -14 34t-61 10h-87l-69 -278q-4 -14 -4 -20q0 -8 4.5 -10t25.5 -2h122q73 0 118.5 21.5t71 58.5t55.5 111q2 4 5.5 12.5t6 14t3.5 6.5q3 3 11 3q13 0 13 -10zM583 812q0 -22 -18 -39.5t-41 -17.5q-16 0 -28 10.5t-12 29.5q0 22 18 39.5t41 17.5q17 0 28.5 -10t11.5 -30
z" />
    <glyph glyph-name="edotaccent" unicode="&#x117;" horiz-adv-x="450" 
d="M457 105q0 -5 -9 -17.5t-28 -29t-42.5 -32t-57.5 -26t-69 -10.5q-63 0 -100 48t-37 125q0 123 78 200.5t165 77.5q43 0 69.5 -24t26.5 -59q0 -30 -13.5 -53t-37.5 -36t-47 -21t-52.5 -11.5t-43 -4t-29.5 -0.5h-36q-17 -66 -17 -111q0 -15 2.5 -31t10 -35.5t23.5 -32
t39 -12.5q43 0 92.5 25t86.5 75q9 10 12 10q5 0 9.5 -5t4.5 -10zM419 359q0 26 -17 44t-46 18q-12 0 -27.5 -5t-41 -19.5t-49.5 -52t-38 -92.5h21q18 0 33.5 0.5t49 6.5t56 16t41 32t18.5 52zM425 610q0 -22 -18 -39.5t-41 -17.5q-16 0 -28 10.5t-12 29.5q0 22 18 39.5
t41 17.5q17 0 28.5 -10t11.5 -30z" />
    <glyph glyph-name="Eogonek" unicode="&#x118;" horiz-adv-x="663" 
d="M673 246q0 -3 -4 -12l-88 -218q-5 -11 -8.5 -13.5t-18.5 -2.5h-89q-85 -51 -95 -95q-7 -32 17 -50.5t55 -18.5q52 0 89 56q5 8 12.5 5t3.5 -12q-21 -42 -61 -69t-78 -27q-47 0 -73 27t-18 63q16 76 109 121h-336q-24 0 -24 10q0 13 5.5 16t21.5 3q44 0 56.5 7.5
t19.5 35.5l135 543q4 14 4 19q0 6 -2 9t-14.5 6t-38.5 3q-24 0 -24 10q0 13 5.5 16t20.5 3h451q15 0 20 -1.5t5 -9.5q0 -2 -1 -7t-1 -7l-24 -177q-2 -15 -4 -18t-11 -3q-14 0 -14 11q0 3 1 10.5t1 9.5q5 32 5 61q0 53 -24 77.5t-107 24.5h-125q-25 0 -33.5 -5.5t-14.5 -30.5
l-62 -248h83q59 0 81.5 20t38.5 80q2 11 4.5 14t11.5 3q13 0 13 -10q0 -6 -2 -14l-56 -222q-2 -11 -5 -14t-11 -3q-14 0 -14 10l2 9q9 36 9 54q0 24 -14 34t-61 10h-87l-69 -278q-4 -14 -4 -20q0 -8 4.5 -10t25.5 -2h122q73 0 118.5 21.5t71 58.5t55.5 111q2 4 5.5 12.5
t6 14t3.5 6.5q3 3 11 3q13 0 13 -10z" />
    <glyph glyph-name="eogonek" unicode="&#x119;" horiz-adv-x="450" 
d="M407 -115q-21 -42 -61 -69t-78 -27q-47 0 -73 27t-18 63q13 61 90 112q-5 -1 -16 -1q-63 0 -100 48t-37 125q0 123 78 200.5t165 77.5q43 0 69.5 -24t26.5 -59q0 -30 -13.5 -53t-37.5 -36t-47 -21t-52.5 -11.5t-43 -4t-29.5 -0.5h-36q-17 -66 -17 -111q0 -15 2.5 -31
t10 -35.5t23.5 -32t39 -12.5q43 0 92.5 25t86.5 75q9 10 12 10q5 0 9.5 -5t4.5 -10q0 -7 -15 -25t-47.5 -41.5t-69.5 -35.5q-84 -51 -95 -98q-7 -32 17 -50.5t55 -18.5q52 0 89 56q5 8 12.5 5t3.5 -12zM419 359q0 26 -17 44t-46 18q-12 0 -27.5 -5t-41 -19.5t-49.5 -52
t-38 -92.5h21q18 0 33.5 0.5t49 6.5t56 16t41 32t18.5 52z" />
    <glyph glyph-name="Ecaron" unicode="&#x11a;" horiz-adv-x="663" 
d="M673 246q0 -3 -4 -12l-88 -218q-5 -11 -8.5 -13.5t-18.5 -2.5h-464q-24 0 -24 10q0 13 5.5 16t21.5 3q44 0 56.5 7.5t19.5 35.5l135 543q4 14 4 19q0 6 -2 9t-14.5 6t-38.5 3q-24 0 -24 10q0 13 5.5 16t20.5 3h451q15 0 20 -1.5t5 -9.5q0 -2 -1 -7t-1 -7l-24 -177
q-2 -15 -4 -18t-11 -3q-14 0 -14 11q0 3 1 10.5t1 9.5q5 32 5 61q0 53 -24 77.5t-107 24.5h-125q-25 0 -33.5 -5.5t-14.5 -30.5l-62 -248h83q59 0 81.5 20t38.5 80q2 11 4.5 14t11.5 3q13 0 13 -10q0 -6 -2 -14l-56 -222q-2 -11 -5 -14t-11 -3q-14 0 -14 10l2 9q9 36 9 54
q0 24 -14 34t-61 10h-87l-69 -278q-4 -14 -4 -20q0 -8 4.5 -10t25.5 -2h122q73 0 118.5 21.5t71 58.5t55.5 111q2 4 5.5 12.5t6 14t3.5 6.5q3 3 11 3q13 0 13 -10zM676 834l-154 -98q-9 -3 -12 0l-107 98q-5 5 2 13.5t14 4.5l112 -55l140 55q6 2 10 -1t2.5 -8.5t-7.5 -8.5z
" />
    <glyph glyph-name="ecaron" unicode="&#x11b;" horiz-adv-x="450" 
d="M457 105q0 -5 -9 -17.5t-28 -29t-42.5 -32t-57.5 -26t-69 -10.5q-63 0 -100 48t-37 125q0 123 78 200.5t165 77.5q43 0 69.5 -24t26.5 -59q0 -30 -13.5 -53t-37.5 -36t-47 -21t-52.5 -11.5t-43 -4t-29.5 -0.5h-36q-17 -66 -17 -111q0 -15 2.5 -31t10 -35.5t23.5 -32
t39 -12.5q43 0 92.5 25t86.5 75q9 10 12 10q5 0 9.5 -5t4.5 -10zM419 359q0 26 -17 44t-46 18q-12 0 -27.5 -5t-41 -19.5t-49.5 -52t-38 -92.5h21q18 0 33.5 0.5t49 6.5t56 16t41 32t18.5 52zM530 666l-166 -144q-9 -8 -15 0l-94 144q-6 7 3 14.5t15 1.5l97 -99l149 99
q9 6 14 -1t-3 -15z" />
    <glyph glyph-name="Gcircumflex" unicode="&#x11c;" horiz-adv-x="757" 
d="M751 261q0 -19 -14 -19q-39 -1 -47.5 -8t-18.5 -46l-46 -184q-3 -3 -7 -3q-7 0 -19.5 21t-18.5 42q-39 -47 -93.5 -66t-100.5 -19q-102 0 -170 71t-68 193q0 115 61 223t157.5 173t195.5 65q100 0 148 -89l65 80q3 4 6.5 6.5t4.5 2.5h2q9 0 9 -9q-1 -10 -2 -13l-61 -244
q-3 -12 -5.5 -14.5t-10.5 -2.5q-13 0 -13 9v9q5 25 5 53q0 23 -4.5 48t-17 58.5t-43.5 55t-76 21.5q-55 0 -115 -31t-110 -92q-56 -69 -86 -169.5t-30 -172.5q0 -56 17 -97.5t44.5 -63t56.5 -31.5t59 -10q52 0 97.5 24t66.5 61q7 12 15.5 43.5t14 57t5.5 28.5
q0 13 -17.5 16.5t-54.5 3.5h-7q-24 0 -24 10q0 19 20 19q19 0 58.5 -1t59.5 -1q17 0 50.5 1t49.5 1q12 0 12 -10zM704 753q3 -4 1.5 -9t-7 -8t-10.5 -1l-111 55l-141 -55q-11 -4 -12 6q1 7 7 12l154 98q9 3 12 0z" />
    <glyph glyph-name="gcircumflex" unicode="&#x11d;" horiz-adv-x="450" 
d="M365 -60q-16 -62 -69.5 -103t-127.5 -41q-116 0 -116 54q0 22 14 35.5t31 13.5q16 0 24 -9t8 -20q0 -30 -31 -43q28 -12 71 -12q28 0 52 12t39.5 31t24.5 34.5t14 30.5l32 130q-53 -53 -105 -53q-50 0 -83 41t-33 109q0 108 71 199.5t151 91.5q56 0 81 -57h1q2 14 12 26
t26 12q13 0 19.5 -7.5t6.5 -16.5q0 -5 -3 -16zM397 313l3 16q0 9 -3.5 27.5t-20.5 42t-44 23.5q-32 0 -63 -32.5t-51 -81.5q-13 -32 -29.5 -99t-16.5 -100q0 -9 1.5 -20t6 -29t17 -29.5t31.5 -11.5q37 0 76.5 40.5t46.5 70.5zM510 537q6 -7 -3 -14.5t-15 -1.5l-97 99
l-149 -99q-9 -6 -14 1t3 15l166 144q9 7 15 0z" />
    <glyph glyph-name="Gbreve" unicode="&#x11e;" horiz-adv-x="757" 
d="M751 261q0 -19 -14 -19q-39 -1 -47.5 -8t-18.5 -46l-46 -184q-3 -3 -7 -3q-7 0 -19.5 21t-18.5 42q-39 -47 -93.5 -66t-100.5 -19q-102 0 -170 71t-68 193q0 115 61 223t157.5 173t195.5 65q100 0 148 -89l65 80q3 4 6.5 6.5t4.5 2.5h2q9 0 9 -9q-1 -10 -2 -13l-61 -244
q-3 -12 -5.5 -14.5t-10.5 -2.5q-13 0 -13 9v9q5 25 5 53q0 23 -4.5 48t-17 58.5t-43.5 55t-76 21.5q-55 0 -115 -31t-110 -92q-56 -69 -86 -169.5t-30 -172.5q0 -56 17 -97.5t44.5 -63t56.5 -31.5t59 -10q52 0 97.5 24t66.5 61q7 12 15.5 43.5t14 57t5.5 28.5
q0 13 -17.5 16.5t-54.5 3.5h-7q-24 0 -24 10q0 19 20 19q19 0 58.5 -1t59.5 -1q17 0 50.5 1t49.5 1q12 0 12 -10zM739 905q0 -12 -12 -37t-32.5 -53.5t-55 -49.5t-72.5 -21q-50 0 -76.5 34.5t-26.5 82.5q0 53 16 53q10 0 10 -9l-2 -15q-3 -14 -3 -21q0 -40 23 -66t62 -26
q42 0 84.5 32t62.5 91q4 14 12 14q10 0 10 -9z" />
    <glyph glyph-name="gbreve" unicode="&#x11f;" horiz-adv-x="450" 
d="M365 -60q-16 -62 -69.5 -103t-127.5 -41q-116 0 -116 54q0 22 14 35.5t31 13.5q16 0 24 -9t8 -20q0 -30 -31 -43q28 -12 71 -12q28 0 52 12t39.5 31t24.5 34.5t14 30.5l32 130q-53 -53 -105 -53q-50 0 -83 41t-33 109q0 108 71 199.5t151 91.5q56 0 81 -57h1q2 14 12 26
t26 12q13 0 19.5 -7.5t6.5 -16.5q0 -5 -3 -16zM397 313l3 16q0 9 -3.5 27.5t-20.5 42t-44 23.5q-32 0 -63 -32.5t-51 -81.5q-13 -32 -29.5 -99t-16.5 -100q0 -9 1.5 -20t6 -29t17 -29.5t31.5 -11.5q37 0 76.5 40.5t46.5 70.5zM543 678q0 -12 -12 -37t-32.5 -53.5t-55 -49.5
t-72.5 -21q-50 0 -76.5 34.5t-26.5 82.5q0 53 16 53q10 0 10 -9l-2 -14q-3 -15 -3 -22q0 -40 23 -66t62 -26q42 0 84.5 32t62.5 91q4 14 12 14q10 0 10 -9z" />
    <glyph glyph-name="Gdotaccent" unicode="&#x120;" horiz-adv-x="757" 
d="M751 261q0 -19 -14 -19q-39 -1 -47.5 -8t-18.5 -46l-46 -184q-3 -3 -7 -3q-7 0 -19.5 21t-18.5 42q-39 -47 -93.5 -66t-100.5 -19q-102 0 -170 71t-68 193q0 115 61 223t157.5 173t195.5 65q100 0 148 -89l65 80q3 4 6.5 6.5t4.5 2.5h2q9 0 9 -9q-1 -10 -2 -13l-61 -244
q-3 -12 -5.5 -14.5t-10.5 -2.5q-13 0 -13 9v9q5 25 5 53q0 23 -4.5 48t-17 58.5t-43.5 55t-76 21.5q-55 0 -115 -31t-110 -92q-56 -69 -86 -169.5t-30 -172.5q0 -56 17 -97.5t44.5 -63t56.5 -31.5t59 -10q52 0 97.5 24t66.5 61q7 12 15.5 43.5t14 57t5.5 28.5
q0 13 -17.5 16.5t-54.5 3.5h-7q-24 0 -24 10q0 19 20 19q19 0 58.5 -1t59.5 -1q17 0 50.5 1t49.5 1q12 0 12 -10zM630 812q0 -22 -18 -39.5t-41 -17.5q-16 0 -28 10.5t-12 29.5q0 22 18 39.5t41 17.5q17 0 28.5 -10t11.5 -30z" />
    <glyph glyph-name="gdotaccent" unicode="&#x121;" horiz-adv-x="450" 
d="M365 -60q-16 -62 -69.5 -103t-127.5 -41q-116 0 -116 54q0 22 14 35.5t31 13.5q16 0 24 -9t8 -20q0 -30 -31 -43q28 -12 71 -12q28 0 52 12t39.5 31t24.5 34.5t14 30.5l32 130q-53 -53 -105 -53q-50 0 -83 41t-33 109q0 108 71 199.5t151 91.5q56 0 81 -57h1q2 14 12 26
t26 12q13 0 19.5 -7.5t6.5 -16.5q0 -5 -3 -16zM397 313l3 16q0 9 -3.5 27.5t-20.5 42t-44 23.5q-32 0 -63 -32.5t-51 -81.5q-13 -32 -29.5 -99t-16.5 -100q0 -9 1.5 -20t6 -29t17 -29.5t31.5 -11.5q37 0 76.5 40.5t46.5 70.5zM439 610q0 -22 -18 -39.5t-41 -17.5
q-16 0 -28 10.5t-12 29.5q0 22 18 39.5t41 17.5q17 0 28.5 -10t11.5 -30z" />
    <glyph glyph-name="Gcommaaccent" unicode="&#x122;" horiz-adv-x="757" 
d="M751 261q0 -19 -14 -19q-39 -1 -47.5 -8t-18.5 -46l-46 -184q-3 -3 -7 -3q-7 0 -19.5 21t-18.5 42q-39 -47 -93.5 -66t-100.5 -19q-102 0 -170 71t-68 193q0 115 61 223t157.5 173t195.5 65q100 0 148 -89l65 80q3 4 6.5 6.5t4.5 2.5h2q9 0 9 -9q-1 -10 -2 -13l-61 -244
q-3 -12 -5.5 -14.5t-10.5 -2.5q-13 0 -13 9v9q5 25 5 53q0 23 -4.5 48t-17 58.5t-43.5 55t-76 21.5q-55 0 -115 -31t-110 -92q-56 -69 -86 -169.5t-30 -172.5q0 -56 17 -97.5t44.5 -63t56.5 -31.5t59 -10q52 0 97.5 24t66.5 61q7 12 15.5 43.5t14 57t5.5 28.5
q0 13 -17.5 16.5t-54.5 3.5h-7q-24 0 -24 10q0 19 20 19q19 0 58.5 -1t59.5 -1q17 0 50.5 1t49.5 1q12 0 12 -10zM388 -104q0 -39 -23 -82.5t-46.5 -68.5t-31.5 -25q-7 0 -7 7q0 2 10 12q64 55 81 137q-12 -12 -29 -12q-12 0 -21 7t-9 22q0 17 13 30.5t31 13.5q32 0 32 -41z
" />
    <glyph glyph-name="gcommaaccent" unicode="&#x123;" horiz-adv-x="450" 
d="M418 559q0 -17 -13 -30.5t-31 -13.5q-32 0 -32 41q0 39 23 82.5t46.5 68.5t31.5 25q7 0 7 -7q0 -2 -10 -12q-64 -55 -81 -137q12 12 29 12q12 0 21 -7t9 -22zM365 -60q-16 -62 -69.5 -103t-127.5 -41q-116 0 -116 54q0 22 14 35.5t31 13.5q16 0 24 -9t8 -20
q0 -30 -31 -43q28 -12 71 -12q28 0 52 12t39.5 31t24.5 34.5t14 30.5l32 130q-53 -53 -105 -53q-50 0 -83 41t-33 109q0 108 71 199.5t151 91.5q56 0 81 -57h1q2 14 12 26t26 12q13 0 19.5 -7.5t6.5 -16.5q0 -5 -3 -16zM397 313l3 16q0 9 -3.5 27.5t-20.5 42t-44 23.5
q-32 0 -63 -32.5t-51 -81.5q-13 -32 -29.5 -99t-16.5 -100q0 -9 1.5 -20t6 -29t17 -29.5t31.5 -11.5q37 0 76.5 40.5t46.5 70.5z" />
    <glyph glyph-name="Hcircumflex" unicode="&#x124;" horiz-adv-x="727" 
d="M831 672q0 -12 -5.5 -15t-20.5 -3q-45 0 -57.5 -7.5t-19.5 -34.5l-138 -551q-2 -4 -2 -15q0 -6 2 -9t15 -5.5t39 -2.5q23 0 23 -10q0 -13 -5 -16t-14 -3q-17 0 -54.5 1t-55.5 1t-54.5 -1t-53.5 -1q-14 0 -14 10q0 13 5.5 16t21.5 3q44 0 56.5 7.5t19.5 35.5l67 269h-275
l-71 -280l-2 -15q0 -6 2 -9t15 -5.5t39 -2.5q23 0 23 -10q0 -13 -5 -16t-14 -3q-17 0 -54.5 1t-55.5 1t-54.5 -1t-53.5 -1q-14 0 -14 10q0 13 5.5 16t21.5 3q44 0 56.5 7.5t19.5 35.5l137 551q2 6 2 15q0 16 -53 16h-12.5t-7.5 1t-5 3t-1 6q0 13 5 16t14 3q18 0 55 -1t56 -1
q18 0 54.5 1t53.5 1q14 0 14 -11q0 -12 -5.5 -15t-20.5 -3q-45 0 -57.5 -7.5t-19.5 -34.5l-60 -242h275l63 253q2 6 2 15q0 16 -53 16h-12.5t-7.5 1t-5 3t-1 6q0 13 5 16t14 3q18 0 55 -1t56 -1q18 0 54.5 1t53.5 1q14 0 14 -11zM689 753q3 -4 1.5 -9t-7 -8t-10.5 -1
l-111 55l-141 -55q-11 -4 -12 6q1 7 7 12l154 98q9 3 12 0z" />
    <glyph glyph-name="hcircumflex" unicode="&#x125;" 
d="M523 143q0 -3 -4 -17.5t-13.5 -38t-23 -45t-36 -37t-48.5 -15.5q-31 0 -51.5 21.5t-20.5 56.5q0 19 13 55q61 176 61 231q0 67 -46 67q-33 0 -63.5 -19.5t-49 -47.5t-29.5 -49.5t-14 -33.5l-62 -248q-9 -33 -36 -33q-12 0 -19 7.5t-7 17.5q0 1 4 18l146 584q3 12 3 18
q0 7 -1.5 10t-13.5 6t-35 3q-22 0 -22 10q0 9 3 13t7 5t13 2l100 9q23 1 23 -9q0 -4 -3 -13l-75 -301q58 71 134 71q100 0 100 -102q0 -56 -60 -224q-19 -47 -19 -75q0 -30 23 -30q59 0 92 124q3 12 5.5 15t11.5 3q13 0 13 -9zM578 764q3 -4 1.5 -9t-7 -8t-10.5 -1l-111 55
l-141 -55q-11 -4 -12 6q1 7 7 12l154 98q9 3 12 0z" />
    <glyph glyph-name="Hbar" unicode="&#x126;" horiz-adv-x="727" 
d="M792 513q-4 -14 -17 -14h-75l-110 -438q-2 -4 -2 -15q0 -6 2 -9t15 -5.5t39 -2.5q23 0 23 -10q0 -13 -5 -16t-14 -3q-17 0 -54.5 1t-55.5 1t-54.5 -1t-53.5 -1q-14 0 -14 10q0 13 5.5 16t21.5 3q44 0 56.5 7.5t19.5 35.5l67 269h-275l-71 -280l-2 -15q0 -6 2 -9t15 -5.5
t39 -2.5q23 0 23 -10q0 -13 -5 -16t-14 -3q-17 0 -54.5 1t-55.5 1t-54.5 -1t-53.5 -1q-14 0 -14 10q0 13 5.5 16t21.5 3q44 0 56.5 7.5t19.5 35.5l106 427h-74q-6 0 -9 4t-2 10q4 14 18 14h74l24 96q2 6 2 15q0 16 -53 16h-12.5t-7.5 1t-5 3t-1 6q0 13 5 16t14 3q18 0 55 -1
t56 -1q18 0 54.5 1t53.5 1q14 0 14 -11q0 -12 -5.5 -15t-20.5 -3q-45 0 -57.5 -7.5t-19.5 -34.5l-21 -85h275l24 96q2 6 2 15q0 16 -53 16h-12.5t-7.5 1t-5 3t-1 6q0 13 5 16t14 3q18 0 55 -1t56 -1q18 0 54.5 1t53.5 1q14 0 14 -11q0 -12 -5.5 -15t-20.5 -3
q-45 0 -57.5 -7.5t-19.5 -34.5l-21 -85h75q6 0 9 -4.5t1 -9.5zM593 370l32 129h-275l-32 -129h275z" />
    <glyph glyph-name="hbar" unicode="&#x127;" 
d="M523 143q0 -3 -4 -17.5t-13.5 -38t-23 -45t-36 -37t-48.5 -15.5q-31 0 -51.5 21.5t-20.5 56.5q0 19 13 55q61 176 61 231q0 67 -46 67q-33 0 -63.5 -19.5t-49 -47.5t-29.5 -49.5t-14 -33.5l-62 -248q-9 -33 -36 -33q-12 0 -19 7.5t-7 17.5q0 1 4 18l126 502h-52
q-14 0 -11 14q4 14 18 14h51l14 54q3 12 3 18q0 7 -1.5 10t-13.5 6t-35 3q-22 0 -22 10q0 9 3 13t7 5t13 2l100 9q23 1 23 -9q0 -4 -3 -13l-27 -108h120q6 0 9 -4.5t1 -9.5q-3 -14 -17 -14h-120l-41 -165q58 71 134 71q100 0 100 -102q0 -56 -60 -224q-19 -47 -19 -75
q0 -30 23 -30q59 0 92 124q3 12 5.5 15t11.5 3q13 0 13 -9z" />
    <glyph glyph-name="Itilde" unicode="&#x128;" horiz-adv-x="377" 
d="M322 19q0 -13 -5 -16t-14 -3q-18 0 -57 1t-58 1t-56.5 -1t-55.5 -1q-14 0 -14 10q0 13 5.5 16t18.5 3q49 0 62.5 7.5t20.5 35.5l135 540l4 24q0 7 -2 10t-15.5 5.5t-41.5 2.5q-15 0 -19.5 1.5t-4.5 9.5q0 18 19 18q18 0 56.5 -1t57.5 -1q18 0 56 1t57 1q14 0 14 -10
q0 -13 -5.5 -16t-23.5 -3q-44 0 -58 -7.5t-20 -33.5l-137 -550q-2 -9 -2 -17q0 -17 57 -17h12.5t7.5 -1t5 -3t1 -6zM543 821q0 -10 -47 -48.5t-77 -38.5q-25 0 -48 34q-11 18 -18 24t-17 6q-26 0 -82 -50q-13 -13 -19 -13q-9 0 -9 9q0 5 21 25.5t52 41t51 20.5q28 0 49 -37
q17 -27 33 -27q14 0 34.5 12.5t34.5 25.5l14 13q12 12 18 12q10 -1 10 -9z" />
    <glyph glyph-name="itilde" unicode="&#x129;" horiz-adv-x="300" 
d="M323 143q0 -3 -4 -17.5t-13.5 -38t-23 -45t-35.5 -37t-48 -15.5q-29 0 -50.5 19.5t-21.5 59.5q0 22 8 44l80 217q13 33 13 61q0 30 -22 30q-61 0 -92 -125q-3 -11 -5.5 -14t-11.5 -3q-14 0 -14 9q0 3 4 18t14 38t23.5 44.5t35.5 37t48 15.5q31 0 51.5 -20.5t20.5 -57.5
q0 -20 -11 -51l-59 -162q-32 -87 -32 -111q0 -29 23 -29q59 0 92 124q3 12 5.5 15t11.5 3q13 0 13 -9zM459 640q0 -10 -47 -48.5t-77 -38.5q-25 0 -48 34q-11 18 -18 24t-17 6q-26 0 -82 -50q-13 -13 -19 -13q-9 0 -9 9q0 5 21 25.5t52 41t51 20.5q28 0 49 -37
q17 -27 33 -27q14 0 34.5 13t34.5 25l14 13q12 12 18 12q10 -1 10 -9z" />
    <glyph glyph-name="Imacron" unicode="&#x12a;" horiz-adv-x="377" 
d="M322 19q0 -13 -5 -16t-14 -3q-18 0 -57 1t-58 1t-56.5 -1t-55.5 -1q-14 0 -14 10q0 13 5.5 16t18.5 3q49 0 62.5 7.5t20.5 35.5l135 540l4 24q0 7 -2 10t-15.5 5.5t-41.5 2.5q-15 0 -19.5 1.5t-4.5 9.5q0 18 19 18q18 0 56.5 -1t57.5 -1q18 0 56 1t57 1q14 0 14 -10
q0 -13 -5.5 -16t-23.5 -3q-44 0 -58 -7.5t-20 -33.5l-137 -550q-2 -9 -2 -17q0 -17 57 -17h12.5t7.5 -1t5 -3t1 -6zM543 772q0 -12 -5.5 -15t-20.5 -3h-274q-15 0 -19.5 1.5t-4.5 9.5q0 12 5.5 14.5t20.5 2.5h274q24 0 24 -10z" />
    <glyph glyph-name="imacron" unicode="&#x12b;" horiz-adv-x="300" 
d="M323 143q0 -3 -4 -17.5t-13.5 -38t-23 -45t-35.5 -37t-48 -15.5q-29 0 -50.5 19.5t-21.5 59.5q0 22 8 44l80 217q13 33 13 61q0 30 -22 30q-61 0 -92 -125q-3 -11 -5.5 -14t-11.5 -3q-14 0 -14 9q0 3 4 18t14 38t23.5 44.5t35.5 37t48 15.5q31 0 51.5 -20.5t20.5 -57.5
q0 -20 -11 -51l-59 -162q-32 -87 -32 -111q0 -29 23 -29q59 0 92 124q3 12 5.5 15t11.5 3q13 0 13 -9zM463 606q0 -12 -5.5 -15t-20.5 -3h-274q-15 0 -19.5 1.5t-4.5 9.5q0 12 5.5 14.5t20.5 2.5h274q24 0 24 -10z" />
    <glyph glyph-name="Ibreve" unicode="&#x12c;" horiz-adv-x="377" 
d="M322 19q0 -13 -5 -16t-14 -3q-18 0 -57 1t-58 1t-56.5 -1t-55.5 -1q-14 0 -14 10q0 13 5.5 16t18.5 3q49 0 62.5 7.5t20.5 35.5l135 540l4 24q0 7 -2 10t-15.5 5.5t-41.5 2.5q-15 0 -19.5 1.5t-4.5 9.5q0 18 19 18q18 0 56.5 -1t57.5 -1q18 0 56 1t57 1q14 0 14 -10
q0 -13 -5.5 -16t-23.5 -3q-44 0 -58 -7.5t-20 -33.5l-137 -550q-2 -9 -2 -17q0 -17 57 -17h12.5t7.5 -1t5 -3t1 -6zM549 905q0 -12 -12 -37t-32.5 -53.5t-55 -49.5t-72.5 -21q-50 0 -76.5 34.5t-26.5 82.5q0 53 16 53q10 0 10 -9l-2 -15q-3 -14 -3 -21q0 -40 23 -66t62 -26
q42 0 84.5 32t62.5 91q4 14 12 14q10 0 10 -9z" />
    <glyph glyph-name="ibreve" unicode="&#x12d;" horiz-adv-x="300" 
d="M323 143q0 -3 -4 -17.5t-13.5 -38t-23 -45t-35.5 -37t-48 -15.5q-29 0 -50.5 19.5t-21.5 59.5q0 22 8 44l80 217q13 33 13 61q0 30 -22 30q-61 0 -92 -125q-3 -11 -5.5 -14t-11.5 -3q-14 0 -14 9q0 3 4 18t14 38t23.5 44.5t35.5 37t48 15.5q31 0 51.5 -20.5t20.5 -57.5
q0 -20 -11 -51l-59 -162q-32 -87 -32 -111q0 -29 23 -29q59 0 92 124q3 12 5.5 15t11.5 3q13 0 13 -9zM454 678q0 -12 -12 -37t-32.5 -53.5t-55 -49.5t-72.5 -21q-50 0 -76.5 34.5t-26.5 82.5q0 53 16 53q10 0 10 -9l-3 -14q-2 -15 -2 -22q0 -40 23 -66t62 -26q42 0 84.5 32
t62.5 91q4 14 12 14q10 0 10 -9z" />
    <glyph glyph-name="Iogonek" unicode="&#x12e;" horiz-adv-x="377" 
d="M289 -115q-21 -42 -61 -69t-78 -27q-47 0 -73 27t-18 63q13 62 107 123l-90 -2q-14 0 -14 10q0 13 5.5 16t18.5 3q49 0 62.5 7.5t20.5 35.5l135 540l4 24q0 7 -2 10t-15.5 5.5t-41.5 2.5q-15 0 -19.5 1.5t-4.5 9.5q0 18 19 18q18 0 56.5 -1t57.5 -1q18 0 56 1t57 1
q14 0 14 -10q0 -13 -5.5 -16t-23.5 -3q-44 0 -58 -7.5t-20 -33.5l-137 -550q-2 -9 -2 -17q0 -17 57 -17h12.5t7.5 -1t5 -3t1 -6q0 -13 -5 -16t-14 -3l-95 2q-22 -12 -42 -27q-45 -33 -54 -70q-7 -32 17 -50.5t55 -18.5q52 0 89 56q5 8 12.5 5t3.5 -12z" />
    <glyph glyph-name="iogonek" unicode="&#x12f;" horiz-adv-x="300" 
d="M319 623q0 -19 -14 -31.5t-30 -12.5q-31 0 -31 30q0 19 14.5 31.5t29.5 12.5q13 0 22 -8t9 -22zM277 -115q-21 -42 -61 -69t-78 -27q-47 0 -73 27t-18 63q13 62 109 125q-29 20 -29 65q0 22 8 44l80 217q13 33 13 61q0 30 -22 30q-61 0 -92 -125q-3 -11 -5.5 -14
t-11.5 -3q-14 0 -14 9q0 3 4 18t14 38t23.5 44.5t35.5 37t48 15.5q31 0 51.5 -20.5t20.5 -57.5q0 -20 -11 -51l-59 -162q-32 -87 -32 -111q0 -29 23 -29q59 0 92 124q3 12 5.5 15t11.5 3q13 0 13 -9q0 -3 -4 -17.5t-13.5 -38t-23 -45t-35.5 -37t-48 -15.5q-9 0 -20 3
q-18 -12 -26 -18q-45 -33 -53 -70q-7 -32 17 -50.5t55 -18.5q52 0 89 56q5 8 12.5 5t3.5 -12z" />
    <glyph glyph-name="Idotaccent" unicode="&#x130;" horiz-adv-x="377" 
d="M322 19q0 -13 -5 -16t-14 -3q-18 0 -57 1t-58 1t-56.5 -1t-55.5 -1q-14 0 -14 10q0 13 5.5 16t18.5 3q49 0 62.5 7.5t20.5 35.5l135 540l4 24q0 7 -2 10t-15.5 5.5t-41.5 2.5q-15 0 -19.5 1.5t-4.5 9.5q0 18 19 18q18 0 56.5 -1t57.5 -1q18 0 56 1t57 1q14 0 14 -10
q0 -13 -5.5 -16t-23.5 -3q-44 0 -58 -7.5t-20 -33.5l-137 -550q-2 -9 -2 -17q0 -17 57 -17h12.5t7.5 -1t5 -3t1 -6zM440 812q0 -22 -18 -39.5t-41 -17.5q-16 0 -28 10.5t-12 29.5q0 22 18 39.5t41 17.5q17 0 28.5 -10t11.5 -30z" />
    <glyph glyph-name="dotlessi" unicode="&#x131;" horiz-adv-x="300" 
d="M323 143q0 -3 -4 -17.5t-13.5 -38t-23 -45t-35.5 -37t-48 -15.5q-29 0 -50.5 19.5t-21.5 59.5q0 22 8 44l80 217q13 33 13 61q0 30 -22 30q-61 0 -92 -125q-3 -11 -5.5 -14t-11.5 -3q-14 0 -14 9q0 3 4 18t14 38t23.5 44.5t35.5 37t48 15.5q31 0 51.5 -20.5t20.5 -57.5
q0 -20 -11 -51l-59 -162q-32 -87 -32 -111q0 -29 23 -29q59 0 92 124q3 12 5.5 15t11.5 3q13 0 13 -9z" />
    <glyph glyph-name="Jcircumflex" unicode="&#x134;" horiz-adv-x="513" 
d="M608 672q0 -12 -5 -15t-17 -3q-31 0 -41.5 -7t-16.5 -30l-118 -476q-16 -65 -74 -113.5t-125 -48.5q-47 0 -79 28.5t-32 77.5q0 20 5.5 35t12.5 22t16.5 11t13.5 4.5t8 0.5q16 0 26.5 -9.5t10.5 -25.5q0 -19 -15.5 -36t-38.5 -17q-9 0 -12 1q4 -34 27.5 -53t54.5 -19
q40 0 77.5 45t51.5 100l118 473q3 12 3 16q0 14 -17.5 17.5t-55.5 3.5h-8q-14 0 -19 1.5t-5 9.5q0 18 20 18q19 0 59.5 -1t60.5 -1q17 0 51 1t50 1q13 0 13 -11zM639 753q3 -4 1.5 -9t-7 -8t-10.5 -1l-111 55l-141 -55q-11 -4 -12 6q1 7 7 12l154 98q9 3 12 0z" />
    <glyph glyph-name="jcircumflex" unicode="&#x135;" horiz-adv-x="300" 
d="M215 -58q-15 -57 -61 -101.5t-105 -44.5q-32 0 -58.5 13.5t-26.5 41.5q0 21 14 34.5t31 13.5q16 0 24 -9t8 -20q0 -32 -34 -43q18 -11 43 -11q24 0 44 15.5t32.5 39.5t18.5 40.5t9 29.5l97 389q7 27 7 50q0 41 -28 41q-35 0 -64.5 -35t-49.5 -88q-5 -14 -8 -16.5
t-11 -2.5q-14 0 -14 9q0 8 15.5 42t52.5 72.5t81 38.5q39 0 60.5 -25.5t21.5 -62.5l-5 -35zM421 537q6 -7 -3 -14.5t-15 -1.5l-97 99l-149 -99q-9 -6 -14 1t3 15l166 144q9 7 15 0z" />
    <glyph glyph-name="Kcommaaccent" unicode="&#x136;" horiz-adv-x="752" 
d="M693 19q0 -19 -17 -19h-3q-3 0 -9 0.5t-15 1t-25 0.5h-36q-17 0 -50 -1t-49 -1q-14 0 -14 10q0 19 17 19q48 0 48 32q0 9 -5 21l-105 285l-143 -121q-49 -194 -49 -200t2 -9t15 -5.5t39 -2.5q23 0 23 -10q0 -13 -5 -16t-14 -3q-17 0 -54.5 1t-55.5 1t-54.5 -1t-53.5 -1
q-14 0 -14 10q0 13 5.5 16t21.5 3q44 0 56.5 7.5t19.5 35.5l137 551q2 6 2 15q0 16 -53 16h-12.5t-7.5 1t-5 3t-1 6q0 13 5 16t14 3q18 0 55 -1t56 -1q18 0 54.5 1t53.5 1q14 0 14 -11q0 -12 -5.5 -15t-20.5 -3q-45 0 -57.5 -7.5t-19.5 -34.5l-81 -324l356 298q5 5 9 8
q2 4 6 6q19 16 19 35q0 17 -23 19q-12 0 -12 10q0 13 5 16t14 3q14 0 45 -1t46 -1q12 0 36 1t35 1t11 -10q0 -17 -17 -19q-62 -6 -151 -81l-186 -156l128 -347q9 -24 20.5 -32t35.5 -9q19 0 19 -10zM386 -104q0 -39 -23 -82.5t-46.5 -68.5t-31.5 -25q-7 0 -7 7q0 2 10 12
q64 55 81 137q-12 -12 -29 -12q-12 0 -21 7t-9 22q0 17 13 30.5t31 13.5q32 0 32 -41z" />
    <glyph glyph-name="kcommaaccent" unicode="&#x137;" horiz-adv-x="450" 
d="M473 143q0 -3 -4 -18.5t-11.5 -38.5t-16.5 -38q-31 -58 -78 -58q-32 0 -56.5 23t-24.5 72q0 19 5 39q2 10 2 20q0 23 -12 40.5t-30.5 26.5t-32 13t-26.5 6l-52 -207q-9 -33 -36 -33q-12 0 -19 7.5t-7 17.5q0 1 4 18l146 584q3 12 3 18q0 7 -1.5 10t-13.5 6t-35 3
q-22 0 -22 10q0 9 3 13t7 5t13 2l100 9q23 1 23 -9q0 -4 -3 -13l-103 -412q39 17 94 83q27 32 42.5 48t44 33.5t55.5 17.5q31 0 47 -17t16 -39q0 -23 -14 -37t-32 -14q-31 0 -31 29q0 15 9.5 28.5t32.5 16.5q-7 13 -30 13q-52 0 -122 -86q-59 -70 -89 -86q131 -23 131 -104
q0 -15 -5 -34q-9 -35 -9 -59q0 -42 30 -42q29 0 46 32t30 86q4 17 7 20.5t12 3.5q13 0 13 -9zM235 -104q0 -39 -23 -82.5t-46.5 -68.5t-31.5 -25q-7 0 -7 7q0 2 10 12q64 55 81 137q-12 -12 -29 -12q-12 0 -21 7t-9 22q0 17 13 30.5t31 13.5q32 0 32 -41z" />
    <glyph glyph-name="Lacute" unicode="&#x139;" horiz-adv-x="613" 
d="M607 234l-76 -217q-4 -13 -8 -15t-20 -2h-413q-24 0 -24 10q0 13 5.5 16t21.5 3q44 0 56.5 7.5t19.5 35.5l137 551q2 6 2 15q0 16 -53 16h-12.5t-7.5 1t-5 3t-1 6q0 13 5 16t14 3q19 0 58 -1t59 -1t61 1t61 1q16 0 16 -11q0 -12 -6 -15t-21 -3h-7q-55 0 -70 -8.5
t-22 -37.5l-136 -544q-4 -14 -4 -23q0 -8 4.5 -10t25.5 -2h82q44 0 80.5 14t58 32t41 50t27.5 51.5t20 53.5q7 19 10 22.5t11 3.5q13 0 13 -10q0 -3 -3 -12zM546 870q-2 -18 -25 -26l-179 -97q-9 -4 -14 -3q-4 1 -8 6t-3 11q0 4 11 11l166 120q13 9 26 9q14 0 21 -9t5 -22z
" />
    <glyph glyph-name="lacute" unicode="&#x13a;" horiz-adv-x="250" 
d="M273 142q0 -2 -4 -19.5t-12 -42t-16 -39.5q-25 -51 -68 -51q-35 0 -57.5 24.5t-22.5 63.5q0 12 5 35l126 504q3 12 3 18q0 7 -1.5 10t-13.5 6t-35 3q-22 0 -22 10q0 9 3 13t7 5t13 2l100 9q23 1 23 -9q0 -2 -1.5 -6t-1.5 -7l-142 -567q-8 -35 -8 -54q0 -40 27 -40
q16 0 29 19t19.5 38t15.5 52q2 5 5 15.5t3 11.5q2 6 13 6q13 0 13 -10zM480 881q-2 -17 -25 -26l-179 -97q-9 -4 -14 -3q-4 1 -8 6t-3 11q0 4 11 11l166 120q13 9 26 9q14 0 21 -9t5 -22z" />
    <glyph glyph-name="Lcommaaccent" unicode="&#x13b;" horiz-adv-x="613" 
d="M607 234l-76 -217q-4 -13 -8 -15t-20 -2h-413q-24 0 -24 10q0 13 5.5 16t21.5 3q44 0 56.5 7.5t19.5 35.5l137 551q2 6 2 15q0 16 -53 16h-12.5t-7.5 1t-5 3t-1 6q0 13 5 16t14 3q19 0 58 -1t59 -1t61 1t61 1q16 0 16 -11q0 -12 -6 -15t-21 -3h-7q-55 0 -70 -8.5
t-22 -37.5l-136 -544q-4 -14 -4 -23q0 -8 4.5 -10t25.5 -2h82q44 0 80.5 14t58 32t41 50t27.5 51.5t20 53.5q7 19 10 22.5t11 3.5q13 0 13 -10q0 -3 -3 -12zM317 -104q0 -39 -23 -82.5t-46.5 -68.5t-31.5 -25q-7 0 -7 7q0 2 10 12q64 55 81 137q-12 -12 -29 -12q-12 0 -21 7
t-9 22q0 17 13 30.5t31 13.5q32 0 32 -41z" />
    <glyph glyph-name="lcommaaccent" unicode="&#x13c;" horiz-adv-x="250" 
d="M273 142q0 -2 -4 -19.5t-12 -42t-16 -39.5q-25 -51 -68 -51q-35 0 -57.5 24.5t-22.5 63.5q0 12 5 35l126 504q3 12 3 18q0 7 -1.5 10t-13.5 6t-35 3q-22 0 -22 10q0 9 3 13t7 5t13 2l100 9q23 1 23 -9q0 -2 -1.5 -6t-1.5 -7l-142 -567q-8 -35 -8 -54q0 -40 27 -40
q16 0 29 19t19.5 38t15.5 52q2 5 5 15.5t3 11.5q2 6 13 6q13 0 13 -10zM135 -104q0 -39 -23 -82.5t-46.5 -68.5t-31.5 -25q-7 0 -7 7q0 2 10 12q64 55 81 137q-12 -12 -29 -12q-12 0 -21 7t-9 22q0 17 13 30.5t31 13.5q32 0 32 -41z" />
    <glyph glyph-name="Lcaron" unicode="&#x13d;" horiz-adv-x="613" 
d="M607 234l-76 -217q-4 -13 -8 -15t-20 -2h-413q-24 0 -24 10q0 13 5.5 16t21.5 3q44 0 56.5 7.5t19.5 35.5l137 551q2 6 2 15q0 16 -53 16h-12.5t-7.5 1t-5 3t-1 6q0 13 5 16t14 3q19 0 58 -1t59 -1t61 1t61 1q16 0 16 -11q0 -12 -6 -15t-21 -3h-7q-55 0 -70 -8.5
t-22 -37.5l-136 -544q-4 -14 -4 -23q0 -8 4.5 -10t25.5 -2h82q44 0 80.5 14t58 32t41 50t27.5 51.5t20 53.5q7 19 10 22.5t11 3.5q13 0 13 -10q0 -3 -3 -12zM622 642q0 -39 -23 -82.5t-46.5 -68.5t-31.5 -25q-7 0 -7 7q0 2 10 12q64 55 81 137q-12 -12 -29 -12q-12 0 -21 7
t-9 22q0 17 13 30.5t31 13.5q32 0 32 -41z" />
    <glyph glyph-name="lcaron" unicode="&#x13e;" horiz-adv-x="250" 
d="M273 142q0 -2 -4 -19.5t-12 -42t-16 -39.5q-25 -51 -68 -51q-35 0 -57.5 24.5t-22.5 63.5q0 12 5 35l126 504q3 12 3 18q0 7 -1.5 10t-13.5 6t-35 3q-22 0 -22 10q0 9 3 13t7 5t13 2l100 9q23 1 23 -9q0 -2 -1.5 -6t-1.5 -7l-142 -567q-8 -35 -8 -54q0 -40 27 -40
q16 0 29 19t19.5 38t15.5 52q2 5 5 15.5t3 11.5q2 6 13 6q13 0 13 -10zM403 653q0 -39 -23 -82.5t-46.5 -68.5t-31.5 -25q-7 0 -7 7q0 2 10 12q64 55 81 137q-12 -12 -29 -12q-12 0 -21 7t-9 22q0 17 13 30.5t31 13.5q32 0 32 -41z" />
    <glyph glyph-name="Ldot" unicode="&#x13f;" horiz-adv-x="613" 
d="M607 234l-76 -217q-4 -13 -8 -15t-20 -2h-413q-24 0 -24 10q0 13 5.5 16t21.5 3q44 0 56.5 7.5t19.5 35.5l137 551q2 6 2 15q0 16 -53 16h-12.5t-7.5 1t-5 3t-1 6q0 13 5 16t14 3q19 0 58 -1t59 -1t61 1t61 1q16 0 16 -11q0 -12 -6 -15t-21 -3h-7q-55 0 -70 -8.5
t-22 -37.5l-136 -544q-4 -14 -4 -23q0 -8 4.5 -10t25.5 -2h82q44 0 80.5 14t58 32t41 50t27.5 51.5t20 53.5q7 19 10 22.5t11 3.5q13 0 13 -10q0 -3 -3 -12zM646 415q0 -22 -18 -39.5t-41 -17.5q-16 0 -28 10.5t-12 29.5q0 22 18 39.5t41 17.5q17 0 28.5 -10t11.5 -30z" />
    <glyph glyph-name="ldot" unicode="&#x140;" horiz-adv-x="250" 
d="M273 142q0 -2 -4 -19.5t-12 -42t-16 -39.5q-25 -51 -68 -51q-35 0 -57.5 24.5t-22.5 63.5q0 12 5 35l126 504q3 12 3 18q0 7 -1.5 10t-13.5 6t-35 3q-22 0 -22 10q0 9 3 13t7 5t13 2l100 9q23 1 23 -9q0 -2 -1.5 -6t-1.5 -7l-142 -567q-8 -35 -8 -54q0 -40 27 -40
q16 0 29 19t19.5 38t15.5 52q2 5 5 15.5t3 11.5q2 6 13 6q13 0 13 -10zM367 376q0 -22 -18 -39.5t-41 -17.5q-16 0 -28 10.5t-12 29.5q0 22 18 39.5t41 17.5q17 0 28.5 -10t11.5 -30z" />
    <glyph glyph-name="Lslash" unicode="&#x141;" horiz-adv-x="613" 
d="M607 234l-76 -217q-4 -13 -8 -15t-20 -2h-413q-24 0 -24 10q0 13 5.5 16t21.5 3q44 0 56.5 7.5t19.5 35.5l58 230l-72 -57l-22 25l106 83l67 270q2 12 2 15q0 16 -53 16h-12.5t-7.5 1t-5 3t-1 6q0 13 5 16t14 3q19 0 58 -1t59 -1t61 1t61 1q16 0 16 -11q0 -12 -6 -15
t-21 -3h-7q-55 0 -70 -8.5t-22 -37.5l-44 -178l137 107l20 -26l-170 -134l-79 -313q-4 -14 -4 -23q0 -8 4.5 -10t25.5 -2h82q44 0 80.5 14t58 32t41 50t27.5 51.5t20 53.5q7 19 10 22.5t11 3.5q13 0 13 -10q0 -3 -3 -12z" />
    <glyph glyph-name="lslash" unicode="&#x142;" horiz-adv-x="313" 
d="M317 142q0 -2 -4 -19.5t-12 -42t-16 -39.5q-25 -51 -68 -51q-35 0 -57.5 24.5t-22.5 63.5q0 12 5 35l47 186l-61 -45l-16 20l87 67l69 276q3 12 3 18q0 7 -1.5 10t-13.5 6t-35 3q-22 0 -22 10q0 9 3 13t7 5t13 2l100 9q23 1 23 -9q0 -4 -3 -13l-69 -275l61 44l16 -21
l-87 -65l-63 -250q-8 -35 -8 -54q0 -40 27 -40q16 0 29 19t19.5 38t15.5 52q2 5 5 15.5t3 11.5q2 6 13 6q13 0 13 -10z" />
    <glyph glyph-name="Nacute" unicode="&#x143;" horiz-adv-x="727" 
d="M831 672q0 -18 -15 -18q-23 -1 -38.5 -5t-32.5 -20.5t-24 -45.5l-141 -565q-3 -12 -6 -15t-12 -3q-8 0 -11 2.5t-6 12.5l-208 607l-132 -527q-4 -15 -4 -24q0 -40 58 -42q14 0 14 -10q0 -19 -17 -19q-14 0 -44.5 1t-45.5 1t-44.5 -1t-43.5 -1q-12 0 -12 10q0 19 15 19
q17 1 26 3t25 8t27 21t17 39l137 548q-22 6 -58 6h-12.5t-7.5 1t-5 3t-1 6q0 13 5.5 16t21.5 3h114q16 0 19.5 -2.5t7.5 -13.5l182 -530l112 448q4 24 4 27q0 40 -57 42q-15 0 -15 10q0 9 3.5 13.5t6.5 5t8 0.5q14 0 44.5 -1t45.5 -1t44 1t43 1q13 0 13 -11zM716 870
q-2 -18 -25 -26l-179 -97q-9 -4 -14 -3q-4 1 -8 6t-3 11q0 4 11 11l166 120q13 9 26 9q14 0 21 -9t5 -22z" />
    <glyph glyph-name="nacute" unicode="&#x144;" horiz-adv-x="550" 
d="M573 143q0 -3 -4 -17.5t-13.5 -38t-23 -45t-36 -37t-48.5 -15.5q-31 0 -51.5 21.5t-20.5 56.5q0 19 13 55q61 176 61 231q0 67 -46 67q-27 0 -52.5 -13.5t-42.5 -32.5t-31 -41.5t-21 -38t-9 -24.5l-61 -246q-8 -35 -37 -35q-26 0 -26 24q0 5 4 19l73 292q8 28 8 55
q0 41 -26 41q-38 0 -68 -118q-4 -17 -7 -20.5t-11 -3.5q-14 0 -14 10q13 62 32 99q26 53 70 53q34 0 56 -23t24 -58q59 81 142 81q100 0 100 -102q0 -56 -60 -224q-19 -47 -19 -75q0 -30 23 -30q59 0 92 124q3 12 5.5 15t11.5 3q13 0 13 -9zM556 669q0 -16 -20 -30
l-160 -126q-6 -6 -13 -6q-4 0 -9 4.5t-5 10.5q0 5 9 13l143 147q14 14 28 14q11 0 19 -8t8 -19z" />
    <glyph glyph-name="Ncommaaccent" unicode="&#x145;" horiz-adv-x="727" 
d="M831 672q0 -18 -15 -18q-23 -1 -38.5 -5t-32.5 -20.5t-24 -45.5l-141 -565q-3 -12 -6 -15t-12 -3q-8 0 -11 2.5t-6 12.5l-208 607l-132 -527q-4 -15 -4 -24q0 -40 58 -42q14 0 14 -10q0 -19 -17 -19q-14 0 -44.5 1t-45.5 1t-44.5 -1t-43.5 -1q-12 0 -12 10q0 19 15 19
q17 1 26 3t25 8t27 21t17 39l137 548q-22 6 -58 6h-12.5t-7.5 1t-5 3t-1 6q0 13 5.5 16t21.5 3h114q16 0 19.5 -2.5t7.5 -13.5l182 -530l112 448q4 24 4 27q0 40 -57 42q-15 0 -15 10q0 9 3.5 13.5t6.5 5t8 0.5q14 0 44.5 -1t45.5 -1t44 1t43 1q13 0 13 -11zM373 -104
q0 -39 -23 -82.5t-46.5 -68.5t-31.5 -25q-7 0 -7 7q0 2 10 12q64 55 81 137q-12 -12 -29 -12q-12 0 -21 7t-9 22q0 17 13 30.5t31 13.5q32 0 32 -41z" />
    <glyph glyph-name="ncommaaccent" unicode="&#x146;" horiz-adv-x="550" 
d="M573 143q0 -3 -4 -17.5t-13.5 -38t-23 -45t-36 -37t-48.5 -15.5q-31 0 -51.5 21.5t-20.5 56.5q0 19 13 55q61 176 61 231q0 67 -46 67q-27 0 -52.5 -13.5t-42.5 -32.5t-31 -41.5t-21 -38t-9 -24.5l-61 -246q-8 -35 -37 -35q-26 0 -26 24q0 5 4 19l73 292q8 28 8 55
q0 41 -26 41q-38 0 -68 -118q-4 -17 -7 -20.5t-11 -3.5q-14 0 -14 10q13 62 32 99q26 53 70 53q34 0 56 -23t24 -58q59 81 142 81q100 0 100 -102q0 -56 -60 -224q-19 -47 -19 -75q0 -30 23 -30q59 0 92 124q3 12 5.5 15t11.5 3q13 0 13 -9zM285 -104q0 -39 -23 -82.5
t-46.5 -68.5t-31.5 -25q-7 0 -7 7q0 2 10 12q64 55 81 137q-12 -12 -29 -12q-12 0 -21 7t-9 22q0 17 13 30.5t31 13.5q32 0 32 -41z" />
    <glyph glyph-name="Ncaron" unicode="&#x147;" horiz-adv-x="727" 
d="M831 672q0 -18 -15 -18q-23 -1 -38.5 -5t-32.5 -20.5t-24 -45.5l-141 -565q-3 -12 -6 -15t-12 -3q-8 0 -11 2.5t-6 12.5l-208 607l-132 -527q-4 -15 -4 -24q0 -40 58 -42q14 0 14 -10q0 -19 -17 -19q-14 0 -44.5 1t-45.5 1t-44.5 -1t-43.5 -1q-12 0 -12 10q0 19 15 19
q17 1 26 3t25 8t27 21t17 39l137 548q-22 6 -58 6h-12.5t-7.5 1t-5 3t-1 6q0 13 5.5 16t21.5 3h114q16 0 19.5 -2.5t7.5 -13.5l182 -530l112 448q4 24 4 27q0 40 -57 42q-15 0 -15 10q0 9 3.5 13.5t6.5 5t8 0.5q14 0 44.5 -1t45.5 -1t44 1t43 1q13 0 13 -11zM708 834
l-154 -98q-9 -3 -12 0l-107 98q-5 5 2 13.5t14 4.5l112 -55l140 55q6 2 10 -1t2.5 -8.5t-7.5 -8.5z" />
    <glyph glyph-name="ncaron" unicode="&#x148;" horiz-adv-x="550" 
d="M573 143q0 -3 -4 -17.5t-13.5 -38t-23 -45t-36 -37t-48.5 -15.5q-31 0 -51.5 21.5t-20.5 56.5q0 19 13 55q61 176 61 231q0 67 -46 67q-27 0 -52.5 -13.5t-42.5 -32.5t-31 -41.5t-21 -38t-9 -24.5l-61 -246q-8 -35 -37 -35q-26 0 -26 24q0 5 4 19l73 292q8 28 8 55
q0 41 -26 41q-38 0 -68 -118q-4 -17 -7 -20.5t-11 -3.5q-14 0 -14 10q13 62 32 99q26 53 70 53q34 0 56 -23t24 -58q59 81 142 81q100 0 100 -102q0 -56 -60 -224q-19 -47 -19 -75q0 -30 23 -30q59 0 92 124q3 12 5.5 15t11.5 3q13 0 13 -9zM580 666l-166 -144q-9 -8 -15 0
l-94 144q-6 7 3 14.5t15 1.5l97 -99l149 99q9 6 14 -1t-3 -15z" />
    <glyph glyph-name="Eng" unicode="&#x14a;" horiz-adv-x="727" 
d="M781 342q-17 -70 -44.5 -132.5t-64.5 -115.5t-87 -84t-106 -31q-15 0 -23 11t-4 26t17 26t29 11q15 0 23.5 -11t4.5 -26l-1 -3q34 12 61 43t48 85t32.5 93t28.5 108q19 86 18.5 160t-38 124t-106.5 50q-57 0 -111 -31.5t-93 -84.5l-124 -497q-2 -9 -2 -17q0 -17 57 -17
h12.5t7.5 -1t5 -3t1 -6q0 -13 -5 -16t-14 -3q-18 0 -57 1t-58 1t-56.5 -1t-55.5 -1q-14 0 -14 10q0 13 5.5 16t18.5 3q49 0 62.5 7.5t20.5 35.5l135 540l4 24q0 7 -2 10t-15.5 5.5t-41.5 2.5q-15 0 -19.5 1.5t-4.5 9.5q0 18 19 18q18 0 56.5 -1t57.5 -1q12 0 38 2l-18 -70
q89 91 198 91q86 0 142.5 -52t70 -132.5t-7.5 -177.5z" />
    <glyph glyph-name="eng" unicode="&#x14b;" horiz-adv-x="486" 
d="M507 339q0 -42 -27.5 -123.5t-31.5 -96.5q-13 -50 -20.5 -79t-22 -74.5t-28.5 -72t-33.5 -54.5t-43 -41t-51.5 -13q-13 0 -19.5 8.5t-3.5 21.5q3 12 14 21t24 9q17 0 22 -15q41 47 102 289q7 27 24 74.5t27.5 87t10.5 73.5q0 67 -46 67q-27 0 -52.5 -13.5t-42.5 -32.5
t-31 -41.5t-21 -38t-9 -24.5l-61 -246q-8 -35 -37 -35q-26 0 -26 24q0 5 4 19l73 292q8 28 8 55q0 41 -26 41q-38 0 -68 -118q-4 -17 -7 -20.5t-11 -3.5q-14 0 -14 10q13 62 32 99q26 53 70 53q34 0 56 -23t24 -58q59 81 142 81q100 0 100 -102z" />
    <glyph glyph-name="Omacron" unicode="&#x14c;" horiz-adv-x="750" 
d="M773 446q0 -115 -59 -224t-153 -176t-191 -67q-101 0 -162.5 73t-61.5 183q0 113 58.5 222.5t153 178t192.5 68.5q101 0 162 -73.5t61 -184.5zM695 485q0 94 -42.5 145.5t-108.5 51.5q-51 0 -107.5 -34.5t-104.5 -101.5q-54 -76 -79 -176t-25 -164q0 -92 40 -148t107 -56
q65 0 126 48t102.5 120.5t66.5 156.5t25 158zM729 772q0 -12 -5.5 -15t-20.5 -3h-274q-15 0 -19.5 1.5t-4.5 9.5q0 12 5.5 14.5t20.5 2.5h274q24 0 24 -10z" />
    <glyph glyph-name="omacron" unicode="&#x14d;" 
d="M497 279q0 -109 -78 -199t-170 -90q-58 0 -98.5 42.5t-40.5 119.5q0 110 78 199.5t170 89.5q59 0 99 -43.5t40 -118.5zM433 317q0 45 -20 74.5t-57 29.5q-30 0 -64.5 -24.5t-60.5 -69.5q-23 -40 -40 -107.5t-17 -105.5q0 -49 21.5 -76.5t54.5 -27.5q30 0 64.5 23.5
t62.5 72.5q22 38 39 106.5t17 104.5zM563 606q0 -12 -5.5 -15t-20.5 -3h-274q-15 0 -19.5 1.5t-4.5 9.5q0 12 5.5 14.5t20.5 2.5h274q24 0 24 -10z" />
    <glyph glyph-name="Obreve" unicode="&#x14e;" horiz-adv-x="750" 
d="M773 446q0 -115 -59 -224t-153 -176t-191 -67q-101 0 -162.5 73t-61.5 183q0 113 58.5 222.5t153 178t192.5 68.5q101 0 162 -73.5t61 -184.5zM695 485q0 94 -42.5 145.5t-108.5 51.5q-51 0 -107.5 -34.5t-104.5 -101.5q-54 -76 -79 -176t-25 -164q0 -92 40 -148t107 -56
q65 0 126 48t102.5 120.5t66.5 156.5t25 158zM735 905q0 -12 -12 -37t-32.5 -53.5t-55 -49.5t-72.5 -21q-50 0 -76.5 34.5t-26.5 82.5q0 53 16 53q10 0 10 -9l-2 -15q-3 -14 -3 -21q0 -40 23 -66t62 -26q42 0 84.5 32t62.5 91q4 14 12 14q10 0 10 -9z" />
    <glyph glyph-name="obreve" unicode="&#x14f;" 
d="M497 279q0 -109 -78 -199t-170 -90q-58 0 -98.5 42.5t-40.5 119.5q0 110 78 199.5t170 89.5q59 0 99 -43.5t40 -118.5zM433 317q0 45 -20 74.5t-57 29.5q-30 0 -64.5 -24.5t-60.5 -69.5q-23 -40 -40 -107.5t-17 -105.5q0 -49 21.5 -76.5t54.5 -27.5q30 0 64.5 23.5
t62.5 72.5q22 38 39 106.5t17 104.5zM554 678q0 -12 -12 -37t-32.5 -53.5t-55 -49.5t-72.5 -21q-50 0 -76.5 34.5t-26.5 82.5q0 53 16 53q10 0 10 -9l-3 -14q-2 -15 -2 -22q0 -40 23 -66t62 -26q42 0 84.5 32t62.5 91q4 14 12 14q10 0 10 -9z" />
    <glyph glyph-name="Ohungarumlaut" unicode="&#x150;" horiz-adv-x="750" 
d="M773 446q0 -115 -59 -224t-153 -176t-191 -67q-101 0 -162.5 73t-61.5 183q0 113 58.5 222.5t153 178t192.5 68.5q101 0 162 -73.5t61 -184.5zM695 485q0 94 -42.5 145.5t-108.5 51.5q-51 0 -107.5 -34.5t-104.5 -101.5q-54 -76 -79 -176t-25 -164q0 -92 40 -148t107 -56
q65 0 126 48t102.5 120.5t66.5 156.5t25 158zM603 908q0 -10 -13 -27l-108 -125q-9 -10 -15 -12q-15 3 -15 14q0 4 7 14l83 137q14 24 33 24q15 0 21.5 -8.5t6.5 -16.5zM753 908q0 -10 -13 -27l-108 -125q-9 -10 -15 -12q-15 3 -15 14q0 4 7 14l83 137q14 24 33 24
q15 0 21.5 -8.5t6.5 -16.5z" />
    <glyph glyph-name="ohungarumlaut" unicode="&#x151;" 
d="M497 279q0 -109 -78 -199t-170 -90q-58 0 -98.5 42.5t-40.5 119.5q0 110 78 199.5t170 89.5q59 0 99 -43.5t40 -118.5zM433 317q0 45 -20 74.5t-57 29.5q-30 0 -64.5 -24.5t-60.5 -69.5q-23 -40 -40 -107.5t-17 -105.5q0 -49 21.5 -76.5t54.5 -27.5q30 0 64.5 23.5
t62.5 72.5q22 38 39 106.5t17 104.5zM418 671q0 -10 -13 -27l-108 -125q-9 -10 -15 -12q-15 3 -15 14q0 4 7 14l83 137q14 24 33 24q15 0 21.5 -8.5t6.5 -16.5zM568 671q0 -10 -13 -27l-108 -125q-9 -10 -15 -12q-15 3 -15 14q0 4 7 14l83 137q14 24 33 24q15 0 21.5 -8.5
t6.5 -16.5z" />
    <glyph glyph-name="OE" unicode="&#x152;" horiz-adv-x="963" 
d="M973 246q0 -3 -4 -12l-88 -218q-5 -11 -8.5 -13.5t-18.5 -2.5h-328q-29 0 -72 -10q-49 -11 -73 -11q-98 0 -160 71.5t-62 184.5t59 223t153 178t191 68q22 0 57 -9q49 -12 78 -12h310q17 0 21 -3.5t2 -21.5l-24 -176q-2 -15 -4.5 -18.5t-11.5 -3.5q-13 0 -13 10q0 9 2 17
q5 39 5 70q0 24 -3 37.5t-14 29.5t-37.5 23t-69.5 7h-104q-26 0 -34.5 -5.5t-14.5 -32.5l-61 -247h98q63 0 86.5 20.5t39.5 79.5q3 11 5.5 14t10.5 3q14 0 14 -10q0 -2 -3 -13l-55 -222q-3 -12 -6 -15t-11 -3q-13 0 -13 10q0 2 1 7.5t1 6.5q8 29 8 48q0 25 -16.5 35
t-64.5 10h-103l-69 -279q-4 -14 -4 -20q0 -8 4.5 -10t25.5 -2h105q53 0 89.5 10.5t63 38t43 57.5t38.5 85q2 4 5.5 12.5t6 14t3.5 6.5q3 3 11 3q13 0 13 -10zM531 173l81 325q20 80 20 123q0 11 -1.5 18.5t-7.5 19.5t-22.5 18.5t-42.5 6.5q-72 0 -145 -64.5t-121.5 -173.5
t-48.5 -226q0 -101 39.5 -161t105.5 -60q54 0 85.5 35.5t57.5 138.5z" />
    <glyph glyph-name="oe" unicode="&#x153;" horiz-adv-x="700" 
d="M682 105q0 -6 -14 -23.5t-36.5 -38.5t-58.5 -37t-73 -16q-87 0 -121 101q-73 -103 -155 -103q-52 0 -84 42.5t-32 110.5q0 111 71.5 206.5t153.5 95.5q76 0 104 -90q78 88 170 88q43 0 69.5 -24t26.5 -59q0 -36 -20.5 -61.5t-46 -37.5t-63 -18.5t-55.5 -7.5t-39 -1h-41
q-15 -62 -15 -104q0 -49 19.5 -83.5t58.5 -34.5q37 0 79.5 25t76.5 76q7 9 11 9q5 0 9.5 -5t4.5 -10zM669 359q0 26 -17 44t-46 18q-13 0 -30.5 -5.5t-43.5 -21t-50 -52.5t-38 -90h25q16 0 28 0.5t39 3t47 10t41.5 18.5t33 30.5t11.5 44.5zM391 326q0 50 -17 73.5t-41 23.5
q-31 0 -63 -33t-52 -82q-14 -35 -31 -104t-17 -106q0 -11 2 -23.5t7 -29t17 -27t29 -10.5q37 0 69.5 36.5t53 88.5t32 104.5t11.5 88.5z" />
    <glyph glyph-name="Racute" unicode="&#x154;" horiz-adv-x="713" 
d="M707 92q0 -9 -10 -33.5t-37 -52t-63 -27.5q-47 0 -82 24.5t-35 78.5q0 21 16 85q15 54 15 75q0 36 -21.5 63t-74.5 27h-108l-68 -271l-2 -15q0 -6 2 -9t15 -5.5t39 -2.5q23 0 23 -10q0 -13 -5 -16t-14 -3q-17 0 -54 1t-55 1t-54 -1t-53 -1q-14 0 -14 10q0 13 5.5 16
t21.5 3q44 0 56.5 7.5t19.5 35.5l137 551q2 6 2 15q0 16 -53 16h-12.5t-7.5 1t-5 3t-1 6q0 13 5.5 16t21.5 3h251q89 0 142.5 -42.5t53.5 -104.5q0 -64 -58 -119t-150 -77q86 -34 86 -117l-5 -53q-11 -85 -11 -114q0 -18 1.5 -28t9.5 -19.5t23 -9.5q24 0 44.5 23.5
t32.5 63.5q3 11 5.5 13.5t10.5 2.5q14 0 14 -10zM622 558q0 23 -7 40.5t-22 27.5t-29 16t-36.5 8.5t-35 3t-34.5 0.5q-49 0 -56 -2q-8 -1 -13.5 -7.5t-10.5 -28.5l-66 -264h102q57 0 99 20.5t62 46t31.5 59.5t13.5 50.5t2 29.5zM709 870q-2 -18 -25 -26l-179 -97
q-9 -4 -14 -3q-4 1 -8 6t-3 11q0 4 11 11l166 120q13 9 26 9q14 0 21 -9t5 -22z" />
    <glyph glyph-name="racute" unicode="&#x155;" horiz-adv-x="413" 
d="M481 383q0 -24 -14.5 -36.5t-30.5 -12.5q-31 0 -31 29q0 17 10.5 29t23.5 15q-22 14 -55 14q-29 0 -55 -18.5t-42 -45t-24.5 -45t-10.5 -26.5l-65 -261q-9 -35 -37 -35q-26 0 -26 24q0 5 4 19l73 292q8 28 8 55q0 41 -26 41q-38 0 -68 -118q-4 -17 -7 -20.5t-11 -3.5
q-14 0 -14 10q13 62 32 99q26 53 70 53q26 0 49.5 -17t29.5 -57q53 74 121 74q13 0 27 -2t31 -7.5t27.5 -18t10.5 -30.5zM487 669q0 -16 -20 -30l-160 -126q-6 -6 -13 -6q-4 0 -9 4.5t-5 10.5q0 5 9 13l143 147q14 14 28 14q11 0 19 -8t8 -19z" />
    <glyph glyph-name="Rcommaaccent" unicode="&#x156;" horiz-adv-x="713" 
d="M707 92q0 -9 -10 -33.5t-37 -52t-63 -27.5q-47 0 -82 24.5t-35 78.5q0 21 16 85q15 54 15 75q0 36 -21.5 63t-74.5 27h-108l-68 -271l-2 -15q0 -6 2 -9t15 -5.5t39 -2.5q23 0 23 -10q0 -13 -5 -16t-14 -3q-17 0 -54 1t-55 1t-54 -1t-53 -1q-14 0 -14 10q0 13 5.5 16
t21.5 3q44 0 56.5 7.5t19.5 35.5l137 551q2 6 2 15q0 16 -53 16h-12.5t-7.5 1t-5 3t-1 6q0 13 5.5 16t21.5 3h251q89 0 142.5 -42.5t53.5 -104.5q0 -64 -58 -119t-150 -77q86 -34 86 -117l-5 -53q-11 -85 -11 -114q0 -18 1.5 -28t9.5 -19.5t23 -9.5q24 0 44.5 23.5
t32.5 63.5q3 11 5.5 13.5t10.5 2.5q14 0 14 -10zM622 558q0 23 -7 40.5t-22 27.5t-29 16t-36.5 8.5t-35 3t-34.5 0.5q-49 0 -56 -2q-8 -1 -13.5 -7.5t-10.5 -28.5l-66 -264h102q57 0 99 20.5t62 46t31.5 59.5t13.5 50.5t2 29.5zM367 -104q0 -39 -23 -82.5t-46.5 -68.5
t-31.5 -25q-7 0 -7 7q0 2 10 12q64 55 81 137q-12 -12 -29 -12q-12 0 -21 7t-9 22q0 17 13 30.5t31 13.5q32 0 32 -41z" />
    <glyph glyph-name="rcommaaccent" unicode="&#x157;" horiz-adv-x="413" 
d="M481 383q0 -24 -14.5 -36.5t-30.5 -12.5q-31 0 -31 29q0 17 10.5 29t23.5 15q-22 14 -55 14q-29 0 -55 -18.5t-42 -45t-24.5 -45t-10.5 -26.5l-65 -261q-9 -35 -37 -35q-26 0 -26 24q0 5 4 19l73 292q8 28 8 55q0 41 -26 41q-38 0 -68 -118q-4 -17 -7 -20.5t-11 -3.5
q-14 0 -14 10q13 62 32 99q26 53 70 53q26 0 49.5 -17t29.5 -57q53 74 121 74q13 0 27 -2t31 -7.5t27.5 -18t10.5 -30.5zM160 -104q0 -39 -23 -82.5t-46.5 -68.5t-31.5 -25q-7 0 -7 7q0 2 10 12q64 55 81 137q-12 -12 -29 -12q-12 0 -21 7t-9 22q0 17 13 30.5t31 13.5
q32 0 32 -41z" />
    <glyph glyph-name="Rcaron" unicode="&#x158;" horiz-adv-x="713" 
d="M707 92q0 -9 -10 -33.5t-37 -52t-63 -27.5q-47 0 -82 24.5t-35 78.5q0 21 16 85q15 54 15 75q0 36 -21.5 63t-74.5 27h-108l-68 -271l-2 -15q0 -6 2 -9t15 -5.5t39 -2.5q23 0 23 -10q0 -13 -5 -16t-14 -3q-17 0 -54 1t-55 1t-54 -1t-53 -1q-14 0 -14 10q0 13 5.5 16
t21.5 3q44 0 56.5 7.5t19.5 35.5l137 551q2 6 2 15q0 16 -53 16h-12.5t-7.5 1t-5 3t-1 6q0 13 5.5 16t21.5 3h251q89 0 142.5 -42.5t53.5 -104.5q0 -64 -58 -119t-150 -77q86 -34 86 -117l-5 -53q-11 -85 -11 -114q0 -18 1.5 -28t9.5 -19.5t23 -9.5q24 0 44.5 23.5
t32.5 63.5q3 11 5.5 13.5t10.5 2.5q14 0 14 -10zM622 558q0 23 -7 40.5t-22 27.5t-29 16t-36.5 8.5t-35 3t-34.5 0.5q-49 0 -56 -2q-8 -1 -13.5 -7.5t-10.5 -28.5l-66 -264h102q57 0 99 20.5t62 46t31.5 59.5t13.5 50.5t2 29.5zM701 834l-154 -98q-9 -3 -12 0l-107 98
q-5 5 2 13.5t14 4.5l112 -55l140 55q6 2 10 -1t2.5 -8.5t-7.5 -8.5z" />
    <glyph glyph-name="rcaron" unicode="&#x159;" horiz-adv-x="413" 
d="M481 383q0 -24 -14.5 -36.5t-30.5 -12.5q-31 0 -31 29q0 17 10.5 29t23.5 15q-22 14 -55 14q-29 0 -55 -18.5t-42 -45t-24.5 -45t-10.5 -26.5l-65 -261q-9 -35 -37 -35q-26 0 -26 24q0 5 4 19l73 292q8 28 8 55q0 41 -26 41q-38 0 -68 -118q-4 -17 -7 -20.5t-11 -3.5
q-14 0 -14 10q13 62 32 99q26 53 70 53q26 0 49.5 -17t29.5 -57q53 74 121 74q13 0 27 -2t31 -7.5t27.5 -18t10.5 -30.5zM511 666l-166 -144q-9 -8 -15 0l-94 144q-6 7 3 14.5t15 1.5l97 -99l149 99q9 6 14 -1t-3 -15z" />
    <glyph glyph-name="Sacute" unicode="&#x15a;" horiz-adv-x="550" 
d="M526 237q0 -98 -71.5 -178t-161.5 -80q-103 0 -151 73l-45 -60q-11 -13 -15 -13q-10 0 -10 9q0 5 3 14l52 208q3 12 6 14.5t11 2.5q13 0 13 -9l-1 -8q-8 -32 -8 -61q0 -72 42 -106.5t106 -34.5q66 0 117.5 61.5t51.5 132.5q0 78 -60 98l-61 18q-57 16 -75 24t-33 24
q-38 41 -38 102q0 90 70 163t157 73q92 0 129 -71l45 60q8 11 14 11q10 0 10 -9q0 -5 -3 -14l-52 -208q-3 -12 -6 -14.5t-11 -2.5q-14 0 -14 10q0 3 2 9q4 29 4 59q0 143 -120 143q-63 0 -113 -54t-50 -119q0 -27 7 -45.5t21 -29t24 -14.5t27 -9l97 -29q40 -13 65 -48.5
t25 -91.5zM627 870q-2 -18 -25 -26l-179 -97q-9 -4 -14 -3q-4 1 -8 6t-3 11q0 4 11 11l166 120q13 9 26 9q14 0 21 -9t5 -22z" />
    <glyph glyph-name="sacute" unicode="&#x15b;" horiz-adv-x="400" 
d="M384 155q0 -23 -9.5 -49t-29.5 -53t-58 -45t-87 -18q-54 0 -90 26t-36 70q0 25 11 39.5t19.5 17t16.5 2.5q12 0 21.5 -7.5t9.5 -21.5q0 -2 -0.5 -5t-3 -10.5t-7 -13t-14.5 -10.5t-23 -6q7 -32 35.5 -46.5t61.5 -14.5q38 0 66.5 13.5t42 34t19.5 37.5t6 30q0 57 -76 72
q-61 14 -79 31q-28 31 -28 68q0 14 4.5 31.5t16 38t28 37t44.5 27.5t62 11q47 0 75.5 -24t28.5 -60q0 -25 -11 -38.5t-29 -13.5q-14 0 -20.5 7.5t-6.5 17.5q0 5 1.5 11t11 15.5t25.5 11.5q-5 24 -26 38.5t-51 14.5q-53 0 -78 -32.5t-25 -61.5q0 -21 11.5 -34t22 -17t29.5 -8
q26 -6 40.5 -11t36 -17t32 -33.5t10.5 -51.5zM481 669q0 -16 -20 -30l-160 -126q-6 -6 -13 -6q-4 0 -9 4.5t-5 10.5q0 5 9 13l143 147q14 14 28 14q11 0 19 -8t8 -19z" />
    <glyph glyph-name="Scircumflex" unicode="&#x15c;" horiz-adv-x="550" 
d="M526 237q0 -98 -71.5 -178t-161.5 -80q-103 0 -151 73l-45 -60q-11 -13 -15 -13q-10 0 -10 9q0 5 3 14l52 208q3 12 6 14.5t11 2.5q13 0 13 -9l-1 -8q-8 -32 -8 -61q0 -72 42 -106.5t106 -34.5q66 0 117.5 61.5t51.5 132.5q0 78 -60 98l-61 18q-57 16 -75 24t-33 24
q-38 41 -38 102q0 90 70 163t157 73q92 0 129 -71l45 60q8 11 14 11q10 0 10 -9q0 -5 -3 -14l-52 -208q-3 -12 -6 -14.5t-11 -2.5q-14 0 -14 10q0 3 2 9q4 29 4 59q0 143 -120 143q-63 0 -113 -54t-50 -119q0 -27 7 -45.5t21 -29t24 -14.5t27 -9l97 -29q40 -13 65 -48.5
t25 -91.5zM600 753q3 -4 1.5 -9t-7 -8t-10.5 -1l-111 55l-141 -55q-11 -4 -12 6q1 7 7 12l154 98q9 3 12 0z" />
    <glyph glyph-name="scircumflex" unicode="&#x15d;" horiz-adv-x="400" 
d="M384 155q0 -23 -9.5 -49t-29.5 -53t-58 -45t-87 -18q-54 0 -90 26t-36 70q0 25 11 39.5t19.5 17t16.5 2.5q12 0 21.5 -7.5t9.5 -21.5q0 -2 -0.5 -5t-3 -10.5t-7 -13t-14.5 -10.5t-23 -6q7 -32 35.5 -46.5t61.5 -14.5q38 0 66.5 13.5t42 34t19.5 37.5t6 30q0 57 -76 72
q-61 14 -79 31q-28 31 -28 68q0 14 4.5 31.5t16 38t28 37t44.5 27.5t62 11q47 0 75.5 -24t28.5 -60q0 -25 -11 -38.5t-29 -13.5q-14 0 -20.5 7.5t-6.5 17.5q0 5 1.5 11t11 15.5t25.5 11.5q-5 24 -26 38.5t-51 14.5q-53 0 -78 -32.5t-25 -61.5q0 -21 11.5 -34t22 -17t29.5 -8
q26 -6 40.5 -11t36 -17t32 -33.5t10.5 -51.5zM471 537q6 -7 -3 -14.5t-15 -1.5l-97 99l-149 -99q-9 -6 -14 1t3 15l166 144q9 7 15 0z" />
    <glyph glyph-name="Scedilla" unicode="&#x15e;" horiz-adv-x="550" 
d="M526 237q0 -96 -69 -175t-157 -83q-2 -7 -4.5 -19t-3.5 -15q60 -10 60 -54q0 -29 -20 -47.5t-59 -25.5t-65 -8.5t-70 -1.5q-12 0 -12 10q0 8 6 10q6 1 33 1q127 0 127 62q0 34 -49 39q-12 0 -12 10t10 44q-65 15 -99 68l-45 -60q-11 -13 -15 -13q-10 0 -10 9q0 5 3 14
l52 208q3 12 6 14.5t11 2.5q13 0 13 -9l-1 -8q-8 -32 -8 -61q0 -72 42 -106.5t106 -34.5q66 0 117.5 61.5t51.5 132.5q0 78 -60 98l-61 18q-57 16 -75 24t-33 24q-38 41 -38 102q0 90 70 163t157 73q92 0 129 -71l45 60q8 11 14 11q10 0 10 -9q0 -5 -3 -14l-52 -208
q-3 -12 -6 -14.5t-11 -2.5q-14 0 -14 10q0 3 2 9q4 29 4 59q0 143 -120 143q-63 0 -113 -54t-50 -119q0 -27 7 -45.5t21 -29t24 -14.5t27 -9l97 -29q40 -13 65 -48.5t25 -91.5z" />
    <glyph glyph-name="scedilla" unicode="&#x15f;" horiz-adv-x="400" 
d="M384 155q0 -21 -8 -45t-25 -50t-49 -44.5t-74 -23.5q-2 -8 -6 -25t-5 -22q60 -10 60 -54q0 -29 -20 -47.5t-59 -25.5t-65 -8.5t-70 -1.5q-12 0 -12 10q0 8 6 10q6 1 33 1q127 0 127 62q0 34 -49 39q-12 0 -12 10t12 53q-42 7 -68 31.5t-26 61.5q0 25 11 39.5t19.5 17
t16.5 2.5q12 0 21.5 -7.5t9.5 -21.5q0 -2 -0.5 -5t-3 -10.5t-7 -13t-14.5 -10.5t-23 -6q7 -32 35.5 -46.5t61.5 -14.5q38 0 66.5 13.5t42 34t19.5 37.5t6 30q0 57 -76 72q-61 14 -79 31q-28 31 -28 68q0 14 4.5 31.5t16 38t28 37t44.5 27.5t62 11q47 0 75.5 -24t28.5 -60
q0 -25 -11 -38.5t-29 -13.5q-14 0 -20.5 7.5t-6.5 17.5q0 5 1.5 11t11 15.5t25.5 11.5q-5 24 -26 38.5t-51 14.5q-53 0 -78 -32.5t-25 -61.5q0 -21 11.5 -34t22 -17t29.5 -8q26 -6 40.5 -11t36 -17t32 -33.5t10.5 -51.5z" />
    <glyph glyph-name="Scaron" unicode="&#x160;" horiz-adv-x="550" 
d="M526 237q0 -98 -71.5 -178t-161.5 -80q-103 0 -151 73l-45 -60q-11 -13 -15 -13q-10 0 -10 9q0 5 3 14l52 208q3 12 6 14.5t11 2.5q13 0 13 -9l-1 -8q-8 -32 -8 -61q0 -72 42 -106.5t106 -34.5q66 0 117.5 61.5t51.5 132.5q0 78 -60 98l-61 18q-57 16 -75 24t-33 24
q-38 41 -38 102q0 90 70 163t157 73q92 0 129 -71l45 60q8 11 14 11q10 0 10 -9q0 -5 -3 -14l-52 -208q-3 -12 -6 -14.5t-11 -2.5q-14 0 -14 10q0 3 2 9q4 29 4 59q0 143 -120 143q-63 0 -113 -54t-50 -119q0 -27 7 -45.5t21 -29t24 -14.5t27 -9l97 -29q40 -13 65 -48.5
t25 -91.5zM619 834l-154 -98q-9 -3 -12 0l-107 98q-5 5 2 13.5t14 4.5l112 -55l140 55q6 2 10 -1t2.5 -8.5t-7.5 -8.5z" />
    <glyph glyph-name="scaron" unicode="&#x161;" horiz-adv-x="400" 
d="M384 155q0 -23 -9.5 -49t-29.5 -53t-58 -45t-87 -18q-54 0 -90 26t-36 70q0 25 11 39.5t19.5 17t16.5 2.5q12 0 21.5 -7.5t9.5 -21.5q0 -2 -0.5 -5t-3 -10.5t-7 -13t-14.5 -10.5t-23 -6q7 -32 35.5 -46.5t61.5 -14.5q38 0 66.5 13.5t42 34t19.5 37.5t6 30q0 57 -76 72
q-61 14 -79 31q-28 31 -28 68q0 14 4.5 31.5t16 38t28 37t44.5 27.5t62 11q47 0 75.5 -24t28.5 -60q0 -25 -11 -38.5t-29 -13.5q-14 0 -20.5 7.5t-6.5 17.5q0 5 1.5 11t11 15.5t25.5 11.5q-5 24 -26 38.5t-51 14.5q-53 0 -78 -32.5t-25 -61.5q0 -21 11.5 -34t22 -17t29.5 -8
q26 -6 40.5 -11t36 -17t32 -33.5t10.5 -51.5zM505 666l-166 -144q-9 -8 -15 0l-94 144q-6 7 3 14.5t15 1.5l97 -99l149 99q9 6 14 -1t-3 -15z" />
    <glyph glyph-name="Tcedilla" unicode="&#x162;" horiz-adv-x="700" 
d="M760 474q-2 -13 -4.5 -16t-11.5 -3q-14 0 -14 11l2 11q11 59 11 97q0 48 -28 61.5t-100 13.5q-47 0 -54 -2q-13 -3 -21 -35l-136 -544q-2 -10 -2 -17q0 -11 6 -14t23 -5q24 -3 49 -3h12q15 0 19.5 -1.5t4.5 -9.5q0 -18 -21 -18l-115 2q-8 -38 -13 -57q60 -10 60 -54
q0 -29 -20 -47.5t-59 -25.5t-65 -8.5t-70 -1.5q-12 0 -12 10q0 8 6 10q6 1 33 1q127 0 127 62q0 34 -49 39q-12 0 -12 10q0 3 6 29t9 33l-113 -2q-17 0 -17 10q0 13 5.5 16t21.5 3h12q61 0 78 9t24 38l135 541q4 8 4 21q0 4 -1 6t-6 3.5t-16 1.5h-34q-100 0 -135 -29.5
t-73 -143.5q-6 -15 -8.5 -18t-10.5 -3q-13 0 -13 10q0 4 3 13l61 184q4 12 8 14t20 2h502q14 0 19 -1.5t5 -9.5q0 -2 -2 -12z" />
    <glyph glyph-name="tcedilla" unicode="&#x163;" horiz-adv-x="325" 
d="M348 143q0 -6 -12.5 -35t-42.5 -66.5t-66 -47.5q-2 -9 -6.5 -27.5t-5.5 -21.5q60 -10 60 -54q0 -29 -20 -47.5t-59 -25.5t-65 -8.5t-70 -1.5q-12 0 -12 10q0 8 6 10q6 1 33 1q127 0 127 62q0 34 -49 39q-12 0 -12 10q0 4 13 56q-49 19 -49 82q0 16 5 36l72 288h-81
q-24 0 -24 10q0 13 5.5 16t21.5 3h85l39 157q10 37 38 37q13 0 19.5 -8t6.5 -16q-1 -11 -2 -13l-40 -157h79q14 0 19 -1.5t5 -9.5q0 -12 -6 -15t-21 -3h-83l-75 -299q-8 -30 -8 -53q0 -40 29 -40q66 0 116 129q4 9 6.5 11t10.5 2q13 0 13 -9z" />
    <glyph glyph-name="Tcaron" unicode="&#x164;" horiz-adv-x="700" 
d="M760 474q-2 -13 -4.5 -16t-11.5 -3q-14 0 -14 11l2 11q11 59 11 97q0 48 -28 61.5t-100 13.5q-47 0 -54 -2q-13 -3 -21 -35l-136 -544q-2 -10 -2 -17q0 -11 6 -14t23 -5q24 -3 49 -3h12q15 0 19.5 -1.5t4.5 -9.5q0 -18 -21 -18l-145 2l-142 -2q-17 0 -17 10q0 13 5.5 16
t21.5 3h12q61 0 78 9t24 38l135 541q4 8 4 21q0 4 -1 6t-6 3.5t-16 1.5h-34q-100 0 -135 -29.5t-73 -143.5q-6 -15 -8.5 -18t-10.5 -3q-13 0 -13 10q0 4 3 13l61 184q4 12 8 14t20 2h502q14 0 19 -1.5t5 -9.5q0 -2 -2 -12zM694 834l-154 -98q-9 -3 -12 0l-107 98
q-5 5 2 13.5t14 4.5l112 -55l140 55q6 2 10 -1t2.5 -8.5t-7.5 -8.5z" />
    <glyph glyph-name="tcaron" unicode="&#x165;" horiz-adv-x="325" 
d="M348 143q0 -8 -15.5 -42t-52 -72.5t-80.5 -38.5q-39 0 -60.5 25.5t-21.5 62.5q0 16 5 36l72 288h-81q-24 0 -24 10q0 13 5.5 16t21.5 3h85l39 157q10 37 38 37q13 0 19.5 -8t6.5 -16q-1 -11 -2 -13l-40 -157h79q14 0 19 -1.5t5 -9.5q0 -12 -6 -15t-21 -3h-83l-75 -299
q-8 -30 -8 -53q0 -40 29 -40q66 0 116 129q4 9 6.5 11t10.5 2q13 0 13 -9zM425 640q0 -39 -23 -82.5t-46.5 -68.5t-31.5 -25q-7 0 -7 7q0 2 10 12q64 55 81 137q-12 -12 -29 -12q-12 0 -21 7t-9 22q0 17 13 30.5t31 13.5q32 0 32 -41z" />
    <glyph glyph-name="Utilde" unicode="&#x168;" horiz-adv-x="727" 
d="M831 672q0 -18 -15 -18q-23 -1 -38.5 -5t-32.5 -20.5t-24 -45.5l-90 -362q-23 -93 -98 -167.5t-162 -74.5q-71 0 -121 49.5t-50 134.5q0 34 8 66l98 394q2 6 2 15q0 16 -53 16h-12.5t-7.5 1t-5 3t-1 6q0 13 5 16t14 3q18 0 55 -1t56 -1q18 0 54.5 1t53.5 1q14 0 14 -11
q0 -12 -5.5 -15t-20.5 -3q-45 0 -57.5 -7.5t-19.5 -34.5l-100 -401q-10 -37 -10 -77q0 -61 30.5 -93.5t76.5 -32.5q74 0 141 65.5t89 153.5l89 358q4 12 4 27q0 40 -57 42q-15 0 -15 10q0 9 3.5 13.5t6.5 5t8 0.5q29 -2 88 -2q14 0 43.5 1t42.5 1t13 -11zM739 821
q0 -10 -47 -48.5t-77 -38.5q-25 0 -48 34q-11 18 -18 24t-17 6q-26 0 -82 -50q-13 -13 -19 -13q-9 0 -9 9q0 5 21 25.5t52 41t51 20.5q28 0 49 -37q17 -27 33 -27q14 0 34.5 12.5t34.5 25.5l14 13q12 12 18 12q10 -1 10 -9z" />
    <glyph glyph-name="utilde" unicode="&#x169;" horiz-adv-x="525" 
d="M548 143q0 -2 -3.5 -17.5t-10.5 -38.5t-15 -39q-26 -58 -72 -58q-27 0 -48 15.5t-29 44.5q-48 -60 -109 -60q-44 0 -76 26.5t-32 87.5q0 54 45 179q31 86 31 109q0 29 -23 29q-59 0 -92 -125q-3 -11 -5.5 -14t-11.5 -3q-14 0 -14 9t11 42.5t42 72t72 38.5q35 0 54 -23
t19 -55q0 -19 -13 -56q-58 -161 -58 -219q0 -78 54 -78q33 0 60 21.5t43 55.5l2 16l72 289q8 39 39 39q10 0 17.5 -6.5t7.5 -17.5q0 -6 -4 -20l-71 -284q-8 -30 -8 -53q0 -40 27 -40q39 0 67 118q4 17 7 20.5t12 3.5q13 0 13 -9zM572 640q0 -10 -47 -48.5t-77 -38.5
q-25 0 -48 34q-11 18 -18 24t-17 6q-26 0 -82 -50q-13 -13 -19 -13q-9 0 -9 9q0 5 21 25.5t52 41t51 20.5q28 0 49 -37q17 -27 33 -27q14 0 34.5 13t34.5 25l14 13q12 12 18 12q10 -1 10 -9z" />
    <glyph glyph-name="Umacron" unicode="&#x16a;" horiz-adv-x="727" 
d="M831 672q0 -18 -15 -18q-23 -1 -38.5 -5t-32.5 -20.5t-24 -45.5l-90 -362q-23 -93 -98 -167.5t-162 -74.5q-71 0 -121 49.5t-50 134.5q0 34 8 66l98 394q2 6 2 15q0 16 -53 16h-12.5t-7.5 1t-5 3t-1 6q0 13 5 16t14 3q18 0 55 -1t56 -1q18 0 54.5 1t53.5 1q14 0 14 -11
q0 -12 -5.5 -15t-20.5 -3q-45 0 -57.5 -7.5t-19.5 -34.5l-100 -401q-10 -37 -10 -77q0 -61 30.5 -93.5t76.5 -32.5q74 0 141 65.5t89 153.5l89 358q4 12 4 27q0 40 -57 42q-15 0 -15 10q0 9 3.5 13.5t6.5 5t8 0.5q29 -2 88 -2q14 0 43.5 1t42.5 1t13 -11zM739 772
q0 -12 -5.5 -15t-20.5 -3h-274q-15 0 -19.5 1.5t-4.5 9.5q0 12 5.5 14.5t20.5 2.5h274q24 0 24 -10z" />
    <glyph glyph-name="umacron" unicode="&#x16b;" horiz-adv-x="525" 
d="M548 143q0 -2 -3.5 -17.5t-10.5 -38.5t-15 -39q-26 -58 -72 -58q-27 0 -48 15.5t-29 44.5q-48 -60 -109 -60q-44 0 -76 26.5t-32 87.5q0 54 45 179q31 86 31 109q0 29 -23 29q-59 0 -92 -125q-3 -11 -5.5 -14t-11.5 -3q-14 0 -14 9t11 42.5t42 72t72 38.5q35 0 54 -23
t19 -55q0 -19 -13 -56q-58 -161 -58 -219q0 -78 54 -78q33 0 60 21.5t43 55.5l2 16l72 289q8 39 39 39q10 0 17.5 -6.5t7.5 -17.5q0 -6 -4 -20l-71 -284q-8 -30 -8 -53q0 -40 27 -40q39 0 67 118q4 17 7 20.5t12 3.5q13 0 13 -9zM576 606q0 -12 -5 -15t-21 -3h-274
q-14 0 -19 1.5t-5 9.5q0 12 5.5 14.5t20.5 2.5h274q24 0 24 -10z" />
    <glyph glyph-name="Ubreve" unicode="&#x16c;" horiz-adv-x="727" 
d="M831 672q0 -18 -15 -18q-23 -1 -38.5 -5t-32.5 -20.5t-24 -45.5l-90 -362q-23 -93 -98 -167.5t-162 -74.5q-71 0 -121 49.5t-50 134.5q0 34 8 66l98 394q2 6 2 15q0 16 -53 16h-12.5t-7.5 1t-5 3t-1 6q0 13 5 16t14 3q18 0 55 -1t56 -1q18 0 54.5 1t53.5 1q14 0 14 -11
q0 -12 -5.5 -15t-20.5 -3q-45 0 -57.5 -7.5t-19.5 -34.5l-100 -401q-10 -37 -10 -77q0 -61 30.5 -93.5t76.5 -32.5q74 0 141 65.5t89 153.5l89 358q4 12 4 27q0 40 -57 42q-15 0 -15 10q0 9 3.5 13.5t6.5 5t8 0.5q29 -2 88 -2q14 0 43.5 1t42.5 1t13 -11zM745 905
q0 -12 -12 -37t-32.5 -53.5t-55 -49.5t-72.5 -21q-50 0 -76.5 34.5t-26.5 82.5q0 53 16 53q10 0 10 -9l-2 -15q-3 -14 -3 -21q0 -40 23 -66t62 -26q42 0 84.5 32t62.5 91q4 14 12 14q10 0 10 -9z" />
    <glyph glyph-name="ubreve" unicode="&#x16d;" horiz-adv-x="525" 
d="M548 143q0 -2 -3.5 -17.5t-10.5 -38.5t-15 -39q-26 -58 -72 -58q-27 0 -48 15.5t-29 44.5q-48 -60 -109 -60q-44 0 -76 26.5t-32 87.5q0 54 45 179q31 86 31 109q0 29 -23 29q-59 0 -92 -125q-3 -11 -5.5 -14t-11.5 -3q-14 0 -14 9t11 42.5t42 72t72 38.5q35 0 54 -23
t19 -55q0 -19 -13 -56q-58 -161 -58 -219q0 -78 54 -78q33 0 60 21.5t43 55.5l2 16l72 289q8 39 39 39q10 0 17.5 -6.5t7.5 -17.5q0 -6 -4 -20l-71 -284q-8 -30 -8 -53q0 -40 27 -40q39 0 67 118q4 17 7 20.5t12 3.5q13 0 13 -9zM567 678q0 -12 -12 -37t-32.5 -53.5
t-55 -49.5t-72.5 -21q-50 0 -76.5 34.5t-26.5 82.5q0 53 16 53q10 0 10 -9l-2 -14q-3 -15 -3 -22q0 -40 23 -66t62 -26q42 0 84.5 32t62.5 91q4 14 12 14q10 0 10 -9z" />
    <glyph glyph-name="Uring" unicode="&#x16e;" horiz-adv-x="727" 
d="M831 672q0 -18 -15 -18q-23 -1 -38.5 -5t-32.5 -20.5t-24 -45.5l-90 -362q-23 -93 -98 -167.5t-162 -74.5q-71 0 -121 49.5t-50 134.5q0 34 8 66l98 394q2 6 2 15q0 16 -53 16h-12.5t-7.5 1t-5 3t-1 6q0 13 5 16t14 3q18 0 55 -1t56 -1q18 0 54.5 1t53.5 1q14 0 14 -11
q0 -12 -5.5 -15t-20.5 -3q-45 0 -57.5 -7.5t-19.5 -34.5l-100 -401q-10 -37 -10 -77q0 -61 30.5 -93.5t76.5 -32.5q74 0 141 65.5t89 153.5l89 358q4 12 4 27q0 40 -57 42q-15 0 -15 10q0 9 3.5 13.5t6.5 5t8 0.5q29 -2 88 -2q14 0 43.5 1t42.5 1t13 -11zM645 825
q0 37 -44 37q-32 0 -50.5 -21t-20.5 -41l-3 -21q0 -37 45 -37q38 0 55.5 30t17.5 53zM678 823q-1 -42 -36 -75.5t-77 -33.5q-33 0 -52 19.5t-19 47.5q0 41 35.5 75t78.5 34q33 0 51.5 -19t18.5 -48z" />
    <glyph glyph-name="uring" unicode="&#x16f;" horiz-adv-x="525" 
d="M548 143q0 -2 -3.5 -17.5t-10.5 -38.5t-15 -39q-26 -58 -72 -58q-27 0 -48 15.5t-29 44.5q-48 -60 -109 -60q-44 0 -76 26.5t-32 87.5q0 54 45 179q31 86 31 109q0 29 -23 29q-59 0 -92 -125q-3 -11 -5.5 -14t-11.5 -3q-14 0 -14 9t11 42.5t42 72t72 38.5q35 0 54 -23
t19 -55q0 -19 -13 -56q-58 -161 -58 -219q0 -78 54 -78q33 0 60 21.5t43 55.5l2 16l72 289q8 39 39 39q10 0 17.5 -6.5t7.5 -17.5q0 -6 -4 -20l-71 -284q-8 -30 -8 -53q0 -40 27 -40q39 0 67 118q4 17 7 20.5t12 3.5q13 0 13 -9zM475 638q0 37 -44 37q-32 0 -50.5 -20.5
t-20.5 -41.5l-3 -21q0 -37 45 -37q38 0 55.5 30t17.5 53zM508 636q-1 -42 -36 -75.5t-77 -33.5q-33 0 -52 19.5t-19 47.5q0 41 35.5 75t78.5 34q33 0 51.5 -19t18.5 -48z" />
    <glyph glyph-name="Uhungarumlaut" unicode="&#x170;" horiz-adv-x="727" 
d="M831 672q0 -18 -15 -18q-23 -1 -38.5 -5t-32.5 -20.5t-24 -45.5l-90 -362q-23 -93 -98 -167.5t-162 -74.5q-71 0 -121 49.5t-50 134.5q0 34 8 66l98 394q2 6 2 15q0 16 -53 16h-12.5t-7.5 1t-5 3t-1 6q0 13 5 16t14 3q18 0 55 -1t56 -1q18 0 54.5 1t53.5 1q14 0 14 -11
q0 -12 -5.5 -15t-20.5 -3q-45 0 -57.5 -7.5t-19.5 -34.5l-100 -401q-10 -37 -10 -77q0 -61 30.5 -93.5t76.5 -32.5q74 0 141 65.5t89 153.5l89 358q4 12 4 27q0 40 -57 42q-15 0 -15 10q0 9 3.5 13.5t6.5 5t8 0.5q29 -2 88 -2q14 0 43.5 1t42.5 1t13 -11zM613 908
q0 -10 -13 -27l-108 -125q-9 -10 -15 -12q-15 3 -15 14q0 4 7 14l83 137q14 24 33 24q15 0 21.5 -8.5t6.5 -16.5zM763 908q0 -10 -13 -27l-108 -125q-9 -10 -15 -12q-15 3 -15 14q0 4 7 14l83 137q14 24 33 24q15 0 21.5 -8.5t6.5 -16.5z" />
    <glyph glyph-name="uhungarumlaut" unicode="&#x171;" horiz-adv-x="525" 
d="M548 143q0 -2 -3.5 -17.5t-10.5 -38.5t-15 -39q-26 -58 -72 -58q-27 0 -48 15.5t-29 44.5q-48 -60 -109 -60q-44 0 -76 26.5t-32 87.5q0 54 45 179q31 86 31 109q0 29 -23 29q-59 0 -92 -125q-3 -11 -5.5 -14t-11.5 -3q-14 0 -14 9t11 42.5t42 72t72 38.5q35 0 54 -23
t19 -55q0 -19 -13 -56q-58 -161 -58 -219q0 -78 54 -78q33 0 60 21.5t43 55.5l2 16l72 289q8 39 39 39q10 0 17.5 -6.5t7.5 -17.5q0 -6 -4 -20l-71 -284q-8 -30 -8 -53q0 -40 27 -40q39 0 67 118q4 17 7 20.5t12 3.5q13 0 13 -9zM431 671q0 -10 -13 -27l-108 -125
q-9 -10 -15 -12q-15 3 -15 14q0 4 7 14l83 137q14 24 33 24q15 0 21.5 -8.5t6.5 -16.5zM581 671q0 -10 -13 -27l-108 -125q-9 -10 -15 -12q-15 3 -15 14q0 4 7 14l83 137q14 24 33 24q15 0 21.5 -8.5t6.5 -16.5z" />
    <glyph glyph-name="Uogonek" unicode="&#x172;" horiz-adv-x="727" 
d="M831 672q0 -18 -15 -18q-23 -1 -38.5 -5t-32.5 -20.5t-24 -45.5l-90 -362q-23 -93 -98 -167.5t-162 -74.5h-12l-6 -4q-45 -33 -53 -70q-7 -32 17 -50.5t55 -18.5q52 0 89 56q5 8 12.5 5t3.5 -12q-21 -42 -61 -69t-78 -27q-47 0 -73 27t-18 63q10 51 81 105q-56 14 -92 61
t-36 118q0 34 8 66l98 394q2 6 2 15q0 16 -53 16h-12.5t-7.5 1t-5 3t-1 6q0 13 5 16t14 3q18 0 55 -1t56 -1q18 0 54.5 1t53.5 1q14 0 14 -11q0 -12 -5.5 -15t-20.5 -3q-45 0 -57.5 -7.5t-19.5 -34.5l-100 -401q-10 -37 -10 -77q0 -61 30.5 -93.5t76.5 -32.5q74 0 141 65.5
t89 153.5l89 358q4 12 4 27q0 40 -57 42q-15 0 -15 10q0 9 3.5 13.5t6.5 5t8 0.5q29 -2 88 -2q14 0 43.5 1t42.5 1t13 -11z" />
    <glyph glyph-name="uogonek" unicode="&#x173;" horiz-adv-x="525" 
d="M524 -115q-21 -42 -61 -69t-78 -27q-47 0 -73 27t-18 63q13 63 109 124q-24 16 -33 47q-48 -60 -109 -60q-44 0 -76 26.5t-32 87.5q0 54 45 179q31 86 31 109q0 29 -23 29q-59 0 -92 -125q-3 -11 -5.5 -14t-11.5 -3q-14 0 -14 9t11 42.5t42 72t72 38.5q35 0 54 -23
t19 -55q0 -19 -13 -56q-58 -161 -58 -219q0 -78 54 -78q33 0 60 21.5t43 55.5l2 16l72 289q8 39 39 39q10 0 17.5 -6.5t7.5 -17.5q0 -6 -4 -20l-71 -284q-8 -30 -8 -53q0 -40 27 -40q39 0 67 118q4 17 7 20.5t12 3.5q13 0 13 -9q0 -2 -3.5 -17.5t-10.5 -38.5t-15 -39
q-26 -58 -72 -58q-11 0 -21 3q-5 -3 -13 -9t-13 -9q-45 -33 -53 -70q-7 -32 17 -50.5t55 -18.5q52 0 89 56q5 8 12.5 5t3.5 -12z" />
    <glyph glyph-name="Wcircumflex" unicode="&#x174;" horiz-adv-x="977" 
d="M1103 673q0 -17 -16 -19q-59 -5 -99 -80l-312 -579q-9 -16 -23 -16q-11 0 -13 3.5t-3 18.5l-21 509l-279 -513q-6 -12 -10 -15t-13 -3q-11 0 -13 3.5t-3 18.5l-26 621q-1 14 -2.5 19.5t-11 9t-31.5 3.5q-11 0 -15.5 1.5t-4.5 9.5q0 18 17 18q27 -2 94 -2q17 0 50.5 1
t49.5 1q14 0 14 -11q0 -18 -20 -18q-24 0 -38 -4t-19.5 -12t-6.5 -14t0 -17l20 -500l240 442q5 10 5 13l-2 68q-2 14 -10 19t-34 5q-21 0 -21 10q0 19 17 19q24 -2 93 -2q16 0 50 1t51 1q14 0 14 -10q0 -13 -5 -16t-14 -3q-24 0 -39 -4t-20 -12t-6.5 -14t-0.5 -16l21 -501
l259 480q10 20 10 30q0 31 -48 37q-13 0 -13 11q0 18 18 18q14 0 43 -1t43 -1h31.5t20.5 0.5t11.5 1t6.5 0.5h3q11 0 11 -10zM814 753q3 -4 1.5 -9t-7 -8t-10.5 -1l-111 55l-141 -55q-11 -4 -12 6q1 7 7 12l154 98q9 3 12 0z" />
    <glyph glyph-name="wcircumflex" unicode="&#x175;" horiz-adv-x="650" 
d="M627 129q-24 -64 -57 -101.5t-85 -37.5q-86 0 -110 66q-40 -66 -96 -66q-49 0 -87 27t-38 93q0 53 44 173q31 86 31 109q0 29 -23 29q-59 0 -92 -125q-3 -11 -5.5 -14t-11.5 -3q-14 0 -14 9t11 42.5t42 72t72 38.5q35 0 54 -23t19 -55q0 -19 -19 -71q-50 -139 -50 -195
q0 -34 15 -60.5t54 -26.5q35 0 60 39.5t25 58.5q0 28 8 62l55 222q11 39 39 39q10 0 17.5 -6.5t7.5 -17.5q0 -3 -17 -74l-33 -132q-20 -80 -20 -107q0 -84 65 -84q64 0 104 102q13 33 30 94.5t17 88.5q0 49 -26 80q-11 12 -11 24q0 16 14.5 29t29.5 13q38 0 38 -64
q0 -40 -21 -123t-36 -125zM596 537q6 -7 -3 -14.5t-15 -1.5l-97 99l-149 -99q-9 -6 -14 1t3 15l166 144q9 7 15 0z" />
    <glyph glyph-name="Ycircumflex" unicode="&#x176;" horiz-adv-x="727" 
d="M860 673q0 -8 -3 -12t-6 -5t-9 -2q-36 -3 -64 -20t-65 -62l-238 -290q-7 -8 -13 -28q-10 -41 -14.5 -60t-16.5 -65q-19 -76 -19 -83q0 -6 2 -9t14.5 -5.5t38.5 -2.5q24 0 24 -10q0 -13 -5 -16t-14 -3q-17 0 -54 1t-55 1t-54 -1t-53 -1q-14 0 -14 10q0 13 5 16t17 3
q46 1 59 6.5t20 28.5q52 208 52 209q0 2 -1 4.5t-2 6t-1 4.5l-107 335q-6 19 -18.5 25t-45.5 6q-19 0 -19 10q0 9 3.5 13.5t6.5 5t8 0.5q15 0 48.5 -1t49.5 -1q17 0 52 1t52 1q15 0 15 -11q0 -18 -20 -18q-51 0 -51 -24q2 -10 3 -12l98 -308l225 275q25 30 25 47
q0 19 -29 22q-11 0 -11 10q0 19 17 19q13 0 40.5 -1t41.5 -1q12 0 37 1t36 1q12 0 12 -10zM689 753q3 -4 1.5 -9t-7 -8t-10.5 -1l-111 55l-141 -55q-11 -4 -12 6q1 7 7 12l154 98q9 3 12 0z" />
    <glyph glyph-name="ycircumflex" unicode="&#x177;" horiz-adv-x="475" 
d="M404 -3q-19 -77 -80 -139t-135 -62q-39 0 -64.5 23t-25.5 61q0 20 6 33.5t15.5 18.5t15 6.5t10.5 1.5q14 0 22.5 -8.5t8.5 -20.5q0 -2 -0.5 -5t-3 -10.5t-7.5 -13t-15 -10.5t-23 -6q9 -50 62 -50q56 0 103 66q36 52 57 146q-38 -38 -89 -38q-44 0 -76 26.5t-32 87.5
q0 54 45 179q31 86 31 109q0 29 -23 29q-59 0 -92 -125q-3 -11 -5.5 -14t-11.5 -3q-14 0 -14 9t11 42.5t42 72t72 38.5q35 0 54 -23t19 -55q0 -19 -13 -56q-58 -161 -58 -219q0 -78 54 -78q38 0 67.5 29t36.5 58l73 295q11 39 39 39q10 0 17.5 -6.5t7.5 -17.5q0 -6 -4 -20z
M509 537q6 -7 -3 -14.5t-15 -1.5l-97 99l-149 -99q-9 -6 -14 1t3 15l166 144q9 7 15 0z" />
    <glyph glyph-name="Ydieresis" unicode="&#x178;" horiz-adv-x="727" 
d="M860 673q0 -8 -3 -12t-6 -5t-9 -2q-36 -3 -64 -20t-65 -62l-238 -290q-7 -8 -13 -28q-10 -41 -14.5 -60t-16.5 -65q-19 -76 -19 -83q0 -6 2 -9t14.5 -5.5t38.5 -2.5q24 0 24 -10q0 -13 -5 -16t-14 -3q-17 0 -54 1t-55 1t-54 -1t-53 -1q-14 0 -14 10q0 13 5 16t17 3
q46 1 59 6.5t20 28.5q52 208 52 209q0 2 -1 4.5t-2 6t-1 4.5l-107 335q-6 19 -18.5 25t-45.5 6q-19 0 -19 10q0 9 3.5 13.5t6.5 5t8 0.5q15 0 48.5 -1t49.5 -1q17 0 52 1t52 1q15 0 15 -11q0 -18 -20 -18q-51 0 -51 -24q2 -10 3 -12l98 -308l225 275q25 30 25 47
q0 19 -29 22q-11 0 -11 10q0 19 17 19q13 0 40.5 -1t41.5 -1q12 0 37 1t36 1q12 0 12 -10zM507 785q0 -20 -16.5 -35.5t-36.5 -15.5q-14 0 -25 9.5t-11 26.5q0 19 16.5 35t36.5 16q15 0 26 -9t10 -27zM697 785q0 -20 -16.5 -35.5t-36.5 -15.5q-14 0 -25 9.5t-11 26.5
q0 19 16.5 35t36.5 16q15 0 26 -9t10 -27z" />
    <glyph glyph-name="Zacute" unicode="&#x179;" horiz-adv-x="600" 
d="M589 241l-69 -223q-5 -13 -8.5 -15.5t-18.5 -2.5h-393q-22 0 -22 8q0 12 11 26l515 620h-141q-102 0 -150.5 -44t-75.5 -130q-5 -14 -7 -17t-11 -3q-13 0 -13 10q1 6 3 13l55 183q4 12 7.5 14.5t19.5 2.5h379q22 0 22 -8q0 -10 -10 -22l-515 -622h149q59 0 100.5 13.5
t68 43.5t41 61t30.5 81q1 4 4 12t5 13t3 6q3 3 11 3q13 0 13 -10q0 -3 -3 -13zM652 870q-2 -18 -25 -26l-179 -97q-9 -4 -14 -3q-4 1 -8 6t-3 11q0 4 11 11l166 120q13 9 26 9q14 0 21 -9t5 -22z" />
    <glyph glyph-name="zacute" unicode="&#x17a;" horiz-adv-x="400" 
d="M423 140q0 -30 -43.5 -90t-104.5 -60q-21 0 -34 10.5t-28 32.5q-22 32 -45 32q-37 0 -76 -62q-4 -7 -5.5 -9t-4 -3t-7.5 -1q-14 0 -14 8q0 5 13.5 26.5t41 57t58.5 66.5l142 142q25 25 51 56q-30 0 -69 20q-35 15 -51 15q-23 0 -44.5 -13.5t-29.5 -35.5q-3 -8 -5.5 -10
t-10.5 -2q-13 0 -13 9q0 24 33 68t80 44q15 0 27 -7t18.5 -14t16.5 -22q23 -32 44 -32q15 0 28.5 13t33.5 48q5 10 8 12t10 2q13 0 13 -8q0 -16 -57.5 -88t-123.5 -131q-61 -54 -126 -131q7 2 21 2q24 0 56 -16q39 -19 59 -19q28 0 60.5 21.5t48.5 66.5q2 7 4.5 9.5
t10.5 2.5q14 0 14 -10zM481 669q0 -16 -20 -30l-160 -126q-6 -6 -13 -6q-4 0 -9 4.5t-5 10.5q0 5 9 13l143 147q14 14 28 14q11 0 19 -8t8 -19z" />
    <glyph glyph-name="Zdotaccent" unicode="&#x17b;" horiz-adv-x="600" 
d="M589 241l-69 -223q-5 -13 -8.5 -15.5t-18.5 -2.5h-393q-22 0 -22 8q0 12 11 26l515 620h-141q-102 0 -150.5 -44t-75.5 -130q-5 -14 -7 -17t-11 -3q-13 0 -13 10q1 6 3 13l55 183q4 12 7.5 14.5t19.5 2.5h379q22 0 22 -8q0 -10 -10 -22l-515 -622h149q59 0 100.5 13.5
t68 43.5t41 61t30.5 81q1 4 4 12t5 13t3 6q3 3 11 3q13 0 13 -10q0 -3 -3 -13zM551 812q0 -22 -18 -39.5t-41 -17.5q-16 0 -28 10.5t-12 29.5q0 22 18 39.5t41 17.5q17 0 28.5 -10t11.5 -30z" />
    <glyph glyph-name="zdotaccent" unicode="&#x17c;" horiz-adv-x="400" 
d="M423 140q0 -30 -43.5 -90t-104.5 -60q-21 0 -34 10.5t-28 32.5q-22 32 -45 32q-37 0 -76 -62q-4 -7 -5.5 -9t-4 -3t-7.5 -1q-14 0 -14 8q0 5 13.5 26.5t41 57t58.5 66.5l142 142q25 25 51 56q-30 0 -69 20q-35 15 -51 15q-23 0 -44.5 -13.5t-29.5 -35.5q-3 -8 -5.5 -10
t-10.5 -2q-13 0 -13 9q0 24 33 68t80 44q15 0 27 -7t18.5 -14t16.5 -22q23 -32 44 -32q15 0 28.5 13t33.5 48q5 10 8 12t10 2q13 0 13 -8q0 -16 -57.5 -88t-123.5 -131q-61 -54 -126 -131q7 2 21 2q24 0 56 -16q39 -19 59 -19q28 0 60.5 21.5t48.5 66.5q2 7 4.5 9.5
t10.5 2.5q14 0 14 -10zM400 610q0 -22 -18 -39.5t-41 -17.5q-16 0 -28 10.5t-12 29.5q0 22 18 39.5t41 17.5q17 0 28.5 -10t11.5 -30z" />
    <glyph glyph-name="Zcaron" unicode="&#x17d;" horiz-adv-x="600" 
d="M589 241l-69 -223q-5 -13 -8.5 -15.5t-18.5 -2.5h-393q-22 0 -22 8q0 12 11 26l515 620h-141q-102 0 -150.5 -44t-75.5 -130q-5 -14 -7 -17t-11 -3q-13 0 -13 10q1 6 3 13l55 183q4 12 7.5 14.5t19.5 2.5h379q22 0 22 -8q0 -10 -10 -22l-515 -622h149q59 0 100.5 13.5
t68 43.5t41 61t30.5 81q1 4 4 12t5 13t3 6q3 3 11 3q13 0 13 -10q0 -3 -3 -13zM644 834l-154 -98q-9 -3 -12 0l-107 98q-5 5 2 13.5t14 4.5l112 -55l140 55q6 2 10 -1t2.5 -8.5t-7.5 -8.5z" />
    <glyph glyph-name="zcaron" unicode="&#x17e;" horiz-adv-x="400" 
d="M423 140q0 -30 -43.5 -90t-104.5 -60q-21 0 -34 10.5t-28 32.5q-22 32 -45 32q-37 0 -76 -62q-4 -7 -5.5 -9t-4 -3t-7.5 -1q-14 0 -14 8q0 5 13.5 26.5t41 57t58.5 66.5l142 142q25 25 51 56q-30 0 -69 20q-35 15 -51 15q-23 0 -44.5 -13.5t-29.5 -35.5q-3 -8 -5.5 -10
t-10.5 -2q-13 0 -13 9q0 24 33 68t80 44q15 0 27 -7t18.5 -14t16.5 -22q23 -32 44 -32q15 0 28.5 13t33.5 48q5 10 8 12t10 2q13 0 13 -8q0 -16 -57.5 -88t-123.5 -131q-61 -54 -126 -131q7 2 21 2q24 0 56 -16q39 -19 59 -19q28 0 60.5 21.5t48.5 66.5q2 7 4.5 9.5
t10.5 2.5q14 0 14 -10zM505 666l-166 -144q-9 -8 -15 0l-94 144q-6 7 3 14.5t15 1.5l97 -99l149 99q9 6 14 -1t-3 -15z" />
    <glyph glyph-name="longs" unicode="&#x17f;" horiz-adv-x="300" 
d="M446 642q0 -24 -14 -37.5t-32 -13.5q-14 0 -24 8t-7 21q0 1 1 5l1.5 6t2.5 6l3.5 7t4.5 6.5t6.5 6t9 5t11.5 3.5q-7 8 -17.5 13t-17.5 6h-8q-22 0 -34 -24.5t-23 -69.5l-99 -507q-55 -287 -159 -287q-32 0 -55 17t-23 45q0 24 13.5 37.5t32.5 13.5q14 0 24 -8t7 -21
l-1 -4l-1.5 -7.5t-2.5 -7.5t-5 -8l-7 -7t-10 -7t-14 -4q6 -8 16.5 -12.5t18.5 -5.5l7 -1q16 0 28 15.5t16.5 30t12.5 43.5l32 130l71 367h-59h-11t-7 1t-5.5 3t-0.5 6q4 13 8 16t18 3h57l27 109l4 16q4 16 6.5 24t9 26t12 29t16 25.5t21.5 23t26.5 14.5t32.5 6q32 0 56 -17
t24 -45z" />
    <glyph glyph-name="Ereversed" unicode="&#x18e;" horiz-adv-x="663" 
d="M613 10q-5 -10 -29 -10h-464q-15 0 -18 2.5t-1 13.5l21 218l2 12q5 10 18 10q8 0 9 -3v-7t-0.5 -13t-0.5 -13q-5 -50 -3 -86t17 -59.5t47.5 -34.5t87.5 -11h122q22 0 27 2t9 10q3 6 6 20l70 278h-87q-47 0 -66 -10t-31 -34q-9 -18 -18 -54q-1 -6 -2 -9q-5 -10 -19 -10
q-8 0 -9.5 3.5t1.5 13.5l55 222q2 8 5 14q5 10 18 10q9 0 10 -3.5t-2 -13.5q-16 -57 -2.5 -78.5t72.5 -21.5h83l62 248q6 25 0.5 30.5t-30.5 5.5h-125q-83 0 -119.5 -24.5t-62.5 -77.5q-13 -24 -26 -61q-1 -1 -2.5 -5.5t-3 -8.5t-2.5 -6q-5 -11 -19 -11q-9 0 -9.5 4t4.5 17
l65 177q4 13 5 14q5 11 30 11h451q15 0 18.5 -2.5t-1.5 -16.5q-5 -10 -29 -10q-26 0 -40 -3t-17.5 -6t-6.5 -9q-3 -4 -6 -19l-136 -543q-7 -28 1.5 -35.5t52.5 -7.5q16 0 19.5 -2.5t-1.5 -16.5z" />
    <glyph glyph-name="florin" unicode="&#x192;" horiz-adv-x="300" 
d="M446 642q0 -24 -14 -37.5t-32 -13.5q-13 0 -22 7.5t-9 21.5q0 7 2.5 15t12 17.5t25.5 12.5q-15 19 -43 19q-17 0 -29.5 -16t-17 -32.5t-10.5 -45.5l-32 -159h76q15 0 19.5 -1.5t4.5 -9.5q0 -12 -6 -15t-21 -3h-78l-62 -319q-55 -287 -159 -287q-32 0 -55 17t-23 45
q0 24 13.5 37.5t32.5 13.5q13 0 22 -7.5t9 -21.5q0 -37 -41 -45q14 -19 42 -19q17 0 29.5 15.5t17 30t12.5 43.5q17 64 30 130l71 367h-59q-24 0 -24 10q0 13 5.5 16t20.5 3h63l21 109q34 164 128 164q32 0 56 -17t24 -45z" />
    <glyph glyph-name="Ohorn" unicode="&#x1a0;" horiz-adv-x="750" 
d="M758 339q-37 -149 -151 -254q-114 -106 -238 -106q-61 0 -108.5 28.5t-76.5 77.5q-38 64 -38 150q0 50 14 104q37 152 152 258q115 107 238 107q84 0 144 -55q34 3 61 35q-3 -1 -9 -1q-19 0 -29.5 11t-10.5 27q0 23 17.5 41t42.5 18q17 0 27.5 -12t10.5 -30q0 -11 -2 -16
q-8 -34 -32.5 -60t-55.5 -34q13 -16 21 -31q37 -65 37 -150q0 -50 -14 -108zM676 355q19 76 19 131q0 58 -18 101q-17 43 -51.5 69t-80.5 26q-95 0 -180 -95q-79 -86 -116 -232q-21 -88 -21 -149q0 -55 16 -102q16 -45 50 -73.5t81 -28.5q93 0 181 102q83 97 120 251z" />
    <glyph glyph-name="ohorn" unicode="&#x1a1;" 
d="M564 469q-8 -34 -34 -61t-57 -34l1 -1q23 -41 23 -93q0 -32 -9 -67q-24 -92 -93 -158q-70 -65 -146 -65q-78 0 -117 67q-23 43 -23 94q0 33 9 66q24 95 93 158q71 66 146 66q61 0 100 -45q34 4 60 35q-1 0 -4.5 -0.5t-4.5 -0.5q-19 0 -29.5 11t-10.5 27q0 23 17.5 41
t42.5 19q18 0 28 -12t10 -31q0 -11 -2 -16zM417 217q15 60 15 100q0 25 -6 48q-18 56 -70 56t-101 -59q-41 -49 -66 -149q-16 -64 -16 -100q0 -23 7 -47q8 -26 26.5 -41.5t42.5 -15.5q54 0 102 60q41 50 66 148z" />
    <glyph glyph-name="Uhorn" unicode="&#x1af;" horiz-adv-x="727" 
d="M849 719q-10 -40 -44.5 -69.5t-76.5 -33.5l-97 -391q-25 -100 -101 -173q-75 -73 -159 -73q-93 0 -141 75q-30 46 -30 109q0 36 8 67l98 391q3 9 3 17t-4 10q-11 6 -66 6h-1l-2 1q-7 2 -7 8v3l3 10q2 7 9 7h2l115 -2l115 2h1q7 -2 7 -9v-2l-3 -11q-2 -7 -9 -7
q-55 0 -71 -6q-11 -6 -19 -31l-97 -392q-14 -53 -14 -92q0 -37 12 -65q28 -60 94 -60q74 0 140 63q68 66 91 159l90 363q3 11 3 20q0 17 -9 26q-14 15 -54 15l-2 1q-7 2 -7 8v3l2 10q2 7 9 7h3l91 -2l4 2q8 -2 8 -9l-1 -2l-7 -30q41 8 69 42q-3 -1 -10 -1q-19 0 -29.5 11
t-10.5 27q0 23 17 41t42 18q18 0 28.5 -12t10.5 -31q0 -9 -3 -18z" />
    <glyph glyph-name="uhorn" unicode="&#x1b0;" horiz-adv-x="525" 
d="M548 141q-21 -81 -41 -116t-59 -35q-63 0 -78 61q-45 -61 -109 -61q-69 0 -95 50q-13 26 -13 62q0 35 10 72q8 36 50 152q16 42 16 67q0 28 -22 28q-62 0 -97 -136q-2 -6 -7 -6h-12h-2q-6 1 -6 8v2q17 67 49 109.5t76 42.5q33 0 52.5 -22t19.5 -56q0 -24 -8 -43
q-38 -106 -50 -150q-12 -49 -12 -84q0 -22 4 -38q12 -39 48 -39q65 0 105 79q2 14 4 21l73 293q3 13 13 20.5t22 7.5q26 0 26 -23q0 -1 -0.5 -4t-0.5 -5l-2 -5q40 12 62 38q-2 0 -5 -0.5t-4 -0.5q-18 0 -29 11t-11 27q0 22 17.5 40.5t42.5 19.5q17 0 27.5 -12.5t10.5 -31.5
q0 -6 -2 -18q-10 -37 -42.5 -65t-73.5 -36l-65 -259q-8 -35 -8 -58q0 -39 27 -39q23 0 38 31.5t33 104.5q2 7 8 7h12l2 -1q6 -1 6 -8v-2z" />
    <glyph glyph-name="Acaron" unicode="&#x1cd;" horiz-adv-x="727" 
d="M677 18q0 -18 -18 -18q-16 0 -49 1t-50 1t-52 -1t-51 -1q-14 0 -14 10q0 13 5 16t18 3q22 0 35.5 4.5t18 12.5t5.5 13t0 14l-11 161h-232l-73 -129q-17 -30 -17 -43q0 -30 38 -33q14 0 14 -10q0 -9 -3.5 -13.5t-6.5 -5t-8 -0.5q-13 0 -40.5 1t-41.5 1q-13 0 -38.5 -1
t-37.5 -1t-12 10q0 12 4.5 15t14.5 4q37 4 61 22.5t48 60.5l333 584q6 11 10 14.5t14 3.5t12.5 -4t3.5 -20l44 -628q2 -20 11.5 -26.5t44.5 -6.5q11 0 15.5 -1.5t4.5 -9.5zM512 263l-23 333l-190 -333h213zM708 834l-154 -98q-9 -3 -12 0l-107 98q-5 5 2 13.5t14 4.5
l112 -55l140 55q6 2 10 -1t2.5 -8.5t-7.5 -8.5z" />
    <glyph glyph-name="acaron" unicode="&#x1ce;" 
d="M513 143q0 -2 -3.5 -17.5t-10.5 -38.5t-15 -39q-26 -58 -72 -58q-15 0 -29 4.5t-29.5 21.5t-20.5 45q-60 -71 -120 -71q-51 0 -83 42.5t-32 109.5q0 109 71 204t153 95q56 0 80 -59l1 1q1 4 3 10.5t12 17.5t24 11q13 0 19.5 -7.5t6.5 -16.5q0 -5 -3 -16l-70 -279
q-8 -30 -8 -53q0 -40 27 -40q39 0 67 118q4 17 7 20.5t12 3.5q13 0 13 -9zM339 121l47 190l3 14q0 6 -2.5 18.5t-8.5 31.5t-20.5 32.5t-35.5 13.5q-31 0 -62.5 -32t-51.5 -81q-14 -35 -31 -104.5t-17 -103.5q0 -9 1.5 -20t6 -29t17 -29.5t30.5 -11.5q39 0 78.5 42.5
t45.5 68.5zM555 666l-166 -144q-9 -8 -15 0l-94 144q-6 7 3 14.5t15 1.5l97 -99l149 99q9 6 14 -1t-3 -15z" />
    <glyph glyph-name="Icaron" unicode="&#x1cf;" horiz-adv-x="377" 
d="M322 19q0 -13 -5 -16t-14 -3q-18 0 -57 1t-58 1t-56.5 -1t-55.5 -1q-14 0 -14 10q0 13 5.5 16t18.5 3q49 0 62.5 7.5t20.5 35.5l135 540l4 24q0 7 -2 10t-15.5 5.5t-41.5 2.5q-15 0 -19.5 1.5t-4.5 9.5q0 18 19 18q18 0 56.5 -1t57.5 -1q18 0 56 1t57 1q14 0 14 -10
q0 -13 -5.5 -16t-23.5 -3q-44 0 -58 -7.5t-20 -33.5l-137 -550q-2 -9 -2 -17q0 -17 57 -17h12.5t7.5 -1t5 -3t1 -6zM533 834l-154 -98q-9 -3 -12 0l-107 98q-5 5 2 13.5t14 4.5l112 -55l140 55q6 2 10 -1t2.5 -8.5t-7.5 -8.5z" />
    <glyph glyph-name="icaron" unicode="&#x1d0;" horiz-adv-x="300" 
d="M323 143q0 -3 -4 -17.5t-13.5 -38t-23 -45t-35.5 -37t-48 -15.5q-29 0 -50.5 19.5t-21.5 59.5q0 22 8 44l80 217q13 33 13 61q0 30 -22 30q-61 0 -92 -125q-3 -11 -5.5 -14t-11.5 -3q-14 0 -14 9q0 3 4 18t14 38t23.5 44.5t35.5 37t48 15.5q31 0 51.5 -20.5t20.5 -57.5
q0 -20 -11 -51l-59 -162q-32 -87 -32 -111q0 -29 23 -29q59 0 92 124q3 12 5.5 15t11.5 3q13 0 13 -9zM455 666l-166 -144q-9 -8 -15 0l-94 144q-6 7 3 14.5t15 1.5l97 -99l149 99q9 6 14 -1t-3 -15z" />
    <glyph glyph-name="Ocaron" unicode="&#x1d1;" horiz-adv-x="750" 
d="M773 446q0 -115 -59 -224t-153 -176t-191 -67q-101 0 -162.5 73t-61.5 183q0 113 58.5 222.5t153 178t192.5 68.5q101 0 162 -73.5t61 -184.5zM695 485q0 94 -42.5 145.5t-108.5 51.5q-51 0 -107.5 -34.5t-104.5 -101.5q-54 -76 -79 -176t-25 -164q0 -92 40 -148t107 -56
q65 0 126 48t102.5 120.5t66.5 156.5t25 158zM719 834l-154 -98q-9 -3 -12 0l-107 98q-5 5 2 13.5t14 4.5l112 -55l140 55q6 2 10 -1t2.5 -8.5t-7.5 -8.5z" />
    <glyph glyph-name="ocaron" unicode="&#x1d2;" 
d="M497 279q0 -109 -78 -199t-170 -90q-58 0 -98.5 42.5t-40.5 119.5q0 110 78 199.5t170 89.5q59 0 99 -43.5t40 -118.5zM433 317q0 45 -20 74.5t-57 29.5q-30 0 -64.5 -24.5t-60.5 -69.5q-23 -40 -40 -107.5t-17 -105.5q0 -49 21.5 -76.5t54.5 -27.5q30 0 64.5 23.5
t62.5 72.5q22 38 39 106.5t17 104.5zM555 666l-166 -144q-9 -8 -15 0l-94 144q-6 7 3 14.5t15 1.5l97 -99l149 99q9 6 14 -1t-3 -15z" />
    <glyph glyph-name="Ucaron" unicode="&#x1d3;" horiz-adv-x="727" 
d="M831 672q0 -18 -15 -18q-23 -1 -38.5 -5t-32.5 -20.5t-24 -45.5l-90 -362q-23 -93 -98 -167.5t-162 -74.5q-71 0 -121 49.5t-50 134.5q0 34 8 66l98 394q2 6 2 15q0 16 -53 16h-12.5t-7.5 1t-5 3t-1 6q0 13 5 16t14 3q18 0 55 -1t56 -1q18 0 54.5 1t53.5 1q14 0 14 -11
q0 -12 -5.5 -15t-20.5 -3q-45 0 -57.5 -7.5t-19.5 -34.5l-100 -401q-10 -37 -10 -77q0 -61 30.5 -93.5t76.5 -32.5q74 0 141 65.5t89 153.5l89 358q4 12 4 27q0 40 -57 42q-15 0 -15 10q0 9 3.5 13.5t6.5 5t8 0.5q29 -2 88 -2q14 0 43.5 1t42.5 1t13 -11zM729 834l-154 -98
q-9 -3 -12 0l-107 98q-5 5 2 13.5t14 4.5l112 -55l140 55q6 2 10 -1t2.5 -8.5t-7.5 -8.5z" />
    <glyph glyph-name="ucaron" unicode="&#x1d4;" horiz-adv-x="525" 
d="M548 143q0 -2 -3.5 -17.5t-10.5 -38.5t-15 -39q-26 -58 -72 -58q-27 0 -48 15.5t-29 44.5q-48 -60 -109 -60q-44 0 -76 26.5t-32 87.5q0 54 45 179q31 86 31 109q0 29 -23 29q-59 0 -92 -125q-3 -11 -5.5 -14t-11.5 -3q-14 0 -14 9t11 42.5t42 72t72 38.5q35 0 54 -23
t19 -55q0 -19 -13 -56q-58 -161 -58 -219q0 -78 54 -78q33 0 60 21.5t43 55.5l2 16l72 289q8 39 39 39q10 0 17.5 -6.5t7.5 -17.5q0 -6 -4 -20l-71 -284q-8 -30 -8 -53q0 -40 27 -40q39 0 67 118q4 17 7 20.5t12 3.5q13 0 13 -9zM568 666l-166 -144q-9 -8 -15 0l-94 144
q-6 7 3 14.5t15 1.5l97 -99l149 99q9 6 14 -1t-3 -15z" />
    <glyph glyph-name="Udieresisacute" unicode="&#x1d7;" horiz-adv-x="727" 
d="M831 672q0 -18 -15 -18q-23 -1 -38.5 -5t-32.5 -20.5t-24 -45.5l-90 -362q-23 -93 -98 -167.5t-162 -74.5q-71 0 -121 49.5t-50 134.5q0 34 8 66l98 394q2 6 2 15q0 16 -53 16h-12.5t-7.5 1t-5 3t-1 6q0 13 5 16t14 3q18 0 55 -1t56 -1q18 0 54.5 1t53.5 1q14 0 14 -11
q0 -12 -5.5 -15t-20.5 -3q-45 0 -57.5 -7.5t-19.5 -34.5l-100 -401q-10 -37 -10 -77q0 -61 30.5 -93.5t76.5 -32.5q74 0 141 65.5t89 153.5l89 358q4 12 4 27q0 40 -57 42q-15 0 -15 10q0 9 3.5 13.5t6.5 5t8 0.5q29 -2 88 -2q14 0 43.5 1t42.5 1t13 -11zM528 785
q0 -20 -16.5 -35.5t-36.5 -15.5q-14 0 -25 9.5t-11 26.5q0 19 16.5 35t36.5 16q15 0 26 -9t10 -27zM718 785q0 -20 -16.5 -35.5t-36.5 -15.5q-14 0 -25 9.5t-11 26.5q0 19 16.5 35t36.5 16q15 0 26 -9t10 -27zM771 1007q-2 -17 -25 -26l-179 -97q-9 -4 -14 -3q-4 1 -8 6
t-3 11q0 4 11 11l166 120q13 9 26 9q14 0 21 -9t5 -22z" />
    <glyph glyph-name="udieresisacute" unicode="&#x1d8;" horiz-adv-x="525" 
d="M548 143q0 -2 -3.5 -17.5t-10.5 -38.5t-15 -39q-26 -58 -72 -58q-27 0 -48 15.5t-29 44.5q-48 -60 -109 -60q-44 0 -76 26.5t-32 87.5q0 54 45 179q31 86 31 109q0 29 -23 29q-59 0 -92 -125q-3 -11 -5.5 -14t-11.5 -3q-14 0 -14 9t11 42.5t42 72t72 38.5q35 0 54 -23
t19 -55q0 -19 -13 -56q-58 -161 -58 -219q0 -78 54 -78q33 0 60 21.5t43 55.5l2 16l72 289q8 39 39 39q10 0 17.5 -6.5t7.5 -17.5q0 -6 -4 -20l-71 -284q-8 -30 -8 -53q0 -40 27 -40q39 0 67 118q4 17 7 20.5t12 3.5q13 0 13 -9zM378 609q0 -20 -16.5 -35.5t-36.5 -15.5
q-14 0 -25 9.5t-11 26.5q0 19 16.5 35t36.5 16q15 0 25.5 -9t10.5 -27zM538 609q0 -20 -16.5 -35.5t-36.5 -15.5q-14 0 -25 9.5t-11 26.5q0 19 16.5 35t36.5 16q15 0 25.5 -9t10.5 -27zM605 831q-2 -18 -25 -26l-179 -97q-9 -4 -14 -3q-4 1 -8 6t-3 11q0 4 11 11l166 120
q13 9 26 9q14 0 21 -9t5 -22z" />
    </font>
</defs>
</svg>
